G04 --- HEADER BEGIN --- *
G04 #@! TF.GenerationSoftware,LibrePCB,LibrePCB,1.0.0*
G04 #@! TF.CreationDate,2024-04-26T04:51:19*
G04 #@! TF.ProjectId,OSm Thermal,b11a65fa-6c4c-431c-8545-341aca355aaf,v1*
G04 #@! TF.Part,Single*
G04 #@! TF.SameCoordinates*
G04 #@! TF.FileFunction,Legend,Bot*
G04 #@! TF.FilePolarity,Positive*
%FSLAX66Y66*%
%MOMM*%
G01*
G75*
G04 --- HEADER END --- *
G04 --- APERTURE LIST BEGIN --- *
%ADD10O,2.0X1.5*%
%ADD11O,1.787X2.39*%
%AMROUNDEDRECT12*20,1,1.787,-1.095,0.0,1.095,0.0,90.0*20,1,1.587,-1.195,0.0,1.195,0.0,90.0*1,1,0.2,-0.7935,-1.095*1,1,0.2,-0.7935,1.095*1,1,0.2,0.7935,1.095*1,1,0.2,0.7935,-1.095*%
%ADD12ROUNDEDRECT12*%
%ADD13O,2.2X3.0*%
%ADD14C,2.2*%
G04 --- APERTURE LIST END --- *
G04 --- BOARD BEGIN --- *
%LPC*%
D10*
G04 #@! TO.C,K1*
X74700000Y-49700000D03*
X59500000Y-48500000D03*
X74700000Y-56100000D03*
X59500000Y-56100000D03*
G04 #@! TO.C,K2*
X74700000Y-37200000D03*
X59500000Y-36000000D03*
X74700000Y-43600000D03*
X59500000Y-43600000D03*
G04 #@! TO.C,K5*
X103700000Y-44700000D03*
X88500000Y-43500000D03*
X103700000Y-51100000D03*
X88500000Y-51100000D03*
G04 #@! TO.C,K4*
X74700000Y-12200000D03*
X59500000Y-11000000D03*
X74700000Y-18600000D03*
X59500000Y-18600000D03*
G04 #@! TO.C,K6*
X103700000Y-32200000D03*
X88500000Y-31000000D03*
X103700000Y-38600000D03*
X88500000Y-38600000D03*
G04 #@! TO.C,K3*
X74700000Y-24700000D03*
X59500000Y-23500000D03*
X74700000Y-31100000D03*
X59500000Y-31100000D03*
D11*
G04 #@! TO.C,J2*
X24110000Y-6230000D03*
X29190000Y-8770000D03*
X39350000Y-8770000D03*
X26650000Y-6230000D03*
X24110000Y-8770000D03*
X31730000Y-8770000D03*
X26650000Y-8770000D03*
X29190000Y-6230000D03*
X36810000Y-6230000D03*
X34270000Y-8770000D03*
X31730000Y-6230000D03*
D12*
X41890000Y-6230000D03*
D11*
X41890000Y-8770000D03*
X34270000Y-6230000D03*
X39350000Y-6230000D03*
X36810000Y-8770000D03*
D13*
G04 #@! TO.C,J1*
X130000000Y-57500000D03*
X130000000Y-47500000D03*
X130000000Y-37500000D03*
X130000000Y-52500000D03*
X130000000Y-32500000D03*
X130000000Y-17500000D03*
X130000000Y-27500000D03*
X130000000Y-22500000D03*
X130000000Y-62500000D03*
X130000000Y-42500000D03*
D10*
G04 #@! TO.C,K7*
X103700000Y-19700000D03*
X88500000Y-18500000D03*
X103700000Y-26100000D03*
X88500000Y-26100000D03*
G04 #@! TO.C,K8*
X103700000Y-7200000D03*
X88500000Y-6000000D03*
X103700000Y-13600000D03*
X88500000Y-13600000D03*
D14*
G04 #@! TD*
X3500000Y-66500000D03*
X136500000Y-66500000D03*
X3500000Y-3500000D03*
X136500000Y-3500000D03*
G04 --- BOARD END --- *
G04 #@! TF.MD5,a8fa90a7530b4ae96381512d910106d8*
M02*
