G04 --- HEADER BEGIN --- *
G04 #@! TF.GenerationSoftware,LibrePCB,LibrePCB,1.0.0*
G04 #@! TF.CreationDate,2024-05-06T14:58:10*
G04 #@! TF.ProjectId,OSm Thermal,b11a65fa-6c4c-431c-8545-341aca355aaf,v1.7*
G04 #@! TF.Part,Single*
G04 #@! TF.SameCoordinates*
G04 #@! TF.FileFunction,Legend,Top*
G04 #@! TF.FilePolarity,Positive*
%FSLAX66Y66*%
%MOMM*%
G01*
G75*
G04 --- HEADER END --- *
G04 --- APERTURE LIST BEGIN --- *
%ADD10C,0.2*%
%ADD11C,0.25*%
%ADD12C,0.1*%
%ADD13C,0.3*%
%ADD14C,0.6*%
%ADD15C,0.08*%
%ADD16O,2.0X1.5*%
%AMROUNDEDRECT17*20,1,1.1,-0.225,0.0,0.225,0.0,0.0*20,1,0.45,-0.55,0.0,0.55,0.0,0.0*1,1,0.65,-0.225,0.225*1,1,0.65,0.225,0.225*1,1,0.65,0.225,-0.225*1,1,0.65,-0.225,-0.225*%
%ADD17ROUNDEDRECT17*%
%AMROUNDEDRECT18*20,1,2.2,-1.25,0.0,1.25,0.0,0.0*20,1,1.5,-1.6,0.0,1.6,0.0,0.0*1,1,0.7,-1.25,0.75*1,1,0.7,1.25,0.75*1,1,0.7,1.25,-0.75*1,1,0.7,-1.25,-0.75*%
%ADD18ROUNDEDRECT18*%
%AMROUNDEDRECT19*20,1,0.45,-0.2375,0.0,0.2375,0.0,0.0*20,1,0.125,-0.4,0.0,0.4,0.0,0.0*1,1,0.325,-0.2375,0.0625*1,1,0.325,0.2375,0.0625*1,1,0.325,0.2375,-0.0625*1,1,0.325,-0.2375,-0.0625*%
%ADD19ROUNDEDRECT19*%
%AMROUNDEDRECT20*20,1,0.45,-0.2375,0.0,0.2375,0.0,90.0*20,1,0.125,-0.4,0.0,0.4,0.0,90.0*1,1,0.325,-0.0625,-0.2375*1,1,0.325,-0.0625,0.2375*1,1,0.325,0.0625,0.2375*1,1,0.325,0.0625,-0.2375*%
%ADD20ROUNDEDRECT20*%
%AMROUNDEDRECT21*20,1,0.45,-0.2875,0.0,0.2875,0.0,0.0*20,1,0.125,-0.45,0.0,0.45,0.0,0.0*1,1,0.325,-0.2875,0.0625*1,1,0.325,0.2875,0.0625*1,1,0.325,0.2875,-0.0625*1,1,0.325,-0.2875,-0.0625*%
%ADD21ROUNDEDRECT21*%
%AMOUTLINE22*4,1,32,0.125881,-1.196593,0.175881,-1.183196,0.220711,-1.157314,0.257314,-1.120711,0.283196,-1.075881,0.296593,-1.025881,0.3,-1.0,0.3,1.0,0.296593,1.025881,0.283196,1.075881,0.257314,1.120711,0.220711,1.157314,0.175881,1.183196,0.125881,1.196593,0.1,1.2,-0.1,1.2,-0.125881,1.196593,-0.175881,1.183196,-0.220711,1.157314,-0.257314,1.120711,-0.283196,1.075881,-0.296593,1.025881,-0.3,1.0,-0.3,-1.0,-0.296593,-1.025881,-0.283196,-1.075881,-0.257314,-1.120711,-0.220711,-1.157314,-0.175881,-1.183196,-0.125881,-1.196593,-0.1,-1.2,0.1,-1.2,0.125881,-1.196593,180.0*%
%ADD22OUTLINE22*%
%AMROUNDEDRECT23*20,1,0.45,-0.8375,0.0,0.8375,0.0,90.0*20,1,0.125,-1.0,0.0,1.0,0.0,90.0*1,1,0.325,-0.0625,-0.8375*1,1,0.325,-0.0625,0.8375*1,1,0.325,0.0625,0.8375*1,1,0.325,0.0625,-0.8375*%
%ADD23ROUNDEDRECT23*%
%AMROUNDEDRECT24*20,1,0.6,-1.0,0.0,1.0,0.0,90.0*20,1,0.2,-1.2,0.0,1.2,0.0,90.0*1,1,0.4,-0.1,-1.0*1,1,0.4,-0.1,1.0*1,1,0.4,0.1,1.0*1,1,0.4,0.1,-1.0*%
%ADD24ROUNDEDRECT24*%
%AMROUNDEDRECT25*20,1,0.95,-0.625,0.0,0.625,0.0,0.0*20,1,0.75,-0.725,0.0,0.725,0.0,0.0*1,1,0.2,-0.625,0.375*1,1,0.2,0.625,0.375*1,1,0.2,0.625,-0.375*1,1,0.2,-0.625,-0.375*%
%ADD25ROUNDEDRECT25*%
%AMROUNDEDRECT26*20,1,1.25,-0.8,0.0,0.8,0.0,0.0*20,1,1.05,-0.9,0.0,0.9,0.0,0.0*1,1,0.2,-0.8,0.525*1,1,0.2,0.8,0.525*1,1,0.2,0.8,-0.525*1,1,0.2,-0.8,-0.525*%
%ADD26ROUNDEDRECT26*%
%AMROUNDEDRECT27*20,1,0.6,-0.25,0.0,0.25,0.0,90.0*20,1,0.4,-0.35,0.0,0.35,0.0,90.0*1,1,0.2,-0.2,-0.25*1,1,0.2,-0.2,0.25*1,1,0.2,0.2,0.25*1,1,0.2,0.2,-0.25*%
%ADD27ROUNDEDRECT27*%
%AMROUNDEDRECT28*20,1,1.25,-0.8,0.0,0.8,0.0,90.0*20,1,1.05,-0.9,0.0,0.9,0.0,90.0*1,1,0.2,-0.525,-0.8*1,1,0.2,-0.525,0.8*1,1,0.2,0.525,0.8*1,1,0.2,0.525,-0.8*%
%ADD28ROUNDEDRECT28*%
%AMROUNDEDRECT29*20,1,1.25,-1.25,0.0,1.25,0.0,90.0*20,1,1.05,-1.35,0.0,1.35,0.0,90.0*1,1,0.2,-0.525,-1.25*1,1,0.2,-0.525,1.25*1,1,0.2,0.525,1.25*1,1,0.2,0.525,-1.25*%
%ADD29ROUNDEDRECT29*%
%AMROUNDEDRECT30*20,1,0.9,-0.175,0.0,0.175,0.0,0.0*20,1,0.35,-0.45,0.0,0.45,0.0,0.0*1,1,0.55,-0.175,0.175*1,1,0.55,0.175,0.175*1,1,0.55,0.175,-0.175*1,1,0.55,-0.175,-0.175*%
%ADD30ROUNDEDRECT30*%
%AMROUNDEDRECT31*20,1,1.8,-0.652,0.0,0.652,0.0,0.0*20,1,1.104,-1.0,0.0,1.0,0.0,0.0*1,1,0.696,-0.652,0.552*1,1,0.696,0.652,0.552*1,1,0.696,0.652,-0.552*1,1,0.696,-0.652,-0.552*%
%ADD31ROUNDEDRECT31*%
%ADD32O,1.787X2.39*%
%AMROUNDEDRECT33*20,1,1.787,-1.095,0.0,1.095,0.0,90.0*20,1,1.587,-1.195,0.0,1.195,0.0,90.0*1,1,0.2,-0.7935,-1.095*1,1,0.2,-0.7935,1.095*1,1,0.2,0.7935,1.095*1,1,0.2,0.7935,-1.095*%
%ADD33ROUNDEDRECT33*%
%AMROUNDEDRECT34*20,1,0.5,-0.175,0.0,0.175,0.0,90.0*20,1,0.15,-0.35,0.0,0.35,0.0,90.0*1,1,0.35,-0.075,-0.175*1,1,0.35,-0.075,0.175*1,1,0.35,0.075,0.175*1,1,0.35,0.075,-0.175*%
%ADD34ROUNDEDRECT34*%
%ADD35O,2.2X3.0*%
%AMROUNDEDRECT36*20,1,0.6,-0.25,0.0,0.25,0.0,0.0*20,1,0.4,-0.35,0.0,0.35,0.0,0.0*1,1,0.2,-0.25,0.2*1,1,0.2,0.25,0.2*1,1,0.2,0.25,-0.2*1,1,0.2,-0.25,-0.2*%
%ADD36ROUNDEDRECT36*%
%ADD37C,2.95*%
G04 --- APERTURE LIST END --- *
G04 --- BOARD BEGIN --- *
D10*
G04 #@! TO.C,K1*
X58350000Y-47300000D02*
X75850000Y-47300000D01*
X75850000Y-57300000D01*
X58350000Y-57300000D01*
X58350000Y-47300000D01*
G04 #@! TO.C,L1*
X34100000Y-25600000D02*
X34100000Y-31400000D01*
X28900000Y-31400000D01*
X28900000Y-25600000D01*
X34100000Y-25600000D01*
G04 #@! TO.C,U1*
X33000000Y-37500000D02*
X30000000Y-37500000D01*
X30000000Y-34500000D01*
X33000000Y-34500000D01*
X33000000Y-37500000D01*
D11*
G04 #@! TO.C,R2*
X35750000Y-33675000D02*
X35750000Y-34325000D01*
X37250000Y-33675000D02*
X37250000Y-34325000D01*
G04 #@! TO.C,R10*
X82925000Y-18875000D02*
X82925000Y-20125000D01*
X81075000Y-18875000D02*
X81075000Y-20125000D01*
G04 #@! TO.C,C4*
X27875000Y-39575000D02*
X29125000Y-39575000D01*
X27875000Y-41425000D02*
X29125000Y-41425000D01*
G04 #@! TO.C,C7*
X29125000Y-20375000D02*
X27875000Y-20375000D01*
X29125000Y-17625000D02*
X27875000Y-17625000D01*
G04 #@! TO.C,R3*
X35750000Y-37175000D02*
X35750000Y-37825000D01*
X37250000Y-37175000D02*
X37250000Y-37825000D01*
G04 #@! TO.C,R1*
X32075000Y-41125000D02*
X32075000Y-39875000D01*
X33925000Y-41125000D02*
X33925000Y-39875000D01*
G04 #@! TO.C,C3*
X27875000Y-44625000D02*
X29125000Y-44625000D01*
X27875000Y-47375000D02*
X29125000Y-47375000D01*
D10*
G04 #@! TO.C,BR1*
X31950000Y-51400000D02*
X31950000Y-59200000D01*
X23950000Y-59200000D01*
X23950000Y-51400000D01*
X31950000Y-51400000D01*
D11*
G04 #@! TO.C,R5*
X47875000Y-37075000D02*
X49125000Y-37075000D01*
X47875000Y-38925000D02*
X49125000Y-38925000D01*
D10*
G04 #@! TO.C,K2*
X58350000Y-34800000D02*
X75850000Y-34800000D01*
X75850000Y-44800000D01*
X58350000Y-44800000D01*
X58350000Y-34800000D01*
G04 #@! TO.C,K5*
X87350000Y-42300000D02*
X104850000Y-42300000D01*
X104850000Y-52300000D01*
X87350000Y-52300000D01*
X87350000Y-42300000D01*
G04 #@! TO.C,K4*
X58350000Y-9800000D02*
X75850000Y-9800000D01*
X75850000Y-19800000D01*
X58350000Y-19800000D01*
X58350000Y-9800000D01*
D11*
G04 #@! TO.C,C10*
X29125000Y-23875000D02*
X27875000Y-23875000D01*
X29125000Y-21125000D02*
X27875000Y-21125000D01*
D10*
G04 #@! TO.C,K6*
X87350000Y-29800000D02*
X104850000Y-29800000D01*
X104850000Y-39800000D01*
X87350000Y-39800000D01*
X87350000Y-29800000D01*
G04 #@! TO.C,K3*
X58350000Y-22300000D02*
X75850000Y-22300000D01*
X75850000Y-32300000D01*
X58350000Y-32300000D01*
X58350000Y-22300000D01*
D11*
G04 #@! TO.C,J2*
X43285000Y-4835000D02*
X43285000Y-10165000D01*
X22715000Y-10165000D01*
X22715000Y-4835000D01*
X43285000Y-4835000D01*
G04 #@! TO.C,R4*
X47875000Y-49575000D02*
X49125000Y-49575000D01*
X47875000Y-51425000D02*
X49125000Y-51425000D01*
G04 #@! TO.C,R7*
X47875000Y-12075000D02*
X49125000Y-12075000D01*
X47875000Y-13925000D02*
X49125000Y-13925000D01*
G04 #@! TO.C,C6*
X33875000Y-15075000D02*
X35125000Y-15075000D01*
X33875000Y-16925000D02*
X35125000Y-16925000D01*
G04 #@! TO.C,R11*
X82925000Y-6375000D02*
X82925000Y-7625000D01*
X81075000Y-6375000D02*
X81075000Y-7625000D01*
G04 #@! TO.C,R8*
X82925000Y-43875000D02*
X82925000Y-45125000D01*
X81075000Y-43875000D02*
X81075000Y-45125000D01*
D12*
G04 #@! TO.C,U2*
X41250000Y-49750000D02*
X41250000Y-51250000D01*
X39750000Y-51250000D01*
X39750000Y-49750000D01*
X41250000Y-49750000D01*
D10*
G04 #@! TO.C,J1*
X126000000Y-65000000D02*
X126000000Y-15000000D01*
X134000000Y-15000000D01*
X134000000Y-65000000D01*
X126000000Y-65000000D01*
D11*
G04 #@! TO.C,R6*
X47875000Y-24575000D02*
X49125000Y-24575000D01*
X47875000Y-26425000D02*
X49125000Y-26425000D01*
G04 #@! TO.C,R9*
X82925000Y-31375000D02*
X82925000Y-32625000D01*
X81075000Y-31375000D02*
X81075000Y-32625000D01*
G04 #@! TO.C,C9*
X33875000Y-21125000D02*
X35125000Y-21125000D01*
X33875000Y-23875000D02*
X35125000Y-23875000D01*
G04 #@! TO.C,C8*
X33875000Y-17625000D02*
X35125000Y-17625000D01*
X33875000Y-20375000D02*
X35125000Y-20375000D01*
D10*
G04 #@! TO.C,K7*
X87350000Y-17300000D02*
X104850000Y-17300000D01*
X104850000Y-27300000D01*
X87350000Y-27300000D01*
X87350000Y-17300000D01*
G04 #@! TO.C,K8*
X87350000Y-4800000D02*
X104850000Y-4800000D01*
X104850000Y-14800000D01*
X87350000Y-14800000D01*
X87350000Y-4800000D01*
G04 #@! TD*
X112975556Y-4000000D02*
X113357778Y-4000000D01*
X113546667Y-4095556D01*
X113737778Y-4286667D01*
X113833333Y-4666667D01*
X113833333Y-5333333D01*
X113737778Y-5713333D01*
X113546667Y-5904444D01*
X113357778Y-6000000D01*
X112975556Y-6000000D01*
X112786667Y-5904444D01*
X112595556Y-5713333D01*
X112500000Y-5333333D01*
X112500000Y-4666667D01*
X112595556Y-4286667D01*
X112786667Y-4095556D01*
X112975556Y-4000000D01*
X114433333Y-5904444D02*
X114720000Y-6000000D01*
X115195555Y-6000000D01*
X115386666Y-5904444D01*
X115480000Y-5808889D01*
X115575555Y-5620000D01*
X115575555Y-5428889D01*
X115480000Y-5237778D01*
X115386666Y-5142222D01*
X115195555Y-5046667D01*
X114813333Y-4953333D01*
X114624444Y-4857778D01*
X114528889Y-4762222D01*
X114433333Y-4571111D01*
X114433333Y-4380000D01*
X114528889Y-4191111D01*
X114624444Y-4095556D01*
X114813333Y-4000000D01*
X115291111Y-4000000D01*
X115575555Y-4095556D01*
X116175555Y-6000000D02*
X116175555Y-4666667D01*
X116175555Y-4857778D02*
X116271111Y-4762222D01*
X116462222Y-4666667D01*
X116746666Y-4666667D01*
X116937777Y-4762222D01*
X117033333Y-4953333D01*
X117033333Y-6000000D01*
X117033333Y-4953333D02*
X117128888Y-4762222D01*
X117317777Y-4666667D01*
X117604444Y-4666667D01*
X117795555Y-4762222D01*
X117888888Y-4953333D01*
X117888888Y-6000000D01*
X119888887Y-4000000D02*
X121031109Y-4000000D01*
X120459998Y-6000000D02*
X120459998Y-4000000D01*
X121631109Y-6000000D02*
X121631109Y-4000000D01*
X122488887Y-6000000D02*
X122488887Y-4953333D01*
X122393331Y-4762222D01*
X122202220Y-4666667D01*
X121917776Y-4666667D01*
X121726665Y-4762222D01*
X121631109Y-4857778D01*
X123946665Y-5904444D02*
X123755554Y-6000000D01*
X123375554Y-6000000D01*
X123184443Y-5904444D01*
X123088887Y-5713333D01*
X123088887Y-4953333D01*
X123184443Y-4762222D01*
X123375554Y-4666667D01*
X123755554Y-4666667D01*
X123946665Y-4762222D01*
X124042220Y-4953333D01*
X124042220Y-5142222D01*
X123088887Y-5333333D01*
X124642220Y-6000000D02*
X124642220Y-4666667D01*
X124642220Y-5046667D02*
X124737776Y-4857778D01*
X124833331Y-4762222D01*
X125022220Y-4666667D01*
X125213331Y-4666667D01*
X125813331Y-6000000D02*
X125813331Y-4666667D01*
X125813331Y-4857778D02*
X125908887Y-4762222D01*
X126099998Y-4666667D01*
X126384442Y-4666667D01*
X126575553Y-4762222D01*
X126671109Y-4953333D01*
X126671109Y-6000000D01*
X126671109Y-4953333D02*
X126766664Y-4762222D01*
X126955553Y-4666667D01*
X127242220Y-4666667D01*
X127433331Y-4762222D01*
X127526664Y-4953333D01*
X127526664Y-6000000D01*
X129079997Y-6000000D02*
X129079997Y-4953333D01*
X128984442Y-4762222D01*
X128793331Y-4666667D01*
X128413331Y-4666667D01*
X128222220Y-4762222D01*
X129079997Y-5904444D02*
X128888886Y-6000000D01*
X128413331Y-6000000D01*
X128222220Y-5904444D01*
X128126664Y-5713333D01*
X128126664Y-5524444D01*
X128222220Y-5333333D01*
X128413331Y-5237778D01*
X128888886Y-5237778D01*
X129079997Y-5142222D01*
X129966664Y-6000000D02*
X129775553Y-5904444D01*
X129679997Y-5713333D01*
X129679997Y-4000000D01*
G04 #@! TO.C,K1*
X66128889Y-49700000D02*
X66128889Y-48700000D01*
X66700000Y-49700000D02*
X66272222Y-49128889D01*
X66700000Y-48700000D02*
X66128889Y-49271111D01*
X67671111Y-49700000D02*
X67100000Y-49700000D01*
X67385556Y-49700000D02*
X67385556Y-48700000D01*
X67290000Y-48843333D01*
X67195556Y-48937778D01*
X67100000Y-48985556D01*
D12*
G04 #@! TO.C,D6*
X83000000Y-47885556D02*
X82500000Y-47885556D01*
X82500000Y-47766667D01*
X82523889Y-47695000D01*
X82571667Y-47647223D01*
X82618889Y-47623889D01*
X82714444Y-47600000D01*
X82785556Y-47600000D01*
X82881111Y-47623889D01*
X82928333Y-47647223D01*
X82976111Y-47695000D01*
X83000000Y-47766667D01*
X83000000Y-47885556D01*
X82500000Y-47161667D02*
X82500000Y-47257222D01*
X82523889Y-47305000D01*
X82547778Y-47328333D01*
X82618889Y-47376111D01*
X82714444Y-47400000D01*
X82905000Y-47400000D01*
X82952222Y-47376111D01*
X82976111Y-47352222D01*
X83000000Y-47305000D01*
X83000000Y-47209444D01*
X82976111Y-47161667D01*
X82952222Y-47138333D01*
X82905000Y-47114444D01*
X82785556Y-47114444D01*
X82738333Y-47138333D01*
X82714444Y-47161667D01*
X82690556Y-47209444D01*
X82690556Y-47305000D01*
X82714444Y-47352222D01*
X82738333Y-47376111D01*
X82785556Y-47400000D01*
D10*
G04 #@! TO.C,L1*
X36500000Y-28747222D02*
X36500000Y-29223889D01*
X35500000Y-29223889D01*
X36500000Y-27776111D02*
X36500000Y-28347222D01*
X36500000Y-28061666D02*
X35500000Y-28061666D01*
X35643333Y-28157222D01*
X35737778Y-28251666D01*
X35785556Y-28347222D01*
D12*
G04 #@! TO.C,D7*
X83000000Y-35409444D02*
X82500000Y-35409444D01*
X82500000Y-35290555D01*
X82523889Y-35218888D01*
X82571667Y-35171111D01*
X82618889Y-35147777D01*
X82714444Y-35123888D01*
X82785556Y-35123888D01*
X82881111Y-35147777D01*
X82928333Y-35171111D01*
X82976111Y-35218888D01*
X83000000Y-35290555D01*
X83000000Y-35409444D01*
X82500000Y-34923888D02*
X82500000Y-34590555D01*
X83000000Y-34804999D01*
G04 #@! TO.C,D9*
X83000000Y-10385556D02*
X82500000Y-10385556D01*
X82500000Y-10266667D01*
X82523889Y-10195000D01*
X82571667Y-10147223D01*
X82618889Y-10123889D01*
X82714444Y-10100000D01*
X82785556Y-10100000D01*
X82881111Y-10123889D01*
X82928333Y-10147223D01*
X82976111Y-10195000D01*
X83000000Y-10266667D01*
X83000000Y-10385556D01*
X83000000Y-9852222D02*
X83000000Y-9757222D01*
X82976111Y-9709444D01*
X82952222Y-9685556D01*
X82881111Y-9638333D01*
X82785556Y-9614444D01*
X82595000Y-9614444D01*
X82547778Y-9638333D01*
X82523889Y-9661667D01*
X82500000Y-9709444D01*
X82500000Y-9805000D01*
X82523889Y-9852222D01*
X82547778Y-9876111D01*
X82595000Y-9900000D01*
X82714444Y-9900000D01*
X82761667Y-9876111D01*
X82785556Y-9852222D01*
X82809444Y-9805000D01*
X82809444Y-9709444D01*
X82785556Y-9661667D01*
X82761667Y-9638333D01*
X82714444Y-9614444D01*
G04 #@! TO.C,U1*
X31114444Y-38200000D02*
X31114444Y-38605000D01*
X31138333Y-38652222D01*
X31162222Y-38676111D01*
X31209444Y-38700000D01*
X31305000Y-38700000D01*
X31352777Y-38676111D01*
X31376111Y-38652222D01*
X31400000Y-38605000D01*
X31400000Y-38200000D01*
X31885556Y-38700000D02*
X31600000Y-38700000D01*
X31742778Y-38700000D02*
X31742778Y-38200000D01*
X31695000Y-38271667D01*
X31647778Y-38318889D01*
X31600000Y-38342778D01*
D10*
G04 #@! TO.C,R10*
X84600000Y-20185555D02*
X84123333Y-20518888D01*
X84600000Y-20756666D02*
X83600000Y-20756666D01*
X83600000Y-20375555D01*
X83647778Y-20279999D01*
X83695556Y-20233333D01*
X83790000Y-20185555D01*
X83933333Y-20185555D01*
X84028889Y-20233333D01*
X84076667Y-20279999D01*
X84123333Y-20375555D01*
X84123333Y-20756666D01*
X84600000Y-19214444D02*
X84600000Y-19785555D01*
X84600000Y-19499999D02*
X83600000Y-19499999D01*
X83743333Y-19595555D01*
X83837778Y-19689999D01*
X83885556Y-19785555D01*
X83600000Y-18576666D02*
X83600000Y-18481111D01*
X83647778Y-18385555D01*
X83695556Y-18337777D01*
X83790000Y-18291111D01*
X83981111Y-18243333D01*
X84218889Y-18243333D01*
X84410000Y-18291111D01*
X84504444Y-18337777D01*
X84552222Y-18385555D01*
X84600000Y-18481111D01*
X84600000Y-18576666D01*
X84552222Y-18671111D01*
X84504444Y-18718888D01*
X84410000Y-18766666D01*
X84218889Y-18814444D01*
X83981111Y-18814444D01*
X83790000Y-18766666D01*
X83695556Y-18718888D01*
X83647778Y-18671111D01*
X83600000Y-18576666D01*
D12*
G04 #@! TO.C,Q2*
X51923889Y-40797778D02*
X51876111Y-40773889D01*
X51828334Y-40726111D01*
X51757223Y-40655000D01*
X51709445Y-40631111D01*
X51661667Y-40631111D01*
X51685556Y-40750000D02*
X51638334Y-40726111D01*
X51590556Y-40678333D01*
X51566667Y-40583333D01*
X51566667Y-40416667D01*
X51590556Y-40321667D01*
X51638334Y-40273889D01*
X51685556Y-40250000D01*
X51781111Y-40250000D01*
X51828334Y-40273889D01*
X51876111Y-40321667D01*
X51900000Y-40416667D01*
X51900000Y-40583333D01*
X51876111Y-40678333D01*
X51828334Y-40726111D01*
X51781111Y-40750000D01*
X51685556Y-40750000D01*
X52147778Y-40297778D02*
X52171667Y-40273889D01*
X52218889Y-40250000D01*
X52338333Y-40250000D01*
X52385556Y-40273889D01*
X52409445Y-40297778D01*
X52433333Y-40345000D01*
X52433333Y-40392778D01*
X52409445Y-40464444D01*
X52123889Y-40750000D01*
X52433333Y-40750000D01*
G04 #@! TO.C,BR1*
X29338333Y-55761667D02*
X29361667Y-55690001D01*
X29385556Y-55666667D01*
X29433333Y-55642778D01*
X29505000Y-55642778D01*
X29552222Y-55666667D01*
X29576111Y-55690001D01*
X29600000Y-55737778D01*
X29600000Y-55928334D01*
X29100000Y-55928334D01*
X29100000Y-55761667D01*
X29123889Y-55713890D01*
X29147778Y-55690001D01*
X29195000Y-55666667D01*
X29242778Y-55666667D01*
X29290556Y-55690001D01*
X29314444Y-55713890D01*
X29338333Y-55761667D01*
X29338333Y-55928334D01*
X29600000Y-55157222D02*
X29361667Y-55323889D01*
X29600000Y-55442778D02*
X29100000Y-55442778D01*
X29100000Y-55252222D01*
X29123889Y-55204445D01*
X29147778Y-55181111D01*
X29195000Y-55157222D01*
X29266667Y-55157222D01*
X29314444Y-55181111D01*
X29338333Y-55204445D01*
X29361667Y-55252222D01*
X29361667Y-55442778D01*
X29600000Y-54671666D02*
X29600000Y-54957222D01*
X29600000Y-54814444D02*
X29100000Y-54814444D01*
X29171667Y-54862222D01*
X29218889Y-54909444D01*
X29242778Y-54957222D01*
D10*
G04 #@! TO.C,R5*
X48300000Y-36400000D02*
X47966667Y-35923333D01*
X47728889Y-36400000D02*
X47728889Y-35400000D01*
X48110000Y-35400000D01*
X48205556Y-35447778D01*
X48252222Y-35495556D01*
X48300000Y-35590000D01*
X48300000Y-35733333D01*
X48252222Y-35828889D01*
X48205556Y-35876667D01*
X48110000Y-35923333D01*
X47728889Y-35923333D01*
X49223333Y-35400000D02*
X48747778Y-35400000D01*
X48700000Y-35876667D01*
X48747778Y-35828889D01*
X48843333Y-35781111D01*
X49081111Y-35781111D01*
X49176667Y-35828889D01*
X49223333Y-35876667D01*
X49271111Y-35971111D01*
X49271111Y-36210000D01*
X49223333Y-36304444D01*
X49176667Y-36352222D01*
X49081111Y-36400000D01*
X48843333Y-36400000D01*
X48747778Y-36352222D01*
X48700000Y-36304444D01*
G04 #@! TO.C,K2*
X66105000Y-37200000D02*
X66105000Y-36200000D01*
X66676111Y-37200000D02*
X66248333Y-36628889D01*
X66676111Y-36200000D02*
X66105000Y-36771111D01*
X67123889Y-36295556D02*
X67171667Y-36247778D01*
X67266111Y-36200000D01*
X67505000Y-36200000D01*
X67599444Y-36247778D01*
X67647222Y-36295556D01*
X67695000Y-36390000D01*
X67695000Y-36485556D01*
X67647222Y-36628889D01*
X67076111Y-37200000D01*
X67695000Y-37200000D01*
G04 #@! TO.C,K5*
X95128889Y-44700000D02*
X95128889Y-43700000D01*
X95700000Y-44700000D02*
X95272222Y-44128889D01*
X95700000Y-43700000D02*
X95128889Y-44271111D01*
X96623333Y-43700000D02*
X96147778Y-43700000D01*
X96100000Y-44176667D01*
X96147778Y-44128889D01*
X96243333Y-44081111D01*
X96481111Y-44081111D01*
X96576667Y-44128889D01*
X96623333Y-44176667D01*
X96671111Y-44271111D01*
X96671111Y-44510000D01*
X96623333Y-44604444D01*
X96576667Y-44652222D01*
X96481111Y-44700000D01*
X96243333Y-44700000D01*
X96147778Y-44652222D01*
X96100000Y-44604444D01*
G04 #@! TO.C,K4*
X66105000Y-12200000D02*
X66105000Y-11200000D01*
X66676111Y-12200000D02*
X66248333Y-11628889D01*
X66676111Y-11200000D02*
X66105000Y-11771111D01*
X67552778Y-11533333D02*
X67552778Y-12200000D01*
X67313889Y-11152222D02*
X67076111Y-11866667D01*
X67695000Y-11866667D01*
D12*
G04 #@! TO.C,Q5*
X80935833Y-48297778D02*
X80888055Y-48273889D01*
X80840278Y-48226111D01*
X80769167Y-48155000D01*
X80721389Y-48131111D01*
X80673611Y-48131111D01*
X80697500Y-48250000D02*
X80650278Y-48226111D01*
X80602500Y-48178333D01*
X80578611Y-48083333D01*
X80578611Y-47916667D01*
X80602500Y-47821667D01*
X80650278Y-47773889D01*
X80697500Y-47750000D01*
X80793055Y-47750000D01*
X80840278Y-47773889D01*
X80888055Y-47821667D01*
X80911944Y-47916667D01*
X80911944Y-48083333D01*
X80888055Y-48178333D01*
X80840278Y-48226111D01*
X80793055Y-48250000D01*
X80697500Y-48250000D01*
X81397500Y-47750000D02*
X81159722Y-47750000D01*
X81135833Y-47988333D01*
X81159722Y-47964444D01*
X81207500Y-47940556D01*
X81326389Y-47940556D01*
X81374166Y-47964444D01*
X81397500Y-47988333D01*
X81421389Y-48035556D01*
X81421389Y-48155000D01*
X81397500Y-48202222D01*
X81374166Y-48226111D01*
X81326389Y-48250000D01*
X81207500Y-48250000D01*
X81159722Y-48226111D01*
X81135833Y-48202222D01*
G04 #@! TO.C,D3*
X54000000Y-40397500D02*
X53500000Y-40397500D01*
X53500000Y-40278611D01*
X53523889Y-40206944D01*
X53571667Y-40159167D01*
X53618889Y-40135833D01*
X53714444Y-40111944D01*
X53785556Y-40111944D01*
X53881111Y-40135833D01*
X53928333Y-40159167D01*
X53976111Y-40206944D01*
X54000000Y-40278611D01*
X54000000Y-40397500D01*
X53500000Y-39911944D02*
X53500000Y-39602500D01*
X53690556Y-39769166D01*
X53690556Y-39697500D01*
X53714444Y-39650277D01*
X53738333Y-39626388D01*
X53785556Y-39602500D01*
X53905000Y-39602500D01*
X53952222Y-39626388D01*
X53976111Y-39650277D01*
X54000000Y-39697500D01*
X54000000Y-39840277D01*
X53976111Y-39888055D01*
X53952222Y-39911944D01*
D10*
G04 #@! TO.C,K6*
X95128889Y-32200000D02*
X95128889Y-31200000D01*
X95700000Y-32200000D02*
X95272222Y-31628889D01*
X95700000Y-31200000D02*
X95128889Y-31771111D01*
X96576667Y-31200000D02*
X96385556Y-31200000D01*
X96290000Y-31247778D01*
X96243333Y-31295556D01*
X96147778Y-31437778D01*
X96100000Y-31628889D01*
X96100000Y-32010000D01*
X96147778Y-32104444D01*
X96195556Y-32152222D01*
X96290000Y-32200000D01*
X96481111Y-32200000D01*
X96576667Y-32152222D01*
X96623333Y-32104444D01*
X96671111Y-32010000D01*
X96671111Y-31771111D01*
X96623333Y-31676667D01*
X96576667Y-31628889D01*
X96481111Y-31581111D01*
X96290000Y-31581111D01*
X96195556Y-31628889D01*
X96147778Y-31676667D01*
X96100000Y-31771111D01*
G04 #@! TO.C,K3*
X66105000Y-24700000D02*
X66105000Y-23700000D01*
X66676111Y-24700000D02*
X66248333Y-24128889D01*
X66676111Y-23700000D02*
X66105000Y-24271111D01*
X67076111Y-23700000D02*
X67695000Y-23700000D01*
X67361667Y-24081111D01*
X67505000Y-24081111D01*
X67599444Y-24128889D01*
X67647222Y-24176667D01*
X67695000Y-24271111D01*
X67695000Y-24510000D01*
X67647222Y-24604444D01*
X67599444Y-24652222D01*
X67505000Y-24700000D01*
X67219444Y-24700000D01*
X67123889Y-24652222D01*
X67076111Y-24604444D01*
D12*
G04 #@! TO.C,D2*
X54000000Y-52897500D02*
X53500000Y-52897500D01*
X53500000Y-52778611D01*
X53523889Y-52706944D01*
X53571667Y-52659167D01*
X53618889Y-52635833D01*
X53714444Y-52611944D01*
X53785556Y-52611944D01*
X53881111Y-52635833D01*
X53928333Y-52659167D01*
X53976111Y-52706944D01*
X54000000Y-52778611D01*
X54000000Y-52897500D01*
X53547778Y-52388055D02*
X53523889Y-52364166D01*
X53500000Y-52316944D01*
X53500000Y-52197500D01*
X53523889Y-52150277D01*
X53547778Y-52126388D01*
X53595000Y-52102500D01*
X53642778Y-52102500D01*
X53714444Y-52126388D01*
X54000000Y-52411944D01*
X54000000Y-52102500D01*
D10*
G04 #@! TO.C,J2*
X42111111Y-3000000D02*
X42111111Y-3714444D01*
X42063333Y-3856667D01*
X41967778Y-3952222D01*
X41825556Y-4000000D01*
X41730000Y-4000000D01*
X42558889Y-3095556D02*
X42606667Y-3047778D01*
X42701111Y-3000000D01*
X42940000Y-3000000D01*
X43034444Y-3047778D01*
X43082222Y-3095556D01*
X43130000Y-3190000D01*
X43130000Y-3285556D01*
X43082222Y-3428889D01*
X42511111Y-4000000D01*
X43130000Y-4000000D01*
D12*
G04 #@! TO.C,Q4*
X51923889Y-15797778D02*
X51876111Y-15773889D01*
X51828334Y-15726111D01*
X51757223Y-15655000D01*
X51709445Y-15631111D01*
X51661667Y-15631111D01*
X51685556Y-15750000D02*
X51638334Y-15726111D01*
X51590556Y-15678333D01*
X51566667Y-15583333D01*
X51566667Y-15416667D01*
X51590556Y-15321667D01*
X51638334Y-15273889D01*
X51685556Y-15250000D01*
X51781111Y-15250000D01*
X51828334Y-15273889D01*
X51876111Y-15321667D01*
X51900000Y-15416667D01*
X51900000Y-15583333D01*
X51876111Y-15678333D01*
X51828334Y-15726111D01*
X51781111Y-15750000D01*
X51685556Y-15750000D01*
X52362222Y-15416667D02*
X52362222Y-15750000D01*
X52242778Y-15226111D02*
X52123889Y-15583333D01*
X52433333Y-15583333D01*
G04 #@! TO.C,D8*
X83000000Y-22885556D02*
X82500000Y-22885556D01*
X82500000Y-22766667D01*
X82523889Y-22695000D01*
X82571667Y-22647223D01*
X82618889Y-22623889D01*
X82714444Y-22600000D01*
X82785556Y-22600000D01*
X82881111Y-22623889D01*
X82928333Y-22647223D01*
X82976111Y-22695000D01*
X83000000Y-22766667D01*
X83000000Y-22885556D01*
X82714444Y-22305000D02*
X82690556Y-22352222D01*
X82666667Y-22376111D01*
X82618889Y-22400000D01*
X82595000Y-22400000D01*
X82547778Y-22376111D01*
X82523889Y-22352222D01*
X82500000Y-22305000D01*
X82500000Y-22209444D01*
X82523889Y-22161667D01*
X82547778Y-22138333D01*
X82595000Y-22114444D01*
X82618889Y-22114444D01*
X82666667Y-22138333D01*
X82690556Y-22161667D01*
X82714444Y-22209444D01*
X82714444Y-22305000D01*
X82738333Y-22352222D01*
X82761667Y-22376111D01*
X82809444Y-22400000D01*
X82905000Y-22400000D01*
X82952222Y-22376111D01*
X82976111Y-22352222D01*
X83000000Y-22305000D01*
X83000000Y-22209444D01*
X82976111Y-22161667D01*
X82952222Y-22138333D01*
X82905000Y-22114444D01*
X82809444Y-22114444D01*
X82761667Y-22138333D01*
X82738333Y-22161667D01*
X82714444Y-22209444D01*
D10*
G04 #@! TO.C,R4*
X48276111Y-48900000D02*
X47942778Y-48423333D01*
X47705000Y-48900000D02*
X47705000Y-47900000D01*
X48086111Y-47900000D01*
X48181667Y-47947778D01*
X48228333Y-47995556D01*
X48276111Y-48090000D01*
X48276111Y-48233333D01*
X48228333Y-48328889D01*
X48181667Y-48376667D01*
X48086111Y-48423333D01*
X47705000Y-48423333D01*
X49152778Y-48233333D02*
X49152778Y-48900000D01*
X48913889Y-47852222D02*
X48676111Y-48566667D01*
X49295000Y-48566667D01*
D12*
G04 #@! TO.C,Q8*
X80935833Y-10797778D02*
X80888055Y-10773889D01*
X80840278Y-10726111D01*
X80769167Y-10655000D01*
X80721389Y-10631111D01*
X80673611Y-10631111D01*
X80697500Y-10750000D02*
X80650278Y-10726111D01*
X80602500Y-10678333D01*
X80578611Y-10583333D01*
X80578611Y-10416667D01*
X80602500Y-10321667D01*
X80650278Y-10273889D01*
X80697500Y-10250000D01*
X80793055Y-10250000D01*
X80840278Y-10273889D01*
X80888055Y-10321667D01*
X80911944Y-10416667D01*
X80911944Y-10583333D01*
X80888055Y-10678333D01*
X80840278Y-10726111D01*
X80793055Y-10750000D01*
X80697500Y-10750000D01*
X81230833Y-10464444D02*
X81183611Y-10440556D01*
X81159722Y-10416667D01*
X81135833Y-10368889D01*
X81135833Y-10345000D01*
X81159722Y-10297778D01*
X81183611Y-10273889D01*
X81230833Y-10250000D01*
X81326389Y-10250000D01*
X81374166Y-10273889D01*
X81397500Y-10297778D01*
X81421389Y-10345000D01*
X81421389Y-10368889D01*
X81397500Y-10416667D01*
X81374166Y-10440556D01*
X81326389Y-10464444D01*
X81230833Y-10464444D01*
X81183611Y-10488333D01*
X81159722Y-10511667D01*
X81135833Y-10559444D01*
X81135833Y-10655000D01*
X81159722Y-10702222D01*
X81183611Y-10726111D01*
X81230833Y-10750000D01*
X81326389Y-10750000D01*
X81374166Y-10726111D01*
X81397500Y-10702222D01*
X81421389Y-10655000D01*
X81421389Y-10559444D01*
X81397500Y-10511667D01*
X81374166Y-10488333D01*
X81326389Y-10464444D01*
D10*
G04 #@! TO.C,R7*
X48252222Y-11400000D02*
X47918889Y-10923333D01*
X47681111Y-11400000D02*
X47681111Y-10400000D01*
X48062222Y-10400000D01*
X48157778Y-10447778D01*
X48204444Y-10495556D01*
X48252222Y-10590000D01*
X48252222Y-10733333D01*
X48204444Y-10828889D01*
X48157778Y-10876667D01*
X48062222Y-10923333D01*
X47681111Y-10923333D01*
X48652222Y-10400000D02*
X49318889Y-10400000D01*
X48890000Y-11400000D01*
D12*
G04 #@! TO.C,Q3*
X51923889Y-28297778D02*
X51876111Y-28273889D01*
X51828334Y-28226111D01*
X51757223Y-28155000D01*
X51709445Y-28131111D01*
X51661667Y-28131111D01*
X51685556Y-28250000D02*
X51638334Y-28226111D01*
X51590556Y-28178333D01*
X51566667Y-28083333D01*
X51566667Y-27916667D01*
X51590556Y-27821667D01*
X51638334Y-27773889D01*
X51685556Y-27750000D01*
X51781111Y-27750000D01*
X51828334Y-27773889D01*
X51876111Y-27821667D01*
X51900000Y-27916667D01*
X51900000Y-28083333D01*
X51876111Y-28178333D01*
X51828334Y-28226111D01*
X51781111Y-28250000D01*
X51685556Y-28250000D01*
X52123889Y-27750000D02*
X52433333Y-27750000D01*
X52266667Y-27940556D01*
X52338333Y-27940556D01*
X52385556Y-27964444D01*
X52409445Y-27988333D01*
X52433333Y-28035556D01*
X52433333Y-28155000D01*
X52409445Y-28202222D01*
X52385556Y-28226111D01*
X52338333Y-28250000D01*
X52195556Y-28250000D01*
X52147778Y-28226111D01*
X52123889Y-28202222D01*
D10*
G04 #@! TO.C,R11*
X84600000Y-7685555D02*
X84123333Y-8018888D01*
X84600000Y-8256666D02*
X83600000Y-8256666D01*
X83600000Y-7875555D01*
X83647778Y-7779999D01*
X83695556Y-7733333D01*
X83790000Y-7685555D01*
X83933333Y-7685555D01*
X84028889Y-7733333D01*
X84076667Y-7779999D01*
X84123333Y-7875555D01*
X84123333Y-8256666D01*
X84600000Y-6714444D02*
X84600000Y-7285555D01*
X84600000Y-6999999D02*
X83600000Y-6999999D01*
X83743333Y-7095555D01*
X83837778Y-7189999D01*
X83885556Y-7285555D01*
X84600000Y-5743333D02*
X84600000Y-6314444D01*
X84600000Y-6028888D02*
X83600000Y-6028888D01*
X83743333Y-6124444D01*
X83837778Y-6218888D01*
X83885556Y-6314444D01*
G04 #@! TO.C,R8*
X84600000Y-44700000D02*
X84123333Y-45033333D01*
X84600000Y-45271111D02*
X83600000Y-45271111D01*
X83600000Y-44890000D01*
X83647778Y-44794444D01*
X83695556Y-44747778D01*
X83790000Y-44700000D01*
X83933333Y-44700000D01*
X84028889Y-44747778D01*
X84076667Y-44794444D01*
X84123333Y-44890000D01*
X84123333Y-45271111D01*
X84028889Y-44110000D02*
X83981111Y-44204444D01*
X83933333Y-44252222D01*
X83837778Y-44300000D01*
X83790000Y-44300000D01*
X83695556Y-44252222D01*
X83647778Y-44204444D01*
X83600000Y-44110000D01*
X83600000Y-43918889D01*
X83647778Y-43823333D01*
X83695556Y-43776667D01*
X83790000Y-43728889D01*
X83837778Y-43728889D01*
X83933333Y-43776667D01*
X83981111Y-43823333D01*
X84028889Y-43918889D01*
X84028889Y-44110000D01*
X84076667Y-44204444D01*
X84123333Y-44252222D01*
X84218889Y-44300000D01*
X84410000Y-44300000D01*
X84504444Y-44252222D01*
X84552222Y-44204444D01*
X84600000Y-44110000D01*
X84600000Y-43918889D01*
X84552222Y-43823333D01*
X84504444Y-43776667D01*
X84410000Y-43728889D01*
X84218889Y-43728889D01*
X84123333Y-43776667D01*
X84076667Y-43823333D01*
X84028889Y-43918889D01*
D12*
G04 #@! TO.C,D4*
X54000000Y-27897500D02*
X53500000Y-27897500D01*
X53500000Y-27778611D01*
X53523889Y-27706944D01*
X53571667Y-27659167D01*
X53618889Y-27635833D01*
X53714444Y-27611944D01*
X53785556Y-27611944D01*
X53881111Y-27635833D01*
X53928333Y-27659167D01*
X53976111Y-27706944D01*
X54000000Y-27778611D01*
X54000000Y-27897500D01*
X53666667Y-27173611D02*
X54000000Y-27173611D01*
X53476111Y-27293055D02*
X53833333Y-27411944D01*
X53833333Y-27102500D01*
G04 #@! TO.C,Q1*
X51935833Y-53297778D02*
X51888055Y-53273889D01*
X51840278Y-53226111D01*
X51769167Y-53155000D01*
X51721389Y-53131111D01*
X51673611Y-53131111D01*
X51697500Y-53250000D02*
X51650278Y-53226111D01*
X51602500Y-53178333D01*
X51578611Y-53083333D01*
X51578611Y-52916667D01*
X51602500Y-52821667D01*
X51650278Y-52773889D01*
X51697500Y-52750000D01*
X51793055Y-52750000D01*
X51840278Y-52773889D01*
X51888055Y-52821667D01*
X51911944Y-52916667D01*
X51911944Y-53083333D01*
X51888055Y-53178333D01*
X51840278Y-53226111D01*
X51793055Y-53250000D01*
X51697500Y-53250000D01*
X52421389Y-53250000D02*
X52135833Y-53250000D01*
X52278611Y-53250000D02*
X52278611Y-52750000D01*
X52230833Y-52821667D01*
X52183611Y-52868889D01*
X52135833Y-52892778D01*
G04 #@! TO.C,U2*
X42000000Y-50897500D02*
X42405000Y-50897500D01*
X42452222Y-50873611D01*
X42476111Y-50849722D01*
X42500000Y-50802500D01*
X42500000Y-50706944D01*
X42476111Y-50659167D01*
X42452222Y-50635833D01*
X42405000Y-50611944D01*
X42000000Y-50611944D01*
X42047778Y-50388055D02*
X42023889Y-50364166D01*
X42000000Y-50316944D01*
X42000000Y-50197500D01*
X42023889Y-50150277D01*
X42047778Y-50126388D01*
X42095000Y-50102500D01*
X42142778Y-50102500D01*
X42214444Y-50126388D01*
X42500000Y-50411944D01*
X42500000Y-50102500D01*
G04 #@! TO.C,Q7*
X80911945Y-23297778D02*
X80864167Y-23273889D01*
X80816390Y-23226111D01*
X80745279Y-23155000D01*
X80697501Y-23131111D01*
X80649723Y-23131111D01*
X80673612Y-23250000D02*
X80626390Y-23226111D01*
X80578612Y-23178333D01*
X80554723Y-23083333D01*
X80554723Y-22916667D01*
X80578612Y-22821667D01*
X80626390Y-22773889D01*
X80673612Y-22750000D01*
X80769167Y-22750000D01*
X80816390Y-22773889D01*
X80864167Y-22821667D01*
X80888056Y-22916667D01*
X80888056Y-23083333D01*
X80864167Y-23178333D01*
X80816390Y-23226111D01*
X80769167Y-23250000D01*
X80673612Y-23250000D01*
X81111945Y-22750000D02*
X81445278Y-22750000D01*
X81230834Y-23250000D01*
D10*
G04 #@! TO.C,J1*
X124000000Y-60295000D02*
X124714444Y-60295000D01*
X124856667Y-60342778D01*
X124952222Y-60438333D01*
X125000000Y-60580555D01*
X125000000Y-60676111D01*
X125000000Y-59323889D02*
X125000000Y-59895000D01*
X125000000Y-59609444D02*
X124000000Y-59609444D01*
X124143333Y-59705000D01*
X124237778Y-59799444D01*
X124285556Y-59895000D01*
G04 #@! TO.C,R6*
X48300000Y-23900000D02*
X47966667Y-23423333D01*
X47728889Y-23900000D02*
X47728889Y-22900000D01*
X48110000Y-22900000D01*
X48205556Y-22947778D01*
X48252222Y-22995556D01*
X48300000Y-23090000D01*
X48300000Y-23233333D01*
X48252222Y-23328889D01*
X48205556Y-23376667D01*
X48110000Y-23423333D01*
X47728889Y-23423333D01*
X49176667Y-22900000D02*
X48985556Y-22900000D01*
X48890000Y-22947778D01*
X48843333Y-22995556D01*
X48747778Y-23137778D01*
X48700000Y-23328889D01*
X48700000Y-23710000D01*
X48747778Y-23804444D01*
X48795556Y-23852222D01*
X48890000Y-23900000D01*
X49081111Y-23900000D01*
X49176667Y-23852222D01*
X49223333Y-23804444D01*
X49271111Y-23710000D01*
X49271111Y-23471111D01*
X49223333Y-23376667D01*
X49176667Y-23328889D01*
X49081111Y-23281111D01*
X48890000Y-23281111D01*
X48795556Y-23328889D01*
X48747778Y-23376667D01*
X48700000Y-23471111D01*
G04 #@! TO.C,R9*
X84600000Y-32200000D02*
X84123333Y-32533333D01*
X84600000Y-32771111D02*
X83600000Y-32771111D01*
X83600000Y-32390000D01*
X83647778Y-32294444D01*
X83695556Y-32247778D01*
X83790000Y-32200000D01*
X83933333Y-32200000D01*
X84028889Y-32247778D01*
X84076667Y-32294444D01*
X84123333Y-32390000D01*
X84123333Y-32771111D01*
X84600000Y-31704444D02*
X84600000Y-31514444D01*
X84552222Y-31418889D01*
X84504444Y-31371111D01*
X84362222Y-31276667D01*
X84171111Y-31228889D01*
X83790000Y-31228889D01*
X83695556Y-31276667D01*
X83647778Y-31323333D01*
X83600000Y-31418889D01*
X83600000Y-31610000D01*
X83647778Y-31704444D01*
X83695556Y-31752222D01*
X83790000Y-31800000D01*
X84028889Y-31800000D01*
X84123333Y-31752222D01*
X84171111Y-31704444D01*
X84218889Y-31610000D01*
X84218889Y-31418889D01*
X84171111Y-31323333D01*
X84123333Y-31276667D01*
X84028889Y-31228889D01*
D12*
G04 #@! TO.C,D5*
X54000000Y-15385556D02*
X53500000Y-15385556D01*
X53500000Y-15266667D01*
X53523889Y-15195000D01*
X53571667Y-15147223D01*
X53618889Y-15123889D01*
X53714444Y-15100000D01*
X53785556Y-15100000D01*
X53881111Y-15123889D01*
X53928333Y-15147223D01*
X53976111Y-15195000D01*
X54000000Y-15266667D01*
X54000000Y-15385556D01*
X53500000Y-14638333D02*
X53500000Y-14876111D01*
X53738333Y-14900000D01*
X53714444Y-14876111D01*
X53690556Y-14828333D01*
X53690556Y-14709444D01*
X53714444Y-14661667D01*
X53738333Y-14638333D01*
X53785556Y-14614444D01*
X53905000Y-14614444D01*
X53952222Y-14638333D01*
X53976111Y-14661667D01*
X54000000Y-14709444D01*
X54000000Y-14828333D01*
X53976111Y-14876111D01*
X53952222Y-14900000D01*
D10*
G04 #@! TO.C,K7*
X95081111Y-19700000D02*
X95081111Y-18700000D01*
X95652222Y-19700000D02*
X95224444Y-19128889D01*
X95652222Y-18700000D02*
X95081111Y-19271111D01*
X96052222Y-18700000D02*
X96718889Y-18700000D01*
X96290000Y-19700000D01*
G04 #@! TO.C,K8*
X95128889Y-7200000D02*
X95128889Y-6200000D01*
X95700000Y-7200000D02*
X95272222Y-6628889D01*
X95700000Y-6200000D02*
X95128889Y-6771111D01*
X96290000Y-6628889D02*
X96195556Y-6581111D01*
X96147778Y-6533333D01*
X96100000Y-6437778D01*
X96100000Y-6390000D01*
X96147778Y-6295556D01*
X96195556Y-6247778D01*
X96290000Y-6200000D01*
X96481111Y-6200000D01*
X96576667Y-6247778D01*
X96623333Y-6295556D01*
X96671111Y-6390000D01*
X96671111Y-6437778D01*
X96623333Y-6533333D01*
X96576667Y-6581111D01*
X96481111Y-6628889D01*
X96290000Y-6628889D01*
X96195556Y-6676667D01*
X96147778Y-6723333D01*
X96100000Y-6818889D01*
X96100000Y-7010000D01*
X96147778Y-7104444D01*
X96195556Y-7152222D01*
X96290000Y-7200000D01*
X96481111Y-7200000D01*
X96576667Y-7152222D01*
X96623333Y-7104444D01*
X96671111Y-7010000D01*
X96671111Y-6818889D01*
X96623333Y-6723333D01*
X96576667Y-6676667D01*
X96481111Y-6628889D01*
D12*
G04 #@! TO.C,Q6*
X80935833Y-35797778D02*
X80888055Y-35773889D01*
X80840278Y-35726111D01*
X80769167Y-35655000D01*
X80721389Y-35631111D01*
X80673611Y-35631111D01*
X80697500Y-35750000D02*
X80650278Y-35726111D01*
X80602500Y-35678333D01*
X80578611Y-35583333D01*
X80578611Y-35416667D01*
X80602500Y-35321667D01*
X80650278Y-35273889D01*
X80697500Y-35250000D01*
X80793055Y-35250000D01*
X80840278Y-35273889D01*
X80888055Y-35321667D01*
X80911944Y-35416667D01*
X80911944Y-35583333D01*
X80888055Y-35678333D01*
X80840278Y-35726111D01*
X80793055Y-35750000D01*
X80697500Y-35750000D01*
X81374166Y-35250000D02*
X81278611Y-35250000D01*
X81230833Y-35273889D01*
X81207500Y-35297778D01*
X81159722Y-35368889D01*
X81135833Y-35464444D01*
X81135833Y-35655000D01*
X81159722Y-35702222D01*
X81183611Y-35726111D01*
X81230833Y-35750000D01*
X81326389Y-35750000D01*
X81374166Y-35726111D01*
X81397500Y-35702222D01*
X81421389Y-35655000D01*
X81421389Y-35535556D01*
X81397500Y-35488333D01*
X81374166Y-35464444D01*
X81326389Y-35440556D01*
X81230833Y-35440556D01*
X81183611Y-35464444D01*
X81159722Y-35488333D01*
X81135833Y-35535556D01*
G04 #@! TO.C,D1*
X53114444Y-5000000D02*
X53114444Y-4500000D01*
X53233333Y-4500000D01*
X53305000Y-4523889D01*
X53352777Y-4571667D01*
X53376111Y-4618889D01*
X53400000Y-4714444D01*
X53400000Y-4785556D01*
X53376111Y-4881111D01*
X53352777Y-4928333D01*
X53305000Y-4976111D01*
X53233333Y-5000000D01*
X53114444Y-5000000D01*
X53885556Y-5000000D02*
X53600000Y-5000000D01*
X53742778Y-5000000D02*
X53742778Y-4500000D01*
X53695000Y-4571667D01*
X53647778Y-4618889D01*
X53600000Y-4642778D01*
D13*
G04 #@! TD*
X139500000Y-60000000D02*
X127500000Y-60000000D01*
X139500000Y-40000000D02*
X127500000Y-40000000D01*
X139500000Y-30000000D02*
X127500000Y-30000000D01*
X127500000Y-20000000D02*
X139500000Y-20000000D01*
X139500000Y-55000000D02*
X127500000Y-55000000D01*
X139500000Y-50000000D02*
X127500000Y-50000000D01*
X139500000Y-35000000D02*
X127500000Y-35000000D01*
X139500000Y-25000000D02*
X127500000Y-25000000D01*
X139500000Y-45000000D02*
X127500000Y-45000000D01*
D14*
X137570000Y-31000000D02*
X136143333Y-31000000D01*
X136000000Y-32430000D01*
X136143333Y-32286667D01*
X136430000Y-32143333D01*
X137143333Y-32143333D01*
X137430000Y-32286667D01*
X137570000Y-32430000D01*
X137713333Y-32713333D01*
X137713333Y-33430000D01*
X137570000Y-33713333D01*
X137430000Y-33856667D01*
X137143333Y-34000000D01*
X136430000Y-34000000D01*
X136143333Y-33856667D01*
X136000000Y-33713333D01*
X136000000Y-41000000D02*
X137856667Y-41000000D01*
X136856667Y-42143333D01*
X137286667Y-42143333D01*
X137570000Y-42286667D01*
X137713333Y-42430000D01*
X137856667Y-42713333D01*
X137856667Y-43430000D01*
X137713333Y-43713333D01*
X137570000Y-43856667D01*
X137286667Y-44000000D01*
X136430000Y-44000000D01*
X136143333Y-43856667D01*
X136000000Y-43713333D01*
X137430000Y-26000000D02*
X136856667Y-26000000D01*
X136570000Y-26143333D01*
X136430000Y-26286667D01*
X136143333Y-26713333D01*
X136000000Y-27286667D01*
X136000000Y-28430000D01*
X136143333Y-28713333D01*
X136286667Y-28856667D01*
X136570000Y-29000000D01*
X137143333Y-29000000D01*
X137430000Y-28856667D01*
X137570000Y-28713333D01*
X137713333Y-28430000D01*
X137713333Y-27713333D01*
X137570000Y-27430000D01*
X137430000Y-27286667D01*
X137143333Y-27143333D01*
X136570000Y-27143333D01*
X136286667Y-27286667D01*
X136143333Y-27430000D01*
X136000000Y-27713333D01*
X136570000Y-17286667D02*
X136286667Y-17143333D01*
X136143333Y-17000000D01*
X136000000Y-16713333D01*
X136000000Y-16570000D01*
X136143333Y-16286667D01*
X136286667Y-16143333D01*
X136570000Y-16000000D01*
X137143333Y-16000000D01*
X137430000Y-16143333D01*
X137570000Y-16286667D01*
X137713333Y-16570000D01*
X137713333Y-16713333D01*
X137570000Y-17000000D01*
X137430000Y-17143333D01*
X137143333Y-17286667D01*
X136570000Y-17286667D01*
X136286667Y-17430000D01*
X136143333Y-17570000D01*
X136000000Y-17856667D01*
X136000000Y-18430000D01*
X136143333Y-18713333D01*
X136286667Y-18856667D01*
X136570000Y-19000000D01*
X137143333Y-19000000D01*
X137430000Y-18856667D01*
X137570000Y-18713333D01*
X137713333Y-18430000D01*
X137713333Y-17856667D01*
X137570000Y-17570000D01*
X137430000Y-17430000D01*
X137143333Y-17286667D01*
X136143333Y-46286667D02*
X136286667Y-46143333D01*
X136570000Y-46000000D01*
X137286667Y-46000000D01*
X137570000Y-46143333D01*
X137713333Y-46286667D01*
X137856667Y-46570000D01*
X137856667Y-46856667D01*
X137713333Y-47286667D01*
X136000000Y-49000000D01*
X137856667Y-49000000D01*
X137856667Y-58713333D02*
X137713333Y-58856667D01*
X137286667Y-59000000D01*
X137000000Y-59000000D01*
X136570000Y-58856667D01*
X136286667Y-58570000D01*
X136143333Y-58286667D01*
X136000000Y-57713333D01*
X136000000Y-57286667D01*
X136143333Y-56713333D01*
X136286667Y-56430000D01*
X136570000Y-56143333D01*
X137000000Y-56000000D01*
X137286667Y-56000000D01*
X137713333Y-56143333D01*
X137856667Y-56286667D01*
X137713333Y-64000000D02*
X136713333Y-62570000D01*
X136000000Y-64000000D02*
X136000000Y-61000000D01*
X137143333Y-61000000D01*
X137430000Y-61143333D01*
X137570000Y-61286667D01*
X137713333Y-61570000D01*
X137713333Y-62000000D01*
X137570000Y-62286667D01*
X137430000Y-62430000D01*
X137143333Y-62570000D01*
X136000000Y-62570000D01*
X137430000Y-37000000D02*
X137430000Y-39000000D01*
X136713333Y-35856667D02*
X136000000Y-38000000D01*
X137856667Y-38000000D01*
X137713333Y-54000000D02*
X136000000Y-54000000D01*
X136856667Y-54000000D02*
X136856667Y-51000000D01*
X136570000Y-51430000D01*
X136286667Y-51713333D01*
X136000000Y-51856667D01*
X136000000Y-21000000D02*
X138000000Y-21000000D01*
X136713333Y-24000000D01*
D10*
G04 #@! TO.C,K1*
X61317778Y-53700000D02*
X61317778Y-54414444D01*
X61270000Y-54556667D01*
X61174445Y-54652222D01*
X61032223Y-54700000D01*
X60936667Y-54700000D01*
X61717778Y-53700000D02*
X62051111Y-54700000D01*
X62384445Y-53700000D01*
X63584444Y-54652222D02*
X63727777Y-54700000D01*
X63965555Y-54700000D01*
X64061111Y-54652222D01*
X64107777Y-54604444D01*
X64155555Y-54510000D01*
X64155555Y-54414444D01*
X64107777Y-54318889D01*
X64061111Y-54271111D01*
X63965555Y-54223333D01*
X63774444Y-54176667D01*
X63680000Y-54128889D01*
X63632222Y-54081111D01*
X63584444Y-53985556D01*
X63584444Y-53890000D01*
X63632222Y-53795556D01*
X63680000Y-53747778D01*
X63774444Y-53700000D01*
X64013333Y-53700000D01*
X64155555Y-53747778D01*
X64984444Y-54652222D02*
X64888888Y-54700000D01*
X64698888Y-54700000D01*
X64603333Y-54652222D01*
X64555555Y-54556667D01*
X64555555Y-54176667D01*
X64603333Y-54081111D01*
X64698888Y-54033333D01*
X64888888Y-54033333D01*
X64984444Y-54081111D01*
X65032222Y-54176667D01*
X65032222Y-54271111D01*
X64555555Y-54366667D01*
X65432222Y-54700000D02*
X65432222Y-54033333D01*
X65432222Y-54223333D02*
X65480000Y-54128889D01*
X65527778Y-54081111D01*
X65622222Y-54033333D01*
X65717778Y-54033333D01*
X66165556Y-54700000D02*
X66165556Y-54033333D01*
X66165556Y-53700000D02*
X66117778Y-53747778D01*
X66165556Y-53795556D01*
X66213334Y-53747778D01*
X66165556Y-53700000D01*
X66165556Y-53795556D01*
X67042223Y-54652222D02*
X66946667Y-54700000D01*
X66756667Y-54700000D01*
X66661112Y-54652222D01*
X66613334Y-54556667D01*
X66613334Y-54176667D01*
X66661112Y-54081111D01*
X66756667Y-54033333D01*
X66946667Y-54033333D01*
X67042223Y-54081111D01*
X67090001Y-54176667D01*
X67090001Y-54271111D01*
X66613334Y-54366667D01*
X67490001Y-54652222D02*
X67585557Y-54700000D01*
X67775557Y-54700000D01*
X67871112Y-54652222D01*
X67918890Y-54556667D01*
X67918890Y-54510000D01*
X67871112Y-54414444D01*
X67775557Y-54366667D01*
X67633334Y-54366667D01*
X67537779Y-54318889D01*
X67490001Y-54223333D01*
X67490001Y-54176667D01*
X67537779Y-54081111D01*
X67633334Y-54033333D01*
X67775557Y-54033333D01*
X67871112Y-54081111D01*
X69690000Y-54700000D02*
X69356667Y-54223333D01*
X69118889Y-54700000D02*
X69118889Y-53700000D01*
X69500000Y-53700000D01*
X69595556Y-53747778D01*
X69642222Y-53795556D01*
X69690000Y-53890000D01*
X69690000Y-54033333D01*
X69642222Y-54128889D01*
X69595556Y-54176667D01*
X69500000Y-54223333D01*
X69118889Y-54223333D01*
X70518889Y-54652222D02*
X70423333Y-54700000D01*
X70233333Y-54700000D01*
X70137778Y-54652222D01*
X70090000Y-54556667D01*
X70090000Y-54176667D01*
X70137778Y-54081111D01*
X70233333Y-54033333D01*
X70423333Y-54033333D01*
X70518889Y-54081111D01*
X70566667Y-54176667D01*
X70566667Y-54271111D01*
X70090000Y-54366667D01*
X71110000Y-54700000D02*
X71014445Y-54652222D01*
X70966667Y-54556667D01*
X70966667Y-53700000D01*
X71986667Y-54700000D02*
X71986667Y-54176667D01*
X71938889Y-54081111D01*
X71843333Y-54033333D01*
X71653333Y-54033333D01*
X71557778Y-54081111D01*
X71986667Y-54652222D02*
X71891111Y-54700000D01*
X71653333Y-54700000D01*
X71557778Y-54652222D01*
X71510000Y-54556667D01*
X71510000Y-54462222D01*
X71557778Y-54366667D01*
X71653333Y-54318889D01*
X71891111Y-54318889D01*
X71986667Y-54271111D01*
X72386667Y-54033333D02*
X72624445Y-54700000D01*
X72863334Y-54033333D02*
X72624445Y-54700000D01*
X72530000Y-54937778D01*
X72482223Y-54985556D01*
X72386667Y-55033333D01*
D12*
G04 #@! TO.C,D6*
X86238333Y-50809166D02*
X86261667Y-50737500D01*
X86285556Y-50714166D01*
X86333333Y-50690277D01*
X86405000Y-50690277D01*
X86452222Y-50714166D01*
X86476111Y-50737500D01*
X86500000Y-50785277D01*
X86500000Y-50975833D01*
X86000000Y-50975833D01*
X86000000Y-50809166D01*
X86023889Y-50761389D01*
X86047778Y-50737500D01*
X86095000Y-50714166D01*
X86142778Y-50714166D01*
X86190556Y-50737500D01*
X86214444Y-50761389D01*
X86238333Y-50809166D01*
X86238333Y-50975833D01*
X86357222Y-50442499D02*
X86357222Y-50204721D01*
X86500000Y-50490277D02*
X86000000Y-50323610D01*
X86500000Y-50156944D01*
X86000000Y-49956944D02*
X86500000Y-49790277D01*
X86000000Y-49623611D01*
X86500000Y-49138055D02*
X86500000Y-49423611D01*
X86500000Y-49280833D02*
X86000000Y-49280833D01*
X86071667Y-49328611D01*
X86118889Y-49375833D01*
X86142778Y-49423611D01*
X86000000Y-48699722D02*
X86000000Y-48795277D01*
X86023889Y-48843055D01*
X86047778Y-48866388D01*
X86118889Y-48914166D01*
X86214444Y-48938055D01*
X86405000Y-48938055D01*
X86452222Y-48914166D01*
X86476111Y-48890277D01*
X86500000Y-48843055D01*
X86500000Y-48747499D01*
X86476111Y-48699722D01*
X86452222Y-48676388D01*
X86405000Y-48652499D01*
X86285556Y-48652499D01*
X86238333Y-48676388D01*
X86214444Y-48699722D01*
X86190556Y-48747499D01*
X86190556Y-48843055D01*
X86214444Y-48890277D01*
X86238333Y-48914166D01*
X86285556Y-48938055D01*
X86000000Y-48452499D02*
X86500000Y-48333610D01*
X86142778Y-48238055D01*
X86500000Y-48143055D01*
X86000000Y-48024166D01*
D10*
G04 #@! TO.C,L1*
X26833333Y-30108889D02*
X27500000Y-30108889D01*
X26452222Y-30347778D02*
X27166667Y-30585556D01*
X27166667Y-29966667D01*
X27404444Y-29518889D02*
X27452222Y-29471111D01*
X27500000Y-29518889D01*
X27452222Y-29566667D01*
X27404444Y-29518889D01*
X27500000Y-29518889D01*
X26500000Y-29071111D02*
X26500000Y-28404444D01*
X27500000Y-28833333D01*
X26833333Y-28004444D02*
X27833333Y-28004444D01*
X27356667Y-27527777D02*
X27452222Y-27481111D01*
X27500000Y-27385555D01*
X27356667Y-28004444D02*
X27452222Y-27956666D01*
X27500000Y-27861111D01*
X27500000Y-27671111D01*
X27452222Y-27575555D01*
X27356667Y-27527777D01*
X26833333Y-27527777D01*
X27500000Y-26985555D02*
X26500000Y-26985555D01*
X26976667Y-26985555D02*
X26976667Y-26414444D01*
X27500000Y-26414444D02*
X26500000Y-26414444D01*
D12*
G04 #@! TO.C,D7*
X86238333Y-38309166D02*
X86261667Y-38237500D01*
X86285556Y-38214166D01*
X86333333Y-38190277D01*
X86405000Y-38190277D01*
X86452222Y-38214166D01*
X86476111Y-38237500D01*
X86500000Y-38285277D01*
X86500000Y-38475833D01*
X86000000Y-38475833D01*
X86000000Y-38309166D01*
X86023889Y-38261389D01*
X86047778Y-38237500D01*
X86095000Y-38214166D01*
X86142778Y-38214166D01*
X86190556Y-38237500D01*
X86214444Y-38261389D01*
X86238333Y-38309166D01*
X86238333Y-38475833D01*
X86357222Y-37942499D02*
X86357222Y-37704721D01*
X86500000Y-37990277D02*
X86000000Y-37823610D01*
X86500000Y-37656944D01*
X86000000Y-37456944D02*
X86500000Y-37290277D01*
X86000000Y-37123611D01*
X86500000Y-36638055D02*
X86500000Y-36923611D01*
X86500000Y-36780833D02*
X86000000Y-36780833D01*
X86071667Y-36828611D01*
X86118889Y-36875833D01*
X86142778Y-36923611D01*
X86000000Y-36199722D02*
X86000000Y-36295277D01*
X86023889Y-36343055D01*
X86047778Y-36366388D01*
X86118889Y-36414166D01*
X86214444Y-36438055D01*
X86405000Y-36438055D01*
X86452222Y-36414166D01*
X86476111Y-36390277D01*
X86500000Y-36343055D01*
X86500000Y-36247499D01*
X86476111Y-36199722D01*
X86452222Y-36176388D01*
X86405000Y-36152499D01*
X86285556Y-36152499D01*
X86238333Y-36176388D01*
X86214444Y-36199722D01*
X86190556Y-36247499D01*
X86190556Y-36343055D01*
X86214444Y-36390277D01*
X86238333Y-36414166D01*
X86285556Y-36438055D01*
X86000000Y-35952499D02*
X86500000Y-35833610D01*
X86142778Y-35738055D01*
X86500000Y-35643055D01*
X86000000Y-35524166D01*
G04 #@! TO.C,D9*
X86238333Y-13309166D02*
X86261667Y-13237500D01*
X86285556Y-13214166D01*
X86333333Y-13190277D01*
X86405000Y-13190277D01*
X86452222Y-13214166D01*
X86476111Y-13237500D01*
X86500000Y-13285277D01*
X86500000Y-13475833D01*
X86000000Y-13475833D01*
X86000000Y-13309166D01*
X86023889Y-13261389D01*
X86047778Y-13237500D01*
X86095000Y-13214166D01*
X86142778Y-13214166D01*
X86190556Y-13237500D01*
X86214444Y-13261389D01*
X86238333Y-13309166D01*
X86238333Y-13475833D01*
X86357222Y-12942499D02*
X86357222Y-12704721D01*
X86500000Y-12990277D02*
X86000000Y-12823610D01*
X86500000Y-12656944D01*
X86000000Y-12456944D02*
X86500000Y-12290277D01*
X86000000Y-12123611D01*
X86500000Y-11638055D02*
X86500000Y-11923611D01*
X86500000Y-11780833D02*
X86000000Y-11780833D01*
X86071667Y-11828611D01*
X86118889Y-11875833D01*
X86142778Y-11923611D01*
X86000000Y-11199722D02*
X86000000Y-11295277D01*
X86023889Y-11343055D01*
X86047778Y-11366388D01*
X86118889Y-11414166D01*
X86214444Y-11438055D01*
X86405000Y-11438055D01*
X86452222Y-11414166D01*
X86476111Y-11390277D01*
X86500000Y-11343055D01*
X86500000Y-11247499D01*
X86476111Y-11199722D01*
X86452222Y-11176388D01*
X86405000Y-11152499D01*
X86285556Y-11152499D01*
X86238333Y-11176388D01*
X86214444Y-11199722D01*
X86190556Y-11247499D01*
X86190556Y-11343055D01*
X86214444Y-11390277D01*
X86238333Y-11414166D01*
X86285556Y-11438055D01*
X86000000Y-10952499D02*
X86500000Y-10833610D01*
X86142778Y-10738055D01*
X86500000Y-10643055D01*
X86000000Y-10524166D01*
D15*
G04 #@! TO.C,U1*
X28700000Y-37152499D02*
X28700000Y-36981166D01*
X29000000Y-37066832D02*
X28700000Y-37066832D01*
X29000000Y-36841166D02*
X28700000Y-36841166D01*
X28700000Y-36726833D01*
X28714333Y-36698166D01*
X28728667Y-36684166D01*
X28757000Y-36669833D01*
X28800000Y-36669833D01*
X28828667Y-36684166D01*
X28843000Y-36698166D01*
X28857000Y-36726833D01*
X28857000Y-36841166D01*
X28985667Y-36529833D02*
X29000000Y-36486833D01*
X29000000Y-36415500D01*
X28985667Y-36386833D01*
X28971333Y-36372833D01*
X28943000Y-36358500D01*
X28914333Y-36358500D01*
X28885667Y-36372833D01*
X28871333Y-36386833D01*
X28857000Y-36415500D01*
X28843000Y-36472833D01*
X28828667Y-36501166D01*
X28814333Y-36515500D01*
X28785667Y-36529833D01*
X28757000Y-36529833D01*
X28728667Y-36515500D01*
X28714333Y-36501166D01*
X28700000Y-36472833D01*
X28700000Y-36401166D01*
X28714333Y-36358500D01*
X28700000Y-36061500D02*
X28700000Y-36204167D01*
X28843000Y-36218500D01*
X28828667Y-36204167D01*
X28814333Y-36175500D01*
X28814333Y-36104167D01*
X28828667Y-36075500D01*
X28843000Y-36061500D01*
X28871333Y-36047167D01*
X28943000Y-36047167D01*
X28971333Y-36061500D01*
X28985667Y-36075500D01*
X29000000Y-36104167D01*
X29000000Y-36175500D01*
X28985667Y-36204167D01*
X28971333Y-36218500D01*
X28700000Y-35764167D02*
X28700000Y-35821500D01*
X28714333Y-35850167D01*
X28728667Y-35864167D01*
X28771333Y-35892834D01*
X28828667Y-35907167D01*
X28943000Y-35907167D01*
X28971333Y-35892834D01*
X28985667Y-35878500D01*
X29000000Y-35850167D01*
X29000000Y-35792834D01*
X28985667Y-35764167D01*
X28971333Y-35750167D01*
X28943000Y-35735834D01*
X28871333Y-35735834D01*
X28843000Y-35750167D01*
X28828667Y-35764167D01*
X28814333Y-35792834D01*
X28814333Y-35850167D01*
X28828667Y-35878500D01*
X28843000Y-35892834D01*
X28871333Y-35907167D01*
X28828667Y-35538834D02*
X28814333Y-35567167D01*
X28800000Y-35581501D01*
X28771333Y-35595834D01*
X28757000Y-35595834D01*
X28728667Y-35581501D01*
X28714333Y-35567167D01*
X28700000Y-35538834D01*
X28700000Y-35481501D01*
X28714333Y-35452834D01*
X28728667Y-35438834D01*
X28757000Y-35424501D01*
X28771333Y-35424501D01*
X28800000Y-35438834D01*
X28814333Y-35452834D01*
X28828667Y-35481501D01*
X28828667Y-35538834D01*
X28843000Y-35567167D01*
X28857000Y-35581501D01*
X28885667Y-35595834D01*
X28943000Y-35595834D01*
X28971333Y-35581501D01*
X28985667Y-35567167D01*
X29000000Y-35538834D01*
X29000000Y-35481501D01*
X28985667Y-35452834D01*
X28971333Y-35438834D01*
X28943000Y-35424501D01*
X28885667Y-35424501D01*
X28857000Y-35438834D01*
X28843000Y-35452834D01*
X28828667Y-35481501D01*
X28700000Y-35284501D02*
X28700000Y-35098834D01*
X28814333Y-35198834D01*
X28814333Y-35155834D01*
X28828667Y-35127501D01*
X28843000Y-35113168D01*
X28871333Y-35098834D01*
X28943000Y-35098834D01*
X28971333Y-35113168D01*
X28985667Y-35127501D01*
X29000000Y-35155834D01*
X29000000Y-35241501D01*
X28985667Y-35270168D01*
X28971333Y-35284501D01*
X28700000Y-34958834D02*
X28700000Y-34758834D01*
X29000000Y-34887501D01*
X29000000Y-34618834D02*
X28700000Y-34618834D01*
X28843000Y-34618834D02*
X28843000Y-34447501D01*
X29000000Y-34447501D02*
X28700000Y-34447501D01*
D12*
G04 #@! TO.C,R2*
X37575000Y-34883333D02*
X37575000Y-34573889D01*
X37765556Y-34740555D01*
X37765556Y-34668889D01*
X37789444Y-34621666D01*
X37813333Y-34597777D01*
X37860556Y-34573889D01*
X37980000Y-34573889D01*
X38027222Y-34597777D01*
X38051111Y-34621666D01*
X38075000Y-34668889D01*
X38075000Y-34811666D01*
X38051111Y-34859444D01*
X38027222Y-34883333D01*
X37575000Y-34255000D02*
X37575000Y-34207222D01*
X37598889Y-34159445D01*
X37622778Y-34135556D01*
X37670000Y-34112222D01*
X37765556Y-34088333D01*
X37884444Y-34088333D01*
X37980000Y-34112222D01*
X38027222Y-34135556D01*
X38051111Y-34159445D01*
X38075000Y-34207222D01*
X38075000Y-34255000D01*
X38051111Y-34302222D01*
X38027222Y-34326111D01*
X37980000Y-34350000D01*
X37884444Y-34373889D01*
X37765556Y-34373889D01*
X37670000Y-34350000D01*
X37622778Y-34326111D01*
X37598889Y-34302222D01*
X37575000Y-34255000D01*
X38075000Y-33888333D02*
X37575000Y-33888333D01*
X37884444Y-33840555D02*
X38075000Y-33697777D01*
X37741667Y-33697777D02*
X37932222Y-33888333D01*
X38075000Y-33497777D02*
X38075000Y-33378888D01*
X37980000Y-33378888D01*
X37956111Y-33426110D01*
X37908333Y-33473888D01*
X37836667Y-33497777D01*
X37717778Y-33497777D01*
X37646667Y-33473888D01*
X37598889Y-33426110D01*
X37575000Y-33354999D01*
X37575000Y-33259444D01*
X37598889Y-33188333D01*
X37646667Y-33140555D01*
X37717778Y-33116666D01*
X37836667Y-33116666D01*
X37908333Y-33140555D01*
X37956111Y-33188333D01*
X37980000Y-33236110D01*
X38075000Y-33236110D01*
X38075000Y-33116666D01*
D10*
G04 #@! TO.C,R10*
X80400000Y-20671666D02*
X80400000Y-21242777D01*
X80400000Y-20957221D02*
X79400000Y-20957221D01*
X79543333Y-21052777D01*
X79637778Y-21147221D01*
X79685556Y-21242777D01*
X79400000Y-20033888D02*
X79400000Y-19938333D01*
X79447778Y-19842777D01*
X79495556Y-19794999D01*
X79590000Y-19748333D01*
X79781111Y-19700555D01*
X80018889Y-19700555D01*
X80210000Y-19748333D01*
X80304444Y-19794999D01*
X80352222Y-19842777D01*
X80400000Y-19938333D01*
X80400000Y-20033888D01*
X80352222Y-20128333D01*
X80304444Y-20176110D01*
X80210000Y-20223888D01*
X80018889Y-20271666D01*
X79781111Y-20271666D01*
X79590000Y-20223888D01*
X79495556Y-20176110D01*
X79447778Y-20128333D01*
X79400000Y-20033888D01*
X80400000Y-19300555D02*
X79400000Y-19300555D01*
X80018889Y-19204999D02*
X80400000Y-18919444D01*
X79733333Y-18919444D02*
X80114444Y-19300555D01*
X80400000Y-18519444D02*
X80400000Y-18281666D01*
X80210000Y-18281666D01*
X80162222Y-18376111D01*
X80066667Y-18471666D01*
X79923333Y-18519444D01*
X79685556Y-18519444D01*
X79543333Y-18471666D01*
X79447778Y-18376111D01*
X79400000Y-18233888D01*
X79400000Y-18042777D01*
X79447778Y-17900555D01*
X79543333Y-17805000D01*
X79685556Y-17757222D01*
X79923333Y-17757222D01*
X80066667Y-17805000D01*
X80162222Y-17900555D01*
X80210000Y-17996111D01*
X80400000Y-17996111D01*
X80400000Y-17757222D01*
D12*
G04 #@! TO.C,C5*
X26135556Y-38050000D02*
X26183334Y-38050000D01*
X26231111Y-38073889D01*
X26255000Y-38097778D01*
X26278334Y-38145000D01*
X26302223Y-38240556D01*
X26302223Y-38359444D01*
X26278334Y-38455000D01*
X26255000Y-38502222D01*
X26231111Y-38526111D01*
X26183334Y-38550000D01*
X26135556Y-38550000D01*
X26088334Y-38526111D01*
X26064445Y-38502222D01*
X26040556Y-38455000D01*
X26016667Y-38359444D01*
X26016667Y-38240556D01*
X26040556Y-38145000D01*
X26064445Y-38097778D01*
X26088334Y-38073889D01*
X26135556Y-38050000D01*
X26526112Y-38502222D02*
X26550001Y-38526111D01*
X26526112Y-38550000D01*
X26502223Y-38526111D01*
X26526112Y-38502222D01*
X26526112Y-38550000D01*
X27035557Y-38550000D02*
X26750001Y-38550000D01*
X26892779Y-38550000D02*
X26892779Y-38050000D01*
X26845001Y-38121667D01*
X26797779Y-38168889D01*
X26750001Y-38192778D01*
X27235557Y-38216667D02*
X27235557Y-38716667D01*
X27473890Y-38478333D02*
X27497224Y-38526111D01*
X27545001Y-38550000D01*
X27235557Y-38478333D02*
X27259446Y-38526111D01*
X27307224Y-38550000D01*
X27402224Y-38550000D01*
X27450001Y-38526111D01*
X27473890Y-38478333D01*
X27473890Y-38216667D01*
X27911668Y-38288333D02*
X27745001Y-38288333D01*
X27745001Y-38550000D02*
X27745001Y-38050000D01*
X27983334Y-38050000D01*
D10*
G04 #@! TO.C,C4*
X23352222Y-41100000D02*
X22781111Y-41100000D01*
X23066667Y-41100000D02*
X23066667Y-40100000D01*
X22971111Y-40243333D01*
X22876667Y-40337778D01*
X22781111Y-40385556D01*
X23990000Y-40100000D02*
X24085555Y-40100000D01*
X24181111Y-40147778D01*
X24228889Y-40195556D01*
X24275555Y-40290000D01*
X24323333Y-40481111D01*
X24323333Y-40718889D01*
X24275555Y-40910000D01*
X24228889Y-41004444D01*
X24181111Y-41052222D01*
X24085555Y-41100000D01*
X23990000Y-41100000D01*
X23895555Y-41052222D01*
X23847778Y-41004444D01*
X23800000Y-40910000D01*
X23752222Y-40718889D01*
X23752222Y-40481111D01*
X23800000Y-40290000D01*
X23847778Y-40195556D01*
X23895555Y-40147778D01*
X23990000Y-40100000D01*
X24723333Y-40433333D02*
X24723333Y-41433333D01*
X25200000Y-40956667D02*
X25246666Y-41052222D01*
X25342222Y-41100000D01*
X24723333Y-40956667D02*
X24771111Y-41052222D01*
X24866666Y-41100000D01*
X25056666Y-41100000D01*
X25152222Y-41052222D01*
X25200000Y-40956667D01*
X25200000Y-40433333D01*
X26075555Y-40576667D02*
X25742222Y-40576667D01*
X25742222Y-41100000D02*
X25742222Y-40100000D01*
X26218889Y-40100000D01*
G04 #@! TO.C,C7*
X22781111Y-18745556D02*
X22828889Y-18697778D01*
X22923333Y-18650000D01*
X23162222Y-18650000D01*
X23256666Y-18697778D01*
X23304444Y-18745556D01*
X23352222Y-18840000D01*
X23352222Y-18935556D01*
X23304444Y-19078889D01*
X22733333Y-19650000D01*
X23352222Y-19650000D01*
X23800000Y-18745556D02*
X23847778Y-18697778D01*
X23942222Y-18650000D01*
X24181111Y-18650000D01*
X24275555Y-18697778D01*
X24323333Y-18745556D01*
X24371111Y-18840000D01*
X24371111Y-18935556D01*
X24323333Y-19078889D01*
X23752222Y-19650000D01*
X24371111Y-19650000D01*
X24771111Y-18983333D02*
X24771111Y-19983333D01*
X25247778Y-19506667D02*
X25294444Y-19602222D01*
X25390000Y-19650000D01*
X24771111Y-19506667D02*
X24818889Y-19602222D01*
X24914444Y-19650000D01*
X25104444Y-19650000D01*
X25200000Y-19602222D01*
X25247778Y-19506667D01*
X25247778Y-18983333D01*
X26123333Y-19126667D02*
X25790000Y-19126667D01*
X25790000Y-19650000D02*
X25790000Y-18650000D01*
X26266667Y-18650000D01*
D12*
G04 #@! TO.C,R3*
X34622778Y-38726389D02*
X34598889Y-38702500D01*
X34575000Y-38654722D01*
X34622778Y-38559722D01*
X34598889Y-38511945D01*
X34575000Y-38488056D01*
X34741667Y-38049723D02*
X35075000Y-38049723D01*
X34551111Y-38169167D02*
X34908333Y-38288056D01*
X34908333Y-37978612D01*
X35027222Y-37754723D02*
X35051111Y-37730834D01*
X35075000Y-37754723D01*
X35051111Y-37778612D01*
X35027222Y-37754723D01*
X35075000Y-37754723D01*
X35075000Y-37245278D02*
X35075000Y-37530834D01*
X35075000Y-37388056D02*
X34575000Y-37388056D01*
X34646667Y-37435834D01*
X34693889Y-37483056D01*
X34717778Y-37530834D01*
X35075000Y-37045278D02*
X34575000Y-37045278D01*
X34884444Y-36997500D02*
X35075000Y-36854722D01*
X34741667Y-36854722D02*
X34932222Y-37045278D01*
X35075000Y-36654722D02*
X35075000Y-36535833D01*
X34980000Y-36535833D01*
X34956111Y-36583055D01*
X34908333Y-36630833D01*
X34836667Y-36654722D01*
X34717778Y-36654722D01*
X34646667Y-36630833D01*
X34598889Y-36583055D01*
X34575000Y-36511944D01*
X34575000Y-36416389D01*
X34598889Y-36345278D01*
X34646667Y-36297500D01*
X34717778Y-36273611D01*
X34836667Y-36273611D01*
X34908333Y-36297500D01*
X34956111Y-36345278D01*
X34980000Y-36393055D01*
X35075000Y-36393055D01*
X35075000Y-36273611D01*
G04 #@! TO.C,Q2*
X50074167Y-44750000D02*
X50074167Y-44250000D01*
X50359723Y-44750000D01*
X50359723Y-44250000D01*
X50559723Y-44250000D02*
X50893056Y-44750000D01*
X50893056Y-44250000D02*
X50559723Y-44750000D01*
X51093056Y-44250000D02*
X51426389Y-44250000D01*
X51211945Y-44750000D01*
X51745278Y-44250000D02*
X51793056Y-44250000D01*
X51840833Y-44273889D01*
X51864722Y-44297778D01*
X51888056Y-44345000D01*
X51911945Y-44440556D01*
X51911945Y-44559444D01*
X51888056Y-44655000D01*
X51864722Y-44702222D01*
X51840833Y-44726111D01*
X51793056Y-44750000D01*
X51745278Y-44750000D01*
X51698056Y-44726111D01*
X51674167Y-44702222D01*
X51650278Y-44655000D01*
X51626389Y-44559444D01*
X51626389Y-44440556D01*
X51650278Y-44345000D01*
X51674167Y-44297778D01*
X51698056Y-44273889D01*
X51745278Y-44250000D01*
X52230834Y-44250000D02*
X52278612Y-44250000D01*
X52326389Y-44273889D01*
X52350278Y-44297778D01*
X52373612Y-44345000D01*
X52397501Y-44440556D01*
X52397501Y-44559444D01*
X52373612Y-44655000D01*
X52350278Y-44702222D01*
X52326389Y-44726111D01*
X52278612Y-44750000D01*
X52230834Y-44750000D01*
X52183612Y-44726111D01*
X52159723Y-44702222D01*
X52135834Y-44655000D01*
X52111945Y-44559444D01*
X52111945Y-44440556D01*
X52135834Y-44345000D01*
X52159723Y-44297778D01*
X52183612Y-44273889D01*
X52230834Y-44250000D01*
X52621390Y-44297778D02*
X52645279Y-44273889D01*
X52692501Y-44250000D01*
X52811945Y-44250000D01*
X52859168Y-44273889D01*
X52883057Y-44297778D01*
X52906945Y-44345000D01*
X52906945Y-44392778D01*
X52883057Y-44464444D01*
X52597501Y-44750000D01*
X52906945Y-44750000D01*
X53154723Y-44607222D02*
X53392501Y-44607222D01*
X53106945Y-44750000D02*
X53273612Y-44250000D01*
X53440278Y-44750000D01*
X53640278Y-44750000D02*
X53640278Y-44250000D01*
X53925834Y-44750000D02*
X53711945Y-44464444D01*
X53925834Y-44250000D02*
X53640278Y-44535556D01*
G04 #@! TO.C,R1*
X35100000Y-41085833D02*
X35100000Y-41371389D01*
X35100000Y-41228611D02*
X34600000Y-41228611D01*
X34671667Y-41276389D01*
X34718889Y-41323611D01*
X34742778Y-41371389D01*
X34600000Y-40766944D02*
X34600000Y-40719166D01*
X34623889Y-40671389D01*
X34647778Y-40647500D01*
X34695000Y-40624166D01*
X34790556Y-40600277D01*
X34909444Y-40600277D01*
X35005000Y-40624166D01*
X35052222Y-40647500D01*
X35076111Y-40671389D01*
X35100000Y-40719166D01*
X35100000Y-40766944D01*
X35076111Y-40814166D01*
X35052222Y-40838055D01*
X35005000Y-40861944D01*
X34909444Y-40885833D01*
X34790556Y-40885833D01*
X34695000Y-40861944D01*
X34647778Y-40838055D01*
X34623889Y-40814166D01*
X34600000Y-40766944D01*
X35100000Y-40400277D02*
X34600000Y-40400277D01*
X34909444Y-40352499D02*
X35100000Y-40209721D01*
X34766667Y-40209721D02*
X34957222Y-40400277D01*
X35100000Y-40009721D02*
X35100000Y-39890832D01*
X35005000Y-39890832D01*
X34981111Y-39938054D01*
X34933333Y-39985832D01*
X34861667Y-40009721D01*
X34742778Y-40009721D01*
X34671667Y-39985832D01*
X34623889Y-39938054D01*
X34600000Y-39866943D01*
X34600000Y-39771388D01*
X34623889Y-39700277D01*
X34671667Y-39652499D01*
X34742778Y-39628610D01*
X34861667Y-39628610D01*
X34933333Y-39652499D01*
X34981111Y-39700277D01*
X35005000Y-39748054D01*
X35100000Y-39748054D01*
X35100000Y-39628610D01*
D10*
G04 #@! TO.C,C3*
X22781111Y-45445556D02*
X22828889Y-45397778D01*
X22923333Y-45350000D01*
X23162222Y-45350000D01*
X23256666Y-45397778D01*
X23304444Y-45445556D01*
X23352222Y-45540000D01*
X23352222Y-45635556D01*
X23304444Y-45778889D01*
X22733333Y-46350000D01*
X23352222Y-46350000D01*
X23800000Y-45445556D02*
X23847778Y-45397778D01*
X23942222Y-45350000D01*
X24181111Y-45350000D01*
X24275555Y-45397778D01*
X24323333Y-45445556D01*
X24371111Y-45540000D01*
X24371111Y-45635556D01*
X24323333Y-45778889D01*
X23752222Y-46350000D01*
X24371111Y-46350000D01*
X24771111Y-45683333D02*
X24771111Y-46683333D01*
X25247778Y-46206667D02*
X25294444Y-46302222D01*
X25390000Y-46350000D01*
X24771111Y-46206667D02*
X24818889Y-46302222D01*
X24914444Y-46350000D01*
X25104444Y-46350000D01*
X25200000Y-46302222D01*
X25247778Y-46206667D01*
X25247778Y-45683333D01*
X26123333Y-45826667D02*
X25790000Y-45826667D01*
X25790000Y-46350000D02*
X25790000Y-45350000D01*
X26266667Y-45350000D01*
D12*
G04 #@! TO.C,BR1*
X26900000Y-56649722D02*
X26661667Y-56816389D01*
X26900000Y-56935278D02*
X26400000Y-56935278D01*
X26400000Y-56744722D01*
X26423889Y-56696945D01*
X26447778Y-56673611D01*
X26495000Y-56649722D01*
X26566667Y-56649722D01*
X26614444Y-56673611D01*
X26638333Y-56696945D01*
X26661667Y-56744722D01*
X26661667Y-56935278D01*
X26900000Y-56449722D02*
X26400000Y-56449722D01*
X26400000Y-56259166D01*
X26423889Y-56211389D01*
X26447778Y-56188055D01*
X26495000Y-56164166D01*
X26566667Y-56164166D01*
X26614444Y-56188055D01*
X26638333Y-56211389D01*
X26661667Y-56259166D01*
X26661667Y-56449722D01*
X26900000Y-55964166D02*
X26400000Y-55964166D01*
X26757222Y-55797499D01*
X26400000Y-55630833D01*
X26900000Y-55630833D01*
X26876111Y-55430833D02*
X26900000Y-55359166D01*
X26900000Y-55240277D01*
X26876111Y-55192500D01*
X26852222Y-55169166D01*
X26805000Y-55145277D01*
X26757222Y-55145277D01*
X26709444Y-55169166D01*
X26685556Y-55192500D01*
X26661667Y-55240277D01*
X26638333Y-55335833D01*
X26614444Y-55383055D01*
X26590556Y-55406944D01*
X26542778Y-55430833D01*
X26495000Y-55430833D01*
X26447778Y-55406944D01*
X26423889Y-55383055D01*
X26400000Y-55335833D01*
X26400000Y-55216389D01*
X26423889Y-55145277D01*
X26566667Y-54706944D02*
X26900000Y-54706944D01*
X26376111Y-54826388D02*
X26733333Y-54945277D01*
X26733333Y-54635833D01*
X26900000Y-54150277D02*
X26900000Y-54435833D01*
X26900000Y-54293055D02*
X26400000Y-54293055D01*
X26471667Y-54340833D01*
X26518889Y-54388055D01*
X26542778Y-54435833D01*
X26400000Y-53831388D02*
X26400000Y-53783610D01*
X26423889Y-53735833D01*
X26447778Y-53711944D01*
X26495000Y-53688610D01*
X26590556Y-53664721D01*
X26709444Y-53664721D01*
X26805000Y-53688610D01*
X26852222Y-53711944D01*
X26876111Y-53735833D01*
X26900000Y-53783610D01*
X26900000Y-53831388D01*
X26876111Y-53878610D01*
X26852222Y-53902499D01*
X26805000Y-53926388D01*
X26709444Y-53950277D01*
X26590556Y-53950277D01*
X26495000Y-53926388D01*
X26447778Y-53902499D01*
X26423889Y-53878610D01*
X26400000Y-53831388D01*
D10*
G04 #@! TO.C,R5*
X47328334Y-40600000D02*
X46757223Y-40600000D01*
X47042779Y-40600000D02*
X47042779Y-39600000D01*
X46947223Y-39743333D01*
X46852779Y-39837778D01*
X46757223Y-39885556D01*
X47966112Y-39600000D02*
X48061667Y-39600000D01*
X48157223Y-39647778D01*
X48205001Y-39695556D01*
X48251667Y-39790000D01*
X48299445Y-39981111D01*
X48299445Y-40218889D01*
X48251667Y-40410000D01*
X48205001Y-40504444D01*
X48157223Y-40552222D01*
X48061667Y-40600000D01*
X47966112Y-40600000D01*
X47871667Y-40552222D01*
X47823890Y-40504444D01*
X47776112Y-40410000D01*
X47728334Y-40218889D01*
X47728334Y-39981111D01*
X47776112Y-39790000D01*
X47823890Y-39695556D01*
X47871667Y-39647778D01*
X47966112Y-39600000D01*
X48699445Y-40600000D02*
X48699445Y-39600000D01*
X48795001Y-40218889D02*
X49080556Y-40600000D01*
X49080556Y-39933333D02*
X48699445Y-40314444D01*
X49480556Y-40600000D02*
X49718334Y-40600000D01*
X49718334Y-40410000D01*
X49623889Y-40362222D01*
X49528334Y-40266667D01*
X49480556Y-40123333D01*
X49480556Y-39885556D01*
X49528334Y-39743333D01*
X49623889Y-39647778D01*
X49766112Y-39600000D01*
X49957223Y-39600000D01*
X50099445Y-39647778D01*
X50195000Y-39743333D01*
X50242778Y-39885556D01*
X50242778Y-40123333D01*
X50195000Y-40266667D01*
X50099445Y-40362222D01*
X50003889Y-40410000D01*
X50003889Y-40600000D01*
X50242778Y-40600000D01*
G04 #@! TO.C,K2*
X61317778Y-41200000D02*
X61317778Y-41914444D01*
X61270000Y-42056667D01*
X61174445Y-42152222D01*
X61032223Y-42200000D01*
X60936667Y-42200000D01*
X61717778Y-41200000D02*
X62051111Y-42200000D01*
X62384445Y-41200000D01*
X63584444Y-42152222D02*
X63727777Y-42200000D01*
X63965555Y-42200000D01*
X64061111Y-42152222D01*
X64107777Y-42104444D01*
X64155555Y-42010000D01*
X64155555Y-41914444D01*
X64107777Y-41818889D01*
X64061111Y-41771111D01*
X63965555Y-41723333D01*
X63774444Y-41676667D01*
X63680000Y-41628889D01*
X63632222Y-41581111D01*
X63584444Y-41485556D01*
X63584444Y-41390000D01*
X63632222Y-41295556D01*
X63680000Y-41247778D01*
X63774444Y-41200000D01*
X64013333Y-41200000D01*
X64155555Y-41247778D01*
X64984444Y-42152222D02*
X64888888Y-42200000D01*
X64698888Y-42200000D01*
X64603333Y-42152222D01*
X64555555Y-42056667D01*
X64555555Y-41676667D01*
X64603333Y-41581111D01*
X64698888Y-41533333D01*
X64888888Y-41533333D01*
X64984444Y-41581111D01*
X65032222Y-41676667D01*
X65032222Y-41771111D01*
X64555555Y-41866667D01*
X65432222Y-42200000D02*
X65432222Y-41533333D01*
X65432222Y-41723333D02*
X65480000Y-41628889D01*
X65527778Y-41581111D01*
X65622222Y-41533333D01*
X65717778Y-41533333D01*
X66165556Y-42200000D02*
X66165556Y-41533333D01*
X66165556Y-41200000D02*
X66117778Y-41247778D01*
X66165556Y-41295556D01*
X66213334Y-41247778D01*
X66165556Y-41200000D01*
X66165556Y-41295556D01*
X67042223Y-42152222D02*
X66946667Y-42200000D01*
X66756667Y-42200000D01*
X66661112Y-42152222D01*
X66613334Y-42056667D01*
X66613334Y-41676667D01*
X66661112Y-41581111D01*
X66756667Y-41533333D01*
X66946667Y-41533333D01*
X67042223Y-41581111D01*
X67090001Y-41676667D01*
X67090001Y-41771111D01*
X66613334Y-41866667D01*
X67490001Y-42152222D02*
X67585557Y-42200000D01*
X67775557Y-42200000D01*
X67871112Y-42152222D01*
X67918890Y-42056667D01*
X67918890Y-42010000D01*
X67871112Y-41914444D01*
X67775557Y-41866667D01*
X67633334Y-41866667D01*
X67537779Y-41818889D01*
X67490001Y-41723333D01*
X67490001Y-41676667D01*
X67537779Y-41581111D01*
X67633334Y-41533333D01*
X67775557Y-41533333D01*
X67871112Y-41581111D01*
X69690000Y-42200000D02*
X69356667Y-41723333D01*
X69118889Y-42200000D02*
X69118889Y-41200000D01*
X69500000Y-41200000D01*
X69595556Y-41247778D01*
X69642222Y-41295556D01*
X69690000Y-41390000D01*
X69690000Y-41533333D01*
X69642222Y-41628889D01*
X69595556Y-41676667D01*
X69500000Y-41723333D01*
X69118889Y-41723333D01*
X70518889Y-42152222D02*
X70423333Y-42200000D01*
X70233333Y-42200000D01*
X70137778Y-42152222D01*
X70090000Y-42056667D01*
X70090000Y-41676667D01*
X70137778Y-41581111D01*
X70233333Y-41533333D01*
X70423333Y-41533333D01*
X70518889Y-41581111D01*
X70566667Y-41676667D01*
X70566667Y-41771111D01*
X70090000Y-41866667D01*
X71110000Y-42200000D02*
X71014445Y-42152222D01*
X70966667Y-42056667D01*
X70966667Y-41200000D01*
X71986667Y-42200000D02*
X71986667Y-41676667D01*
X71938889Y-41581111D01*
X71843333Y-41533333D01*
X71653333Y-41533333D01*
X71557778Y-41581111D01*
X71986667Y-42152222D02*
X71891111Y-42200000D01*
X71653333Y-42200000D01*
X71557778Y-42152222D01*
X71510000Y-42056667D01*
X71510000Y-41962222D01*
X71557778Y-41866667D01*
X71653333Y-41818889D01*
X71891111Y-41818889D01*
X71986667Y-41771111D01*
X72386667Y-41533333D02*
X72624445Y-42200000D01*
X72863334Y-41533333D02*
X72624445Y-42200000D01*
X72530000Y-42437778D01*
X72482223Y-42485556D01*
X72386667Y-42533333D01*
G04 #@! TO.C,K5*
X90317778Y-48700000D02*
X90317778Y-49414444D01*
X90270000Y-49556667D01*
X90174445Y-49652222D01*
X90032223Y-49700000D01*
X89936667Y-49700000D01*
X90717778Y-48700000D02*
X91051111Y-49700000D01*
X91384445Y-48700000D01*
X92584444Y-49652222D02*
X92727777Y-49700000D01*
X92965555Y-49700000D01*
X93061111Y-49652222D01*
X93107777Y-49604444D01*
X93155555Y-49510000D01*
X93155555Y-49414444D01*
X93107777Y-49318889D01*
X93061111Y-49271111D01*
X92965555Y-49223333D01*
X92774444Y-49176667D01*
X92680000Y-49128889D01*
X92632222Y-49081111D01*
X92584444Y-48985556D01*
X92584444Y-48890000D01*
X92632222Y-48795556D01*
X92680000Y-48747778D01*
X92774444Y-48700000D01*
X93013333Y-48700000D01*
X93155555Y-48747778D01*
X93984444Y-49652222D02*
X93888888Y-49700000D01*
X93698888Y-49700000D01*
X93603333Y-49652222D01*
X93555555Y-49556667D01*
X93555555Y-49176667D01*
X93603333Y-49081111D01*
X93698888Y-49033333D01*
X93888888Y-49033333D01*
X93984444Y-49081111D01*
X94032222Y-49176667D01*
X94032222Y-49271111D01*
X93555555Y-49366667D01*
X94432222Y-49700000D02*
X94432222Y-49033333D01*
X94432222Y-49223333D02*
X94480000Y-49128889D01*
X94527778Y-49081111D01*
X94622222Y-49033333D01*
X94717778Y-49033333D01*
X95165556Y-49700000D02*
X95165556Y-49033333D01*
X95165556Y-48700000D02*
X95117778Y-48747778D01*
X95165556Y-48795556D01*
X95213334Y-48747778D01*
X95165556Y-48700000D01*
X95165556Y-48795556D01*
X96042223Y-49652222D02*
X95946667Y-49700000D01*
X95756667Y-49700000D01*
X95661112Y-49652222D01*
X95613334Y-49556667D01*
X95613334Y-49176667D01*
X95661112Y-49081111D01*
X95756667Y-49033333D01*
X95946667Y-49033333D01*
X96042223Y-49081111D01*
X96090001Y-49176667D01*
X96090001Y-49271111D01*
X95613334Y-49366667D01*
X96490001Y-49652222D02*
X96585557Y-49700000D01*
X96775557Y-49700000D01*
X96871112Y-49652222D01*
X96918890Y-49556667D01*
X96918890Y-49510000D01*
X96871112Y-49414444D01*
X96775557Y-49366667D01*
X96633334Y-49366667D01*
X96537779Y-49318889D01*
X96490001Y-49223333D01*
X96490001Y-49176667D01*
X96537779Y-49081111D01*
X96633334Y-49033333D01*
X96775557Y-49033333D01*
X96871112Y-49081111D01*
X98690000Y-49700000D02*
X98356667Y-49223333D01*
X98118889Y-49700000D02*
X98118889Y-48700000D01*
X98500000Y-48700000D01*
X98595556Y-48747778D01*
X98642222Y-48795556D01*
X98690000Y-48890000D01*
X98690000Y-49033333D01*
X98642222Y-49128889D01*
X98595556Y-49176667D01*
X98500000Y-49223333D01*
X98118889Y-49223333D01*
X99518889Y-49652222D02*
X99423333Y-49700000D01*
X99233333Y-49700000D01*
X99137778Y-49652222D01*
X99090000Y-49556667D01*
X99090000Y-49176667D01*
X99137778Y-49081111D01*
X99233333Y-49033333D01*
X99423333Y-49033333D01*
X99518889Y-49081111D01*
X99566667Y-49176667D01*
X99566667Y-49271111D01*
X99090000Y-49366667D01*
X100110000Y-49700000D02*
X100014445Y-49652222D01*
X99966667Y-49556667D01*
X99966667Y-48700000D01*
X100986667Y-49700000D02*
X100986667Y-49176667D01*
X100938889Y-49081111D01*
X100843333Y-49033333D01*
X100653333Y-49033333D01*
X100557778Y-49081111D01*
X100986667Y-49652222D02*
X100891111Y-49700000D01*
X100653333Y-49700000D01*
X100557778Y-49652222D01*
X100510000Y-49556667D01*
X100510000Y-49462222D01*
X100557778Y-49366667D01*
X100653333Y-49318889D01*
X100891111Y-49318889D01*
X100986667Y-49271111D01*
X101386667Y-49033333D02*
X101624445Y-49700000D01*
X101863334Y-49033333D02*
X101624445Y-49700000D01*
X101530000Y-49937778D01*
X101482223Y-49985556D01*
X101386667Y-50033333D01*
G04 #@! TO.C,K4*
X61317778Y-16200000D02*
X61317778Y-16914444D01*
X61270000Y-17056667D01*
X61174445Y-17152222D01*
X61032223Y-17200000D01*
X60936667Y-17200000D01*
X61717778Y-16200000D02*
X62051111Y-17200000D01*
X62384445Y-16200000D01*
X63584444Y-17152222D02*
X63727777Y-17200000D01*
X63965555Y-17200000D01*
X64061111Y-17152222D01*
X64107777Y-17104444D01*
X64155555Y-17010000D01*
X64155555Y-16914444D01*
X64107777Y-16818889D01*
X64061111Y-16771111D01*
X63965555Y-16723333D01*
X63774444Y-16676667D01*
X63680000Y-16628889D01*
X63632222Y-16581111D01*
X63584444Y-16485556D01*
X63584444Y-16390000D01*
X63632222Y-16295556D01*
X63680000Y-16247778D01*
X63774444Y-16200000D01*
X64013333Y-16200000D01*
X64155555Y-16247778D01*
X64984444Y-17152222D02*
X64888888Y-17200000D01*
X64698888Y-17200000D01*
X64603333Y-17152222D01*
X64555555Y-17056667D01*
X64555555Y-16676667D01*
X64603333Y-16581111D01*
X64698888Y-16533333D01*
X64888888Y-16533333D01*
X64984444Y-16581111D01*
X65032222Y-16676667D01*
X65032222Y-16771111D01*
X64555555Y-16866667D01*
X65432222Y-17200000D02*
X65432222Y-16533333D01*
X65432222Y-16723333D02*
X65480000Y-16628889D01*
X65527778Y-16581111D01*
X65622222Y-16533333D01*
X65717778Y-16533333D01*
X66165556Y-17200000D02*
X66165556Y-16533333D01*
X66165556Y-16200000D02*
X66117778Y-16247778D01*
X66165556Y-16295556D01*
X66213334Y-16247778D01*
X66165556Y-16200000D01*
X66165556Y-16295556D01*
X67042223Y-17152222D02*
X66946667Y-17200000D01*
X66756667Y-17200000D01*
X66661112Y-17152222D01*
X66613334Y-17056667D01*
X66613334Y-16676667D01*
X66661112Y-16581111D01*
X66756667Y-16533333D01*
X66946667Y-16533333D01*
X67042223Y-16581111D01*
X67090001Y-16676667D01*
X67090001Y-16771111D01*
X66613334Y-16866667D01*
X67490001Y-17152222D02*
X67585557Y-17200000D01*
X67775557Y-17200000D01*
X67871112Y-17152222D01*
X67918890Y-17056667D01*
X67918890Y-17010000D01*
X67871112Y-16914444D01*
X67775557Y-16866667D01*
X67633334Y-16866667D01*
X67537779Y-16818889D01*
X67490001Y-16723333D01*
X67490001Y-16676667D01*
X67537779Y-16581111D01*
X67633334Y-16533333D01*
X67775557Y-16533333D01*
X67871112Y-16581111D01*
X69690000Y-17200000D02*
X69356667Y-16723333D01*
X69118889Y-17200000D02*
X69118889Y-16200000D01*
X69500000Y-16200000D01*
X69595556Y-16247778D01*
X69642222Y-16295556D01*
X69690000Y-16390000D01*
X69690000Y-16533333D01*
X69642222Y-16628889D01*
X69595556Y-16676667D01*
X69500000Y-16723333D01*
X69118889Y-16723333D01*
X70518889Y-17152222D02*
X70423333Y-17200000D01*
X70233333Y-17200000D01*
X70137778Y-17152222D01*
X70090000Y-17056667D01*
X70090000Y-16676667D01*
X70137778Y-16581111D01*
X70233333Y-16533333D01*
X70423333Y-16533333D01*
X70518889Y-16581111D01*
X70566667Y-16676667D01*
X70566667Y-16771111D01*
X70090000Y-16866667D01*
X71110000Y-17200000D02*
X71014445Y-17152222D01*
X70966667Y-17056667D01*
X70966667Y-16200000D01*
X71986667Y-17200000D02*
X71986667Y-16676667D01*
X71938889Y-16581111D01*
X71843333Y-16533333D01*
X71653333Y-16533333D01*
X71557778Y-16581111D01*
X71986667Y-17152222D02*
X71891111Y-17200000D01*
X71653333Y-17200000D01*
X71557778Y-17152222D01*
X71510000Y-17056667D01*
X71510000Y-16962222D01*
X71557778Y-16866667D01*
X71653333Y-16818889D01*
X71891111Y-16818889D01*
X71986667Y-16771111D01*
X72386667Y-16533333D02*
X72624445Y-17200000D01*
X72863334Y-16533333D02*
X72624445Y-17200000D01*
X72530000Y-17437778D01*
X72482223Y-17485556D01*
X72386667Y-17533333D01*
D12*
G04 #@! TO.C,Q5*
X79074167Y-52250000D02*
X79074167Y-51750000D01*
X79359723Y-52250000D01*
X79359723Y-51750000D01*
X79559723Y-51750000D02*
X79893056Y-52250000D01*
X79893056Y-51750000D02*
X79559723Y-52250000D01*
X80093056Y-51750000D02*
X80426389Y-51750000D01*
X80211945Y-52250000D01*
X80745278Y-51750000D02*
X80793056Y-51750000D01*
X80840833Y-51773889D01*
X80864722Y-51797778D01*
X80888056Y-51845000D01*
X80911945Y-51940556D01*
X80911945Y-52059444D01*
X80888056Y-52155000D01*
X80864722Y-52202222D01*
X80840833Y-52226111D01*
X80793056Y-52250000D01*
X80745278Y-52250000D01*
X80698056Y-52226111D01*
X80674167Y-52202222D01*
X80650278Y-52155000D01*
X80626389Y-52059444D01*
X80626389Y-51940556D01*
X80650278Y-51845000D01*
X80674167Y-51797778D01*
X80698056Y-51773889D01*
X80745278Y-51750000D01*
X81230834Y-51750000D02*
X81278612Y-51750000D01*
X81326389Y-51773889D01*
X81350278Y-51797778D01*
X81373612Y-51845000D01*
X81397501Y-51940556D01*
X81397501Y-52059444D01*
X81373612Y-52155000D01*
X81350278Y-52202222D01*
X81326389Y-52226111D01*
X81278612Y-52250000D01*
X81230834Y-52250000D01*
X81183612Y-52226111D01*
X81159723Y-52202222D01*
X81135834Y-52155000D01*
X81111945Y-52059444D01*
X81111945Y-51940556D01*
X81135834Y-51845000D01*
X81159723Y-51797778D01*
X81183612Y-51773889D01*
X81230834Y-51750000D01*
X81621390Y-51797778D02*
X81645279Y-51773889D01*
X81692501Y-51750000D01*
X81811945Y-51750000D01*
X81859168Y-51773889D01*
X81883057Y-51797778D01*
X81906945Y-51845000D01*
X81906945Y-51892778D01*
X81883057Y-51964444D01*
X81597501Y-52250000D01*
X81906945Y-52250000D01*
X82154723Y-52107222D02*
X82392501Y-52107222D01*
X82106945Y-52250000D02*
X82273612Y-51750000D01*
X82440278Y-52250000D01*
X82640278Y-52250000D02*
X82640278Y-51750000D01*
X82925834Y-52250000D02*
X82711945Y-51964444D01*
X82925834Y-51750000D02*
X82640278Y-52035556D01*
G04 #@! TO.C,C1*
X33688057Y-33097778D02*
X33711946Y-33073889D01*
X33759168Y-33050000D01*
X33878612Y-33050000D01*
X33925835Y-33073889D01*
X33949724Y-33097778D01*
X33973612Y-33145000D01*
X33973612Y-33192778D01*
X33949724Y-33264444D01*
X33664168Y-33550000D01*
X33973612Y-33550000D01*
X34197501Y-33097778D02*
X34221390Y-33073889D01*
X34268612Y-33050000D01*
X34388056Y-33050000D01*
X34435279Y-33073889D01*
X34459168Y-33097778D01*
X34483056Y-33145000D01*
X34483056Y-33192778D01*
X34459168Y-33264444D01*
X34173612Y-33550000D01*
X34483056Y-33550000D01*
X34683056Y-33216667D02*
X34683056Y-33550000D01*
X34683056Y-33264444D02*
X34706945Y-33240556D01*
X34754723Y-33216667D01*
X34825834Y-33216667D01*
X34873612Y-33240556D01*
X34897500Y-33288333D01*
X34897500Y-33550000D01*
X35264167Y-33288333D02*
X35097500Y-33288333D01*
X35097500Y-33550000D02*
X35097500Y-33050000D01*
X35335833Y-33050000D01*
D10*
G04 #@! TO.C,C10*
X22781111Y-22245556D02*
X22828889Y-22197778D01*
X22923333Y-22150000D01*
X23162222Y-22150000D01*
X23256666Y-22197778D01*
X23304444Y-22245556D01*
X23352222Y-22340000D01*
X23352222Y-22435556D01*
X23304444Y-22578889D01*
X22733333Y-23150000D01*
X23352222Y-23150000D01*
X23800000Y-22245556D02*
X23847778Y-22197778D01*
X23942222Y-22150000D01*
X24181111Y-22150000D01*
X24275555Y-22197778D01*
X24323333Y-22245556D01*
X24371111Y-22340000D01*
X24371111Y-22435556D01*
X24323333Y-22578889D01*
X23752222Y-23150000D01*
X24371111Y-23150000D01*
X24771111Y-22483333D02*
X24771111Y-23483333D01*
X25247778Y-23006667D02*
X25294444Y-23102222D01*
X25390000Y-23150000D01*
X24771111Y-23006667D02*
X24818889Y-23102222D01*
X24914444Y-23150000D01*
X25104444Y-23150000D01*
X25200000Y-23102222D01*
X25247778Y-23006667D01*
X25247778Y-22483333D01*
X26123333Y-22626667D02*
X25790000Y-22626667D01*
X25790000Y-23150000D02*
X25790000Y-22150000D01*
X26266667Y-22150000D01*
D12*
G04 #@! TO.C,D3*
X57238333Y-43309166D02*
X57261667Y-43237500D01*
X57285556Y-43214166D01*
X57333333Y-43190277D01*
X57405000Y-43190277D01*
X57452222Y-43214166D01*
X57476111Y-43237500D01*
X57500000Y-43285277D01*
X57500000Y-43475833D01*
X57000000Y-43475833D01*
X57000000Y-43309166D01*
X57023889Y-43261389D01*
X57047778Y-43237500D01*
X57095000Y-43214166D01*
X57142778Y-43214166D01*
X57190556Y-43237500D01*
X57214444Y-43261389D01*
X57238333Y-43309166D01*
X57238333Y-43475833D01*
X57357222Y-42942499D02*
X57357222Y-42704721D01*
X57500000Y-42990277D02*
X57000000Y-42823610D01*
X57500000Y-42656944D01*
X57000000Y-42456944D02*
X57500000Y-42290277D01*
X57000000Y-42123611D01*
X57500000Y-41638055D02*
X57500000Y-41923611D01*
X57500000Y-41780833D02*
X57000000Y-41780833D01*
X57071667Y-41828611D01*
X57118889Y-41875833D01*
X57142778Y-41923611D01*
X57000000Y-41199722D02*
X57000000Y-41295277D01*
X57023889Y-41343055D01*
X57047778Y-41366388D01*
X57118889Y-41414166D01*
X57214444Y-41438055D01*
X57405000Y-41438055D01*
X57452222Y-41414166D01*
X57476111Y-41390277D01*
X57500000Y-41343055D01*
X57500000Y-41247499D01*
X57476111Y-41199722D01*
X57452222Y-41176388D01*
X57405000Y-41152499D01*
X57285556Y-41152499D01*
X57238333Y-41176388D01*
X57214444Y-41199722D01*
X57190556Y-41247499D01*
X57190556Y-41343055D01*
X57214444Y-41390277D01*
X57238333Y-41414166D01*
X57285556Y-41438055D01*
X57000000Y-40952499D02*
X57500000Y-40833610D01*
X57142778Y-40738055D01*
X57500000Y-40643055D01*
X57000000Y-40524166D01*
D10*
G04 #@! TO.C,K6*
X90317778Y-36200000D02*
X90317778Y-36914444D01*
X90270000Y-37056667D01*
X90174445Y-37152222D01*
X90032223Y-37200000D01*
X89936667Y-37200000D01*
X90717778Y-36200000D02*
X91051111Y-37200000D01*
X91384445Y-36200000D01*
X92584444Y-37152222D02*
X92727777Y-37200000D01*
X92965555Y-37200000D01*
X93061111Y-37152222D01*
X93107777Y-37104444D01*
X93155555Y-37010000D01*
X93155555Y-36914444D01*
X93107777Y-36818889D01*
X93061111Y-36771111D01*
X92965555Y-36723333D01*
X92774444Y-36676667D01*
X92680000Y-36628889D01*
X92632222Y-36581111D01*
X92584444Y-36485556D01*
X92584444Y-36390000D01*
X92632222Y-36295556D01*
X92680000Y-36247778D01*
X92774444Y-36200000D01*
X93013333Y-36200000D01*
X93155555Y-36247778D01*
X93984444Y-37152222D02*
X93888888Y-37200000D01*
X93698888Y-37200000D01*
X93603333Y-37152222D01*
X93555555Y-37056667D01*
X93555555Y-36676667D01*
X93603333Y-36581111D01*
X93698888Y-36533333D01*
X93888888Y-36533333D01*
X93984444Y-36581111D01*
X94032222Y-36676667D01*
X94032222Y-36771111D01*
X93555555Y-36866667D01*
X94432222Y-37200000D02*
X94432222Y-36533333D01*
X94432222Y-36723333D02*
X94480000Y-36628889D01*
X94527778Y-36581111D01*
X94622222Y-36533333D01*
X94717778Y-36533333D01*
X95165556Y-37200000D02*
X95165556Y-36533333D01*
X95165556Y-36200000D02*
X95117778Y-36247778D01*
X95165556Y-36295556D01*
X95213334Y-36247778D01*
X95165556Y-36200000D01*
X95165556Y-36295556D01*
X96042223Y-37152222D02*
X95946667Y-37200000D01*
X95756667Y-37200000D01*
X95661112Y-37152222D01*
X95613334Y-37056667D01*
X95613334Y-36676667D01*
X95661112Y-36581111D01*
X95756667Y-36533333D01*
X95946667Y-36533333D01*
X96042223Y-36581111D01*
X96090001Y-36676667D01*
X96090001Y-36771111D01*
X95613334Y-36866667D01*
X96490001Y-37152222D02*
X96585557Y-37200000D01*
X96775557Y-37200000D01*
X96871112Y-37152222D01*
X96918890Y-37056667D01*
X96918890Y-37010000D01*
X96871112Y-36914444D01*
X96775557Y-36866667D01*
X96633334Y-36866667D01*
X96537779Y-36818889D01*
X96490001Y-36723333D01*
X96490001Y-36676667D01*
X96537779Y-36581111D01*
X96633334Y-36533333D01*
X96775557Y-36533333D01*
X96871112Y-36581111D01*
X98690000Y-37200000D02*
X98356667Y-36723333D01*
X98118889Y-37200000D02*
X98118889Y-36200000D01*
X98500000Y-36200000D01*
X98595556Y-36247778D01*
X98642222Y-36295556D01*
X98690000Y-36390000D01*
X98690000Y-36533333D01*
X98642222Y-36628889D01*
X98595556Y-36676667D01*
X98500000Y-36723333D01*
X98118889Y-36723333D01*
X99518889Y-37152222D02*
X99423333Y-37200000D01*
X99233333Y-37200000D01*
X99137778Y-37152222D01*
X99090000Y-37056667D01*
X99090000Y-36676667D01*
X99137778Y-36581111D01*
X99233333Y-36533333D01*
X99423333Y-36533333D01*
X99518889Y-36581111D01*
X99566667Y-36676667D01*
X99566667Y-36771111D01*
X99090000Y-36866667D01*
X100110000Y-37200000D02*
X100014445Y-37152222D01*
X99966667Y-37056667D01*
X99966667Y-36200000D01*
X100986667Y-37200000D02*
X100986667Y-36676667D01*
X100938889Y-36581111D01*
X100843333Y-36533333D01*
X100653333Y-36533333D01*
X100557778Y-36581111D01*
X100986667Y-37152222D02*
X100891111Y-37200000D01*
X100653333Y-37200000D01*
X100557778Y-37152222D01*
X100510000Y-37056667D01*
X100510000Y-36962222D01*
X100557778Y-36866667D01*
X100653333Y-36818889D01*
X100891111Y-36818889D01*
X100986667Y-36771111D01*
X101386667Y-36533333D02*
X101624445Y-37200000D01*
X101863334Y-36533333D02*
X101624445Y-37200000D01*
X101530000Y-37437778D01*
X101482223Y-37485556D01*
X101386667Y-37533333D01*
G04 #@! TO.C,K3*
X61317778Y-28700000D02*
X61317778Y-29414444D01*
X61270000Y-29556667D01*
X61174445Y-29652222D01*
X61032223Y-29700000D01*
X60936667Y-29700000D01*
X61717778Y-28700000D02*
X62051111Y-29700000D01*
X62384445Y-28700000D01*
X63584444Y-29652222D02*
X63727777Y-29700000D01*
X63965555Y-29700000D01*
X64061111Y-29652222D01*
X64107777Y-29604444D01*
X64155555Y-29510000D01*
X64155555Y-29414444D01*
X64107777Y-29318889D01*
X64061111Y-29271111D01*
X63965555Y-29223333D01*
X63774444Y-29176667D01*
X63680000Y-29128889D01*
X63632222Y-29081111D01*
X63584444Y-28985556D01*
X63584444Y-28890000D01*
X63632222Y-28795556D01*
X63680000Y-28747778D01*
X63774444Y-28700000D01*
X64013333Y-28700000D01*
X64155555Y-28747778D01*
X64984444Y-29652222D02*
X64888888Y-29700000D01*
X64698888Y-29700000D01*
X64603333Y-29652222D01*
X64555555Y-29556667D01*
X64555555Y-29176667D01*
X64603333Y-29081111D01*
X64698888Y-29033333D01*
X64888888Y-29033333D01*
X64984444Y-29081111D01*
X65032222Y-29176667D01*
X65032222Y-29271111D01*
X64555555Y-29366667D01*
X65432222Y-29700000D02*
X65432222Y-29033333D01*
X65432222Y-29223333D02*
X65480000Y-29128889D01*
X65527778Y-29081111D01*
X65622222Y-29033333D01*
X65717778Y-29033333D01*
X66165556Y-29700000D02*
X66165556Y-29033333D01*
X66165556Y-28700000D02*
X66117778Y-28747778D01*
X66165556Y-28795556D01*
X66213334Y-28747778D01*
X66165556Y-28700000D01*
X66165556Y-28795556D01*
X67042223Y-29652222D02*
X66946667Y-29700000D01*
X66756667Y-29700000D01*
X66661112Y-29652222D01*
X66613334Y-29556667D01*
X66613334Y-29176667D01*
X66661112Y-29081111D01*
X66756667Y-29033333D01*
X66946667Y-29033333D01*
X67042223Y-29081111D01*
X67090001Y-29176667D01*
X67090001Y-29271111D01*
X66613334Y-29366667D01*
X67490001Y-29652222D02*
X67585557Y-29700000D01*
X67775557Y-29700000D01*
X67871112Y-29652222D01*
X67918890Y-29556667D01*
X67918890Y-29510000D01*
X67871112Y-29414444D01*
X67775557Y-29366667D01*
X67633334Y-29366667D01*
X67537779Y-29318889D01*
X67490001Y-29223333D01*
X67490001Y-29176667D01*
X67537779Y-29081111D01*
X67633334Y-29033333D01*
X67775557Y-29033333D01*
X67871112Y-29081111D01*
X69690000Y-29700000D02*
X69356667Y-29223333D01*
X69118889Y-29700000D02*
X69118889Y-28700000D01*
X69500000Y-28700000D01*
X69595556Y-28747778D01*
X69642222Y-28795556D01*
X69690000Y-28890000D01*
X69690000Y-29033333D01*
X69642222Y-29128889D01*
X69595556Y-29176667D01*
X69500000Y-29223333D01*
X69118889Y-29223333D01*
X70518889Y-29652222D02*
X70423333Y-29700000D01*
X70233333Y-29700000D01*
X70137778Y-29652222D01*
X70090000Y-29556667D01*
X70090000Y-29176667D01*
X70137778Y-29081111D01*
X70233333Y-29033333D01*
X70423333Y-29033333D01*
X70518889Y-29081111D01*
X70566667Y-29176667D01*
X70566667Y-29271111D01*
X70090000Y-29366667D01*
X71110000Y-29700000D02*
X71014445Y-29652222D01*
X70966667Y-29556667D01*
X70966667Y-28700000D01*
X71986667Y-29700000D02*
X71986667Y-29176667D01*
X71938889Y-29081111D01*
X71843333Y-29033333D01*
X71653333Y-29033333D01*
X71557778Y-29081111D01*
X71986667Y-29652222D02*
X71891111Y-29700000D01*
X71653333Y-29700000D01*
X71557778Y-29652222D01*
X71510000Y-29556667D01*
X71510000Y-29462222D01*
X71557778Y-29366667D01*
X71653333Y-29318889D01*
X71891111Y-29318889D01*
X71986667Y-29271111D01*
X72386667Y-29033333D02*
X72624445Y-29700000D01*
X72863334Y-29033333D02*
X72624445Y-29700000D01*
X72530000Y-29937778D01*
X72482223Y-29985556D01*
X72386667Y-30033333D01*
D12*
G04 #@! TO.C,C2*
X27635556Y-32950000D02*
X27683334Y-32950000D01*
X27731111Y-32973889D01*
X27755000Y-32997778D01*
X27778334Y-33045000D01*
X27802223Y-33140556D01*
X27802223Y-33259444D01*
X27778334Y-33355000D01*
X27755000Y-33402222D01*
X27731111Y-33426111D01*
X27683334Y-33450000D01*
X27635556Y-33450000D01*
X27588334Y-33426111D01*
X27564445Y-33402222D01*
X27540556Y-33355000D01*
X27516667Y-33259444D01*
X27516667Y-33140556D01*
X27540556Y-33045000D01*
X27564445Y-32997778D01*
X27588334Y-32973889D01*
X27635556Y-32950000D01*
X28026112Y-33402222D02*
X28050001Y-33426111D01*
X28026112Y-33450000D01*
X28002223Y-33426111D01*
X28026112Y-33402222D01*
X28026112Y-33450000D01*
X28535557Y-33450000D02*
X28250001Y-33450000D01*
X28392779Y-33450000D02*
X28392779Y-32950000D01*
X28345001Y-33021667D01*
X28297779Y-33068889D01*
X28250001Y-33092778D01*
X28735557Y-33116667D02*
X28735557Y-33616667D01*
X28973890Y-33378333D02*
X28997224Y-33426111D01*
X29045001Y-33450000D01*
X28735557Y-33378333D02*
X28759446Y-33426111D01*
X28807224Y-33450000D01*
X28902224Y-33450000D01*
X28950001Y-33426111D01*
X28973890Y-33378333D01*
X28973890Y-33116667D01*
X29411668Y-33188333D02*
X29245001Y-33188333D01*
X29245001Y-33450000D02*
X29245001Y-32950000D01*
X29483334Y-32950000D01*
G04 #@! TO.C,D2*
X57238333Y-55809166D02*
X57261667Y-55737500D01*
X57285556Y-55714166D01*
X57333333Y-55690277D01*
X57405000Y-55690277D01*
X57452222Y-55714166D01*
X57476111Y-55737500D01*
X57500000Y-55785277D01*
X57500000Y-55975833D01*
X57000000Y-55975833D01*
X57000000Y-55809166D01*
X57023889Y-55761389D01*
X57047778Y-55737500D01*
X57095000Y-55714166D01*
X57142778Y-55714166D01*
X57190556Y-55737500D01*
X57214444Y-55761389D01*
X57238333Y-55809166D01*
X57238333Y-55975833D01*
X57357222Y-55442499D02*
X57357222Y-55204721D01*
X57500000Y-55490277D02*
X57000000Y-55323610D01*
X57500000Y-55156944D01*
X57000000Y-54956944D02*
X57500000Y-54790277D01*
X57000000Y-54623611D01*
X57500000Y-54138055D02*
X57500000Y-54423611D01*
X57500000Y-54280833D02*
X57000000Y-54280833D01*
X57071667Y-54328611D01*
X57118889Y-54375833D01*
X57142778Y-54423611D01*
X57000000Y-53699722D02*
X57000000Y-53795277D01*
X57023889Y-53843055D01*
X57047778Y-53866388D01*
X57118889Y-53914166D01*
X57214444Y-53938055D01*
X57405000Y-53938055D01*
X57452222Y-53914166D01*
X57476111Y-53890277D01*
X57500000Y-53843055D01*
X57500000Y-53747499D01*
X57476111Y-53699722D01*
X57452222Y-53676388D01*
X57405000Y-53652499D01*
X57285556Y-53652499D01*
X57238333Y-53676388D01*
X57214444Y-53699722D01*
X57190556Y-53747499D01*
X57190556Y-53843055D01*
X57214444Y-53890277D01*
X57238333Y-53914166D01*
X57285556Y-53938055D01*
X57000000Y-53452499D02*
X57500000Y-53333610D01*
X57142778Y-53238055D01*
X57500000Y-53143055D01*
X57000000Y-53024166D01*
D10*
G04 #@! TO.C,J2*
X23188333Y-4000000D02*
X22855000Y-3523333D01*
X22617222Y-4000000D02*
X22617222Y-3000000D01*
X22998333Y-3000000D01*
X23093889Y-3047778D01*
X23140555Y-3095556D01*
X23188333Y-3190000D01*
X23188333Y-3333333D01*
X23140555Y-3428889D01*
X23093889Y-3476667D01*
X22998333Y-3523333D01*
X22617222Y-3523333D01*
X23588333Y-4000000D02*
X23588333Y-3000000D01*
X23969444Y-3000000D01*
X24065000Y-3047778D01*
X24111666Y-3095556D01*
X24159444Y-3190000D01*
X24159444Y-3333333D01*
X24111666Y-3428889D01*
X24065000Y-3476667D01*
X23969444Y-3523333D01*
X23588333Y-3523333D01*
X24559444Y-4000000D02*
X24559444Y-3000000D01*
X25759443Y-4000000D02*
X25759443Y-3000000D01*
X25759443Y-3476667D02*
X26330554Y-3476667D01*
X26330554Y-4000000D02*
X26330554Y-3000000D01*
X27159443Y-3952222D02*
X27063887Y-4000000D01*
X26873887Y-4000000D01*
X26778332Y-3952222D01*
X26730554Y-3856667D01*
X26730554Y-3476667D01*
X26778332Y-3381111D01*
X26873887Y-3333333D01*
X27063887Y-3333333D01*
X27159443Y-3381111D01*
X27207221Y-3476667D01*
X27207221Y-3571111D01*
X26730554Y-3666667D01*
X28083888Y-4000000D02*
X28083888Y-3476667D01*
X28036110Y-3381111D01*
X27940554Y-3333333D01*
X27750554Y-3333333D01*
X27654999Y-3381111D01*
X28083888Y-3952222D02*
X27988332Y-4000000D01*
X27750554Y-4000000D01*
X27654999Y-3952222D01*
X27607221Y-3856667D01*
X27607221Y-3762222D01*
X27654999Y-3666667D01*
X27750554Y-3618889D01*
X27988332Y-3618889D01*
X28083888Y-3571111D01*
X28960555Y-4000000D02*
X28960555Y-3000000D01*
X28960555Y-3952222D02*
X28864999Y-4000000D01*
X28673888Y-4000000D01*
X28579444Y-3952222D01*
X28531666Y-3904444D01*
X28483888Y-3810000D01*
X28483888Y-3523333D01*
X28531666Y-3428889D01*
X28579444Y-3381111D01*
X28673888Y-3333333D01*
X28864999Y-3333333D01*
X28960555Y-3381111D01*
X29789444Y-3952222D02*
X29693888Y-4000000D01*
X29503888Y-4000000D01*
X29408333Y-3952222D01*
X29360555Y-3856667D01*
X29360555Y-3476667D01*
X29408333Y-3381111D01*
X29503888Y-3333333D01*
X29693888Y-3333333D01*
X29789444Y-3381111D01*
X29837222Y-3476667D01*
X29837222Y-3571111D01*
X29360555Y-3666667D01*
X30237222Y-4000000D02*
X30237222Y-3333333D01*
X30237222Y-3523333D02*
X30285000Y-3428889D01*
X30332778Y-3381111D01*
X30427222Y-3333333D01*
X30522778Y-3333333D01*
D12*
G04 #@! TO.C,Q4*
X50074167Y-19750000D02*
X50074167Y-19250000D01*
X50359723Y-19750000D01*
X50359723Y-19250000D01*
X50559723Y-19250000D02*
X50893056Y-19750000D01*
X50893056Y-19250000D02*
X50559723Y-19750000D01*
X51093056Y-19250000D02*
X51426389Y-19250000D01*
X51211945Y-19750000D01*
X51745278Y-19250000D02*
X51793056Y-19250000D01*
X51840833Y-19273889D01*
X51864722Y-19297778D01*
X51888056Y-19345000D01*
X51911945Y-19440556D01*
X51911945Y-19559444D01*
X51888056Y-19655000D01*
X51864722Y-19702222D01*
X51840833Y-19726111D01*
X51793056Y-19750000D01*
X51745278Y-19750000D01*
X51698056Y-19726111D01*
X51674167Y-19702222D01*
X51650278Y-19655000D01*
X51626389Y-19559444D01*
X51626389Y-19440556D01*
X51650278Y-19345000D01*
X51674167Y-19297778D01*
X51698056Y-19273889D01*
X51745278Y-19250000D01*
X52230834Y-19250000D02*
X52278612Y-19250000D01*
X52326389Y-19273889D01*
X52350278Y-19297778D01*
X52373612Y-19345000D01*
X52397501Y-19440556D01*
X52397501Y-19559444D01*
X52373612Y-19655000D01*
X52350278Y-19702222D01*
X52326389Y-19726111D01*
X52278612Y-19750000D01*
X52230834Y-19750000D01*
X52183612Y-19726111D01*
X52159723Y-19702222D01*
X52135834Y-19655000D01*
X52111945Y-19559444D01*
X52111945Y-19440556D01*
X52135834Y-19345000D01*
X52159723Y-19297778D01*
X52183612Y-19273889D01*
X52230834Y-19250000D01*
X52621390Y-19297778D02*
X52645279Y-19273889D01*
X52692501Y-19250000D01*
X52811945Y-19250000D01*
X52859168Y-19273889D01*
X52883057Y-19297778D01*
X52906945Y-19345000D01*
X52906945Y-19392778D01*
X52883057Y-19464444D01*
X52597501Y-19750000D01*
X52906945Y-19750000D01*
X53154723Y-19607222D02*
X53392501Y-19607222D01*
X53106945Y-19750000D02*
X53273612Y-19250000D01*
X53440278Y-19750000D01*
X53640278Y-19750000D02*
X53640278Y-19250000D01*
X53925834Y-19750000D02*
X53711945Y-19464444D01*
X53925834Y-19250000D02*
X53640278Y-19535556D01*
G04 #@! TO.C,D8*
X86238333Y-25809166D02*
X86261667Y-25737500D01*
X86285556Y-25714166D01*
X86333333Y-25690277D01*
X86405000Y-25690277D01*
X86452222Y-25714166D01*
X86476111Y-25737500D01*
X86500000Y-25785277D01*
X86500000Y-25975833D01*
X86000000Y-25975833D01*
X86000000Y-25809166D01*
X86023889Y-25761389D01*
X86047778Y-25737500D01*
X86095000Y-25714166D01*
X86142778Y-25714166D01*
X86190556Y-25737500D01*
X86214444Y-25761389D01*
X86238333Y-25809166D01*
X86238333Y-25975833D01*
X86357222Y-25442499D02*
X86357222Y-25204721D01*
X86500000Y-25490277D02*
X86000000Y-25323610D01*
X86500000Y-25156944D01*
X86000000Y-24956944D02*
X86500000Y-24790277D01*
X86000000Y-24623611D01*
X86500000Y-24138055D02*
X86500000Y-24423611D01*
X86500000Y-24280833D02*
X86000000Y-24280833D01*
X86071667Y-24328611D01*
X86118889Y-24375833D01*
X86142778Y-24423611D01*
X86000000Y-23699722D02*
X86000000Y-23795277D01*
X86023889Y-23843055D01*
X86047778Y-23866388D01*
X86118889Y-23914166D01*
X86214444Y-23938055D01*
X86405000Y-23938055D01*
X86452222Y-23914166D01*
X86476111Y-23890277D01*
X86500000Y-23843055D01*
X86500000Y-23747499D01*
X86476111Y-23699722D01*
X86452222Y-23676388D01*
X86405000Y-23652499D01*
X86285556Y-23652499D01*
X86238333Y-23676388D01*
X86214444Y-23699722D01*
X86190556Y-23747499D01*
X86190556Y-23843055D01*
X86214444Y-23890277D01*
X86238333Y-23914166D01*
X86285556Y-23938055D01*
X86000000Y-23452499D02*
X86500000Y-23333610D01*
X86142778Y-23238055D01*
X86500000Y-23143055D01*
X86000000Y-23024166D01*
D10*
G04 #@! TO.C,R4*
X47328334Y-53100000D02*
X46757223Y-53100000D01*
X47042779Y-53100000D02*
X47042779Y-52100000D01*
X46947223Y-52243333D01*
X46852779Y-52337778D01*
X46757223Y-52385556D01*
X47966112Y-52100000D02*
X48061667Y-52100000D01*
X48157223Y-52147778D01*
X48205001Y-52195556D01*
X48251667Y-52290000D01*
X48299445Y-52481111D01*
X48299445Y-52718889D01*
X48251667Y-52910000D01*
X48205001Y-53004444D01*
X48157223Y-53052222D01*
X48061667Y-53100000D01*
X47966112Y-53100000D01*
X47871667Y-53052222D01*
X47823890Y-53004444D01*
X47776112Y-52910000D01*
X47728334Y-52718889D01*
X47728334Y-52481111D01*
X47776112Y-52290000D01*
X47823890Y-52195556D01*
X47871667Y-52147778D01*
X47966112Y-52100000D01*
X48699445Y-53100000D02*
X48699445Y-52100000D01*
X48795001Y-52718889D02*
X49080556Y-53100000D01*
X49080556Y-52433333D02*
X48699445Y-52814444D01*
X49480556Y-53100000D02*
X49718334Y-53100000D01*
X49718334Y-52910000D01*
X49623889Y-52862222D01*
X49528334Y-52766667D01*
X49480556Y-52623333D01*
X49480556Y-52385556D01*
X49528334Y-52243333D01*
X49623889Y-52147778D01*
X49766112Y-52100000D01*
X49957223Y-52100000D01*
X50099445Y-52147778D01*
X50195000Y-52243333D01*
X50242778Y-52385556D01*
X50242778Y-52623333D01*
X50195000Y-52766667D01*
X50099445Y-52862222D01*
X50003889Y-52910000D01*
X50003889Y-53100000D01*
X50242778Y-53100000D01*
D12*
G04 #@! TO.C,Q8*
X79074167Y-14750000D02*
X79074167Y-14250000D01*
X79359723Y-14750000D01*
X79359723Y-14250000D01*
X79559723Y-14250000D02*
X79893056Y-14750000D01*
X79893056Y-14250000D02*
X79559723Y-14750000D01*
X80093056Y-14250000D02*
X80426389Y-14250000D01*
X80211945Y-14750000D01*
X80745278Y-14250000D02*
X80793056Y-14250000D01*
X80840833Y-14273889D01*
X80864722Y-14297778D01*
X80888056Y-14345000D01*
X80911945Y-14440556D01*
X80911945Y-14559444D01*
X80888056Y-14655000D01*
X80864722Y-14702222D01*
X80840833Y-14726111D01*
X80793056Y-14750000D01*
X80745278Y-14750000D01*
X80698056Y-14726111D01*
X80674167Y-14702222D01*
X80650278Y-14655000D01*
X80626389Y-14559444D01*
X80626389Y-14440556D01*
X80650278Y-14345000D01*
X80674167Y-14297778D01*
X80698056Y-14273889D01*
X80745278Y-14250000D01*
X81230834Y-14250000D02*
X81278612Y-14250000D01*
X81326389Y-14273889D01*
X81350278Y-14297778D01*
X81373612Y-14345000D01*
X81397501Y-14440556D01*
X81397501Y-14559444D01*
X81373612Y-14655000D01*
X81350278Y-14702222D01*
X81326389Y-14726111D01*
X81278612Y-14750000D01*
X81230834Y-14750000D01*
X81183612Y-14726111D01*
X81159723Y-14702222D01*
X81135834Y-14655000D01*
X81111945Y-14559444D01*
X81111945Y-14440556D01*
X81135834Y-14345000D01*
X81159723Y-14297778D01*
X81183612Y-14273889D01*
X81230834Y-14250000D01*
X81621390Y-14297778D02*
X81645279Y-14273889D01*
X81692501Y-14250000D01*
X81811945Y-14250000D01*
X81859168Y-14273889D01*
X81883057Y-14297778D01*
X81906945Y-14345000D01*
X81906945Y-14392778D01*
X81883057Y-14464444D01*
X81597501Y-14750000D01*
X81906945Y-14750000D01*
X82154723Y-14607222D02*
X82392501Y-14607222D01*
X82106945Y-14750000D02*
X82273612Y-14250000D01*
X82440278Y-14750000D01*
X82640278Y-14750000D02*
X82640278Y-14250000D01*
X82925834Y-14750000D02*
X82711945Y-14464444D01*
X82925834Y-14250000D02*
X82640278Y-14535556D01*
D10*
G04 #@! TO.C,R7*
X47328334Y-15600000D02*
X46757223Y-15600000D01*
X47042779Y-15600000D02*
X47042779Y-14600000D01*
X46947223Y-14743333D01*
X46852779Y-14837778D01*
X46757223Y-14885556D01*
X47966112Y-14600000D02*
X48061667Y-14600000D01*
X48157223Y-14647778D01*
X48205001Y-14695556D01*
X48251667Y-14790000D01*
X48299445Y-14981111D01*
X48299445Y-15218889D01*
X48251667Y-15410000D01*
X48205001Y-15504444D01*
X48157223Y-15552222D01*
X48061667Y-15600000D01*
X47966112Y-15600000D01*
X47871667Y-15552222D01*
X47823890Y-15504444D01*
X47776112Y-15410000D01*
X47728334Y-15218889D01*
X47728334Y-14981111D01*
X47776112Y-14790000D01*
X47823890Y-14695556D01*
X47871667Y-14647778D01*
X47966112Y-14600000D01*
X48699445Y-15600000D02*
X48699445Y-14600000D01*
X48795001Y-15218889D02*
X49080556Y-15600000D01*
X49080556Y-14933333D02*
X48699445Y-15314444D01*
X49480556Y-15600000D02*
X49718334Y-15600000D01*
X49718334Y-15410000D01*
X49623889Y-15362222D01*
X49528334Y-15266667D01*
X49480556Y-15123333D01*
X49480556Y-14885556D01*
X49528334Y-14743333D01*
X49623889Y-14647778D01*
X49766112Y-14600000D01*
X49957223Y-14600000D01*
X50099445Y-14647778D01*
X50195000Y-14743333D01*
X50242778Y-14885556D01*
X50242778Y-15123333D01*
X50195000Y-15266667D01*
X50099445Y-15362222D01*
X50003889Y-15410000D01*
X50003889Y-15600000D01*
X50242778Y-15600000D01*
D12*
G04 #@! TO.C,Q3*
X50074167Y-32250000D02*
X50074167Y-31750000D01*
X50359723Y-32250000D01*
X50359723Y-31750000D01*
X50559723Y-31750000D02*
X50893056Y-32250000D01*
X50893056Y-31750000D02*
X50559723Y-32250000D01*
X51093056Y-31750000D02*
X51426389Y-31750000D01*
X51211945Y-32250000D01*
X51745278Y-31750000D02*
X51793056Y-31750000D01*
X51840833Y-31773889D01*
X51864722Y-31797778D01*
X51888056Y-31845000D01*
X51911945Y-31940556D01*
X51911945Y-32059444D01*
X51888056Y-32155000D01*
X51864722Y-32202222D01*
X51840833Y-32226111D01*
X51793056Y-32250000D01*
X51745278Y-32250000D01*
X51698056Y-32226111D01*
X51674167Y-32202222D01*
X51650278Y-32155000D01*
X51626389Y-32059444D01*
X51626389Y-31940556D01*
X51650278Y-31845000D01*
X51674167Y-31797778D01*
X51698056Y-31773889D01*
X51745278Y-31750000D01*
X52230834Y-31750000D02*
X52278612Y-31750000D01*
X52326389Y-31773889D01*
X52350278Y-31797778D01*
X52373612Y-31845000D01*
X52397501Y-31940556D01*
X52397501Y-32059444D01*
X52373612Y-32155000D01*
X52350278Y-32202222D01*
X52326389Y-32226111D01*
X52278612Y-32250000D01*
X52230834Y-32250000D01*
X52183612Y-32226111D01*
X52159723Y-32202222D01*
X52135834Y-32155000D01*
X52111945Y-32059444D01*
X52111945Y-31940556D01*
X52135834Y-31845000D01*
X52159723Y-31797778D01*
X52183612Y-31773889D01*
X52230834Y-31750000D01*
X52621390Y-31797778D02*
X52645279Y-31773889D01*
X52692501Y-31750000D01*
X52811945Y-31750000D01*
X52859168Y-31773889D01*
X52883057Y-31797778D01*
X52906945Y-31845000D01*
X52906945Y-31892778D01*
X52883057Y-31964444D01*
X52597501Y-32250000D01*
X52906945Y-32250000D01*
X53154723Y-32107222D02*
X53392501Y-32107222D01*
X53106945Y-32250000D02*
X53273612Y-31750000D01*
X53440278Y-32250000D01*
X53640278Y-32250000D02*
X53640278Y-31750000D01*
X53925834Y-32250000D02*
X53711945Y-31964444D01*
X53925834Y-31750000D02*
X53640278Y-32035556D01*
D10*
G04 #@! TO.C,C6*
X37352222Y-16600000D02*
X36781111Y-16600000D01*
X37066667Y-16600000D02*
X37066667Y-15600000D01*
X36971111Y-15743333D01*
X36876667Y-15837778D01*
X36781111Y-15885556D01*
X37990000Y-15600000D02*
X38085555Y-15600000D01*
X38181111Y-15647778D01*
X38228889Y-15695556D01*
X38275555Y-15790000D01*
X38323333Y-15981111D01*
X38323333Y-16218889D01*
X38275555Y-16410000D01*
X38228889Y-16504444D01*
X38181111Y-16552222D01*
X38085555Y-16600000D01*
X37990000Y-16600000D01*
X37895555Y-16552222D01*
X37847778Y-16504444D01*
X37800000Y-16410000D01*
X37752222Y-16218889D01*
X37752222Y-15981111D01*
X37800000Y-15790000D01*
X37847778Y-15695556D01*
X37895555Y-15647778D01*
X37990000Y-15600000D01*
X38723333Y-15933333D02*
X38723333Y-16933333D01*
X39200000Y-16456667D02*
X39246666Y-16552222D01*
X39342222Y-16600000D01*
X38723333Y-16456667D02*
X38771111Y-16552222D01*
X38866666Y-16600000D01*
X39056666Y-16600000D01*
X39152222Y-16552222D01*
X39200000Y-16456667D01*
X39200000Y-15933333D01*
X40075555Y-16076667D02*
X39742222Y-16076667D01*
X39742222Y-16600000D02*
X39742222Y-15600000D01*
X40218889Y-15600000D01*
G04 #@! TO.C,R11*
X80400000Y-8171666D02*
X80400000Y-8742777D01*
X80400000Y-8457221D02*
X79400000Y-8457221D01*
X79543333Y-8552777D01*
X79637778Y-8647221D01*
X79685556Y-8742777D01*
X79400000Y-7533888D02*
X79400000Y-7438333D01*
X79447778Y-7342777D01*
X79495556Y-7294999D01*
X79590000Y-7248333D01*
X79781111Y-7200555D01*
X80018889Y-7200555D01*
X80210000Y-7248333D01*
X80304444Y-7294999D01*
X80352222Y-7342777D01*
X80400000Y-7438333D01*
X80400000Y-7533888D01*
X80352222Y-7628333D01*
X80304444Y-7676110D01*
X80210000Y-7723888D01*
X80018889Y-7771666D01*
X79781111Y-7771666D01*
X79590000Y-7723888D01*
X79495556Y-7676110D01*
X79447778Y-7628333D01*
X79400000Y-7533888D01*
X80400000Y-6800555D02*
X79400000Y-6800555D01*
X80018889Y-6704999D02*
X80400000Y-6419444D01*
X79733333Y-6419444D02*
X80114444Y-6800555D01*
X80400000Y-6019444D02*
X80400000Y-5781666D01*
X80210000Y-5781666D01*
X80162222Y-5876111D01*
X80066667Y-5971666D01*
X79923333Y-6019444D01*
X79685556Y-6019444D01*
X79543333Y-5971666D01*
X79447778Y-5876111D01*
X79400000Y-5733888D01*
X79400000Y-5542777D01*
X79447778Y-5400555D01*
X79543333Y-5305000D01*
X79685556Y-5257222D01*
X79923333Y-5257222D01*
X80066667Y-5305000D01*
X80162222Y-5400555D01*
X80210000Y-5496111D01*
X80400000Y-5496111D01*
X80400000Y-5257222D01*
G04 #@! TO.C,R8*
X80400000Y-45671666D02*
X80400000Y-46242777D01*
X80400000Y-45957221D02*
X79400000Y-45957221D01*
X79543333Y-46052777D01*
X79637778Y-46147221D01*
X79685556Y-46242777D01*
X79400000Y-45033888D02*
X79400000Y-44938333D01*
X79447778Y-44842777D01*
X79495556Y-44794999D01*
X79590000Y-44748333D01*
X79781111Y-44700555D01*
X80018889Y-44700555D01*
X80210000Y-44748333D01*
X80304444Y-44794999D01*
X80352222Y-44842777D01*
X80400000Y-44938333D01*
X80400000Y-45033888D01*
X80352222Y-45128333D01*
X80304444Y-45176110D01*
X80210000Y-45223888D01*
X80018889Y-45271666D01*
X79781111Y-45271666D01*
X79590000Y-45223888D01*
X79495556Y-45176110D01*
X79447778Y-45128333D01*
X79400000Y-45033888D01*
X80400000Y-44300555D02*
X79400000Y-44300555D01*
X80018889Y-44204999D02*
X80400000Y-43919444D01*
X79733333Y-43919444D02*
X80114444Y-44300555D01*
X80400000Y-43519444D02*
X80400000Y-43281666D01*
X80210000Y-43281666D01*
X80162222Y-43376111D01*
X80066667Y-43471666D01*
X79923333Y-43519444D01*
X79685556Y-43519444D01*
X79543333Y-43471666D01*
X79447778Y-43376111D01*
X79400000Y-43233888D01*
X79400000Y-43042777D01*
X79447778Y-42900555D01*
X79543333Y-42805000D01*
X79685556Y-42757222D01*
X79923333Y-42757222D01*
X80066667Y-42805000D01*
X80162222Y-42900555D01*
X80210000Y-42996111D01*
X80400000Y-42996111D01*
X80400000Y-42757222D01*
D12*
G04 #@! TO.C,D4*
X57238333Y-30809166D02*
X57261667Y-30737500D01*
X57285556Y-30714166D01*
X57333333Y-30690277D01*
X57405000Y-30690277D01*
X57452222Y-30714166D01*
X57476111Y-30737500D01*
X57500000Y-30785277D01*
X57500000Y-30975833D01*
X57000000Y-30975833D01*
X57000000Y-30809166D01*
X57023889Y-30761389D01*
X57047778Y-30737500D01*
X57095000Y-30714166D01*
X57142778Y-30714166D01*
X57190556Y-30737500D01*
X57214444Y-30761389D01*
X57238333Y-30809166D01*
X57238333Y-30975833D01*
X57357222Y-30442499D02*
X57357222Y-30204721D01*
X57500000Y-30490277D02*
X57000000Y-30323610D01*
X57500000Y-30156944D01*
X57000000Y-29956944D02*
X57500000Y-29790277D01*
X57000000Y-29623611D01*
X57500000Y-29138055D02*
X57500000Y-29423611D01*
X57500000Y-29280833D02*
X57000000Y-29280833D01*
X57071667Y-29328611D01*
X57118889Y-29375833D01*
X57142778Y-29423611D01*
X57000000Y-28699722D02*
X57000000Y-28795277D01*
X57023889Y-28843055D01*
X57047778Y-28866388D01*
X57118889Y-28914166D01*
X57214444Y-28938055D01*
X57405000Y-28938055D01*
X57452222Y-28914166D01*
X57476111Y-28890277D01*
X57500000Y-28843055D01*
X57500000Y-28747499D01*
X57476111Y-28699722D01*
X57452222Y-28676388D01*
X57405000Y-28652499D01*
X57285556Y-28652499D01*
X57238333Y-28676388D01*
X57214444Y-28699722D01*
X57190556Y-28747499D01*
X57190556Y-28843055D01*
X57214444Y-28890277D01*
X57238333Y-28914166D01*
X57285556Y-28938055D01*
X57000000Y-28452499D02*
X57500000Y-28333610D01*
X57142778Y-28238055D01*
X57500000Y-28143055D01*
X57000000Y-28024166D01*
G04 #@! TO.C,Q1*
X50074167Y-57250000D02*
X50074167Y-56750000D01*
X50359723Y-57250000D01*
X50359723Y-56750000D01*
X50559723Y-56750000D02*
X50893056Y-57250000D01*
X50893056Y-56750000D02*
X50559723Y-57250000D01*
X51093056Y-56750000D02*
X51426389Y-56750000D01*
X51211945Y-57250000D01*
X51745278Y-56750000D02*
X51793056Y-56750000D01*
X51840833Y-56773889D01*
X51864722Y-56797778D01*
X51888056Y-56845000D01*
X51911945Y-56940556D01*
X51911945Y-57059444D01*
X51888056Y-57155000D01*
X51864722Y-57202222D01*
X51840833Y-57226111D01*
X51793056Y-57250000D01*
X51745278Y-57250000D01*
X51698056Y-57226111D01*
X51674167Y-57202222D01*
X51650278Y-57155000D01*
X51626389Y-57059444D01*
X51626389Y-56940556D01*
X51650278Y-56845000D01*
X51674167Y-56797778D01*
X51698056Y-56773889D01*
X51745278Y-56750000D01*
X52230834Y-56750000D02*
X52278612Y-56750000D01*
X52326389Y-56773889D01*
X52350278Y-56797778D01*
X52373612Y-56845000D01*
X52397501Y-56940556D01*
X52397501Y-57059444D01*
X52373612Y-57155000D01*
X52350278Y-57202222D01*
X52326389Y-57226111D01*
X52278612Y-57250000D01*
X52230834Y-57250000D01*
X52183612Y-57226111D01*
X52159723Y-57202222D01*
X52135834Y-57155000D01*
X52111945Y-57059444D01*
X52111945Y-56940556D01*
X52135834Y-56845000D01*
X52159723Y-56797778D01*
X52183612Y-56773889D01*
X52230834Y-56750000D01*
X52621390Y-56797778D02*
X52645279Y-56773889D01*
X52692501Y-56750000D01*
X52811945Y-56750000D01*
X52859168Y-56773889D01*
X52883057Y-56797778D01*
X52906945Y-56845000D01*
X52906945Y-56892778D01*
X52883057Y-56964444D01*
X52597501Y-57250000D01*
X52906945Y-57250000D01*
X53154723Y-57107222D02*
X53392501Y-57107222D01*
X53106945Y-57250000D02*
X53273612Y-56750000D01*
X53440278Y-57250000D01*
X53640278Y-57250000D02*
X53640278Y-56750000D01*
X53925834Y-57250000D02*
X53711945Y-56964444D01*
X53925834Y-56750000D02*
X53640278Y-57035556D01*
G04 #@! TO.C,U2*
X38976111Y-51371111D02*
X39000000Y-51299444D01*
X39000000Y-51180555D01*
X38976111Y-51132778D01*
X38952222Y-51109444D01*
X38905000Y-51085555D01*
X38857222Y-51085555D01*
X38809444Y-51109444D01*
X38785556Y-51132778D01*
X38761667Y-51180555D01*
X38738333Y-51276111D01*
X38714444Y-51323333D01*
X38690556Y-51347222D01*
X38642778Y-51371111D01*
X38595000Y-51371111D01*
X38547778Y-51347222D01*
X38523889Y-51323333D01*
X38500000Y-51276111D01*
X38500000Y-51156667D01*
X38523889Y-51085555D01*
X39000000Y-50885555D02*
X38500000Y-50885555D01*
X38738333Y-50885555D02*
X38738333Y-50599999D01*
X39000000Y-50599999D02*
X38500000Y-50599999D01*
X38666667Y-50161666D02*
X39000000Y-50161666D01*
X38476111Y-50281110D02*
X38833333Y-50399999D01*
X38833333Y-50090555D01*
X39000000Y-49890555D02*
X38666667Y-49628888D01*
X38666667Y-49890555D02*
X39000000Y-49628888D01*
G04 #@! TO.C,Q7*
X79074167Y-27250000D02*
X79074167Y-26750000D01*
X79359723Y-27250000D01*
X79359723Y-26750000D01*
X79559723Y-26750000D02*
X79893056Y-27250000D01*
X79893056Y-26750000D02*
X79559723Y-27250000D01*
X80093056Y-26750000D02*
X80426389Y-26750000D01*
X80211945Y-27250000D01*
X80745278Y-26750000D02*
X80793056Y-26750000D01*
X80840833Y-26773889D01*
X80864722Y-26797778D01*
X80888056Y-26845000D01*
X80911945Y-26940556D01*
X80911945Y-27059444D01*
X80888056Y-27155000D01*
X80864722Y-27202222D01*
X80840833Y-27226111D01*
X80793056Y-27250000D01*
X80745278Y-27250000D01*
X80698056Y-27226111D01*
X80674167Y-27202222D01*
X80650278Y-27155000D01*
X80626389Y-27059444D01*
X80626389Y-26940556D01*
X80650278Y-26845000D01*
X80674167Y-26797778D01*
X80698056Y-26773889D01*
X80745278Y-26750000D01*
X81230834Y-26750000D02*
X81278612Y-26750000D01*
X81326389Y-26773889D01*
X81350278Y-26797778D01*
X81373612Y-26845000D01*
X81397501Y-26940556D01*
X81397501Y-27059444D01*
X81373612Y-27155000D01*
X81350278Y-27202222D01*
X81326389Y-27226111D01*
X81278612Y-27250000D01*
X81230834Y-27250000D01*
X81183612Y-27226111D01*
X81159723Y-27202222D01*
X81135834Y-27155000D01*
X81111945Y-27059444D01*
X81111945Y-26940556D01*
X81135834Y-26845000D01*
X81159723Y-26797778D01*
X81183612Y-26773889D01*
X81230834Y-26750000D01*
X81621390Y-26797778D02*
X81645279Y-26773889D01*
X81692501Y-26750000D01*
X81811945Y-26750000D01*
X81859168Y-26773889D01*
X81883057Y-26797778D01*
X81906945Y-26845000D01*
X81906945Y-26892778D01*
X81883057Y-26964444D01*
X81597501Y-27250000D01*
X81906945Y-27250000D01*
X82154723Y-27107222D02*
X82392501Y-27107222D01*
X82106945Y-27250000D02*
X82273612Y-26750000D01*
X82440278Y-27250000D01*
X82640278Y-27250000D02*
X82640278Y-26750000D01*
X82925834Y-27250000D02*
X82711945Y-26964444D01*
X82925834Y-26750000D02*
X82640278Y-27035556D01*
D10*
G04 #@! TO.C,J1*
X125000000Y-22947222D02*
X124000000Y-22947222D01*
X124476667Y-22947222D02*
X124476667Y-22376111D01*
X125000000Y-22376111D02*
X124000000Y-22376111D01*
X124000000Y-21976111D02*
X125000000Y-21642778D01*
X124000000Y-21309444D01*
X124714444Y-20813888D02*
X124714444Y-20338333D01*
X125000000Y-20909444D02*
X124000000Y-20576111D01*
X125000000Y-20242777D01*
X124904444Y-19223888D02*
X124952222Y-19271666D01*
X125000000Y-19413888D01*
X125000000Y-19509444D01*
X124952222Y-19652777D01*
X124856667Y-19747221D01*
X124762222Y-19794999D01*
X124571111Y-19842777D01*
X124428889Y-19842777D01*
X124237778Y-19794999D01*
X124143333Y-19747221D01*
X124047778Y-19652777D01*
X124000000Y-19509444D01*
X124000000Y-19413888D01*
X124047778Y-19271666D01*
X124095556Y-19223888D01*
X125000000Y-18023889D02*
X124000000Y-18023889D01*
X125000000Y-17623889D02*
X124000000Y-17623889D01*
X125000000Y-17052778D01*
X124000000Y-17052778D01*
G04 #@! TO.C,R6*
X47328334Y-28100000D02*
X46757223Y-28100000D01*
X47042779Y-28100000D02*
X47042779Y-27100000D01*
X46947223Y-27243333D01*
X46852779Y-27337778D01*
X46757223Y-27385556D01*
X47966112Y-27100000D02*
X48061667Y-27100000D01*
X48157223Y-27147778D01*
X48205001Y-27195556D01*
X48251667Y-27290000D01*
X48299445Y-27481111D01*
X48299445Y-27718889D01*
X48251667Y-27910000D01*
X48205001Y-28004444D01*
X48157223Y-28052222D01*
X48061667Y-28100000D01*
X47966112Y-28100000D01*
X47871667Y-28052222D01*
X47823890Y-28004444D01*
X47776112Y-27910000D01*
X47728334Y-27718889D01*
X47728334Y-27481111D01*
X47776112Y-27290000D01*
X47823890Y-27195556D01*
X47871667Y-27147778D01*
X47966112Y-27100000D01*
X48699445Y-28100000D02*
X48699445Y-27100000D01*
X48795001Y-27718889D02*
X49080556Y-28100000D01*
X49080556Y-27433333D02*
X48699445Y-27814444D01*
X49480556Y-28100000D02*
X49718334Y-28100000D01*
X49718334Y-27910000D01*
X49623889Y-27862222D01*
X49528334Y-27766667D01*
X49480556Y-27623333D01*
X49480556Y-27385556D01*
X49528334Y-27243333D01*
X49623889Y-27147778D01*
X49766112Y-27100000D01*
X49957223Y-27100000D01*
X50099445Y-27147778D01*
X50195000Y-27243333D01*
X50242778Y-27385556D01*
X50242778Y-27623333D01*
X50195000Y-27766667D01*
X50099445Y-27862222D01*
X50003889Y-27910000D01*
X50003889Y-28100000D01*
X50242778Y-28100000D01*
G04 #@! TO.C,R9*
X80400000Y-33171666D02*
X80400000Y-33742777D01*
X80400000Y-33457221D02*
X79400000Y-33457221D01*
X79543333Y-33552777D01*
X79637778Y-33647221D01*
X79685556Y-33742777D01*
X79400000Y-32533888D02*
X79400000Y-32438333D01*
X79447778Y-32342777D01*
X79495556Y-32294999D01*
X79590000Y-32248333D01*
X79781111Y-32200555D01*
X80018889Y-32200555D01*
X80210000Y-32248333D01*
X80304444Y-32294999D01*
X80352222Y-32342777D01*
X80400000Y-32438333D01*
X80400000Y-32533888D01*
X80352222Y-32628333D01*
X80304444Y-32676110D01*
X80210000Y-32723888D01*
X80018889Y-32771666D01*
X79781111Y-32771666D01*
X79590000Y-32723888D01*
X79495556Y-32676110D01*
X79447778Y-32628333D01*
X79400000Y-32533888D01*
X80400000Y-31800555D02*
X79400000Y-31800555D01*
X80018889Y-31704999D02*
X80400000Y-31419444D01*
X79733333Y-31419444D02*
X80114444Y-31800555D01*
X80400000Y-31019444D02*
X80400000Y-30781666D01*
X80210000Y-30781666D01*
X80162222Y-30876111D01*
X80066667Y-30971666D01*
X79923333Y-31019444D01*
X79685556Y-31019444D01*
X79543333Y-30971666D01*
X79447778Y-30876111D01*
X79400000Y-30733888D01*
X79400000Y-30542777D01*
X79447778Y-30400555D01*
X79543333Y-30305000D01*
X79685556Y-30257222D01*
X79923333Y-30257222D01*
X80066667Y-30305000D01*
X80162222Y-30400555D01*
X80210000Y-30496111D01*
X80400000Y-30496111D01*
X80400000Y-30257222D01*
G04 #@! TO.C,C9*
X36781111Y-21945556D02*
X36828889Y-21897778D01*
X36923333Y-21850000D01*
X37162222Y-21850000D01*
X37256666Y-21897778D01*
X37304444Y-21945556D01*
X37352222Y-22040000D01*
X37352222Y-22135556D01*
X37304444Y-22278889D01*
X36733333Y-22850000D01*
X37352222Y-22850000D01*
X37800000Y-21945556D02*
X37847778Y-21897778D01*
X37942222Y-21850000D01*
X38181111Y-21850000D01*
X38275555Y-21897778D01*
X38323333Y-21945556D01*
X38371111Y-22040000D01*
X38371111Y-22135556D01*
X38323333Y-22278889D01*
X37752222Y-22850000D01*
X38371111Y-22850000D01*
X38771111Y-22183333D02*
X38771111Y-23183333D01*
X39247778Y-22706667D02*
X39294444Y-22802222D01*
X39390000Y-22850000D01*
X38771111Y-22706667D02*
X38818889Y-22802222D01*
X38914444Y-22850000D01*
X39104444Y-22850000D01*
X39200000Y-22802222D01*
X39247778Y-22706667D01*
X39247778Y-22183333D01*
X40123333Y-22326667D02*
X39790000Y-22326667D01*
X39790000Y-22850000D02*
X39790000Y-21850000D01*
X40266667Y-21850000D01*
D12*
G04 #@! TO.C,D5*
X57238333Y-18309166D02*
X57261667Y-18237500D01*
X57285556Y-18214166D01*
X57333333Y-18190277D01*
X57405000Y-18190277D01*
X57452222Y-18214166D01*
X57476111Y-18237500D01*
X57500000Y-18285277D01*
X57500000Y-18475833D01*
X57000000Y-18475833D01*
X57000000Y-18309166D01*
X57023889Y-18261389D01*
X57047778Y-18237500D01*
X57095000Y-18214166D01*
X57142778Y-18214166D01*
X57190556Y-18237500D01*
X57214444Y-18261389D01*
X57238333Y-18309166D01*
X57238333Y-18475833D01*
X57357222Y-17942499D02*
X57357222Y-17704721D01*
X57500000Y-17990277D02*
X57000000Y-17823610D01*
X57500000Y-17656944D01*
X57000000Y-17456944D02*
X57500000Y-17290277D01*
X57000000Y-17123611D01*
X57500000Y-16638055D02*
X57500000Y-16923611D01*
X57500000Y-16780833D02*
X57000000Y-16780833D01*
X57071667Y-16828611D01*
X57118889Y-16875833D01*
X57142778Y-16923611D01*
X57000000Y-16199722D02*
X57000000Y-16295277D01*
X57023889Y-16343055D01*
X57047778Y-16366388D01*
X57118889Y-16414166D01*
X57214444Y-16438055D01*
X57405000Y-16438055D01*
X57452222Y-16414166D01*
X57476111Y-16390277D01*
X57500000Y-16343055D01*
X57500000Y-16247499D01*
X57476111Y-16199722D01*
X57452222Y-16176388D01*
X57405000Y-16152499D01*
X57285556Y-16152499D01*
X57238333Y-16176388D01*
X57214444Y-16199722D01*
X57190556Y-16247499D01*
X57190556Y-16343055D01*
X57214444Y-16390277D01*
X57238333Y-16414166D01*
X57285556Y-16438055D01*
X57000000Y-15952499D02*
X57500000Y-15833610D01*
X57142778Y-15738055D01*
X57500000Y-15643055D01*
X57000000Y-15524166D01*
G04 #@! TO.C,C11*
X40450000Y-34781111D02*
X40450000Y-35066667D01*
X40450000Y-34923889D02*
X39950000Y-34923889D01*
X40021667Y-34971667D01*
X40068889Y-35018889D01*
X40092778Y-35066667D01*
X39950000Y-34319444D02*
X39950000Y-34557222D01*
X40188333Y-34581111D01*
X40164444Y-34557222D01*
X40140556Y-34509444D01*
X40140556Y-34390555D01*
X40164444Y-34342778D01*
X40188333Y-34319444D01*
X40235556Y-34295555D01*
X40355000Y-34295555D01*
X40402222Y-34319444D01*
X40426111Y-34342778D01*
X40450000Y-34390555D01*
X40450000Y-34509444D01*
X40426111Y-34557222D01*
X40402222Y-34581111D01*
X39950000Y-33976666D02*
X39950000Y-33928888D01*
X39973889Y-33881111D01*
X39997778Y-33857222D01*
X40045000Y-33833888D01*
X40140556Y-33809999D01*
X40259444Y-33809999D01*
X40355000Y-33833888D01*
X40402222Y-33857222D01*
X40426111Y-33881111D01*
X40450000Y-33928888D01*
X40450000Y-33976666D01*
X40426111Y-34023888D01*
X40402222Y-34047777D01*
X40355000Y-34071666D01*
X40259444Y-34095555D01*
X40140556Y-34095555D01*
X40045000Y-34071666D01*
X39997778Y-34047777D01*
X39973889Y-34023888D01*
X39950000Y-33976666D01*
X40116667Y-33609999D02*
X40616667Y-33609999D01*
X40140556Y-33609999D02*
X40116667Y-33562221D01*
X40116667Y-33467221D01*
X40140556Y-33419443D01*
X40164444Y-33395555D01*
X40211667Y-33371666D01*
X40355000Y-33371666D01*
X40402222Y-33395555D01*
X40426111Y-33419443D01*
X40450000Y-33467221D01*
X40450000Y-33562221D01*
X40426111Y-33609999D01*
X40188333Y-33004999D02*
X40188333Y-33171666D01*
X40450000Y-33171666D02*
X39950000Y-33171666D01*
X39950000Y-32933333D01*
D10*
G04 #@! TO.C,C8*
X36781111Y-18445556D02*
X36828889Y-18397778D01*
X36923333Y-18350000D01*
X37162222Y-18350000D01*
X37256666Y-18397778D01*
X37304444Y-18445556D01*
X37352222Y-18540000D01*
X37352222Y-18635556D01*
X37304444Y-18778889D01*
X36733333Y-19350000D01*
X37352222Y-19350000D01*
X37800000Y-18445556D02*
X37847778Y-18397778D01*
X37942222Y-18350000D01*
X38181111Y-18350000D01*
X38275555Y-18397778D01*
X38323333Y-18445556D01*
X38371111Y-18540000D01*
X38371111Y-18635556D01*
X38323333Y-18778889D01*
X37752222Y-19350000D01*
X38371111Y-19350000D01*
X38771111Y-18683333D02*
X38771111Y-19683333D01*
X39247778Y-19206667D02*
X39294444Y-19302222D01*
X39390000Y-19350000D01*
X38771111Y-19206667D02*
X38818889Y-19302222D01*
X38914444Y-19350000D01*
X39104444Y-19350000D01*
X39200000Y-19302222D01*
X39247778Y-19206667D01*
X39247778Y-18683333D01*
X40123333Y-18826667D02*
X39790000Y-18826667D01*
X39790000Y-19350000D02*
X39790000Y-18350000D01*
X40266667Y-18350000D01*
G04 #@! TO.C,K7*
X90317778Y-23700000D02*
X90317778Y-24414444D01*
X90270000Y-24556667D01*
X90174445Y-24652222D01*
X90032223Y-24700000D01*
X89936667Y-24700000D01*
X90717778Y-23700000D02*
X91051111Y-24700000D01*
X91384445Y-23700000D01*
X92584444Y-24652222D02*
X92727777Y-24700000D01*
X92965555Y-24700000D01*
X93061111Y-24652222D01*
X93107777Y-24604444D01*
X93155555Y-24510000D01*
X93155555Y-24414444D01*
X93107777Y-24318889D01*
X93061111Y-24271111D01*
X92965555Y-24223333D01*
X92774444Y-24176667D01*
X92680000Y-24128889D01*
X92632222Y-24081111D01*
X92584444Y-23985556D01*
X92584444Y-23890000D01*
X92632222Y-23795556D01*
X92680000Y-23747778D01*
X92774444Y-23700000D01*
X93013333Y-23700000D01*
X93155555Y-23747778D01*
X93984444Y-24652222D02*
X93888888Y-24700000D01*
X93698888Y-24700000D01*
X93603333Y-24652222D01*
X93555555Y-24556667D01*
X93555555Y-24176667D01*
X93603333Y-24081111D01*
X93698888Y-24033333D01*
X93888888Y-24033333D01*
X93984444Y-24081111D01*
X94032222Y-24176667D01*
X94032222Y-24271111D01*
X93555555Y-24366667D01*
X94432222Y-24700000D02*
X94432222Y-24033333D01*
X94432222Y-24223333D02*
X94480000Y-24128889D01*
X94527778Y-24081111D01*
X94622222Y-24033333D01*
X94717778Y-24033333D01*
X95165556Y-24700000D02*
X95165556Y-24033333D01*
X95165556Y-23700000D02*
X95117778Y-23747778D01*
X95165556Y-23795556D01*
X95213334Y-23747778D01*
X95165556Y-23700000D01*
X95165556Y-23795556D01*
X96042223Y-24652222D02*
X95946667Y-24700000D01*
X95756667Y-24700000D01*
X95661112Y-24652222D01*
X95613334Y-24556667D01*
X95613334Y-24176667D01*
X95661112Y-24081111D01*
X95756667Y-24033333D01*
X95946667Y-24033333D01*
X96042223Y-24081111D01*
X96090001Y-24176667D01*
X96090001Y-24271111D01*
X95613334Y-24366667D01*
X96490001Y-24652222D02*
X96585557Y-24700000D01*
X96775557Y-24700000D01*
X96871112Y-24652222D01*
X96918890Y-24556667D01*
X96918890Y-24510000D01*
X96871112Y-24414444D01*
X96775557Y-24366667D01*
X96633334Y-24366667D01*
X96537779Y-24318889D01*
X96490001Y-24223333D01*
X96490001Y-24176667D01*
X96537779Y-24081111D01*
X96633334Y-24033333D01*
X96775557Y-24033333D01*
X96871112Y-24081111D01*
X98690000Y-24700000D02*
X98356667Y-24223333D01*
X98118889Y-24700000D02*
X98118889Y-23700000D01*
X98500000Y-23700000D01*
X98595556Y-23747778D01*
X98642222Y-23795556D01*
X98690000Y-23890000D01*
X98690000Y-24033333D01*
X98642222Y-24128889D01*
X98595556Y-24176667D01*
X98500000Y-24223333D01*
X98118889Y-24223333D01*
X99518889Y-24652222D02*
X99423333Y-24700000D01*
X99233333Y-24700000D01*
X99137778Y-24652222D01*
X99090000Y-24556667D01*
X99090000Y-24176667D01*
X99137778Y-24081111D01*
X99233333Y-24033333D01*
X99423333Y-24033333D01*
X99518889Y-24081111D01*
X99566667Y-24176667D01*
X99566667Y-24271111D01*
X99090000Y-24366667D01*
X100110000Y-24700000D02*
X100014445Y-24652222D01*
X99966667Y-24556667D01*
X99966667Y-23700000D01*
X100986667Y-24700000D02*
X100986667Y-24176667D01*
X100938889Y-24081111D01*
X100843333Y-24033333D01*
X100653333Y-24033333D01*
X100557778Y-24081111D01*
X100986667Y-24652222D02*
X100891111Y-24700000D01*
X100653333Y-24700000D01*
X100557778Y-24652222D01*
X100510000Y-24556667D01*
X100510000Y-24462222D01*
X100557778Y-24366667D01*
X100653333Y-24318889D01*
X100891111Y-24318889D01*
X100986667Y-24271111D01*
X101386667Y-24033333D02*
X101624445Y-24700000D01*
X101863334Y-24033333D02*
X101624445Y-24700000D01*
X101530000Y-24937778D01*
X101482223Y-24985556D01*
X101386667Y-25033333D01*
G04 #@! TO.C,K8*
X90317778Y-11200000D02*
X90317778Y-11914444D01*
X90270000Y-12056667D01*
X90174445Y-12152222D01*
X90032223Y-12200000D01*
X89936667Y-12200000D01*
X90717778Y-11200000D02*
X91051111Y-12200000D01*
X91384445Y-11200000D01*
X92584444Y-12152222D02*
X92727777Y-12200000D01*
X92965555Y-12200000D01*
X93061111Y-12152222D01*
X93107777Y-12104444D01*
X93155555Y-12010000D01*
X93155555Y-11914444D01*
X93107777Y-11818889D01*
X93061111Y-11771111D01*
X92965555Y-11723333D01*
X92774444Y-11676667D01*
X92680000Y-11628889D01*
X92632222Y-11581111D01*
X92584444Y-11485556D01*
X92584444Y-11390000D01*
X92632222Y-11295556D01*
X92680000Y-11247778D01*
X92774444Y-11200000D01*
X93013333Y-11200000D01*
X93155555Y-11247778D01*
X93984444Y-12152222D02*
X93888888Y-12200000D01*
X93698888Y-12200000D01*
X93603333Y-12152222D01*
X93555555Y-12056667D01*
X93555555Y-11676667D01*
X93603333Y-11581111D01*
X93698888Y-11533333D01*
X93888888Y-11533333D01*
X93984444Y-11581111D01*
X94032222Y-11676667D01*
X94032222Y-11771111D01*
X93555555Y-11866667D01*
X94432222Y-12200000D02*
X94432222Y-11533333D01*
X94432222Y-11723333D02*
X94480000Y-11628889D01*
X94527778Y-11581111D01*
X94622222Y-11533333D01*
X94717778Y-11533333D01*
X95165556Y-12200000D02*
X95165556Y-11533333D01*
X95165556Y-11200000D02*
X95117778Y-11247778D01*
X95165556Y-11295556D01*
X95213334Y-11247778D01*
X95165556Y-11200000D01*
X95165556Y-11295556D01*
X96042223Y-12152222D02*
X95946667Y-12200000D01*
X95756667Y-12200000D01*
X95661112Y-12152222D01*
X95613334Y-12056667D01*
X95613334Y-11676667D01*
X95661112Y-11581111D01*
X95756667Y-11533333D01*
X95946667Y-11533333D01*
X96042223Y-11581111D01*
X96090001Y-11676667D01*
X96090001Y-11771111D01*
X95613334Y-11866667D01*
X96490001Y-12152222D02*
X96585557Y-12200000D01*
X96775557Y-12200000D01*
X96871112Y-12152222D01*
X96918890Y-12056667D01*
X96918890Y-12010000D01*
X96871112Y-11914444D01*
X96775557Y-11866667D01*
X96633334Y-11866667D01*
X96537779Y-11818889D01*
X96490001Y-11723333D01*
X96490001Y-11676667D01*
X96537779Y-11581111D01*
X96633334Y-11533333D01*
X96775557Y-11533333D01*
X96871112Y-11581111D01*
X98690000Y-12200000D02*
X98356667Y-11723333D01*
X98118889Y-12200000D02*
X98118889Y-11200000D01*
X98500000Y-11200000D01*
X98595556Y-11247778D01*
X98642222Y-11295556D01*
X98690000Y-11390000D01*
X98690000Y-11533333D01*
X98642222Y-11628889D01*
X98595556Y-11676667D01*
X98500000Y-11723333D01*
X98118889Y-11723333D01*
X99518889Y-12152222D02*
X99423333Y-12200000D01*
X99233333Y-12200000D01*
X99137778Y-12152222D01*
X99090000Y-12056667D01*
X99090000Y-11676667D01*
X99137778Y-11581111D01*
X99233333Y-11533333D01*
X99423333Y-11533333D01*
X99518889Y-11581111D01*
X99566667Y-11676667D01*
X99566667Y-11771111D01*
X99090000Y-11866667D01*
X100110000Y-12200000D02*
X100014445Y-12152222D01*
X99966667Y-12056667D01*
X99966667Y-11200000D01*
X100986667Y-12200000D02*
X100986667Y-11676667D01*
X100938889Y-11581111D01*
X100843333Y-11533333D01*
X100653333Y-11533333D01*
X100557778Y-11581111D01*
X100986667Y-12152222D02*
X100891111Y-12200000D01*
X100653333Y-12200000D01*
X100557778Y-12152222D01*
X100510000Y-12056667D01*
X100510000Y-11962222D01*
X100557778Y-11866667D01*
X100653333Y-11818889D01*
X100891111Y-11818889D01*
X100986667Y-11771111D01*
X101386667Y-11533333D02*
X101624445Y-12200000D01*
X101863334Y-11533333D02*
X101624445Y-12200000D01*
X101530000Y-12437778D01*
X101482223Y-12485556D01*
X101386667Y-12533333D01*
D12*
G04 #@! TO.C,Q6*
X79074167Y-39750000D02*
X79074167Y-39250000D01*
X79359723Y-39750000D01*
X79359723Y-39250000D01*
X79559723Y-39250000D02*
X79893056Y-39750000D01*
X79893056Y-39250000D02*
X79559723Y-39750000D01*
X80093056Y-39250000D02*
X80426389Y-39250000D01*
X80211945Y-39750000D01*
X80745278Y-39250000D02*
X80793056Y-39250000D01*
X80840833Y-39273889D01*
X80864722Y-39297778D01*
X80888056Y-39345000D01*
X80911945Y-39440556D01*
X80911945Y-39559444D01*
X80888056Y-39655000D01*
X80864722Y-39702222D01*
X80840833Y-39726111D01*
X80793056Y-39750000D01*
X80745278Y-39750000D01*
X80698056Y-39726111D01*
X80674167Y-39702222D01*
X80650278Y-39655000D01*
X80626389Y-39559444D01*
X80626389Y-39440556D01*
X80650278Y-39345000D01*
X80674167Y-39297778D01*
X80698056Y-39273889D01*
X80745278Y-39250000D01*
X81230834Y-39250000D02*
X81278612Y-39250000D01*
X81326389Y-39273889D01*
X81350278Y-39297778D01*
X81373612Y-39345000D01*
X81397501Y-39440556D01*
X81397501Y-39559444D01*
X81373612Y-39655000D01*
X81350278Y-39702222D01*
X81326389Y-39726111D01*
X81278612Y-39750000D01*
X81230834Y-39750000D01*
X81183612Y-39726111D01*
X81159723Y-39702222D01*
X81135834Y-39655000D01*
X81111945Y-39559444D01*
X81111945Y-39440556D01*
X81135834Y-39345000D01*
X81159723Y-39297778D01*
X81183612Y-39273889D01*
X81230834Y-39250000D01*
X81621390Y-39297778D02*
X81645279Y-39273889D01*
X81692501Y-39250000D01*
X81811945Y-39250000D01*
X81859168Y-39273889D01*
X81883057Y-39297778D01*
X81906945Y-39345000D01*
X81906945Y-39392778D01*
X81883057Y-39464444D01*
X81597501Y-39750000D01*
X81906945Y-39750000D01*
X82154723Y-39607222D02*
X82392501Y-39607222D01*
X82106945Y-39750000D02*
X82273612Y-39250000D01*
X82440278Y-39750000D01*
X82640278Y-39750000D02*
X82640278Y-39250000D01*
X82925834Y-39750000D02*
X82711945Y-39464444D01*
X82925834Y-39250000D02*
X82640278Y-39535556D01*
G04 #@! TO.C,D1*
X52190834Y-8238333D02*
X52262500Y-8261667D01*
X52285834Y-8285556D01*
X52309723Y-8333333D01*
X52309723Y-8405000D01*
X52285834Y-8452222D01*
X52262500Y-8476111D01*
X52214723Y-8500000D01*
X52024167Y-8500000D01*
X52024167Y-8000000D01*
X52190834Y-8000000D01*
X52238611Y-8023889D01*
X52262500Y-8047778D01*
X52285834Y-8095000D01*
X52285834Y-8142778D01*
X52262500Y-8190556D01*
X52238611Y-8214444D01*
X52190834Y-8238333D01*
X52024167Y-8238333D01*
X52557501Y-8357222D02*
X52795279Y-8357222D01*
X52509723Y-8500000D02*
X52676390Y-8000000D01*
X52843056Y-8500000D01*
X53043056Y-8000000D02*
X53209723Y-8500000D01*
X53376389Y-8000000D01*
X53861945Y-8500000D02*
X53576389Y-8500000D01*
X53719167Y-8500000D02*
X53719167Y-8000000D01*
X53671389Y-8071667D01*
X53624167Y-8118889D01*
X53576389Y-8142778D01*
X54300278Y-8000000D02*
X54204723Y-8000000D01*
X54156945Y-8023889D01*
X54133612Y-8047778D01*
X54085834Y-8118889D01*
X54061945Y-8214444D01*
X54061945Y-8405000D01*
X54085834Y-8452222D01*
X54109723Y-8476111D01*
X54156945Y-8500000D01*
X54252501Y-8500000D01*
X54300278Y-8476111D01*
X54323612Y-8452222D01*
X54347501Y-8405000D01*
X54347501Y-8285556D01*
X54323612Y-8238333D01*
X54300278Y-8214444D01*
X54252501Y-8190556D01*
X54156945Y-8190556D01*
X54109723Y-8214444D01*
X54085834Y-8238333D01*
X54061945Y-8285556D01*
X54547501Y-8000000D02*
X54666390Y-8500000D01*
X54761945Y-8142778D01*
X54856945Y-8500000D01*
X54975834Y-8000000D01*
%LPC*%
D16*
G04 #@! TO.C,K1*
X74700000Y-49700000D03*
X59500000Y-48500000D03*
X74700000Y-56100000D03*
X59500000Y-56100000D03*
D17*
G04 #@! TO.C,D6*
X84500000Y-47850000D03*
X84500000Y-51150000D03*
D18*
G04 #@! TO.C,L1*
X31500000Y-31000000D03*
X31500000Y-26000000D03*
D17*
G04 #@! TO.C,D7*
X84500000Y-35350000D03*
X84500000Y-38650000D03*
G04 #@! TO.C,D9*
X84500000Y-10350000D03*
X84500000Y-13650000D03*
D19*
G04 #@! TO.C,U1*
X33000000Y-35750000D03*
D20*
X32500000Y-37500000D03*
X32500000Y-34500000D03*
D21*
X30050000Y-36250000D03*
D20*
X30600000Y-34500000D03*
D19*
X33000000Y-35250000D03*
D22*
X30500000Y-36700000D03*
D19*
X33000000Y-36250000D03*
X33000000Y-36750000D03*
D23*
X31100000Y-35100000D03*
D21*
X30050000Y-35750000D03*
D24*
X31700000Y-36700000D03*
D21*
X30050000Y-36750000D03*
D25*
G04 #@! TO.C,R2*
X36500000Y-34975000D03*
X36500000Y-33025000D03*
D26*
G04 #@! TO.C,R10*
X82000000Y-20925000D03*
X82000000Y-18075000D03*
D27*
G04 #@! TO.C,C5*
X28600000Y-38500000D03*
X29400000Y-38500000D03*
D28*
G04 #@! TO.C,C4*
X29925000Y-40500000D03*
X27075000Y-40500000D03*
D29*
G04 #@! TO.C,C7*
X27075000Y-19000000D03*
X29925000Y-19000000D03*
D25*
G04 #@! TO.C,R3*
X36500000Y-38475000D03*
X36500000Y-36525000D03*
D30*
G04 #@! TO.C,Q2*
X53000000Y-41500000D03*
X51000000Y-41500000D03*
X52000000Y-43500000D03*
D26*
G04 #@! TO.C,R1*
X33000000Y-39075000D03*
X33000000Y-41925000D03*
D29*
G04 #@! TO.C,C3*
X29925000Y-46000000D03*
X27075000Y-46000000D03*
D31*
G04 #@! TO.C,BR1*
X25400000Y-60100000D03*
X30500000Y-50500000D03*
X25400000Y-50500000D03*
X30500000Y-60100000D03*
D28*
G04 #@! TO.C,R5*
X49925000Y-38000000D03*
X47075000Y-38000000D03*
D16*
G04 #@! TO.C,K2*
X74700000Y-37200000D03*
X59500000Y-36000000D03*
X74700000Y-43600000D03*
X59500000Y-43600000D03*
G04 #@! TO.C,K5*
X103700000Y-44700000D03*
X88500000Y-43500000D03*
X103700000Y-51100000D03*
X88500000Y-51100000D03*
G04 #@! TO.C,K4*
X74700000Y-12200000D03*
X59500000Y-11000000D03*
X74700000Y-18600000D03*
X59500000Y-18600000D03*
D30*
G04 #@! TO.C,Q5*
X82000000Y-49000000D03*
X80000000Y-49000000D03*
X81000000Y-51000000D03*
D27*
G04 #@! TO.C,C1*
X32600000Y-33500000D03*
X33400000Y-33500000D03*
D29*
G04 #@! TO.C,C10*
X27075000Y-22500000D03*
X29925000Y-22500000D03*
D17*
G04 #@! TO.C,D3*
X55500000Y-40350000D03*
X55500000Y-43650000D03*
D16*
G04 #@! TO.C,K6*
X103700000Y-32200000D03*
X88500000Y-31000000D03*
X103700000Y-38600000D03*
X88500000Y-38600000D03*
G04 #@! TO.C,K3*
X74700000Y-24700000D03*
X59500000Y-23500000D03*
X74700000Y-31100000D03*
X59500000Y-31100000D03*
D27*
G04 #@! TO.C,C2*
X30900000Y-33500000D03*
X30100000Y-33500000D03*
D17*
G04 #@! TO.C,D2*
X55500000Y-52850000D03*
X55500000Y-56150000D03*
D32*
G04 #@! TO.C,J2*
X24110000Y-6230000D03*
X29190000Y-8770000D03*
X39350000Y-8770000D03*
X26650000Y-6230000D03*
X24110000Y-8770000D03*
X31730000Y-8770000D03*
X26650000Y-8770000D03*
X29190000Y-6230000D03*
X36810000Y-6230000D03*
X34270000Y-8770000D03*
X31730000Y-6230000D03*
D33*
X41890000Y-6230000D03*
D32*
X41890000Y-8770000D03*
X34270000Y-6230000D03*
X39350000Y-6230000D03*
X36810000Y-8770000D03*
D30*
G04 #@! TO.C,Q4*
X53000000Y-16500000D03*
X51000000Y-16500000D03*
X52000000Y-18500000D03*
D17*
G04 #@! TO.C,D8*
X84500000Y-22850000D03*
X84500000Y-26150000D03*
D28*
G04 #@! TO.C,R4*
X49925000Y-50500000D03*
X47075000Y-50500000D03*
D30*
G04 #@! TO.C,Q8*
X82000000Y-11500000D03*
X80000000Y-11500000D03*
X81000000Y-13500000D03*
D28*
G04 #@! TO.C,R7*
X49925000Y-13000000D03*
X47075000Y-13000000D03*
D30*
G04 #@! TO.C,Q3*
X53000000Y-29000000D03*
X51000000Y-29000000D03*
X52000000Y-31000000D03*
D28*
G04 #@! TO.C,C6*
X35925000Y-16000000D03*
X33075000Y-16000000D03*
D26*
G04 #@! TO.C,R11*
X82000000Y-8425000D03*
X82000000Y-5575000D03*
G04 #@! TO.C,R8*
X82000000Y-45925000D03*
X82000000Y-43075000D03*
D17*
G04 #@! TO.C,D4*
X55500000Y-27850000D03*
X55500000Y-31150000D03*
D30*
G04 #@! TO.C,Q1*
X53000000Y-54000000D03*
X51000000Y-54000000D03*
X52000000Y-56000000D03*
D34*
G04 #@! TO.C,U2*
X40900000Y-51200000D03*
X40900000Y-49800000D03*
X40100000Y-49800000D03*
X40100000Y-51200000D03*
D30*
G04 #@! TO.C,Q7*
X82000000Y-24000000D03*
X80000000Y-24000000D03*
X81000000Y-26000000D03*
D35*
G04 #@! TO.C,J1*
X130000000Y-57500000D03*
X130000000Y-47500000D03*
X130000000Y-37500000D03*
X130000000Y-52500000D03*
X130000000Y-32500000D03*
X130000000Y-17500000D03*
X130000000Y-27500000D03*
X130000000Y-22500000D03*
X130000000Y-62500000D03*
X130000000Y-42500000D03*
D28*
G04 #@! TO.C,R6*
X49925000Y-25500000D03*
X47075000Y-25500000D03*
D26*
G04 #@! TO.C,R9*
X82000000Y-33425000D03*
X82000000Y-30575000D03*
D29*
G04 #@! TO.C,C9*
X35925000Y-22500000D03*
X33075000Y-22500000D03*
D17*
G04 #@! TO.C,D5*
X55500000Y-15350000D03*
X55500000Y-18650000D03*
D36*
G04 #@! TO.C,C11*
X39000000Y-33600000D03*
X39000000Y-34400000D03*
D29*
G04 #@! TO.C,C8*
X35925000Y-19000000D03*
X33075000Y-19000000D03*
D16*
G04 #@! TO.C,K7*
X103700000Y-19700000D03*
X88500000Y-18500000D03*
X103700000Y-26100000D03*
X88500000Y-26100000D03*
G04 #@! TO.C,K8*
X103700000Y-7200000D03*
X88500000Y-6000000D03*
X103700000Y-13600000D03*
X88500000Y-13600000D03*
D30*
G04 #@! TO.C,Q6*
X82000000Y-36500000D03*
X80000000Y-36500000D03*
X81000000Y-38500000D03*
D17*
G04 #@! TO.C,D1*
X55150000Y-6500000D03*
X51850000Y-6500000D03*
D37*
G04 #@! TD*
X3500000Y-66500000D03*
X136500000Y-66500000D03*
X3500000Y-3500000D03*
X136500000Y-3500000D03*
G04 --- BOARD END --- *
G04 #@! TF.MD5,288da96649d0c977849868b88b06357a*
M02*
