M48
; #@! TF.GenerationSoftware,LibrePCB,LibrePCB,1.0.0
; #@! TF.CreationDate,2024-05-06T14:58:10
; #@! TF.ProjectId,OSm Thermal,b11a65fa-6c4c-431c-8545-341aca355aaf,v1.7
; #@! TF.Part,Single
; #@! TF.SameCoordinates
; #@! TF.FileFunction,Plated,1,2,PTH
FMAT,2
METRIC,TZ
; #@! TA.AperFunction,ViaDrill
T1C0.3
; #@! TA.AperFunction,ComponentDrill
T2C0.8
; #@! TA.AperFunction,ComponentDrill
T3C0.9
; #@! TA.AperFunction,ComponentDrill
T4C1.4
%
G90
G05
M71
T1
X22.5Y-47.5
X84.5Y-30.0
X49.5Y-41.5
X25.0Y-42.0
X78.0Y-36.5
X25.5Y-20.5
X34.5Y-34.5
X36.0Y-42.5
X7.5Y-53.0
X15.5Y-58.5
X96.5Y-34.5
X68.0Y-52.5
X69.5Y-27.5
X50.0Y-47.5
X84.5Y-43.0
X118.0Y-25.0
X96.0Y-48.0
X61.0Y-27.0
X86.5Y-65.0
X76.5Y-8.5
X26.5Y-49.0
X98.5Y-9.5
X49.5Y-16.5
X78.5Y-56.5
X85.5Y-3.0
X85.0Y-5.0
X41.5Y-52.5
X70.0Y-7.5
X10.0Y-8.0
X5.5Y-15.5
X50.0Y-10.5
X69.5Y-14.5
X24.5Y-47.5
X122.0Y-44.5
X6.5Y-35.0
X61.0Y-8.5
X125.5Y-8.5
X110.5Y-31.5
X61.5Y-39.5
X80.0Y-22.5
X61.5Y-14.5
X50.0Y-23.0
X123.5Y-39.0
X118.0Y-56.0
X22.5Y-20.5
X38.0Y-20.0
X68.5Y-40.0
X132.5Y-69.0
X24.5Y-49.0
X69.0Y-69.0
X16.0Y-26.5
X78.5Y-8.5
X117.0Y-65.0
X110.5Y-20.0
X77.5Y-8.5
X37.5Y-25.5
X35.0Y-68.5
X79.5Y-8.5
X34.0Y-37.5
X121.0Y-50.0
X97.0Y-22.5
X49.5Y-54.0
X22.5Y-50.5
X115.0Y-39.0
X22.5Y-49.0
X50.0Y-35.0
X44.5Y-65.0
X18.0Y-39.0
X84.5Y-17.5
X49.5Y-29.0
T2
X88.5Y-13.6
X103.7Y-13.6
X88.5Y-6.0
X103.7Y-7.2
X88.5Y-26.1
X103.7Y-26.1
X88.5Y-18.5
X103.7Y-19.7
X59.5Y-31.1
X74.7Y-31.1
X59.5Y-23.5
X74.7Y-24.7
X88.5Y-38.6
X103.7Y-38.6
X88.5Y-31.0
X103.7Y-32.2
X59.5Y-18.6
X74.7Y-18.6
X59.5Y-11.0
X74.7Y-12.2
X88.5Y-51.1
X103.7Y-51.1
X88.5Y-43.5
X103.7Y-44.7
X59.5Y-43.6
X74.7Y-43.6
X59.5Y-36.0
X74.7Y-37.2
X59.5Y-56.1
X74.7Y-56.1
X59.5Y-48.5
X74.7Y-49.7
T3
X36.81Y-8.77
X39.35Y-6.23
X34.27Y-6.23
X41.89Y-8.77
X41.89Y-6.23
X31.73Y-6.23
X34.27Y-8.77
X36.81Y-6.23
X29.19Y-6.23
X26.65Y-8.77
X31.73Y-8.77
X24.11Y-8.77
X26.65Y-6.23
X39.35Y-8.77
X29.19Y-8.77
X24.11Y-6.23
T4
X130.0Y-42.5
X130.0Y-62.5
X130.0Y-22.5
X130.0Y-27.5
X130.0Y-17.5
X130.0Y-32.5
X130.0Y-52.5
X130.0Y-37.5
X130.0Y-47.5
X130.0Y-57.5
T0
M30
