G04 --- HEADER BEGIN --- *
G04 #@! TF.GenerationSoftware,LibrePCB,LibrePCB,1.0.0*
G04 #@! TF.CreationDate,2024-05-06T14:58:10*
G04 #@! TF.ProjectId,OSm Thermal,b11a65fa-6c4c-431c-8545-341aca355aaf,v1.7*
G04 #@! TF.Part,Single*
G04 #@! TF.SameCoordinates*
G04 #@! TF.FileFunction,Paste,Top*
G04 #@! TF.FilePolarity,Positive*
%FSLAX66Y66*%
%MOMM*%
G01*
G75*
G04 --- HEADER END --- *
G04 --- APERTURE LIST BEGIN --- *
%AMROUNDEDRECT10*20,1,0.72,-0.225,0.0,0.225,0.0,0.0*20,1,0.45,-0.36,0.0,0.36,0.0,0.0*1,1,0.27,-0.225,0.225*1,1,0.27,0.225,0.225*1,1,0.27,0.225,-0.225*1,1,0.27,-0.225,-0.225*%
%ADD10ROUNDEDRECT10*%
%AMROUNDEDRECT11*20,1,1.6,-1.25,0.0,1.25,0.0,0.0*20,1,1.5,-1.3,0.0,1.3,0.0,0.0*1,1,0.1,-1.25,0.75*1,1,0.1,1.25,0.75*1,1,0.1,1.25,-0.75*1,1,0.1,-1.25,-0.75*%
%ADD11ROUNDEDRECT11*%
%AMROUNDEDRECT12*20,1,0.2,-0.2375,0.0,0.2375,0.0,0.0*20,1,0.125,-0.275,0.0,0.275,0.0,0.0*1,1,0.075,-0.2375,0.0625*1,1,0.075,0.2375,0.0625*1,1,0.075,0.2375,-0.0625*1,1,0.075,-0.2375,-0.0625*%
%ADD12ROUNDEDRECT12*%
%AMROUNDEDRECT13*20,1,0.2,-0.2375,0.0,0.2375,0.0,90.0*20,1,0.125,-0.275,0.0,0.275,0.0,90.0*1,1,0.075,-0.0625,-0.2375*1,1,0.075,-0.0625,0.2375*1,1,0.075,0.0625,0.2375*1,1,0.075,0.0625,-0.2375*%
%ADD13ROUNDEDRECT13*%
%AMROUNDEDRECT14*20,1,0.2,-0.2875,0.0,0.2875,0.0,0.0*20,1,0.125,-0.325,0.0,0.325,0.0,0.0*1,1,0.075,-0.2875,0.0625*1,1,0.075,0.2875,0.0625*1,1,0.075,0.2875,-0.0625*1,1,0.075,-0.2875,-0.0625*%
%ADD14ROUNDEDRECT14*%
%AMOUTLINE15*4,1,16,0.15,-1.086603,0.186603,-1.05,0.2,-1.0,0.2,1.0,0.186603,1.05,0.15,1.086603,0.1,1.1,-0.1,1.1,-0.15,1.086603,-0.186603,1.05,-0.2,1.0,-0.2,-1.0,-0.186603,-1.05,-0.15,-1.086603,-0.1,-1.1,0.1,-1.1,0.15,-1.086603,180.0*%
%ADD15OUTLINE15*%
%AMROUNDEDRECT16*20,1,0.2,-0.8375,0.0,0.8375,0.0,90.0*20,1,0.125,-0.875,0.0,0.875,0.0,90.0*1,1,0.075,-0.0625,-0.8375*1,1,0.075,-0.0625,0.8375*1,1,0.075,0.0625,0.8375*1,1,0.075,0.0625,-0.8375*%
%ADD16ROUNDEDRECT16*%
%AMROUNDEDRECT17*20,1,0.32,-1.0,0.0,1.0,0.0,90.0*20,1,0.2,-1.06,0.0,1.06,0.0,90.0*1,1,0.12,-0.1,-1.0*1,1,0.12,-0.1,1.0*1,1,0.12,0.1,1.0*1,1,0.12,0.1,-1.0*%
%ADD17ROUNDEDRECT17*%
%ADD18R,1.1X0.6*%
%ADD19R,1.39X0.84*%
%ADD20R,0.32X0.42*%
%ADD21R,0.84X1.39*%
%ADD22R,0.84X2.29*%
%AMROUNDEDRECT23*20,1,0.56,-0.175,0.0,0.175,0.0,0.0*20,1,0.35,-0.28,0.0,0.28,0.0,0.0*1,1,0.21,-0.175,0.175*1,1,0.21,0.175,0.175*1,1,0.21,0.175,-0.175*1,1,0.21,-0.175,-0.175*%
%ADD23ROUNDEDRECT23*%
%AMROUNDEDRECT24*20,1,1.28,-0.652,0.0,0.652,0.0,0.0*20,1,1.104,-0.74,0.0,0.74,0.0,0.0*1,1,0.176,-0.652,0.552*1,1,0.176,0.652,0.552*1,1,0.176,0.652,-0.552*1,1,0.176,-0.652,-0.552*%
%ADD24ROUNDEDRECT24*%
%AMROUNDEDRECT25*20,1,0.24,-0.175,0.0,0.175,0.0,90.0*20,1,0.15,-0.22,0.0,0.22,0.0,90.0*1,1,0.09,-0.075,-0.175*1,1,0.09,-0.075,0.175*1,1,0.09,0.075,0.175*1,1,0.09,0.075,-0.175*%
%ADD25ROUNDEDRECT25*%
%ADD26R,0.42X0.32*%
G04 --- APERTURE LIST END --- *
G04 --- BOARD BEGIN --- *
D10*
G04 #@! TO.C,D6*
X84500000Y-47850000D03*
X84500000Y-51150000D03*
D11*
G04 #@! TO.C,L1*
X31500000Y-31000000D03*
X31500000Y-26000000D03*
D10*
G04 #@! TO.C,D7*
X84500000Y-35350000D03*
X84500000Y-38650000D03*
G04 #@! TO.C,D9*
X84500000Y-10350000D03*
X84500000Y-13650000D03*
D12*
G04 #@! TO.C,U1*
X33000000Y-35750000D03*
D13*
X32500000Y-37500000D03*
X32500000Y-34500000D03*
D14*
X30050000Y-36250000D03*
D13*
X30600000Y-34500000D03*
D12*
X33000000Y-35250000D03*
D15*
X30500000Y-36700000D03*
D12*
X33000000Y-36250000D03*
X33000000Y-36750000D03*
D16*
X31100000Y-35100000D03*
D14*
X30050000Y-35750000D03*
D17*
X31700000Y-36700000D03*
D14*
X30050000Y-36750000D03*
D18*
G04 #@! TO.C,R2*
X36500000Y-34975000D03*
X36500000Y-33025000D03*
D19*
G04 #@! TO.C,R10*
X82000000Y-20925000D03*
X82000000Y-18075000D03*
D20*
G04 #@! TO.C,C5*
X28600000Y-38500000D03*
X29400000Y-38500000D03*
D21*
G04 #@! TO.C,C4*
X29925000Y-40500000D03*
X27075000Y-40500000D03*
D22*
G04 #@! TO.C,C7*
X27075000Y-19000000D03*
X29925000Y-19000000D03*
D18*
G04 #@! TO.C,R3*
X36500000Y-38475000D03*
X36500000Y-36525000D03*
D23*
G04 #@! TO.C,Q2*
X53000000Y-41500000D03*
X51000000Y-41500000D03*
X52000000Y-43500000D03*
D19*
G04 #@! TO.C,R1*
X33000000Y-39075000D03*
X33000000Y-41925000D03*
D22*
G04 #@! TO.C,C3*
X29925000Y-46000000D03*
X27075000Y-46000000D03*
D24*
G04 #@! TO.C,BR1*
X25400000Y-60100000D03*
X30500000Y-50500000D03*
X25400000Y-50500000D03*
X30500000Y-60100000D03*
D21*
G04 #@! TO.C,R5*
X49925000Y-38000000D03*
X47075000Y-38000000D03*
D23*
G04 #@! TO.C,Q5*
X82000000Y-49000000D03*
X80000000Y-49000000D03*
X81000000Y-51000000D03*
D20*
G04 #@! TO.C,C1*
X32600000Y-33500000D03*
X33400000Y-33500000D03*
D22*
G04 #@! TO.C,C10*
X27075000Y-22500000D03*
X29925000Y-22500000D03*
D10*
G04 #@! TO.C,D3*
X55500000Y-40350000D03*
X55500000Y-43650000D03*
D20*
G04 #@! TO.C,C2*
X30900000Y-33500000D03*
X30100000Y-33500000D03*
D10*
G04 #@! TO.C,D2*
X55500000Y-52850000D03*
X55500000Y-56150000D03*
D23*
G04 #@! TO.C,Q4*
X53000000Y-16500000D03*
X51000000Y-16500000D03*
X52000000Y-18500000D03*
D10*
G04 #@! TO.C,D8*
X84500000Y-22850000D03*
X84500000Y-26150000D03*
D21*
G04 #@! TO.C,R4*
X49925000Y-50500000D03*
X47075000Y-50500000D03*
D23*
G04 #@! TO.C,Q8*
X82000000Y-11500000D03*
X80000000Y-11500000D03*
X81000000Y-13500000D03*
D21*
G04 #@! TO.C,R7*
X49925000Y-13000000D03*
X47075000Y-13000000D03*
D23*
G04 #@! TO.C,Q3*
X53000000Y-29000000D03*
X51000000Y-29000000D03*
X52000000Y-31000000D03*
D21*
G04 #@! TO.C,C6*
X35925000Y-16000000D03*
X33075000Y-16000000D03*
D19*
G04 #@! TO.C,R11*
X82000000Y-8425000D03*
X82000000Y-5575000D03*
G04 #@! TO.C,R8*
X82000000Y-45925000D03*
X82000000Y-43075000D03*
D10*
G04 #@! TO.C,D4*
X55500000Y-27850000D03*
X55500000Y-31150000D03*
D23*
G04 #@! TO.C,Q1*
X53000000Y-54000000D03*
X51000000Y-54000000D03*
X52000000Y-56000000D03*
D25*
G04 #@! TO.C,U2*
X40900000Y-51200000D03*
X40900000Y-49800000D03*
X40100000Y-49800000D03*
X40100000Y-51200000D03*
D23*
G04 #@! TO.C,Q7*
X82000000Y-24000000D03*
X80000000Y-24000000D03*
X81000000Y-26000000D03*
D21*
G04 #@! TO.C,R6*
X49925000Y-25500000D03*
X47075000Y-25500000D03*
D19*
G04 #@! TO.C,R9*
X82000000Y-33425000D03*
X82000000Y-30575000D03*
D22*
G04 #@! TO.C,C9*
X35925000Y-22500000D03*
X33075000Y-22500000D03*
D10*
G04 #@! TO.C,D5*
X55500000Y-15350000D03*
X55500000Y-18650000D03*
D26*
G04 #@! TO.C,C11*
X39000000Y-33600000D03*
X39000000Y-34400000D03*
D22*
G04 #@! TO.C,C8*
X35925000Y-19000000D03*
X33075000Y-19000000D03*
D23*
G04 #@! TO.C,Q6*
X82000000Y-36500000D03*
X80000000Y-36500000D03*
X81000000Y-38500000D03*
D10*
G04 #@! TO.C,D1*
X55150000Y-6500000D03*
X51850000Y-6500000D03*
G04 --- BOARD END --- *
G04 #@! TF.MD5,4fe3181ea0619905ab271bb95e79a210*
M02*
