G04 --- HEADER BEGIN --- *
G04 #@! TF.GenerationSoftware,LibrePCB,LibrePCB,1.0.0*
G04 #@! TF.CreationDate,2024-10-09T11:39:01*
G04 #@! TF.ProjectId,OSm Thermal,b11a65fa-6c4c-431c-8545-341aca355aaf,v1.11*
G04 #@! TF.Part,Single*
G04 #@! TF.SameCoordinates*
G04 #@! TF.FileFunction,Soldermask,Top*
G04 #@! TF.FilePolarity,Negative*
%FSLAX66Y66*%
%MOMM*%
G01*
G75*
G04 --- HEADER END --- *
G04 --- APERTURE LIST BEGIN --- *
%ADD10C,1.7*%
%AMROUNDEDRECT11*20,1,0.95,-0.4,0.0,0.4,0.0,0.0*20,1,0.75,-0.5,0.0,0.5,0.0,0.0*1,1,0.2,-0.4,0.375*1,1,0.2,0.4,0.375*1,1,0.2,0.4,-0.375*1,1,0.2,-0.4,-0.375*%
%ADD11ROUNDEDRECT11*%
%AMROUNDEDRECT12*20,1,0.95,-0.4,0.0,0.4,0.0,90.0*20,1,0.75,-0.5,0.0,0.5,0.0,90.0*1,1,0.2,-0.375,-0.4*1,1,0.2,-0.375,0.4*1,1,0.2,0.375,0.4*1,1,0.2,0.375,-0.4*%
%ADD12ROUNDEDRECT12*%
%ADD13O,2.39X1.787*%
%AMROUNDEDRECT14*20,1,1.787,-1.095,0.0,1.095,0.0,0.0*20,1,1.587,-1.195,0.0,1.195,0.0,0.0*1,1,0.2,-1.095,0.7935*1,1,0.2,1.095,0.7935*1,1,0.2,1.095,-0.7935*1,1,0.2,-1.095,-0.7935*%
%ADD14ROUNDEDRECT14*%
%AMROUNDEDRECT15*20,1,0.5,-0.175,0.0,0.175,0.0,90.0*20,1,0.15,-0.35,0.0,0.35,0.0,90.0*1,1,0.35,-0.075,-0.175*1,1,0.35,-0.075,0.175*1,1,0.35,0.075,0.175*1,1,0.35,0.075,-0.175*%
%ADD15ROUNDEDRECT15*%
%ADD16O,2.2X3.0*%
%AMROUNDEDRECT17*20,1,1.0,-0.425,0.0,0.425,0.0,90.0*20,1,0.8,-0.525,0.0,0.525,0.0,90.0*1,1,0.2,-0.4,-0.425*1,1,0.2,-0.4,0.425*1,1,0.2,0.4,0.425*1,1,0.2,0.4,-0.425*%
%ADD17ROUNDEDRECT17*%
%ADD18C,3.2*%
G04 --- APERTURE LIST END --- *
G04 --- BOARD BEGIN --- *
D10*
G04 #@! TO.C,K1*
X55750000Y-46750000D03*
X61250000Y-41750000D03*
X55750000Y-41750000D03*
X61250000Y-46750000D03*
D11*
G04 #@! TO.C,R2*
X28500000Y-47025000D03*
X28500000Y-45475000D03*
D10*
G04 #@! TO.C,K2*
X55750000Y-38750000D03*
X61250000Y-33750000D03*
X55750000Y-33750000D03*
X61250000Y-38750000D03*
G04 #@! TO.C,K5*
X55750000Y-14750000D03*
X61250000Y-9750000D03*
X55750000Y-9750000D03*
X61250000Y-14750000D03*
G04 #@! TO.C,K4*
X55750000Y-22750000D03*
X61250000Y-17750000D03*
X55750000Y-17750000D03*
X61250000Y-22750000D03*
D12*
G04 #@! TO.C,R13*
X15975000Y-7250000D03*
X17525000Y-7250000D03*
D10*
G04 #@! TO.C,K6*
X30000000Y-8750000D03*
X35500000Y-3750000D03*
X30000000Y-3750000D03*
X35500000Y-8750000D03*
G04 #@! TO.C,K3*
X55750000Y-30750000D03*
X61250000Y-25750000D03*
X55750000Y-25750000D03*
X61250000Y-30750000D03*
D13*
G04 #@! TO.C,J2*
X7230000Y-26140000D03*
X9770000Y-21060000D03*
X9770000Y-10900000D03*
X7230000Y-23600000D03*
X9770000Y-26140000D03*
X9770000Y-18520000D03*
X9770000Y-23600000D03*
X7230000Y-21060000D03*
X7230000Y-13440000D03*
X9770000Y-15980000D03*
X7230000Y-18520000D03*
D14*
X7230000Y-8360000D03*
D13*
X9770000Y-8360000D03*
X7230000Y-15980000D03*
X7230000Y-10900000D03*
X9770000Y-13440000D03*
D15*
G04 #@! TO.C,U2*
X15100000Y-2550000D03*
X15100000Y-3950000D03*
X15900000Y-3950000D03*
X15900000Y-2550000D03*
D12*
G04 #@! TO.C,R12*
X14775000Y-7250000D03*
X13225000Y-7250000D03*
D16*
G04 #@! TO.C,J1*
X74000000Y-49750000D03*
X74000000Y-39750000D03*
X74000000Y-29750000D03*
X74000000Y-44750000D03*
X74000000Y-24750000D03*
X74000000Y-9750000D03*
X74000000Y-19750000D03*
X74000000Y-14750000D03*
X74000000Y-54750000D03*
X74000000Y-34750000D03*
D17*
G04 #@! TO.C,C11*
X31250000Y-46975000D03*
X31250000Y-45525000D03*
D10*
G04 #@! TO.C,K7*
X30000000Y-16750000D03*
X35500000Y-11750000D03*
X30000000Y-11750000D03*
X35500000Y-16750000D03*
G04 #@! TO.C,K8*
X30000000Y-24750000D03*
X35500000Y-19750000D03*
X30000000Y-19750000D03*
X35500000Y-24750000D03*
D18*
G04 #@! TD*
X8500000Y-61500000D03*
X57500000Y-3500000D03*
X8500000Y-3500000D03*
X57500000Y-61500000D03*
G04 --- BOARD END --- *
G04 #@! TF.MD5,d58f6b5ea58423552eb6d35a2f8725f3*
M02*
