G04 --- HEADER BEGIN --- *
G04 #@! TF.GenerationSoftware,LibrePCB,LibrePCB,1.0.0*
G04 #@! TF.CreationDate,2024-10-09T11:39:01*
G04 #@! TF.ProjectId,OSm Thermal,b11a65fa-6c4c-431c-8545-341aca355aaf,v1.11*
G04 #@! TF.Part,Single*
G04 #@! TF.SameCoordinates*
G04 #@! TF.FileFunction,Soldermask,Bot*
G04 #@! TF.FilePolarity,Negative*
%FSLAX66Y66*%
%MOMM*%
G01*
G75*
G04 --- HEADER END --- *
G04 --- APERTURE LIST BEGIN --- *
%ADD10C,1.7*%
%AMROUNDEDRECT11*20,1,1.1,-0.225,0.0,0.225,0.0,0.0*20,1,0.45,-0.55,0.0,0.55,0.0,0.0*1,1,0.65,-0.225,0.225*1,1,0.65,0.225,0.225*1,1,0.65,0.225,-0.225*1,1,0.65,-0.225,-0.225*%
%ADD11ROUNDEDRECT11*%
%AMROUNDEDRECT12*20,1,2.2,-1.25,0.0,1.25,0.0,0.0*20,1,1.5,-1.6,0.0,1.6,0.0,0.0*1,1,0.7,-1.25,0.75*1,1,0.7,1.25,0.75*1,1,0.7,1.25,-0.75*1,1,0.7,-1.25,-0.75*%
%ADD12ROUNDEDRECT12*%
%AMROUNDEDRECT13*20,1,0.45,-0.2375,0.0,0.2375,0.0,0.0*20,1,0.125,-0.4,0.0,0.4,0.0,0.0*1,1,0.325,-0.2375,0.0625*1,1,0.325,0.2375,0.0625*1,1,0.325,0.2375,-0.0625*1,1,0.325,-0.2375,-0.0625*%
%ADD13ROUNDEDRECT13*%
%AMROUNDEDRECT14*20,1,0.45,-0.2375,0.0,0.2375,0.0,90.0*20,1,0.125,-0.4,0.0,0.4,0.0,90.0*1,1,0.325,-0.0625,-0.2375*1,1,0.325,-0.0625,0.2375*1,1,0.325,0.0625,0.2375*1,1,0.325,0.0625,-0.2375*%
%ADD14ROUNDEDRECT14*%
%AMROUNDEDRECT15*20,1,0.45,-0.2875,0.0,0.2875,0.0,0.0*20,1,0.125,-0.45,0.0,0.45,0.0,0.0*1,1,0.325,-0.2875,0.0625*1,1,0.325,0.2875,0.0625*1,1,0.325,0.2875,-0.0625*1,1,0.325,-0.2875,-0.0625*%
%ADD15ROUNDEDRECT15*%
%AMOUTLINE16*4,1,32,-0.125881,-1.196593,-0.175881,-1.183196,-0.220711,-1.157314,-0.257314,-1.120711,-0.283196,-1.075881,-0.296593,-1.025881,-0.3,-1.0,-0.3,1.0,-0.296593,1.025881,-0.283196,1.075881,-0.257314,1.120711,-0.220711,1.157314,-0.175881,1.183196,-0.125881,1.196593,-0.1,1.2,0.1,1.2,0.125881,1.196593,0.175881,1.183196,0.220711,1.157314,0.257314,1.120711,0.283196,1.075881,0.296593,1.025881,0.3,1.0,0.3,-1.0,0.296593,-1.025881,0.283196,-1.075881,0.257314,-1.120711,0.220711,-1.157314,0.175881,-1.183196,0.125881,-1.196593,0.1,-1.2,-0.1,-1.2,-0.125881,-1.196593,180.0*%
%ADD16OUTLINE16*%
%AMROUNDEDRECT17*20,1,0.45,-0.8375,0.0,0.8375,0.0,90.0*20,1,0.125,-1.0,0.0,1.0,0.0,90.0*1,1,0.325,-0.0625,-0.8375*1,1,0.325,-0.0625,0.8375*1,1,0.325,0.0625,0.8375*1,1,0.325,0.0625,-0.8375*%
%ADD17ROUNDEDRECT17*%
%AMROUNDEDRECT18*20,1,0.6,-1.0,0.0,1.0,0.0,90.0*20,1,0.2,-1.2,0.0,1.2,0.0,90.0*1,1,0.4,-0.1,-1.0*1,1,0.4,-0.1,1.0*1,1,0.4,0.1,1.0*1,1,0.4,0.1,-1.0*%
%ADD18ROUNDEDRECT18*%
%AMROUNDEDRECT19*20,1,0.95,-0.4,0.0,0.4,0.0,90.0*20,1,0.75,-0.5,0.0,0.5,0.0,90.0*1,1,0.2,-0.375,-0.4*1,1,0.2,-0.375,0.4*1,1,0.2,0.375,0.4*1,1,0.2,0.375,-0.4*%
%ADD19ROUNDEDRECT19*%
%AMROUNDEDRECT20*20,1,1.0,-0.425,0.0,0.425,0.0,0.0*20,1,0.8,-0.525,0.0,0.525,0.0,0.0*1,1,0.2,-0.425,0.4*1,1,0.2,0.425,0.4*1,1,0.2,0.425,-0.4*1,1,0.2,-0.425,-0.4*%
%ADD20ROUNDEDRECT20*%
%AMROUNDEDRECT21*20,1,0.95,-0.4,0.0,0.4,0.0,0.0*20,1,0.75,-0.5,0.0,0.5,0.0,0.0*1,1,0.2,-0.4,0.375*1,1,0.2,0.4,0.375*1,1,0.2,0.4,-0.375*1,1,0.2,-0.4,-0.375*%
%ADD21ROUNDEDRECT21*%
%AMROUNDEDRECT22*20,1,1.0,-0.425,0.0,0.425,0.0,90.0*20,1,0.8,-0.525,0.0,0.525,0.0,90.0*1,1,0.2,-0.4,-0.425*1,1,0.2,-0.4,0.425*1,1,0.2,0.4,0.425*1,1,0.2,0.4,-0.425*%
%ADD22ROUNDEDRECT22*%
%AMROUNDEDRECT23*20,1,0.9,-0.175,0.0,0.175,0.0,0.0*20,1,0.35,-0.45,0.0,0.45,0.0,0.0*1,1,0.55,-0.175,0.175*1,1,0.55,0.175,0.175*1,1,0.55,0.175,-0.175*1,1,0.55,-0.175,-0.175*%
%ADD23ROUNDEDRECT23*%
%AMROUNDEDRECT24*20,1,1.8,-0.652,0.0,0.652,0.0,90.0*20,1,1.104,-1.0,0.0,1.0,0.0,90.0*1,1,0.696,-0.552,-0.652*1,1,0.696,-0.552,0.652*1,1,0.696,0.552,0.652*1,1,0.696,0.552,-0.652*%
%ADD24ROUNDEDRECT24*%
%ADD25O,2.39X1.787*%
%AMROUNDEDRECT26*20,1,1.787,-1.095,0.0,1.095,0.0,0.0*20,1,1.587,-1.195,0.0,1.195,0.0,0.0*1,1,0.2,-1.095,0.7935*1,1,0.2,1.095,0.7935*1,1,0.2,1.095,-0.7935*1,1,0.2,-1.095,-0.7935*%
%ADD26ROUNDEDRECT26*%
%ADD27O,2.2X3.0*%
%ADD28C,3.2*%
G04 --- APERTURE LIST END --- *
G04 --- BOARD BEGIN --- *
D10*
G04 #@! TO.C,K1*
X55750000Y-46750000D03*
X61250000Y-41750000D03*
X55750000Y-41750000D03*
X61250000Y-46750000D03*
D11*
G04 #@! TO.C,D6*
X51750000Y-11600000D03*
X51750000Y-14900000D03*
D12*
G04 #@! TO.C,L1*
X34000000Y-48250000D03*
X34000000Y-43250000D03*
D11*
G04 #@! TO.C,D7*
X26000000Y-5600000D03*
X26000000Y-8900000D03*
G04 #@! TO.C,D9*
X26000000Y-21600000D03*
X26000000Y-24900000D03*
D13*
G04 #@! TO.C,U1*
X32500000Y-52750000D03*
D14*
X33000000Y-54500000D03*
X33000000Y-51500000D03*
D15*
X35450000Y-53250000D03*
D14*
X34900000Y-51500000D03*
D13*
X32500000Y-52250000D03*
D16*
X35000000Y-53700000D03*
D13*
X32500000Y-53250000D03*
X32500000Y-53750000D03*
D17*
X34400000Y-52100000D03*
D15*
X35450000Y-52750000D03*
D18*
X33800000Y-53700000D03*
D15*
X35450000Y-53750000D03*
D19*
G04 #@! TO.C,R10*
X20725000Y-11750000D03*
X22275000Y-11750000D03*
D20*
G04 #@! TO.C,C5*
X39775000Y-53750000D03*
X41225000Y-53750000D03*
D21*
G04 #@! TO.C,R15*
X51000000Y-32475000D03*
X51000000Y-34025000D03*
D20*
G04 #@! TO.C,C4*
X39775000Y-55000000D03*
X41225000Y-55000000D03*
D22*
G04 #@! TO.C,C7*
X23500000Y-41275000D03*
X23500000Y-42725000D03*
D19*
G04 #@! TO.C,R3*
X28725000Y-53250000D03*
X30275000Y-53250000D03*
D23*
G04 #@! TO.C,Q2*
X46250000Y-36750000D03*
X48250000Y-36750000D03*
X47250000Y-38750000D03*
D19*
G04 #@! TO.C,R1*
X30275000Y-55500000D03*
X28725000Y-55500000D03*
D21*
G04 #@! TO.C,R14*
X51000000Y-40475000D03*
X51000000Y-42025000D03*
D20*
G04 #@! TO.C,C3*
X39775000Y-56250000D03*
X41225000Y-56250000D03*
D24*
G04 #@! TO.C,BR1*
X55600000Y-52400000D03*
X46000000Y-57500000D03*
X46000000Y-52400000D03*
X55600000Y-57500000D03*
D19*
G04 #@! TO.C,R5*
X46475000Y-34000000D03*
X48025000Y-34000000D03*
D10*
G04 #@! TO.C,K2*
X55750000Y-38750000D03*
X61250000Y-33750000D03*
X55750000Y-33750000D03*
X61250000Y-38750000D03*
G04 #@! TO.C,K5*
X55750000Y-14750000D03*
X61250000Y-9750000D03*
X55750000Y-9750000D03*
X61250000Y-14750000D03*
G04 #@! TO.C,K4*
X55750000Y-22750000D03*
X61250000Y-17750000D03*
X55750000Y-17750000D03*
X61250000Y-22750000D03*
D23*
G04 #@! TO.C,Q5*
X46250000Y-12250000D03*
X48250000Y-12250000D03*
X47250000Y-14250000D03*
D20*
G04 #@! TO.C,C1*
X28775000Y-50000000D03*
X30225000Y-50000000D03*
D21*
G04 #@! TO.C,R16*
X51000000Y-24475000D03*
X51000000Y-26025000D03*
D22*
G04 #@! TO.C,C10*
X23500000Y-45225000D03*
X23500000Y-43775000D03*
D11*
G04 #@! TO.C,D3*
X51750000Y-35600000D03*
X51750000Y-38900000D03*
D10*
G04 #@! TO.C,K6*
X30000000Y-8750000D03*
X35500000Y-3750000D03*
X30000000Y-3750000D03*
X35500000Y-8750000D03*
G04 #@! TO.C,K3*
X55750000Y-30750000D03*
X61250000Y-25750000D03*
X55750000Y-25750000D03*
X61250000Y-30750000D03*
D22*
G04 #@! TO.C,C2*
X37750000Y-49725000D03*
X37750000Y-48275000D03*
D11*
G04 #@! TO.C,D2*
X51750000Y-43600000D03*
X51750000Y-46900000D03*
D21*
G04 #@! TO.C,R18*
X51000000Y-8475000D03*
X51000000Y-10025000D03*
D25*
G04 #@! TO.C,J2*
X7230000Y-26140000D03*
X9770000Y-21060000D03*
X9770000Y-10900000D03*
X7230000Y-23600000D03*
X9770000Y-26140000D03*
X9770000Y-18520000D03*
X9770000Y-23600000D03*
X7230000Y-21060000D03*
X7230000Y-13440000D03*
X9770000Y-15980000D03*
X7230000Y-18520000D03*
D26*
X7230000Y-8360000D03*
D25*
X9770000Y-8360000D03*
X7230000Y-15980000D03*
X7230000Y-10900000D03*
X9770000Y-13440000D03*
D23*
G04 #@! TO.C,Q4*
X46250000Y-20750000D03*
X48250000Y-20750000D03*
X47250000Y-22750000D03*
D11*
G04 #@! TO.C,D8*
X26000000Y-13600000D03*
X26000000Y-16900000D03*
D19*
G04 #@! TO.C,R4*
X46475000Y-42000000D03*
X48025000Y-42000000D03*
D23*
G04 #@! TO.C,Q8*
X20500000Y-22250000D03*
X22500000Y-22250000D03*
X21500000Y-24250000D03*
D19*
G04 #@! TO.C,R7*
X46475000Y-18000000D03*
X48025000Y-18000000D03*
D21*
G04 #@! TO.C,R20*
X25250000Y-10475000D03*
X25250000Y-12025000D03*
D23*
G04 #@! TO.C,Q3*
X46250000Y-28750000D03*
X48250000Y-28750000D03*
X47250000Y-30750000D03*
D22*
G04 #@! TO.C,C6*
X18500000Y-41275000D03*
X18500000Y-42725000D03*
D19*
G04 #@! TO.C,R11*
X20725000Y-19750000D03*
X22275000Y-19750000D03*
G04 #@! TO.C,R8*
X46475000Y-10000000D03*
X48025000Y-10000000D03*
D11*
G04 #@! TO.C,D4*
X51750000Y-27600000D03*
X51750000Y-30900000D03*
D23*
G04 #@! TO.C,Q1*
X46250000Y-44750000D03*
X48250000Y-44750000D03*
X47250000Y-46750000D03*
D21*
G04 #@! TO.C,R17*
X51000000Y-16475000D03*
X51000000Y-18025000D03*
D23*
G04 #@! TO.C,Q7*
X20500000Y-14250000D03*
X22500000Y-14250000D03*
X21500000Y-16250000D03*
D27*
G04 #@! TO.C,J1*
X74000000Y-49750000D03*
X74000000Y-39750000D03*
X74000000Y-29750000D03*
X74000000Y-44750000D03*
X74000000Y-24750000D03*
X74000000Y-9750000D03*
X74000000Y-19750000D03*
X74000000Y-14750000D03*
X74000000Y-54750000D03*
X74000000Y-34750000D03*
D19*
G04 #@! TO.C,R6*
X46475000Y-26000000D03*
X48025000Y-26000000D03*
G04 #@! TO.C,R9*
X20725000Y-3750000D03*
X22275000Y-3750000D03*
D22*
G04 #@! TO.C,C9*
X21000000Y-45225000D03*
X21000000Y-43775000D03*
D11*
G04 #@! TO.C,D5*
X51750000Y-19600000D03*
X51750000Y-22900000D03*
D22*
G04 #@! TO.C,C8*
X21000000Y-41275000D03*
X21000000Y-42725000D03*
D21*
G04 #@! TO.C,R19*
X25250000Y-2475000D03*
X25250000Y-4025000D03*
G04 #@! TO.C,R21*
X25250000Y-18475000D03*
X25250000Y-20025000D03*
D10*
G04 #@! TO.C,K7*
X30000000Y-16750000D03*
X35500000Y-11750000D03*
X30000000Y-11750000D03*
X35500000Y-16750000D03*
G04 #@! TO.C,K8*
X30000000Y-24750000D03*
X35500000Y-19750000D03*
X30000000Y-19750000D03*
X35500000Y-24750000D03*
D23*
G04 #@! TO.C,Q6*
X20500000Y-6250000D03*
X22500000Y-6250000D03*
X21500000Y-8250000D03*
D28*
G04 #@! TD*
X8500000Y-61500000D03*
X57500000Y-3500000D03*
X8500000Y-3500000D03*
X57500000Y-61500000D03*
G04 --- BOARD END --- *
G04 #@! TF.MD5,5a0370d7fd407d4bc9c0f4b4635ebcba*
M02*
