M48
; #@! TF.GenerationSoftware,LibrePCB,LibrePCB,1.0.0
; #@! TF.CreationDate,2024-10-09T11:39:01
; #@! TF.ProjectId,OSm Thermal,b11a65fa-6c4c-431c-8545-341aca355aaf,v1.11
; #@! TF.Part,Single
; #@! TF.SameCoordinates
; #@! TF.FileFunction,Plated,1,2,PTH
FMAT,2
METRIC,TZ
; #@! TA.AperFunction,ViaDrill
T1C0.3
; #@! TA.AperFunction,ComponentDrill
T2C0.8
; #@! TA.AperFunction,ComponentDrill
T3C0.9
; #@! TA.AperFunction,ComponentDrill
T4C1.4
%
G90
G05
M71
T1
X20.5Y-13.5
X44.25Y-50.75
X22.5Y-13.5
X48.25Y-36.0
X34.0Y-55.75
X48.25Y-11.5
X59.0Y-8.5
X22.5Y-21.5
X19.75Y-41.25
X48.25Y-44.0
X24.75Y-41.25
X22.25Y-41.25
X20.5Y-21.5
X31.25Y-53.75
X35.5Y-55.75
X22.5Y-5.5
X27.5Y-55.5
X24.75Y-45.25
X44.25Y-54.0
X46.0Y-54.0
X48.25Y-20.0
X44.25Y-52.25
X22.25Y-45.25
X34.75Y-56.5
X20.5Y-5.5
X33.5Y-53.0
X34.0Y-43.25
X46.0Y-50.75
X35.5Y-39.5
X35.5Y-28.75
X48.25Y-28.0
T2
X35.5Y-24.75
X30.0Y-19.75
X35.5Y-19.75
X30.0Y-24.75
X35.5Y-16.75
X30.0Y-11.75
X35.5Y-11.75
X30.0Y-16.75
X61.25Y-30.75
X55.75Y-25.75
X61.25Y-25.75
X55.75Y-30.75
X35.5Y-8.75
X30.0Y-3.75
X35.5Y-3.75
X30.0Y-8.75
X61.25Y-22.75
X55.75Y-17.75
X61.25Y-17.75
X55.75Y-22.75
X61.25Y-14.75
X55.75Y-9.75
X61.25Y-9.75
X55.75Y-14.75
X61.25Y-38.75
X55.75Y-33.75
X61.25Y-33.75
X55.75Y-38.75
X61.25Y-46.75
X55.75Y-41.75
X61.25Y-41.75
X55.75Y-46.75
T3
X9.77Y-13.44
X7.23Y-10.9
X7.23Y-15.98
X9.77Y-8.36
X7.23Y-8.36
X7.23Y-18.52
X9.77Y-15.98
X7.23Y-13.44
X7.23Y-21.06
X9.77Y-23.6
X9.77Y-18.52
X9.77Y-26.14
X7.23Y-23.6
X9.77Y-10.9
X9.77Y-21.06
X7.23Y-26.14
T4
X74.0Y-34.75
X74.0Y-54.75
X74.0Y-14.75
X74.0Y-19.75
X74.0Y-9.75
X74.0Y-24.75
X74.0Y-44.75
X74.0Y-29.75
X74.0Y-39.75
X74.0Y-49.75
T0
M30
