G04 --- HEADER BEGIN --- *
G04 #@! TF.GenerationSoftware,LibrePCB,LibrePCB,1.0.0*
G04 #@! TF.CreationDate,2024-10-09T11:39:01*
G04 #@! TF.ProjectId,OSm Thermal,b11a65fa-6c4c-431c-8545-341aca355aaf,v1.11*
G04 #@! TF.Part,Single*
G04 #@! TF.SameCoordinates*
G04 #@! TF.FileFunction,Legend,Top*
G04 #@! TF.FilePolarity,Positive*
%FSLAX66Y66*%
%MOMM*%
G01*
G75*
G04 --- HEADER END --- *
G04 --- APERTURE LIST BEGIN --- *
%ADD10C,0.15*%
%ADD11C,0.25*%
%ADD12C,0.1*%
%ADD13C,0.2*%
%ADD14C,1.7*%
%AMROUNDEDRECT15*20,1,0.95,-0.4,0.0,0.4,0.0,0.0*20,1,0.75,-0.5,0.0,0.5,0.0,0.0*1,1,0.2,-0.4,0.375*1,1,0.2,0.4,0.375*1,1,0.2,0.4,-0.375*1,1,0.2,-0.4,-0.375*%
%ADD15ROUNDEDRECT15*%
%AMROUNDEDRECT16*20,1,0.95,-0.4,0.0,0.4,0.0,90.0*20,1,0.75,-0.5,0.0,0.5,0.0,90.0*1,1,0.2,-0.375,-0.4*1,1,0.2,-0.375,0.4*1,1,0.2,0.375,0.4*1,1,0.2,0.375,-0.4*%
%ADD16ROUNDEDRECT16*%
%ADD17O,2.39X1.787*%
%AMROUNDEDRECT18*20,1,1.787,-1.095,0.0,1.095,0.0,0.0*20,1,1.587,-1.195,0.0,1.195,0.0,0.0*1,1,0.2,-1.095,0.7935*1,1,0.2,1.095,0.7935*1,1,0.2,1.095,-0.7935*1,1,0.2,-1.095,-0.7935*%
%ADD18ROUNDEDRECT18*%
%AMROUNDEDRECT19*20,1,0.5,-0.175,0.0,0.175,0.0,90.0*20,1,0.15,-0.35,0.0,0.35,0.0,90.0*1,1,0.35,-0.075,-0.175*1,1,0.35,-0.075,0.175*1,1,0.35,0.075,0.175*1,1,0.35,0.075,-0.175*%
%ADD19ROUNDEDRECT19*%
%ADD20O,2.2X3.0*%
%AMROUNDEDRECT21*20,1,1.0,-0.425,0.0,0.425,0.0,90.0*20,1,0.8,-0.525,0.0,0.525,0.0,90.0*1,1,0.2,-0.4,-0.425*1,1,0.2,-0.4,0.425*1,1,0.2,0.4,0.425*1,1,0.2,0.4,-0.425*%
%ADD21ROUNDEDRECT21*%
%ADD22C,3.2*%
G04 --- APERTURE LIST END --- *
G04 --- BOARD BEGIN --- *
D10*
G04 #@! TO.C,R2*
X28025000Y-46075000D02*
X28025000Y-46425000D01*
X28975000Y-46075000D02*
X28975000Y-46425000D01*
G04 #@! TO.C,R13*
X16925000Y-6775000D02*
X16575000Y-6775000D01*
X16925000Y-7725000D02*
X16575000Y-7725000D01*
D11*
G04 #@! TO.C,J2*
X5835000Y-6965000D02*
X11165000Y-6965000D01*
X11165000Y-27535000D01*
X5835000Y-27535000D01*
X5835000Y-6965000D01*
D12*
G04 #@! TO.C,U2*
X14750000Y-4000000D02*
X14750000Y-2500000D01*
X16250000Y-2500000D01*
X16250000Y-4000000D01*
X14750000Y-4000000D01*
D10*
G04 #@! TO.C,R12*
X13825000Y-7725000D02*
X14175000Y-7725000D01*
X13825000Y-6775000D02*
X14175000Y-6775000D01*
D13*
G04 #@! TO.C,J1*
X70000000Y-57250000D02*
X70000000Y-7250000D01*
X78000000Y-7250000D01*
X78000000Y-57250000D01*
X70000000Y-57250000D01*
D10*
G04 #@! TO.C,C11*
X30775000Y-46175000D02*
X30775000Y-46325000D01*
X31725000Y-46175000D02*
X31725000Y-46325000D01*
D13*
G04 #@! TD*
X80250000Y-24500000D02*
X80916667Y-26500000D01*
X81583333Y-24500000D01*
X83230000Y-24500000D02*
X82278889Y-24500000D01*
X82183333Y-25453333D01*
X82278889Y-25357778D01*
X82470000Y-25262222D01*
X82945555Y-25262222D01*
X83136666Y-25357778D01*
X83230000Y-25453333D01*
X83325555Y-25642222D01*
X83325555Y-26120000D01*
X83230000Y-26308889D01*
X83136666Y-26404444D01*
X82945555Y-26500000D01*
X82470000Y-26500000D01*
X82278889Y-26404444D01*
X82183333Y-26308889D01*
X80250000Y-44500000D02*
X80916667Y-46500000D01*
X81583333Y-44500000D01*
X83325555Y-46500000D02*
X82183333Y-46500000D01*
X82754444Y-46500000D02*
X82754444Y-44500000D01*
X82563333Y-44786667D01*
X82374444Y-44975556D01*
X82183333Y-45071111D01*
X80250000Y-14500000D02*
X80916667Y-16500000D01*
X81583333Y-14500000D01*
X82183333Y-14500000D02*
X83516666Y-14500000D01*
X82658889Y-16500000D01*
X81487778Y-56058889D02*
X81392222Y-56154444D01*
X81107778Y-56250000D01*
X80916667Y-56250000D01*
X80630000Y-56154444D01*
X80441111Y-55963333D01*
X80345556Y-55774444D01*
X80250000Y-55392222D01*
X80250000Y-55107778D01*
X80345556Y-54725556D01*
X80441111Y-54536667D01*
X80630000Y-54345556D01*
X80916667Y-54250000D01*
X81107778Y-54250000D01*
X81392222Y-54345556D01*
X81487778Y-54441111D01*
X80250000Y-9500000D02*
X80916667Y-11500000D01*
X81583333Y-9500000D01*
X82563333Y-10357778D02*
X82374444Y-10262222D01*
X82278889Y-10166667D01*
X82183333Y-9975556D01*
X82183333Y-9880000D01*
X82278889Y-9691111D01*
X82374444Y-9595556D01*
X82563333Y-9500000D01*
X82945555Y-9500000D01*
X83136666Y-9595556D01*
X83230000Y-9691111D01*
X83325555Y-9880000D01*
X83325555Y-9975556D01*
X83230000Y-10166667D01*
X83136666Y-10262222D01*
X82945555Y-10357778D01*
X82563333Y-10357778D01*
X82374444Y-10453333D01*
X82278889Y-10546667D01*
X82183333Y-10737778D01*
X82183333Y-11120000D01*
X82278889Y-11308889D01*
X82374444Y-11404444D01*
X82563333Y-11500000D01*
X82945555Y-11500000D01*
X83136666Y-11404444D01*
X83230000Y-11308889D01*
X83325555Y-11120000D01*
X83325555Y-10737778D01*
X83230000Y-10546667D01*
X83136666Y-10453333D01*
X82945555Y-10357778D01*
X80250000Y-34500000D02*
X80916667Y-36500000D01*
X81583333Y-34500000D01*
X82183333Y-34500000D02*
X83421111Y-34500000D01*
X82754444Y-35262222D01*
X83041111Y-35262222D01*
X83230000Y-35357778D01*
X83325555Y-35453333D01*
X83421111Y-35642222D01*
X83421111Y-36120000D01*
X83325555Y-36308889D01*
X83230000Y-36404444D01*
X83041111Y-36500000D01*
X82470000Y-36500000D01*
X82278889Y-36404444D01*
X82183333Y-36308889D01*
X81392222Y-51500000D02*
X80725556Y-50546667D01*
X80250000Y-51500000D02*
X80250000Y-49500000D01*
X81012222Y-49500000D01*
X81203333Y-49595556D01*
X81296667Y-49691111D01*
X81392222Y-49880000D01*
X81392222Y-50166667D01*
X81296667Y-50357778D01*
X81203333Y-50453333D01*
X81012222Y-50546667D01*
X80250000Y-50546667D01*
X80250000Y-19500000D02*
X80916667Y-21500000D01*
X81583333Y-19500000D01*
X83136666Y-19500000D02*
X82754444Y-19500000D01*
X82563333Y-19595556D01*
X82470000Y-19691111D01*
X82278889Y-19975556D01*
X82183333Y-20357778D01*
X82183333Y-21120000D01*
X82278889Y-21308889D01*
X82374444Y-21404444D01*
X82563333Y-21500000D01*
X82945555Y-21500000D01*
X83136666Y-21404444D01*
X83230000Y-21308889D01*
X83325555Y-21120000D01*
X83325555Y-20642222D01*
X83230000Y-20453333D01*
X83136666Y-20357778D01*
X82945555Y-20262222D01*
X82563333Y-20262222D01*
X82374444Y-20357778D01*
X82278889Y-20453333D01*
X82183333Y-20642222D01*
X80250000Y-39500000D02*
X80916667Y-41500000D01*
X81583333Y-39500000D01*
X82278889Y-39691111D02*
X82374444Y-39595556D01*
X82563333Y-39500000D01*
X83041111Y-39500000D01*
X83230000Y-39595556D01*
X83325555Y-39691111D01*
X83421111Y-39880000D01*
X83421111Y-40071111D01*
X83325555Y-40357778D01*
X82183333Y-41500000D01*
X83421111Y-41500000D01*
X80250000Y-29500000D02*
X80916667Y-31500000D01*
X81583333Y-29500000D01*
X83136666Y-30166667D02*
X83136666Y-31500000D01*
X82658889Y-29404444D02*
X82183333Y-30833333D01*
X83421111Y-30833333D01*
D12*
G04 #@! TO.C,R13*
X16395278Y-8950000D02*
X16228611Y-8711667D01*
X16109722Y-8950000D02*
X16109722Y-8450000D01*
X16300278Y-8450000D01*
X16348055Y-8473889D01*
X16371389Y-8497778D01*
X16395278Y-8545000D01*
X16395278Y-8616667D01*
X16371389Y-8664444D01*
X16348055Y-8688333D01*
X16300278Y-8711667D01*
X16109722Y-8711667D01*
X16880834Y-8950000D02*
X16595278Y-8950000D01*
X16738056Y-8950000D02*
X16738056Y-8450000D01*
X16690278Y-8521667D01*
X16643056Y-8568889D01*
X16595278Y-8592778D01*
X17080834Y-8450000D02*
X17390278Y-8450000D01*
X17223612Y-8640556D01*
X17295278Y-8640556D01*
X17342501Y-8664444D01*
X17366390Y-8688333D01*
X17390278Y-8735556D01*
X17390278Y-8855000D01*
X17366390Y-8902222D01*
X17342501Y-8926111D01*
X17295278Y-8950000D01*
X17152501Y-8950000D01*
X17104723Y-8926111D01*
X17080834Y-8902222D01*
D13*
G04 #@! TO.C,J2*
X4000000Y-27138889D02*
X4714444Y-27138889D01*
X4856667Y-27186667D01*
X4952222Y-27282222D01*
X5000000Y-27424444D01*
X5000000Y-27520000D01*
X4095556Y-26691111D02*
X4047778Y-26643333D01*
X4000000Y-26548889D01*
X4000000Y-26310000D01*
X4047778Y-26215556D01*
X4095556Y-26167778D01*
X4190000Y-26120000D01*
X4285556Y-26120000D01*
X4428889Y-26167778D01*
X5000000Y-26738889D01*
X5000000Y-26120000D01*
D12*
G04 #@! TO.C,U2*
X14000000Y-3647500D02*
X14405000Y-3647500D01*
X14452222Y-3623611D01*
X14476111Y-3599722D01*
X14500000Y-3552500D01*
X14500000Y-3456944D01*
X14476111Y-3409167D01*
X14452222Y-3385833D01*
X14405000Y-3361944D01*
X14000000Y-3361944D01*
X14047778Y-3138055D02*
X14023889Y-3114166D01*
X14000000Y-3066944D01*
X14000000Y-2947500D01*
X14023889Y-2900277D01*
X14047778Y-2876388D01*
X14095000Y-2852500D01*
X14142778Y-2852500D01*
X14214444Y-2876388D01*
X14500000Y-3161944D01*
X14500000Y-2852500D01*
G04 #@! TO.C,R12*
X13645278Y-6050000D02*
X13478611Y-5811667D01*
X13359722Y-6050000D02*
X13359722Y-5550000D01*
X13550278Y-5550000D01*
X13598055Y-5573889D01*
X13621389Y-5597778D01*
X13645278Y-5645000D01*
X13645278Y-5716667D01*
X13621389Y-5764444D01*
X13598055Y-5788333D01*
X13550278Y-5811667D01*
X13359722Y-5811667D01*
X14130834Y-6050000D02*
X13845278Y-6050000D01*
X13988056Y-6050000D02*
X13988056Y-5550000D01*
X13940278Y-5621667D01*
X13893056Y-5668889D01*
X13845278Y-5692778D01*
X14354723Y-5597778D02*
X14378612Y-5573889D01*
X14425834Y-5550000D01*
X14545278Y-5550000D01*
X14592501Y-5573889D01*
X14616390Y-5597778D01*
X14640278Y-5645000D01*
X14640278Y-5692778D01*
X14616390Y-5764444D01*
X14330834Y-6050000D01*
X14640278Y-6050000D01*
D13*
G04 #@! TO.C,J1*
X68000000Y-52545000D02*
X68714444Y-52545000D01*
X68856667Y-52592778D01*
X68952222Y-52688333D01*
X69000000Y-52830555D01*
X69000000Y-52926111D01*
X69000000Y-51573889D02*
X69000000Y-52145000D01*
X69000000Y-51859444D02*
X68000000Y-51859444D01*
X68143333Y-51955000D01*
X68237778Y-52049444D01*
X68285556Y-52145000D01*
G04 #@! TD*
X12463333Y-60250000D02*
X13036667Y-60250000D01*
X13320000Y-60393333D01*
X13606667Y-60680000D01*
X13750000Y-61250000D01*
X13750000Y-62250000D01*
X13606667Y-62820000D01*
X13320000Y-63106667D01*
X13036667Y-63250000D01*
X12463333Y-63250000D01*
X12180000Y-63106667D01*
X11893333Y-62820000D01*
X11750000Y-62250000D01*
X11750000Y-61250000D01*
X11893333Y-60680000D01*
X12180000Y-60393333D01*
X12463333Y-60250000D01*
X14550000Y-63106667D02*
X14980000Y-63250000D01*
X15693333Y-63250000D01*
X15980000Y-63106667D01*
X16120000Y-62963333D01*
X16263333Y-62680000D01*
X16263333Y-62393333D01*
X16120000Y-62106667D01*
X15980000Y-61963333D01*
X15693333Y-61820000D01*
X15120000Y-61680000D01*
X14836667Y-61536667D01*
X14693333Y-61393333D01*
X14550000Y-61106667D01*
X14550000Y-60820000D01*
X14693333Y-60536667D01*
X14836667Y-60393333D01*
X15120000Y-60250000D01*
X15836667Y-60250000D01*
X16263333Y-60393333D01*
X17063333Y-63250000D02*
X17063333Y-61250000D01*
X17063333Y-61536667D02*
X17206666Y-61393333D01*
X17493333Y-61250000D01*
X17920000Y-61250000D01*
X18206666Y-61393333D01*
X18350000Y-61680000D01*
X18350000Y-63250000D01*
X18350000Y-61680000D02*
X18493333Y-61393333D01*
X18776666Y-61250000D01*
X19206666Y-61250000D01*
X19493333Y-61393333D01*
X19633333Y-61680000D01*
X19633333Y-63250000D01*
X22433332Y-60250000D02*
X24146665Y-60250000D01*
X23289999Y-63250000D02*
X23289999Y-60250000D01*
X24946665Y-63250000D02*
X24946665Y-60250000D01*
X26233332Y-63250000D02*
X26233332Y-61680000D01*
X26089998Y-61393333D01*
X25803332Y-61250000D01*
X25376665Y-61250000D01*
X25089998Y-61393333D01*
X24946665Y-61536667D01*
X28319999Y-63106667D02*
X28033332Y-63250000D01*
X27463332Y-63250000D01*
X27176665Y-63106667D01*
X27033332Y-62820000D01*
X27033332Y-61680000D01*
X27176665Y-61393333D01*
X27463332Y-61250000D01*
X28033332Y-61250000D01*
X28319999Y-61393333D01*
X28463332Y-61680000D01*
X28463332Y-61963333D01*
X27033332Y-62250000D01*
X29263332Y-63250000D02*
X29263332Y-61250000D01*
X29263332Y-61820000D02*
X29406665Y-61536667D01*
X29549999Y-61393333D01*
X29833332Y-61250000D01*
X30119999Y-61250000D01*
X30919999Y-63250000D02*
X30919999Y-61250000D01*
X30919999Y-61536667D02*
X31063332Y-61393333D01*
X31349999Y-61250000D01*
X31776666Y-61250000D01*
X32063332Y-61393333D01*
X32206666Y-61680000D01*
X32206666Y-63250000D01*
X32206666Y-61680000D02*
X32349999Y-61393333D01*
X32633332Y-61250000D01*
X33063332Y-61250000D01*
X33349999Y-61393333D01*
X33489999Y-61680000D01*
X33489999Y-63250000D01*
X35719999Y-63250000D02*
X35719999Y-61680000D01*
X35576666Y-61393333D01*
X35289999Y-61250000D01*
X34719999Y-61250000D01*
X34433332Y-61393333D01*
X35719999Y-63106667D02*
X35433332Y-63250000D01*
X34719999Y-63250000D01*
X34433332Y-63106667D01*
X34289999Y-62820000D01*
X34289999Y-62536667D01*
X34433332Y-62250000D01*
X34719999Y-62106667D01*
X35433332Y-62106667D01*
X35719999Y-61963333D01*
X36949999Y-63250000D02*
X36663332Y-63106667D01*
X36519999Y-62820000D01*
X36519999Y-60250000D01*
D12*
G04 #@! TO.C,R2*
X27050000Y-47133333D02*
X27050000Y-46823889D01*
X27240556Y-46990555D01*
X27240556Y-46918889D01*
X27264444Y-46871666D01*
X27288333Y-46847777D01*
X27335556Y-46823889D01*
X27455000Y-46823889D01*
X27502222Y-46847777D01*
X27526111Y-46871666D01*
X27550000Y-46918889D01*
X27550000Y-47061666D01*
X27526111Y-47109444D01*
X27502222Y-47133333D01*
X27050000Y-46505000D02*
X27050000Y-46457222D01*
X27073889Y-46409445D01*
X27097778Y-46385556D01*
X27145000Y-46362222D01*
X27240556Y-46338333D01*
X27359444Y-46338333D01*
X27455000Y-46362222D01*
X27502222Y-46385556D01*
X27526111Y-46409445D01*
X27550000Y-46457222D01*
X27550000Y-46505000D01*
X27526111Y-46552222D01*
X27502222Y-46576111D01*
X27455000Y-46600000D01*
X27359444Y-46623889D01*
X27240556Y-46623889D01*
X27145000Y-46600000D01*
X27097778Y-46576111D01*
X27073889Y-46552222D01*
X27050000Y-46505000D01*
X27550000Y-46138333D02*
X27050000Y-46138333D01*
X27359444Y-46090555D02*
X27550000Y-45947777D01*
X27216667Y-45947777D02*
X27407222Y-46138333D01*
X27550000Y-45747777D02*
X27550000Y-45628888D01*
X27455000Y-45628888D01*
X27431111Y-45676110D01*
X27383333Y-45723888D01*
X27311667Y-45747777D01*
X27192778Y-45747777D01*
X27121667Y-45723888D01*
X27073889Y-45676110D01*
X27050000Y-45604999D01*
X27050000Y-45509444D01*
X27073889Y-45438333D01*
X27121667Y-45390555D01*
X27192778Y-45366666D01*
X27311667Y-45366666D01*
X27383333Y-45390555D01*
X27431111Y-45438333D01*
X27455000Y-45486110D01*
X27550000Y-45486110D01*
X27550000Y-45366666D01*
G04 #@! TO.C,R13*
X16164167Y-6050000D02*
X15878611Y-6050000D01*
X16021389Y-6050000D02*
X16021389Y-5550000D01*
X15973611Y-5621667D01*
X15926389Y-5668889D01*
X15878611Y-5692778D01*
X16483056Y-5550000D02*
X16530834Y-5550000D01*
X16578611Y-5573889D01*
X16602500Y-5597778D01*
X16625834Y-5645000D01*
X16649723Y-5740556D01*
X16649723Y-5859444D01*
X16625834Y-5955000D01*
X16602500Y-6002222D01*
X16578611Y-6026111D01*
X16530834Y-6050000D01*
X16483056Y-6050000D01*
X16435834Y-6026111D01*
X16411945Y-6002222D01*
X16388056Y-5955000D01*
X16364167Y-5859444D01*
X16364167Y-5740556D01*
X16388056Y-5645000D01*
X16411945Y-5597778D01*
X16435834Y-5573889D01*
X16483056Y-5550000D01*
X16849723Y-6050000D02*
X16849723Y-5550000D01*
X16897501Y-5859444D02*
X17040279Y-6050000D01*
X17040279Y-5716667D02*
X16849723Y-5907222D01*
X17240279Y-6050000D02*
X17359168Y-6050000D01*
X17359168Y-5955000D01*
X17311946Y-5931111D01*
X17264168Y-5883333D01*
X17240279Y-5811667D01*
X17240279Y-5692778D01*
X17264168Y-5621667D01*
X17311946Y-5573889D01*
X17383057Y-5550000D01*
X17478612Y-5550000D01*
X17549723Y-5573889D01*
X17597501Y-5621667D01*
X17621390Y-5692778D01*
X17621390Y-5811667D01*
X17597501Y-5883333D01*
X17549723Y-5931111D01*
X17501946Y-5955000D01*
X17501946Y-6050000D01*
X17621390Y-6050000D01*
D13*
G04 #@! TO.C,J2*
X13000000Y-26811667D02*
X12523333Y-27145000D01*
X13000000Y-27382778D02*
X12000000Y-27382778D01*
X12000000Y-27001667D01*
X12047778Y-26906111D01*
X12095556Y-26859445D01*
X12190000Y-26811667D01*
X12333333Y-26811667D01*
X12428889Y-26859445D01*
X12476667Y-26906111D01*
X12523333Y-27001667D01*
X12523333Y-27382778D01*
X13000000Y-26411667D02*
X12000000Y-26411667D01*
X12000000Y-26030556D01*
X12047778Y-25935000D01*
X12095556Y-25888334D01*
X12190000Y-25840556D01*
X12333333Y-25840556D01*
X12428889Y-25888334D01*
X12476667Y-25935000D01*
X12523333Y-26030556D01*
X12523333Y-26411667D01*
X13000000Y-25440556D02*
X12000000Y-25440556D01*
X13000000Y-24240557D02*
X12000000Y-24240557D01*
X12476667Y-24240557D02*
X12476667Y-23669446D01*
X13000000Y-23669446D02*
X12000000Y-23669446D01*
X12952222Y-22840557D02*
X13000000Y-22936113D01*
X13000000Y-23126113D01*
X12952222Y-23221668D01*
X12856667Y-23269446D01*
X12476667Y-23269446D01*
X12381111Y-23221668D01*
X12333333Y-23126113D01*
X12333333Y-22936113D01*
X12381111Y-22840557D01*
X12476667Y-22792779D01*
X12571111Y-22792779D01*
X12666667Y-23269446D01*
X13000000Y-21916112D02*
X12476667Y-21916112D01*
X12381111Y-21963890D01*
X12333333Y-22059446D01*
X12333333Y-22249446D01*
X12381111Y-22345001D01*
X12952222Y-21916112D02*
X13000000Y-22011668D01*
X13000000Y-22249446D01*
X12952222Y-22345001D01*
X12856667Y-22392779D01*
X12762222Y-22392779D01*
X12666667Y-22345001D01*
X12618889Y-22249446D01*
X12618889Y-22011668D01*
X12571111Y-21916112D01*
X13000000Y-21039445D02*
X12000000Y-21039445D01*
X12952222Y-21039445D02*
X13000000Y-21135001D01*
X13000000Y-21326112D01*
X12952222Y-21420556D01*
X12904444Y-21468334D01*
X12810000Y-21516112D01*
X12523333Y-21516112D01*
X12428889Y-21468334D01*
X12381111Y-21420556D01*
X12333333Y-21326112D01*
X12333333Y-21135001D01*
X12381111Y-21039445D01*
X12952222Y-20210556D02*
X13000000Y-20306112D01*
X13000000Y-20496112D01*
X12952222Y-20591667D01*
X12856667Y-20639445D01*
X12476667Y-20639445D01*
X12381111Y-20591667D01*
X12333333Y-20496112D01*
X12333333Y-20306112D01*
X12381111Y-20210556D01*
X12476667Y-20162778D01*
X12571111Y-20162778D01*
X12666667Y-20639445D01*
X13000000Y-19762778D02*
X12333333Y-19762778D01*
X12523333Y-19762778D02*
X12428889Y-19715000D01*
X12381111Y-19667222D01*
X12333333Y-19572778D01*
X12333333Y-19477222D01*
D12*
G04 #@! TO.C,U2*
X16976111Y-4121111D02*
X17000000Y-4049444D01*
X17000000Y-3930555D01*
X16976111Y-3882778D01*
X16952222Y-3859444D01*
X16905000Y-3835555D01*
X16857222Y-3835555D01*
X16809444Y-3859444D01*
X16785556Y-3882778D01*
X16761667Y-3930555D01*
X16738333Y-4026111D01*
X16714444Y-4073333D01*
X16690556Y-4097222D01*
X16642778Y-4121111D01*
X16595000Y-4121111D01*
X16547778Y-4097222D01*
X16523889Y-4073333D01*
X16500000Y-4026111D01*
X16500000Y-3906667D01*
X16523889Y-3835555D01*
X17000000Y-3635555D02*
X16500000Y-3635555D01*
X16738333Y-3635555D02*
X16738333Y-3349999D01*
X17000000Y-3349999D02*
X16500000Y-3349999D01*
X16666667Y-2911666D02*
X17000000Y-2911666D01*
X16476111Y-3031110D02*
X16833333Y-3149999D01*
X16833333Y-2840555D01*
X17000000Y-2640555D02*
X16666667Y-2378888D01*
X16666667Y-2640555D02*
X17000000Y-2378888D01*
G04 #@! TO.C,R12*
X13414167Y-8950000D02*
X13128611Y-8950000D01*
X13271389Y-8950000D02*
X13271389Y-8450000D01*
X13223611Y-8521667D01*
X13176389Y-8568889D01*
X13128611Y-8592778D01*
X13733056Y-8450000D02*
X13780834Y-8450000D01*
X13828611Y-8473889D01*
X13852500Y-8497778D01*
X13875834Y-8545000D01*
X13899723Y-8640556D01*
X13899723Y-8759444D01*
X13875834Y-8855000D01*
X13852500Y-8902222D01*
X13828611Y-8926111D01*
X13780834Y-8950000D01*
X13733056Y-8950000D01*
X13685834Y-8926111D01*
X13661945Y-8902222D01*
X13638056Y-8855000D01*
X13614167Y-8759444D01*
X13614167Y-8640556D01*
X13638056Y-8545000D01*
X13661945Y-8497778D01*
X13685834Y-8473889D01*
X13733056Y-8450000D01*
X14099723Y-8950000D02*
X14099723Y-8450000D01*
X14147501Y-8759444D02*
X14290279Y-8950000D01*
X14290279Y-8616667D02*
X14099723Y-8807222D01*
X14490279Y-8950000D02*
X14609168Y-8950000D01*
X14609168Y-8855000D01*
X14561946Y-8831111D01*
X14514168Y-8783333D01*
X14490279Y-8711667D01*
X14490279Y-8592778D01*
X14514168Y-8521667D01*
X14561946Y-8473889D01*
X14633057Y-8450000D01*
X14728612Y-8450000D01*
X14799723Y-8473889D01*
X14847501Y-8521667D01*
X14871390Y-8592778D01*
X14871390Y-8711667D01*
X14847501Y-8783333D01*
X14799723Y-8831111D01*
X14751946Y-8855000D01*
X14751946Y-8950000D01*
X14871390Y-8950000D01*
D13*
G04 #@! TO.C,J1*
X69000000Y-15197222D02*
X68000000Y-15197222D01*
X68476667Y-15197222D02*
X68476667Y-14626111D01*
X69000000Y-14626111D02*
X68000000Y-14626111D01*
X68000000Y-14226111D02*
X69000000Y-13892778D01*
X68000000Y-13559444D01*
X68714444Y-13063888D02*
X68714444Y-12588333D01*
X69000000Y-13159444D02*
X68000000Y-12826111D01*
X69000000Y-12492777D01*
X68904444Y-11473888D02*
X68952222Y-11521666D01*
X69000000Y-11663888D01*
X69000000Y-11759444D01*
X68952222Y-11902777D01*
X68856667Y-11997221D01*
X68762222Y-12044999D01*
X68571111Y-12092777D01*
X68428889Y-12092777D01*
X68237778Y-12044999D01*
X68143333Y-11997221D01*
X68047778Y-11902777D01*
X68000000Y-11759444D01*
X68000000Y-11663888D01*
X68047778Y-11521666D01*
X68095556Y-11473888D01*
X69000000Y-10273889D02*
X68000000Y-10273889D01*
X69000000Y-9873889D02*
X68000000Y-9873889D01*
X69000000Y-9302778D01*
X68000000Y-9302778D01*
D12*
G04 #@! TO.C,C11*
X30300000Y-47031111D02*
X30300000Y-47316667D01*
X30300000Y-47173889D02*
X29800000Y-47173889D01*
X29871667Y-47221667D01*
X29918889Y-47268889D01*
X29942778Y-47316667D01*
X29800000Y-46569444D02*
X29800000Y-46807222D01*
X30038333Y-46831111D01*
X30014444Y-46807222D01*
X29990556Y-46759444D01*
X29990556Y-46640555D01*
X30014444Y-46592778D01*
X30038333Y-46569444D01*
X30085556Y-46545555D01*
X30205000Y-46545555D01*
X30252222Y-46569444D01*
X30276111Y-46592778D01*
X30300000Y-46640555D01*
X30300000Y-46759444D01*
X30276111Y-46807222D01*
X30252222Y-46831111D01*
X29800000Y-46226666D02*
X29800000Y-46178888D01*
X29823889Y-46131111D01*
X29847778Y-46107222D01*
X29895000Y-46083888D01*
X29990556Y-46059999D01*
X30109444Y-46059999D01*
X30205000Y-46083888D01*
X30252222Y-46107222D01*
X30276111Y-46131111D01*
X30300000Y-46178888D01*
X30300000Y-46226666D01*
X30276111Y-46273888D01*
X30252222Y-46297777D01*
X30205000Y-46321666D01*
X30109444Y-46345555D01*
X29990556Y-46345555D01*
X29895000Y-46321666D01*
X29847778Y-46297777D01*
X29823889Y-46273888D01*
X29800000Y-46226666D01*
X29966667Y-45859999D02*
X30466667Y-45859999D01*
X29990556Y-45859999D02*
X29966667Y-45812221D01*
X29966667Y-45717221D01*
X29990556Y-45669443D01*
X30014444Y-45645555D01*
X30061667Y-45621666D01*
X30205000Y-45621666D01*
X30252222Y-45645555D01*
X30276111Y-45669443D01*
X30300000Y-45717221D01*
X30300000Y-45812221D01*
X30276111Y-45859999D01*
X30038333Y-45254999D02*
X30038333Y-45421666D01*
X30300000Y-45421666D02*
X29800000Y-45421666D01*
X29800000Y-45183333D01*
D13*
G04 #@! TD*
X40250000Y-61250000D02*
X40963333Y-63250000D01*
X41680000Y-61250000D01*
X44193333Y-63250000D02*
X42480000Y-63250000D01*
X43336667Y-63250000D02*
X43336667Y-60250000D01*
X43050000Y-60680000D01*
X42766667Y-60963333D01*
X42480000Y-61106667D01*
X45136666Y-62963333D02*
X45280000Y-63106667D01*
X45136666Y-63250000D01*
X44993333Y-63106667D01*
X45136666Y-62963333D01*
X45136666Y-63250000D01*
X47793333Y-63250000D02*
X46080000Y-63250000D01*
X46936667Y-63250000D02*
X46936667Y-60250000D01*
X46650000Y-60680000D01*
X46366667Y-60963333D01*
X46080000Y-61106667D01*
X50306666Y-63250000D02*
X48593333Y-63250000D01*
X49450000Y-63250000D02*
X49450000Y-60250000D01*
X49163333Y-60680000D01*
X48880000Y-60963333D01*
X48593333Y-61106667D01*
%LPC*%
D14*
G04 #@! TO.C,K1*
X55750000Y-46750000D03*
X61250000Y-41750000D03*
X55750000Y-41750000D03*
X61250000Y-46750000D03*
D15*
G04 #@! TO.C,R2*
X28500000Y-47025000D03*
X28500000Y-45475000D03*
D14*
G04 #@! TO.C,K2*
X55750000Y-38750000D03*
X61250000Y-33750000D03*
X55750000Y-33750000D03*
X61250000Y-38750000D03*
G04 #@! TO.C,K5*
X55750000Y-14750000D03*
X61250000Y-9750000D03*
X55750000Y-9750000D03*
X61250000Y-14750000D03*
G04 #@! TO.C,K4*
X55750000Y-22750000D03*
X61250000Y-17750000D03*
X55750000Y-17750000D03*
X61250000Y-22750000D03*
D16*
G04 #@! TO.C,R13*
X15975000Y-7250000D03*
X17525000Y-7250000D03*
D14*
G04 #@! TO.C,K6*
X30000000Y-8750000D03*
X35500000Y-3750000D03*
X30000000Y-3750000D03*
X35500000Y-8750000D03*
G04 #@! TO.C,K3*
X55750000Y-30750000D03*
X61250000Y-25750000D03*
X55750000Y-25750000D03*
X61250000Y-30750000D03*
D17*
G04 #@! TO.C,J2*
X7230000Y-26140000D03*
X9770000Y-21060000D03*
X9770000Y-10900000D03*
X7230000Y-23600000D03*
X9770000Y-26140000D03*
X9770000Y-18520000D03*
X9770000Y-23600000D03*
X7230000Y-21060000D03*
X7230000Y-13440000D03*
X9770000Y-15980000D03*
X7230000Y-18520000D03*
D18*
X7230000Y-8360000D03*
D17*
X9770000Y-8360000D03*
X7230000Y-15980000D03*
X7230000Y-10900000D03*
X9770000Y-13440000D03*
D19*
G04 #@! TO.C,U2*
X15100000Y-2550000D03*
X15100000Y-3950000D03*
X15900000Y-3950000D03*
X15900000Y-2550000D03*
D16*
G04 #@! TO.C,R12*
X14775000Y-7250000D03*
X13225000Y-7250000D03*
D20*
G04 #@! TO.C,J1*
X74000000Y-49750000D03*
X74000000Y-39750000D03*
X74000000Y-29750000D03*
X74000000Y-44750000D03*
X74000000Y-24750000D03*
X74000000Y-9750000D03*
X74000000Y-19750000D03*
X74000000Y-14750000D03*
X74000000Y-54750000D03*
X74000000Y-34750000D03*
D21*
G04 #@! TO.C,C11*
X31250000Y-46975000D03*
X31250000Y-45525000D03*
D14*
G04 #@! TO.C,K7*
X30000000Y-16750000D03*
X35500000Y-11750000D03*
X30000000Y-11750000D03*
X35500000Y-16750000D03*
G04 #@! TO.C,K8*
X30000000Y-24750000D03*
X35500000Y-19750000D03*
X30000000Y-19750000D03*
X35500000Y-24750000D03*
D22*
G04 #@! TD*
X8500000Y-61500000D03*
X57500000Y-3500000D03*
X8500000Y-3500000D03*
X57500000Y-61500000D03*
G04 --- BOARD END --- *
G04 #@! TF.MD5,aa8621415f1244e8a46330d789ff6d48*
M02*
