G04 --- HEADER BEGIN --- *
G04 #@! TF.GenerationSoftware,LibrePCB,LibrePCB,1.0.0*
G04 #@! TF.CreationDate,2024-10-09T11:39:01*
G04 #@! TF.ProjectId,OSm Thermal,b11a65fa-6c4c-431c-8545-341aca355aaf,v1.11*
G04 #@! TF.Part,Single*
G04 #@! TF.SameCoordinates*
G04 #@! TF.FileFunction,Copper,L1,Top*
G04 #@! TF.FilePolarity,Positive*
%FSLAX66Y66*%
%MOMM*%
G01*
G75*
G04 --- HEADER END --- *
G04 --- APERTURE LIST BEGIN --- *
G04 #@! TA.AperFunction,ComponentPad*
%ADD10C,1.5*%
G04 #@! TA.AperFunction,SMDPad,CuDef*
%ADD11R,0.8X0.75*%
%ADD12R,0.75X0.8*%
G04 #@! TA.AperFunction,ComponentPad*
%ADD13O,2.19X1.587*%
%ADD14R,2.19X1.587*%
G04 #@! TA.AperFunction,SMDPad,CuDef*
%AMROUNDEDRECT15*20,1,0.3,-0.175,0.0,0.175,0.0,90.0*20,1,0.15,-0.25,0.0,0.25,0.0,90.0*1,1,0.15,-0.075,-0.175*1,1,0.15,-0.075,0.175*1,1,0.15,0.075,0.175*1,1,0.15,0.075,-0.175*%
%ADD15ROUNDEDRECT15*%
G04 #@! TA.AperFunction,ComponentPad*
%ADD16O,2.0X2.8*%
G04 #@! TA.AperFunction,SMDPad,CuDef*
%ADD17R,0.8X0.85*%
G04 #@! TA.AperFunction,ViaPad*
%ADD18C,0.7*%
G04 #@! TA.AperFunction,Conductor*
%ADD19C,1.0*%
%ADD20C,0.6*%
%ADD21C,0.3*%
G04 #@! TA.AperFunction,ViaPad*
%ADD22C,1.0*%
G04 #@! TA.AperFunction,Conductor*
%ADD23C,0.01*%
G04 #@! TD*
G04 --- APERTURE LIST END --- *
G04 --- BOARD BEGIN --- *
D10*
G04 #@! TO.N,N23*
G04 #@! TO.C,K1*
G04 #@! TO.P,K1,8,-*
X55750000Y-46750000D03*
G04 #@! TO.N,VAC*
G04 #@! TO.P,K1,3,COM*
X61250000Y-41750000D03*
G04 #@! TO.N,RV1*
G04 #@! TO.P,K1,1,+*
X55750000Y-41750000D03*
G04 #@! TO.N,O1*
G04 #@! TO.P,K1,6,NO*
X61250000Y-46750000D03*
D11*
G04 #@! TO.N,FB*
G04 #@! TO.C,R2*
G04 #@! TO.P,R2,2,2*
X28500000Y-47025000D03*
G04 #@! TO.N,5V*
G04 #@! TO.P,R2,1,1*
X28500000Y-45475000D03*
D10*
G04 #@! TO.N,N33*
G04 #@! TO.C,K2*
G04 #@! TO.P,K2,8,-*
X55750000Y-38750000D03*
G04 #@! TO.N,VAC*
G04 #@! TO.P,K2,3,COM*
X61250000Y-33750000D03*
G04 #@! TO.N,RV2*
G04 #@! TO.P,K2,1,+*
X55750000Y-33750000D03*
G04 #@! TO.N,O2*
G04 #@! TO.P,K2,6,NO*
X61250000Y-38750000D03*
G04 #@! TO.N,N19*
G04 #@! TO.C,K5*
G04 #@! TO.P,K5,8,-*
X55750000Y-14750000D03*
G04 #@! TO.N,VAC*
G04 #@! TO.P,K5,3,COM*
X61250000Y-9750000D03*
G04 #@! TO.N,RV5*
G04 #@! TO.P,K5,1,+*
X55750000Y-9750000D03*
G04 #@! TO.N,O5*
G04 #@! TO.P,K5,6,NO*
X61250000Y-14750000D03*
G04 #@! TO.N,N26*
G04 #@! TO.C,K4*
G04 #@! TO.P,K4,8,-*
X55750000Y-22750000D03*
G04 #@! TO.N,VAC*
G04 #@! TO.P,K4,3,COM*
X61250000Y-17750000D03*
G04 #@! TO.N,RV4*
G04 #@! TO.P,K4,1,+*
X55750000Y-17750000D03*
G04 #@! TO.N,O4*
G04 #@! TO.P,K4,6,NO*
X61250000Y-22750000D03*
D12*
G04 #@! TO.N,SCL*
G04 #@! TO.C,R13*
G04 #@! TO.P,R13,2,2*
X15975000Y-7250000D03*
G04 #@! TO.N,GND*
G04 #@! TO.P,R13,1,1*
X17525000Y-7250000D03*
D10*
G04 #@! TO.N,N32*
G04 #@! TO.C,K6*
G04 #@! TO.P,K6,8,-*
X30000000Y-8750000D03*
G04 #@! TO.N,VAC*
G04 #@! TO.P,K6,3,COM*
X35500000Y-3750000D03*
G04 #@! TO.N,RV6*
G04 #@! TO.P,K6,1,+*
X30000000Y-3750000D03*
G04 #@! TO.N,O6*
G04 #@! TO.P,K6,6,NO*
X35500000Y-8750000D03*
G04 #@! TO.N,N31*
G04 #@! TO.C,K3*
G04 #@! TO.P,K3,8,-*
X55750000Y-30750000D03*
G04 #@! TO.N,VAC*
G04 #@! TO.P,K3,3,COM*
X61250000Y-25750000D03*
G04 #@! TO.N,RV3*
G04 #@! TO.P,K3,1,+*
X55750000Y-25750000D03*
G04 #@! TO.N,O3*
G04 #@! TO.P,K3,6,NO*
X61250000Y-30750000D03*
D13*
G04 #@! TO.N,SR8*
G04 #@! TO.C,J2*
G04 #@! TO.P,J2,15,15*
X7230000Y-26140000D03*
G04 #@! TO.N,SR3*
G04 #@! TO.P,J2,12,12*
X9770000Y-21060000D03*
G04 #@! TO.N,SDA*
G04 #@! TO.P,J2,4,4*
X9770000Y-10900000D03*
G04 #@! TO.N,GND*
G04 #@! TO.P,J2,13,13*
X7230000Y-23600000D03*
G04 #@! TO.N,SR1*
G04 #@! TO.P,J2,16,16*
X9770000Y-26140000D03*
G04 #@! TO.N,GND*
G04 #@! TO.P,J2,10,10*
X9770000Y-18520000D03*
G04 #@! TO.N,SR2*
G04 #@! TO.P,J2,14,14*
X9770000Y-23600000D03*
G04 #@! TO.N,SR7*
G04 #@! TO.P,J2,11,11*
X7230000Y-21060000D03*
G04 #@! TO.N,GND*
G04 #@! TO.P,J2,5,5*
X7230000Y-13440000D03*
G04 #@! TO.N,SR4*
G04 #@! TO.P,J2,8,8*
X9770000Y-15980000D03*
G04 #@! TO.N,SR6*
G04 #@! TO.P,J2,9,9*
X7230000Y-18520000D03*
D14*
G04 #@! TO.N,5V*
G04 #@! TO.P,J2,1,1*
X7230000Y-8360000D03*
D13*
G04 #@! TO.N,3V3*
G04 #@! TO.P,J2,2,2*
X9770000Y-8360000D03*
G04 #@! TO.N,SR5*
G04 #@! TO.P,J2,7,7*
X7230000Y-15980000D03*
G04 #@! TO.N,5V*
G04 #@! TO.P,J2,3,3*
X7230000Y-10900000D03*
G04 #@! TO.N,SCL*
G04 #@! TO.P,J2,6,6*
X9770000Y-13440000D03*
D15*
G04 #@! TO.N,GND*
G04 #@! TO.C,U2*
G04 #@! TO.P,U2,VSS,VSS*
X15100000Y-2550000D03*
G04 #@! TO.N,SDA*
G04 #@! TO.P,U2,SDA,SDA*
X15100000Y-3950000D03*
G04 #@! TO.N,SCL*
G04 #@! TO.P,U2,SCL,SCL*
X15900000Y-3950000D03*
G04 #@! TO.N,3V3*
G04 #@! TO.P,U2,VDD,VDD*
X15900000Y-2550000D03*
D12*
G04 #@! TO.N,SDA*
G04 #@! TO.C,R12*
G04 #@! TO.P,R12,2,2*
X14775000Y-7250000D03*
G04 #@! TO.N,GND*
G04 #@! TO.P,R12,1,1*
X13225000Y-7250000D03*
D16*
G04 #@! TO.N,VAC*
G04 #@! TO.C,J1*
G04 #@! TO.P,J1,2,2*
X74000000Y-49750000D03*
G04 #@! TO.N,O2*
G04 #@! TO.P,J1,4,4*
X74000000Y-39750000D03*
G04 #@! TO.N,O4*
G04 #@! TO.P,J1,6,6*
X74000000Y-29750000D03*
G04 #@! TO.N,O1*
G04 #@! TO.P,J1,3,3*
X74000000Y-44750000D03*
G04 #@! TO.N,O5*
G04 #@! TO.P,J1,7,7*
X74000000Y-24750000D03*
G04 #@! TO.N,O8*
G04 #@! TO.P,J1,10,10*
X74000000Y-9750000D03*
G04 #@! TO.N,O6*
G04 #@! TO.P,J1,8,8*
X74000000Y-19750000D03*
G04 #@! TO.N,O7*
G04 #@! TO.P,J1,9,9*
X74000000Y-14750000D03*
G04 #@! TO.N,COM*
G04 #@! TO.P,J1,1,1*
X74000000Y-54750000D03*
G04 #@! TO.N,O3*
G04 #@! TO.P,J1,5,5*
X74000000Y-34750000D03*
D17*
G04 #@! TO.N,FB*
G04 #@! TO.C,C11*
G04 #@! TO.P,C11,2,2*
X31250000Y-46975000D03*
G04 #@! TO.N,5V*
G04 #@! TO.P,C11,1,1*
X31250000Y-45525000D03*
D10*
G04 #@! TO.N,N24*
G04 #@! TO.C,K7*
G04 #@! TO.P,K7,8,-*
X30000000Y-16750000D03*
G04 #@! TO.N,VAC*
G04 #@! TO.P,K7,3,COM*
X35500000Y-11750000D03*
G04 #@! TO.N,RV7*
G04 #@! TO.P,K7,1,+*
X30000000Y-11750000D03*
G04 #@! TO.N,O7*
G04 #@! TO.P,K7,6,NO*
X35500000Y-16750000D03*
G04 #@! TO.N,N37*
G04 #@! TO.C,K8*
G04 #@! TO.P,K8,8,-*
X30000000Y-24750000D03*
G04 #@! TO.N,VAC*
G04 #@! TO.P,K8,3,COM*
X35500000Y-19750000D03*
G04 #@! TO.N,RV8*
G04 #@! TO.P,K8,1,+*
X30000000Y-19750000D03*
G04 #@! TO.N,O8*
G04 #@! TO.P,K8,6,NO*
X35500000Y-24750000D03*
D18*
G04 #@! TD.C*
G04 #@! TD.P*
G04 #@! TO.N,GND*
X48250000Y-28000000D03*
D19*
G04 #@! TO.N,O4*
X74000000Y-29750000D02*
X74000000Y-29750000D01*
D18*
G04 #@! TO.N,5V*
X35500000Y-28750000D03*
X35500000Y-39500000D03*
D20*
X35500000Y-28750000D02*
X35500000Y-39500000D01*
D18*
G04 #@! TO.N,GND*
X46000000Y-50750000D03*
D21*
G04 #@! TO.N,SCL*
X15750000Y-7250000D02*
X15750000Y-4100000D01*
X15750000Y-4100000D02*
X15900000Y-3950000D01*
X15750000Y-7250000D02*
X15750000Y-9500000D01*
X9770000Y-13440000D02*
X11810000Y-13440000D01*
X11810000Y-13440000D02*
X15750000Y-9500000D01*
X15975000Y-7250000D02*
X15750000Y-7250000D01*
D18*
G04 #@! TO.N,5V*
X34000000Y-43250000D03*
D21*
X34000000Y-43250000D02*
X31725000Y-45525000D01*
X28500000Y-45475000D02*
X28550000Y-45525000D01*
X31725000Y-45525000D02*
X31250000Y-45525000D01*
X28550000Y-45525000D02*
X31250000Y-45525000D01*
G04 #@! TO.N,SDA*
X15000000Y-7250000D02*
X15000000Y-8250000D01*
X15000000Y-4050000D02*
X15100000Y-3950000D01*
X15000000Y-7250000D02*
X15000000Y-4050000D01*
X14775000Y-7250000D02*
X15000000Y-7250000D01*
X12350000Y-10900000D02*
X15000000Y-8250000D01*
X9770000Y-10900000D02*
X12350000Y-10900000D01*
D18*
G04 #@! TO.N,GND*
X33500000Y-53000000D03*
G04 #@! TO.N,SR6*
X20500000Y-5500000D03*
D21*
X8500000Y-17250000D02*
X11750000Y-17250000D01*
X7230000Y-18520000D02*
X8500000Y-17250000D01*
X11750000Y-17250000D02*
X20500000Y-8500000D01*
X20500000Y-8500000D02*
X20500000Y-5500000D01*
D18*
G04 #@! TO.N,GND*
X34750000Y-56500000D03*
X22250000Y-45250000D03*
X44250000Y-52250000D03*
X48250000Y-20000000D03*
X46000000Y-54000000D03*
X44250000Y-54000000D03*
X24750000Y-45250000D03*
X27500000Y-55500000D03*
X22500000Y-5500000D03*
X35500000Y-55750000D03*
G04 #@! TO.N,FB*
X31250000Y-53750000D03*
D21*
X28500000Y-47025000D02*
X28550000Y-46975000D01*
X31250000Y-46975000D02*
X28550000Y-46975000D01*
X31250000Y-46975000D02*
X31250000Y-46975000D01*
X31250000Y-53750000D02*
X31250000Y-46975000D01*
D18*
G04 #@! TO.N,SR8*
X20500000Y-21500000D03*
D21*
X8370000Y-25000000D02*
X11750000Y-25000000D01*
X11750000Y-25000000D02*
X15250000Y-21500000D01*
X15250000Y-21500000D02*
X20500000Y-21500000D01*
X7230000Y-26140000D02*
X8370000Y-25000000D01*
D18*
G04 #@! TO.N,GND*
X22250000Y-41250000D03*
X24750000Y-41250000D03*
D21*
G04 #@! TO.N,3V3*
X10500000Y-6500000D02*
X10500000Y-2250000D01*
X10500000Y-2250000D02*
X11500000Y-1250000D01*
X11500000Y-1250000D02*
X15250000Y-1250000D01*
X15900000Y-2550000D02*
X15900000Y-1900000D01*
X15900000Y-1900000D02*
X15250000Y-1250000D01*
X10500000Y-7630000D02*
X10500000Y-6500000D01*
X9770000Y-8360000D02*
X10500000Y-7630000D01*
D18*
G04 #@! TO.N,GND*
X48250000Y-44000000D03*
X19750000Y-41250000D03*
X22500000Y-21500000D03*
D22*
G04 #@! TO.N,VAC*
X59000000Y-8500000D03*
D19*
X43500000Y-3750000D02*
X54250000Y-3750000D01*
X59000000Y-8500000D02*
X54250000Y-3750000D01*
X33000000Y-9250000D02*
X33000000Y-17250000D01*
X35500000Y-19750000D02*
X33000000Y-17250000D01*
X35500000Y-3750000D02*
X33000000Y-6250000D01*
X33000000Y-9250000D02*
X33000000Y-6250000D01*
X33000000Y-9250000D02*
X35500000Y-11750000D01*
X43500000Y-3750000D02*
X35500000Y-3750000D01*
D18*
G04 #@! TO.N,GND*
X48250000Y-11500000D03*
X34000000Y-55750000D03*
X48250000Y-36000000D03*
X22500000Y-13500000D03*
X44250000Y-50750000D03*
G04 #@! TO.N,SR7*
X20500000Y-13500000D03*
D21*
X11750000Y-19750000D02*
X18000000Y-13500000D01*
X8540000Y-19750000D02*
X11750000Y-19750000D01*
X18000000Y-13500000D02*
X20500000Y-13500000D01*
X7230000Y-21060000D02*
X8540000Y-19750000D01*
D23*
G04 #@! TA.AperFunction,Conductor*
G04 #@! TO.N,GND*
G36*
X300000Y-62986899D02*
X300214Y-62993439D01*
X314753Y-63215267D01*
X316460Y-63228236D01*
X357270Y-63433403D01*
X360656Y-63446038D01*
X427895Y-63644114D01*
X432901Y-63656198D01*
X525415Y-63843798D01*
X531955Y-63855126D01*
X648170Y-64029055D01*
X656133Y-64039433D01*
X794052Y-64196699D01*
X803301Y-64205948D01*
X960567Y-64343867D01*
X970945Y-64351830D01*
X1144874Y-64468045D01*
X1156202Y-64474585D01*
X1343802Y-64567099D01*
X1355886Y-64572105D01*
X1553962Y-64639344D01*
X1566597Y-64642730D01*
X1771764Y-64683540D01*
X1784733Y-64685247D01*
X2006561Y-64699786D01*
X2013101Y-64700000D01*
X8496435Y-64700000D01*
X8496435Y-63299745D01*
X8247399Y-63281934D01*
X8240344Y-63280920D01*
X7996364Y-63227845D01*
X7989538Y-63225840D01*
X7755596Y-63138585D01*
X7749123Y-63135629D01*
X7529977Y-63015965D01*
X7523988Y-63012116D01*
X7324110Y-62862490D01*
X7318727Y-62857825D01*
X7142175Y-62681273D01*
X7137510Y-62675890D01*
X6987884Y-62476012D01*
X6984035Y-62470023D01*
X6864371Y-62250877D01*
X6861415Y-62244404D01*
X6774160Y-62010462D01*
X6772155Y-62003636D01*
X6719080Y-61759656D01*
X6718066Y-61752601D01*
X6700255Y-61503565D01*
X6700255Y-61496435D01*
X6718066Y-61247399D01*
X6719080Y-61240344D01*
X6772155Y-60996364D01*
X6774160Y-60989538D01*
X6861415Y-60755596D01*
X6864371Y-60749123D01*
X6930811Y-60627448D01*
X6930811Y-27233500D01*
X6926195Y-27233286D01*
X6732175Y-27215308D01*
X6723126Y-27213616D01*
X6537931Y-27160924D01*
X6529337Y-27157594D01*
X6356987Y-27071774D01*
X6349157Y-27066926D01*
X6195508Y-26950896D01*
X6188695Y-26944684D01*
X6058982Y-26802397D01*
X6053436Y-26795053D01*
X5952069Y-26631339D01*
X5947971Y-26623109D01*
X5878417Y-26443567D01*
X5875893Y-26434699D01*
X5840514Y-26245439D01*
X5839665Y-26236274D01*
X5839665Y-26043726D01*
X5840514Y-26034561D01*
X5875893Y-25845301D01*
X5878417Y-25836433D01*
X5947971Y-25656891D01*
X5952069Y-25648661D01*
X6053436Y-25484947D01*
X6058982Y-25477603D01*
X6188695Y-25335316D01*
X6195508Y-25329104D01*
X6349157Y-25213074D01*
X6356987Y-25208226D01*
X6529337Y-25122406D01*
X6537931Y-25119076D01*
X6723126Y-25066384D01*
X6732175Y-25064692D01*
X6926195Y-25046714D01*
X6930811Y-25046500D01*
X6930811Y-24693500D01*
X6926195Y-24693286D01*
X6732175Y-24675308D01*
X6723126Y-24673616D01*
X6537931Y-24620924D01*
X6529337Y-24617594D01*
X6356987Y-24531774D01*
X6349157Y-24526926D01*
X6195508Y-24410896D01*
X6188695Y-24404684D01*
X6058982Y-24262397D01*
X6053436Y-24255053D01*
X5952069Y-24091339D01*
X5947971Y-24083109D01*
X5878417Y-23903567D01*
X5875893Y-23894699D01*
X5851787Y-23765745D01*
X5853583Y-23752296D01*
X5854148Y-23751711D01*
X5861040Y-23750005D01*
X5864858Y-23750005D01*
X5864858Y-23449995D01*
X5851968Y-23445758D01*
X5851497Y-23445095D01*
X5851086Y-23438006D01*
X5875893Y-23305301D01*
X5878417Y-23296433D01*
X5947971Y-23116891D01*
X5952069Y-23108661D01*
X6053436Y-22944947D01*
X6058982Y-22937603D01*
X6188695Y-22795316D01*
X6195508Y-22789104D01*
X6349157Y-22673074D01*
X6356987Y-22668226D01*
X6529337Y-22582406D01*
X6537931Y-22579076D01*
X6723126Y-22526384D01*
X6732175Y-22524692D01*
X6926195Y-22506714D01*
X6930811Y-22506500D01*
X6930811Y-22153500D01*
X6926195Y-22153286D01*
X6732175Y-22135308D01*
X6723126Y-22133616D01*
X6537931Y-22080924D01*
X6529337Y-22077594D01*
X6356987Y-21991774D01*
X6349157Y-21986926D01*
X6195508Y-21870896D01*
X6188695Y-21864684D01*
X6058982Y-21722397D01*
X6053436Y-21715053D01*
X5952069Y-21551339D01*
X5947971Y-21543109D01*
X5878417Y-21363567D01*
X5875893Y-21354699D01*
X5840514Y-21165439D01*
X5839665Y-21156274D01*
X5839665Y-20963726D01*
X5840514Y-20954561D01*
X5875893Y-20765301D01*
X5878417Y-20756433D01*
X5947971Y-20576891D01*
X5952069Y-20568661D01*
X6053436Y-20404947D01*
X6058982Y-20397603D01*
X6188695Y-20255316D01*
X6195508Y-20249104D01*
X6349157Y-20133074D01*
X6356987Y-20128226D01*
X6529337Y-20042406D01*
X6537931Y-20039076D01*
X6723126Y-19986384D01*
X6732175Y-19984692D01*
X6926195Y-19966714D01*
X6930811Y-19966500D01*
X7529189Y-19966500D01*
X7533805Y-19966714D01*
X7627164Y-19975365D01*
X7707101Y-19946503D01*
X7916218Y-19737386D01*
X7944380Y-19681647D01*
X7933982Y-19620069D01*
X7889078Y-19576668D01*
X7818142Y-19570494D01*
X7736874Y-19593616D01*
X7727825Y-19595308D01*
X7533805Y-19613286D01*
X7529189Y-19613500D01*
X6930811Y-19613500D01*
X6926195Y-19613286D01*
X6732175Y-19595308D01*
X6723126Y-19593616D01*
X6537931Y-19540924D01*
X6529337Y-19537594D01*
X6356987Y-19451774D01*
X6349157Y-19446926D01*
X6195508Y-19330896D01*
X6188695Y-19324684D01*
X6058982Y-19182397D01*
X6053436Y-19175053D01*
X5952069Y-19011339D01*
X5947971Y-19003109D01*
X5878417Y-18823567D01*
X5875893Y-18814699D01*
X5840514Y-18625439D01*
X5839665Y-18616274D01*
X5839665Y-18423726D01*
X5840514Y-18414561D01*
X5875893Y-18225301D01*
X5878417Y-18216433D01*
X5947971Y-18036891D01*
X5952069Y-18028661D01*
X6053436Y-17864947D01*
X6058982Y-17857603D01*
X6188695Y-17715316D01*
X6195508Y-17709104D01*
X6349157Y-17593074D01*
X6356987Y-17588226D01*
X6529337Y-17502406D01*
X6537931Y-17499076D01*
X6723126Y-17446384D01*
X6732175Y-17444692D01*
X6926195Y-17426714D01*
X6930811Y-17426500D01*
X7529189Y-17426500D01*
X7533805Y-17426714D01*
X7627164Y-17435365D01*
X7707101Y-17406503D01*
X7916218Y-17197386D01*
X7944380Y-17141647D01*
X7933982Y-17080069D01*
X7889078Y-17036668D01*
X7818142Y-17030494D01*
X7736874Y-17053616D01*
X7727825Y-17055308D01*
X7533805Y-17073286D01*
X7529189Y-17073500D01*
X6930811Y-17073500D01*
X6926195Y-17073286D01*
X6732175Y-17055308D01*
X6723126Y-17053616D01*
X6537931Y-17000924D01*
X6529337Y-16997594D01*
X6356987Y-16911774D01*
X6349157Y-16906926D01*
X6195508Y-16790896D01*
X6188695Y-16784684D01*
X6058982Y-16642397D01*
X6053436Y-16635053D01*
X5952069Y-16471339D01*
X5947971Y-16463109D01*
X5878417Y-16283567D01*
X5875893Y-16274699D01*
X5840514Y-16085439D01*
X5839665Y-16076274D01*
X5839665Y-15883726D01*
X5840514Y-15874561D01*
X5875893Y-15685301D01*
X5878417Y-15676433D01*
X5947971Y-15496891D01*
X5952069Y-15488661D01*
X6053436Y-15324947D01*
X6058982Y-15317603D01*
X6188695Y-15175316D01*
X6195508Y-15169104D01*
X6349157Y-15053074D01*
X6356987Y-15048226D01*
X6529337Y-14962406D01*
X6537931Y-14959076D01*
X6723126Y-14906384D01*
X6732175Y-14904692D01*
X6926195Y-14886714D01*
X6930811Y-14886500D01*
X6930811Y-14533500D01*
X6926195Y-14533286D01*
X6732175Y-14515308D01*
X6723126Y-14513616D01*
X6537931Y-14460924D01*
X6529337Y-14457594D01*
X6356987Y-14371774D01*
X6349157Y-14366926D01*
X6195508Y-14250896D01*
X6188695Y-14244684D01*
X6058982Y-14102397D01*
X6053436Y-14095053D01*
X5952069Y-13931339D01*
X5947971Y-13923109D01*
X5878417Y-13743567D01*
X5875893Y-13734699D01*
X5851787Y-13605745D01*
X5853583Y-13592296D01*
X5854148Y-13591711D01*
X5861040Y-13590005D01*
X5864858Y-13590005D01*
X5864858Y-13289995D01*
X5851968Y-13285758D01*
X5851497Y-13285095D01*
X5851086Y-13278006D01*
X5875893Y-13145301D01*
X5878417Y-13136433D01*
X5947971Y-12956891D01*
X5952069Y-12948661D01*
X6053436Y-12784947D01*
X6058982Y-12777603D01*
X6188695Y-12635316D01*
X6195508Y-12629104D01*
X6349157Y-12513074D01*
X6356987Y-12508226D01*
X6529337Y-12422406D01*
X6537931Y-12419076D01*
X6723126Y-12366384D01*
X6732175Y-12364692D01*
X6926195Y-12346714D01*
X6930811Y-12346500D01*
X7063982Y-12346500D01*
X7068747Y-12348066D01*
X7079995Y-12370328D01*
X7079995Y-12646500D01*
X6928500Y-12646500D01*
X6751930Y-12666395D01*
X6584213Y-12725081D01*
X6433761Y-12819617D01*
X6308117Y-12945261D01*
X6213581Y-13095713D01*
X6154895Y-13263430D01*
X6151902Y-13289995D01*
X5864858Y-13289995D01*
X5864858Y-13590005D01*
X6151902Y-13590005D01*
X6154895Y-13616570D01*
X6213581Y-13784287D01*
X6308117Y-13934739D01*
X6433761Y-14060383D01*
X6584213Y-14154919D01*
X6751930Y-14213605D01*
X6928500Y-14233500D01*
X7079995Y-14233500D01*
X7079995Y-14517487D01*
X7078429Y-14522252D01*
X7056167Y-14533500D01*
X6930811Y-14533500D01*
X6930811Y-14886500D01*
X7396018Y-14886500D01*
X7396018Y-14533500D01*
X7391253Y-14531934D01*
X7380005Y-14509672D01*
X7380005Y-14233500D01*
X7531500Y-14233500D01*
X7708070Y-14213605D01*
X7875787Y-14154919D01*
X8026239Y-14060383D01*
X8151883Y-13934739D01*
X8246419Y-13784287D01*
X8305105Y-13616570D01*
X8325000Y-13440000D01*
X8305105Y-13263430D01*
X8246419Y-13095713D01*
X8151883Y-12945261D01*
X8026239Y-12819617D01*
X7875787Y-12725081D01*
X7708070Y-12666395D01*
X7531500Y-12646500D01*
X7380005Y-12646500D01*
X7380005Y-12362513D01*
X7381571Y-12357748D01*
X7403833Y-12346500D01*
X7529189Y-12346500D01*
X7533805Y-12346714D01*
X7727825Y-12364692D01*
X7736874Y-12366384D01*
X7922069Y-12419076D01*
X7930663Y-12422406D01*
X8103013Y-12508226D01*
X8110843Y-12513074D01*
X8264492Y-12629104D01*
X8271305Y-12635316D01*
X8401018Y-12777603D01*
X8406567Y-12784951D01*
X8414980Y-12798538D01*
X8462791Y-12838713D01*
X8525114Y-12842688D01*
X8585020Y-12798538D01*
X8593433Y-12784951D01*
X8598982Y-12777603D01*
X8728695Y-12635316D01*
X8735508Y-12629104D01*
X8889157Y-12513074D01*
X8896987Y-12508226D01*
X9069337Y-12422406D01*
X9077931Y-12419076D01*
X9263126Y-12366384D01*
X9272175Y-12364692D01*
X9466195Y-12346714D01*
X9470811Y-12346500D01*
X10069189Y-12346500D01*
X10073805Y-12346714D01*
X10267825Y-12364692D01*
X10276874Y-12366384D01*
X10462069Y-12419076D01*
X10470663Y-12422406D01*
X10643013Y-12508226D01*
X10650843Y-12513074D01*
X10804492Y-12629104D01*
X10811305Y-12635316D01*
X10941018Y-12777603D01*
X10946564Y-12784947D01*
X11044206Y-12942644D01*
X11092017Y-12982819D01*
X11129227Y-12990000D01*
X11582182Y-12990000D01*
X11652892Y-12960711D01*
X15270711Y-9342892D01*
X15300000Y-9272182D01*
X15300000Y-8827815D01*
X15280500Y-8768488D01*
X15229605Y-8732299D01*
X15167164Y-8733361D01*
X15129291Y-8757105D01*
X12670725Y-11215671D01*
X12665343Y-11220334D01*
X12632526Y-11244901D01*
X12626967Y-11249381D01*
X12598692Y-11273882D01*
X12582379Y-11284364D01*
X12576000Y-11288149D01*
X12558959Y-11297454D01*
X12523926Y-11310521D01*
X12517330Y-11313253D01*
X12483285Y-11328801D01*
X12464701Y-11334258D01*
X12457501Y-11336096D01*
X12438518Y-11340225D01*
X12401227Y-11342892D01*
X12394128Y-11343655D01*
X12353534Y-11349492D01*
X12346430Y-11350000D01*
X11129227Y-11350000D01*
X11069900Y-11369500D01*
X11044206Y-11397356D01*
X10946564Y-11555053D01*
X10941018Y-11562397D01*
X10811305Y-11704684D01*
X10804492Y-11710896D01*
X10650843Y-11826926D01*
X10643013Y-11831774D01*
X10470663Y-11917594D01*
X10462069Y-11920924D01*
X10276874Y-11973616D01*
X10267825Y-11975308D01*
X10073805Y-11993286D01*
X10069189Y-11993500D01*
X9470811Y-11993500D01*
X9466195Y-11993286D01*
X9272175Y-11975308D01*
X9263126Y-11973616D01*
X9077931Y-11920924D01*
X9069337Y-11917594D01*
X8896987Y-11831774D01*
X8889157Y-11826926D01*
X8735508Y-11710896D01*
X8728695Y-11704684D01*
X8598982Y-11562397D01*
X8593433Y-11555049D01*
X8585020Y-11541462D01*
X8537209Y-11501287D01*
X8474886Y-11497312D01*
X8414980Y-11541462D01*
X8406567Y-11555049D01*
X8401018Y-11562397D01*
X8271305Y-11704684D01*
X8264492Y-11710896D01*
X8110843Y-11826926D01*
X8103013Y-11831774D01*
X7930663Y-11917594D01*
X7922069Y-11920924D01*
X7736874Y-11973616D01*
X7727825Y-11975308D01*
X7533805Y-11993286D01*
X7529189Y-11993500D01*
X6930811Y-11993500D01*
X6926195Y-11993286D01*
X6732175Y-11975308D01*
X6723126Y-11973616D01*
X6537931Y-11920924D01*
X6529337Y-11917594D01*
X6356987Y-11831774D01*
X6349157Y-11826926D01*
X6195508Y-11710896D01*
X6188695Y-11704684D01*
X6058982Y-11562397D01*
X6053436Y-11555053D01*
X5952069Y-11391339D01*
X5947971Y-11383109D01*
X5878417Y-11203567D01*
X5875893Y-11194699D01*
X5840514Y-11005439D01*
X5839665Y-10996274D01*
X5839665Y-10803726D01*
X5840514Y-10794561D01*
X5875893Y-10605301D01*
X5878417Y-10596433D01*
X5947971Y-10416891D01*
X5952069Y-10408661D01*
X6053436Y-10244947D01*
X6058982Y-10237603D01*
X6138931Y-10149903D01*
X6138931Y-9453500D01*
X6131118Y-9452885D01*
X6050069Y-9440048D01*
X6035282Y-9435244D01*
X5965674Y-9399777D01*
X5953101Y-9390642D01*
X5897858Y-9335399D01*
X5888723Y-9322826D01*
X5853256Y-9253218D01*
X5848452Y-9238431D01*
X5835615Y-9157382D01*
X5835000Y-9149569D01*
X5835000Y-7570431D01*
X5835615Y-7562618D01*
X5848452Y-7481569D01*
X5853256Y-7466782D01*
X5888723Y-7397174D01*
X5897858Y-7384601D01*
X5953101Y-7329358D01*
X5965674Y-7320223D01*
X6035282Y-7284756D01*
X6050069Y-7279952D01*
X6131118Y-7267115D01*
X6138931Y-7266500D01*
X8321069Y-7266500D01*
X8328882Y-7267115D01*
X8409931Y-7279952D01*
X8424718Y-7284756D01*
X8494326Y-7320223D01*
X8506899Y-7329358D01*
X8562142Y-7384601D01*
X8571277Y-7397174D01*
X8606743Y-7466780D01*
X8610222Y-7477488D01*
X8647101Y-7527885D01*
X8706688Y-7546576D01*
X8765590Y-7526387D01*
X8889157Y-7433074D01*
X8896987Y-7428226D01*
X9069337Y-7342406D01*
X9077931Y-7339076D01*
X9263126Y-7286384D01*
X9272175Y-7284692D01*
X9466195Y-7266714D01*
X9470811Y-7266500D01*
X9950001Y-7266500D01*
X10009328Y-7247000D01*
X10050000Y-7166501D01*
X10050000Y-4725853D01*
X10030500Y-4666526D01*
X9979605Y-4630337D01*
X9917164Y-4631399D01*
X9869947Y-4665927D01*
X9862487Y-4675892D01*
X9857825Y-4681273D01*
X9681273Y-4857825D01*
X9675890Y-4862490D01*
X9476012Y-5012116D01*
X9470023Y-5015965D01*
X9250877Y-5135629D01*
X9244404Y-5138585D01*
X9010462Y-5225840D01*
X9003636Y-5227845D01*
X8759656Y-5280920D01*
X8752601Y-5281934D01*
X8503565Y-5299745D01*
X8496435Y-5299745D01*
X8247399Y-5281934D01*
X8240344Y-5280920D01*
X7996364Y-5227845D01*
X7989538Y-5225840D01*
X7755596Y-5138585D01*
X7749123Y-5135629D01*
X7529977Y-5015965D01*
X7523988Y-5012116D01*
X7324110Y-4862490D01*
X7318727Y-4857825D01*
X7142175Y-4681273D01*
X7137510Y-4675890D01*
X6987884Y-4476012D01*
X6984035Y-4470023D01*
X6864371Y-4250877D01*
X6861415Y-4244404D01*
X6774160Y-4010462D01*
X6772155Y-4003636D01*
X6719080Y-3759656D01*
X6718066Y-3752601D01*
X6700255Y-3503565D01*
X6700255Y-3496435D01*
X6718066Y-3247399D01*
X6719080Y-3240344D01*
X6772155Y-2996364D01*
X6774160Y-2989538D01*
X6861415Y-2755596D01*
X6864371Y-2749123D01*
X6984035Y-2529977D01*
X6987884Y-2523988D01*
X7137510Y-2324110D01*
X7142175Y-2318727D01*
X7318727Y-2142175D01*
X7324110Y-2137510D01*
X7523988Y-1987884D01*
X7529977Y-1984035D01*
X7749123Y-1864371D01*
X7755596Y-1861415D01*
X7989538Y-1774160D01*
X7996364Y-1772155D01*
X8240344Y-1719080D01*
X8247399Y-1718066D01*
X8496435Y-1700255D01*
X8503565Y-1700255D01*
X8752601Y-1718066D01*
X8759656Y-1719080D01*
X9003636Y-1772155D01*
X9010462Y-1774160D01*
X9244404Y-1861415D01*
X9250877Y-1864371D01*
X9470023Y-1984035D01*
X9476012Y-1987884D01*
X9675890Y-2137510D01*
X9681273Y-2142175D01*
X9857825Y-2318727D01*
X9862487Y-2324108D01*
X9869947Y-2334073D01*
X9921111Y-2369882D01*
X9983542Y-2368353D01*
X10032892Y-2330084D01*
X10050000Y-2274147D01*
X10050000Y-2253570D01*
X10050508Y-2246466D01*
X10056345Y-2205872D01*
X10057108Y-2198773D01*
X10059775Y-2161482D01*
X10063904Y-2142499D01*
X10065742Y-2135299D01*
X10071199Y-2116715D01*
X10086747Y-2082670D01*
X10089479Y-2076074D01*
X10102546Y-2041041D01*
X10111851Y-2024000D01*
X10115636Y-2017621D01*
X10126118Y-2001308D01*
X10150619Y-1973033D01*
X10155099Y-1967474D01*
X10179666Y-1934657D01*
X10184329Y-1929275D01*
X11179275Y-934329D01*
X11184657Y-929666D01*
X11217474Y-905099D01*
X11223033Y-900619D01*
X11251308Y-876118D01*
X11267621Y-865636D01*
X11274000Y-861851D01*
X11291041Y-852546D01*
X11326074Y-839479D01*
X11332670Y-836747D01*
X11366715Y-821199D01*
X11385299Y-815742D01*
X11392499Y-813904D01*
X11411482Y-809775D01*
X11448773Y-807108D01*
X11455872Y-806345D01*
X11496466Y-800508D01*
X11503570Y-800000D01*
X15246430Y-800000D01*
X15253534Y-800508D01*
X15294115Y-806343D01*
X15301214Y-807106D01*
X15338514Y-809773D01*
X15357509Y-813906D01*
X15364655Y-815730D01*
X15383284Y-821199D01*
X15417314Y-836740D01*
X15423908Y-839471D01*
X15458960Y-852545D01*
X15476006Y-861853D01*
X15482366Y-865628D01*
X15498694Y-876121D01*
X15526958Y-900613D01*
X15532519Y-905094D01*
X15565333Y-929657D01*
X15570728Y-934332D01*
X16215668Y-1579272D01*
X16220343Y-1584667D01*
X16244906Y-1617481D01*
X16249387Y-1623042D01*
X16273879Y-1651306D01*
X16284372Y-1667634D01*
X16288147Y-1673994D01*
X16297455Y-1691040D01*
X16310529Y-1726092D01*
X16313260Y-1732686D01*
X16328801Y-1766716D01*
X16334270Y-1785345D01*
X16336094Y-1792491D01*
X16340227Y-1811486D01*
X16342894Y-1848786D01*
X16343657Y-1855885D01*
X16349492Y-1896466D01*
X16350000Y-1903570D01*
X16350000Y-2721069D01*
X16349385Y-2728881D01*
X16332877Y-2833109D01*
X16328074Y-2847892D01*
X16281953Y-2938409D01*
X16272817Y-2950983D01*
X16200983Y-3022817D01*
X16188409Y-3031953D01*
X16097892Y-3078074D01*
X16083109Y-3082877D01*
X15978881Y-3099385D01*
X15971069Y-3100000D01*
X15828931Y-3100000D01*
X15821119Y-3099385D01*
X15716891Y-3082877D01*
X15702108Y-3078074D01*
X15611591Y-3031953D01*
X15599017Y-3022817D01*
X15570710Y-2994510D01*
X15514971Y-2966348D01*
X15429290Y-2994510D01*
X15400983Y-3022817D01*
X15388409Y-3031953D01*
X15297891Y-3078074D01*
X15283110Y-3082877D01*
X15265820Y-3085615D01*
X15252426Y-3083447D01*
X15251333Y-3082332D01*
X15250005Y-3076629D01*
X15250005Y-2716018D01*
X15251571Y-2711253D01*
X15273833Y-2700005D01*
X15350001Y-2700005D01*
X15409328Y-2680505D01*
X15450000Y-2600006D01*
X15450000Y-2499994D01*
X15430500Y-2440667D01*
X15350001Y-2399995D01*
X15266018Y-2399995D01*
X15261253Y-2398429D01*
X15250005Y-2376167D01*
X15250005Y-2027893D01*
X15263335Y-1987336D01*
X15267564Y-1981598D01*
X15267560Y-1919148D01*
X15243273Y-1879669D01*
X15092893Y-1729289D01*
X15022183Y-1700000D01*
X11727817Y-1700000D01*
X11657107Y-1729289D01*
X10979289Y-2407107D01*
X10950000Y-2477817D01*
X10950000Y-7626430D01*
X10949492Y-7633536D01*
X10945780Y-7659352D01*
X10959740Y-7726225D01*
X11047929Y-7868656D01*
X11052029Y-7876891D01*
X11121583Y-8056433D01*
X11124107Y-8065301D01*
X11159486Y-8254561D01*
X11160335Y-8263726D01*
X11160335Y-8456274D01*
X11159486Y-8465439D01*
X11124107Y-8654699D01*
X11121583Y-8663567D01*
X11052029Y-8843109D01*
X11047931Y-8851339D01*
X10946564Y-9015053D01*
X10941018Y-9022397D01*
X10811305Y-9164684D01*
X10804492Y-9170896D01*
X10650843Y-9286926D01*
X10643013Y-9291774D01*
X10470663Y-9377594D01*
X10462069Y-9380924D01*
X10276874Y-9433616D01*
X10267825Y-9435308D01*
X10073805Y-9453286D01*
X10069189Y-9453500D01*
X9470811Y-9453500D01*
X9466195Y-9453286D01*
X9272175Y-9435308D01*
X9263126Y-9433616D01*
X9077931Y-9380924D01*
X9069337Y-9377594D01*
X8896987Y-9291774D01*
X8889157Y-9286926D01*
X8765590Y-9193613D01*
X8706494Y-9173422D01*
X8646944Y-9192228D01*
X8610222Y-9242512D01*
X8606743Y-9253220D01*
X8571277Y-9322826D01*
X8562142Y-9335399D01*
X8506899Y-9390642D01*
X8494326Y-9399777D01*
X8424718Y-9435244D01*
X8409931Y-9440048D01*
X8328882Y-9452885D01*
X8321069Y-9453500D01*
X6138931Y-9453500D01*
X6138931Y-10149903D01*
X6188695Y-10095316D01*
X6195508Y-10089104D01*
X6349157Y-9973074D01*
X6356987Y-9968226D01*
X6529337Y-9882406D01*
X6537931Y-9879076D01*
X6723126Y-9826384D01*
X6732175Y-9824692D01*
X6926195Y-9806714D01*
X6930811Y-9806500D01*
X7529189Y-9806500D01*
X7533805Y-9806714D01*
X7727825Y-9824692D01*
X7736874Y-9826384D01*
X7922069Y-9879076D01*
X7930663Y-9882406D01*
X8103013Y-9968226D01*
X8110843Y-9973074D01*
X8264492Y-10089104D01*
X8271305Y-10095316D01*
X8401018Y-10237603D01*
X8406567Y-10244951D01*
X8414980Y-10258538D01*
X8462791Y-10298713D01*
X8525114Y-10302688D01*
X8585020Y-10258538D01*
X8593433Y-10244951D01*
X8598982Y-10237603D01*
X8728695Y-10095316D01*
X8735508Y-10089104D01*
X8889157Y-9973074D01*
X8896987Y-9968226D01*
X9069337Y-9882406D01*
X9077931Y-9879076D01*
X9263126Y-9826384D01*
X9272175Y-9824692D01*
X9466195Y-9806714D01*
X9470811Y-9806500D01*
X10069189Y-9806500D01*
X10073805Y-9806714D01*
X10267825Y-9824692D01*
X10276874Y-9826384D01*
X10462069Y-9879076D01*
X10470663Y-9882406D01*
X10643013Y-9968226D01*
X10650843Y-9973074D01*
X10804492Y-10089104D01*
X10811305Y-10095316D01*
X10941018Y-10237603D01*
X10946564Y-10244947D01*
X11044206Y-10402644D01*
X11092017Y-10442819D01*
X11129227Y-10450000D01*
X12122183Y-10450000D01*
X12192893Y-10420711D01*
X12853931Y-9759673D01*
X12853931Y-7950000D01*
X12846118Y-7949385D01*
X12765069Y-7936548D01*
X12750282Y-7931744D01*
X12680674Y-7896277D01*
X12668101Y-7887142D01*
X12612858Y-7831899D01*
X12603723Y-7819326D01*
X12568256Y-7749718D01*
X12563452Y-7734931D01*
X12550615Y-7653882D01*
X12550000Y-7646069D01*
X12550000Y-7416018D01*
X12551566Y-7411253D01*
X12566013Y-7403953D01*
X12566013Y-7099995D01*
X12561248Y-7098429D01*
X12550000Y-7076167D01*
X12550000Y-6853931D01*
X12550615Y-6846118D01*
X12563452Y-6765069D01*
X12568256Y-6750282D01*
X12603723Y-6680674D01*
X12612858Y-6668101D01*
X12668101Y-6612858D01*
X12680674Y-6603723D01*
X12750282Y-6568256D01*
X12765069Y-6563452D01*
X12846118Y-6550615D01*
X12853931Y-6550000D01*
X13058982Y-6550000D01*
X13063747Y-6551566D01*
X13074995Y-6573828D01*
X13074995Y-6850000D01*
X12850000Y-6850000D01*
X12850000Y-7099995D01*
X12566013Y-7099995D01*
X12566013Y-7403953D01*
X12573828Y-7400005D01*
X12850000Y-7400005D01*
X12850000Y-7650000D01*
X13074995Y-7650000D01*
X13074995Y-7933987D01*
X13073429Y-7938752D01*
X13051167Y-7950000D01*
X12853931Y-7950000D01*
X12853931Y-9759673D01*
X13391018Y-9222586D01*
X13391018Y-7950000D01*
X13386253Y-7948434D01*
X13375005Y-7926172D01*
X13375005Y-7650000D01*
X13600000Y-7650000D01*
X13600000Y-7400005D01*
X13600000Y-7099995D01*
X13600000Y-6850000D01*
X13375005Y-6850000D01*
X13375005Y-6566013D01*
X13376571Y-6561248D01*
X13398833Y-6550000D01*
X13596069Y-6550000D01*
X13603882Y-6550615D01*
X13684931Y-6563452D01*
X13699718Y-6568256D01*
X13769326Y-6603723D01*
X13781899Y-6612858D01*
X13837142Y-6668101D01*
X13846277Y-6680674D01*
X13881744Y-6750282D01*
X13886548Y-6765069D01*
X13899385Y-6846118D01*
X13900000Y-6853931D01*
X13900000Y-7083982D01*
X13898434Y-7088747D01*
X13876172Y-7099995D01*
X13600000Y-7099995D01*
X13600000Y-7400005D01*
X13883987Y-7400005D01*
X13888752Y-7401571D01*
X13900000Y-7423833D01*
X13900000Y-7646069D01*
X13899385Y-7653882D01*
X13886548Y-7734931D01*
X13881744Y-7749718D01*
X13846277Y-7819326D01*
X13837142Y-7831899D01*
X13781899Y-7887142D01*
X13769326Y-7896277D01*
X13699718Y-7931744D01*
X13684931Y-7936548D01*
X13603882Y-7949385D01*
X13596069Y-7950000D01*
X13391018Y-7950000D01*
X13391018Y-9222586D01*
X14492895Y-8120709D01*
X14521057Y-8064970D01*
X14510659Y-8003392D01*
X14465755Y-7959991D01*
X14422185Y-7950000D01*
X14403931Y-7950000D01*
X14396118Y-7949385D01*
X14315069Y-7936548D01*
X14300282Y-7931744D01*
X14230674Y-7896277D01*
X14218101Y-7887142D01*
X14162858Y-7831899D01*
X14153723Y-7819326D01*
X14118256Y-7749718D01*
X14113452Y-7734931D01*
X14100615Y-7653882D01*
X14100000Y-7646069D01*
X14100000Y-6853931D01*
X14100615Y-6846118D01*
X14113452Y-6765069D01*
X14118256Y-6750282D01*
X14153723Y-6680674D01*
X14162858Y-6668101D01*
X14218101Y-6612858D01*
X14230674Y-6603723D01*
X14300282Y-6568256D01*
X14315069Y-6563452D01*
X14396118Y-6550615D01*
X14403931Y-6550000D01*
X14450001Y-6550000D01*
X14509328Y-6530500D01*
X14550000Y-6450001D01*
X14550000Y-4053570D01*
X14550508Y-4046466D01*
X14556340Y-4005907D01*
X14557103Y-3998808D01*
X14559773Y-3961481D01*
X14563890Y-3942552D01*
X14565734Y-3935327D01*
X14571198Y-3916716D01*
X14586729Y-3882707D01*
X14589460Y-3876114D01*
X14602543Y-3841037D01*
X14611818Y-3824054D01*
X14615618Y-3817647D01*
X14626120Y-3801306D01*
X14631522Y-3795072D01*
X14654715Y-3745232D01*
X14667123Y-3666890D01*
X14671926Y-3652109D01*
X14718047Y-3561591D01*
X14727183Y-3549017D01*
X14799017Y-3477183D01*
X14811591Y-3468047D01*
X14902108Y-3421926D01*
X14916891Y-3417123D01*
X14938644Y-3413677D01*
X14938644Y-3086322D01*
X14916890Y-3082877D01*
X14902109Y-3078074D01*
X14811591Y-3031953D01*
X14799017Y-3022817D01*
X14727183Y-2950983D01*
X14718047Y-2938409D01*
X14671926Y-2847892D01*
X14667123Y-2833109D01*
X14650615Y-2728881D01*
X14650000Y-2721069D01*
X14650000Y-2716018D01*
X14651566Y-2711253D01*
X14666013Y-2703953D01*
X14666013Y-2399995D01*
X14661248Y-2398429D01*
X14650188Y-2376539D01*
X14650615Y-2371119D01*
X14667123Y-2266891D01*
X14671926Y-2252108D01*
X14718047Y-2161591D01*
X14727183Y-2149017D01*
X14799017Y-2077183D01*
X14811591Y-2068047D01*
X14902109Y-2021926D01*
X14916890Y-2017123D01*
X14934180Y-2014385D01*
X14947574Y-2016553D01*
X14948667Y-2017668D01*
X14949995Y-2023371D01*
X14949995Y-2383982D01*
X14948429Y-2388747D01*
X14926167Y-2399995D01*
X14666013Y-2399995D01*
X14666013Y-2703953D01*
X14673828Y-2700005D01*
X14933982Y-2700005D01*
X14938747Y-2701571D01*
X14949995Y-2723833D01*
X14949995Y-3072107D01*
X14945758Y-3084997D01*
X14944484Y-3085903D01*
X14938644Y-3086322D01*
X14938644Y-3413677D01*
X15021119Y-3400615D01*
X15025000Y-3400309D01*
X15028931Y-3400000D01*
X15171069Y-3400000D01*
X15178881Y-3400615D01*
X15283109Y-3417123D01*
X15297892Y-3421926D01*
X15388409Y-3468047D01*
X15400983Y-3477183D01*
X15429290Y-3505490D01*
X15485029Y-3533652D01*
X15570710Y-3505490D01*
X15599017Y-3477183D01*
X15611591Y-3468047D01*
X15702108Y-3421926D01*
X15716891Y-3417123D01*
X15821119Y-3400615D01*
X15828931Y-3400000D01*
X15971069Y-3400000D01*
X15978881Y-3400615D01*
X16083109Y-3417123D01*
X16097892Y-3421926D01*
X16188409Y-3468047D01*
X16200983Y-3477183D01*
X16272817Y-3549017D01*
X16281953Y-3561591D01*
X16328074Y-3652108D01*
X16332877Y-3666891D01*
X16349385Y-3771119D01*
X16350000Y-3778931D01*
X16350000Y-4121069D01*
X16349385Y-4128881D01*
X16332877Y-4233109D01*
X16328074Y-4247892D01*
X16281953Y-4338409D01*
X16272817Y-4350983D01*
X16229289Y-4394511D01*
X16200000Y-4465221D01*
X16200000Y-6450001D01*
X16219500Y-6509328D01*
X16299999Y-6550000D01*
X16346069Y-6550000D01*
X16353882Y-6550615D01*
X16434931Y-6563452D01*
X16449718Y-6568256D01*
X16519326Y-6603723D01*
X16531899Y-6612858D01*
X16587142Y-6668101D01*
X16596277Y-6680674D01*
X16631744Y-6750282D01*
X16636548Y-6765069D01*
X16649385Y-6846118D01*
X16650000Y-6853931D01*
X16650000Y-7646069D01*
X16649385Y-7653882D01*
X16636548Y-7734931D01*
X16631744Y-7749718D01*
X16596277Y-7819326D01*
X16587142Y-7831899D01*
X16531899Y-7887142D01*
X16519326Y-7896277D01*
X16449718Y-7931744D01*
X16434931Y-7936548D01*
X16353882Y-7949385D01*
X16346069Y-7950000D01*
X16299999Y-7950000D01*
X16240672Y-7969500D01*
X16200000Y-8049999D01*
X16200000Y-9496430D01*
X16199492Y-9503534D01*
X16193659Y-9544101D01*
X16192896Y-9551200D01*
X16190227Y-9588517D01*
X16186104Y-9607470D01*
X16184264Y-9614683D01*
X16178800Y-9633288D01*
X16163262Y-9667312D01*
X16160530Y-9673907D01*
X16147455Y-9708962D01*
X16138174Y-9725959D01*
X16134370Y-9732370D01*
X16123880Y-9748692D01*
X16099390Y-9776955D01*
X16094910Y-9782514D01*
X16070331Y-9815348D01*
X16065674Y-9820723D01*
X12130724Y-13755673D01*
X12125342Y-13760336D01*
X12092514Y-13784911D01*
X12086955Y-13789391D01*
X12058693Y-13813880D01*
X12042376Y-13824366D01*
X12035959Y-13828174D01*
X12018966Y-13837453D01*
X11983903Y-13850531D01*
X11977309Y-13853263D01*
X11943286Y-13868801D01*
X11924685Y-13874263D01*
X11917476Y-13876103D01*
X11898520Y-13880226D01*
X11861213Y-13882894D01*
X11854114Y-13883657D01*
X11813534Y-13889492D01*
X11806430Y-13890000D01*
X11129227Y-13890000D01*
X11069900Y-13909500D01*
X11044206Y-13937356D01*
X10946564Y-14095053D01*
X10941018Y-14102397D01*
X10811305Y-14244684D01*
X10804492Y-14250896D01*
X10650843Y-14366926D01*
X10643013Y-14371774D01*
X10470663Y-14457594D01*
X10462069Y-14460924D01*
X10276874Y-14513616D01*
X10267825Y-14515308D01*
X10073805Y-14533286D01*
X10069189Y-14533500D01*
X9470811Y-14533500D01*
X9466195Y-14533286D01*
X9272175Y-14515308D01*
X9263126Y-14513616D01*
X9077931Y-14460924D01*
X9069337Y-14457594D01*
X8896987Y-14371774D01*
X8889157Y-14366926D01*
X8735508Y-14250896D01*
X8728695Y-14244684D01*
X8598982Y-14102397D01*
X8593433Y-14095049D01*
X8585020Y-14081462D01*
X8537209Y-14041287D01*
X8474886Y-14037312D01*
X8414980Y-14081462D01*
X8406567Y-14095049D01*
X8401018Y-14102397D01*
X8271305Y-14244684D01*
X8264492Y-14250896D01*
X8110843Y-14366926D01*
X8103013Y-14371774D01*
X7930663Y-14457594D01*
X7922069Y-14460924D01*
X7736874Y-14513616D01*
X7727825Y-14515308D01*
X7533805Y-14533286D01*
X7529189Y-14533500D01*
X7396018Y-14533500D01*
X7396018Y-14886500D01*
X7529189Y-14886500D01*
X7533805Y-14886714D01*
X7727825Y-14904692D01*
X7736874Y-14906384D01*
X7922069Y-14959076D01*
X7930663Y-14962406D01*
X8103013Y-15048226D01*
X8110843Y-15053074D01*
X8264492Y-15169104D01*
X8271305Y-15175316D01*
X8401018Y-15317603D01*
X8406567Y-15324951D01*
X8414980Y-15338538D01*
X8462791Y-15378713D01*
X8525114Y-15382688D01*
X8585020Y-15338538D01*
X8593433Y-15324951D01*
X8598982Y-15317603D01*
X8728695Y-15175316D01*
X8735508Y-15169104D01*
X8889157Y-15053074D01*
X8896987Y-15048226D01*
X9069337Y-14962406D01*
X9077931Y-14959076D01*
X9263126Y-14906384D01*
X9272175Y-14904692D01*
X9466195Y-14886714D01*
X9470811Y-14886500D01*
X10069189Y-14886500D01*
X10073805Y-14886714D01*
X10267825Y-14904692D01*
X10276874Y-14906384D01*
X10462069Y-14959076D01*
X10470663Y-14962406D01*
X10643013Y-15048226D01*
X10650843Y-15053074D01*
X10804492Y-15169104D01*
X10811305Y-15175316D01*
X10941018Y-15317603D01*
X10946564Y-15324947D01*
X11047931Y-15488661D01*
X11052029Y-15496891D01*
X11121583Y-15676433D01*
X11124107Y-15685301D01*
X11159486Y-15874561D01*
X11160335Y-15883726D01*
X11160335Y-16076274D01*
X11159486Y-16085439D01*
X11124107Y-16274699D01*
X11121583Y-16283567D01*
X11052029Y-16463109D01*
X11047931Y-16471339D01*
X10946565Y-16635052D01*
X10943026Y-16639738D01*
X10922835Y-16698834D01*
X10941641Y-16758384D01*
X11022827Y-16800000D01*
X11522183Y-16800000D01*
X11592893Y-16770711D01*
X17153931Y-11209673D01*
X17153931Y-7950000D01*
X17146118Y-7949385D01*
X17065069Y-7936548D01*
X17050282Y-7931744D01*
X16980674Y-7896277D01*
X16968101Y-7887142D01*
X16912858Y-7831899D01*
X16903723Y-7819326D01*
X16868256Y-7749718D01*
X16863452Y-7734931D01*
X16850615Y-7653882D01*
X16850000Y-7646069D01*
X16850000Y-7416018D01*
X16851566Y-7411253D01*
X16866013Y-7403953D01*
X16866013Y-7099995D01*
X16861248Y-7098429D01*
X16850000Y-7076167D01*
X16850000Y-6853931D01*
X16850615Y-6846118D01*
X16863452Y-6765069D01*
X16868256Y-6750282D01*
X16903723Y-6680674D01*
X16912858Y-6668101D01*
X16968101Y-6612858D01*
X16980674Y-6603723D01*
X17050282Y-6568256D01*
X17065069Y-6563452D01*
X17146118Y-6550615D01*
X17153931Y-6550000D01*
X17358982Y-6550000D01*
X17363747Y-6551566D01*
X17374995Y-6573828D01*
X17374995Y-6850000D01*
X17150000Y-6850000D01*
X17150000Y-7099995D01*
X16866013Y-7099995D01*
X16866013Y-7403953D01*
X16873828Y-7400005D01*
X17150000Y-7400005D01*
X17150000Y-7650000D01*
X17374995Y-7650000D01*
X17374995Y-7933987D01*
X17373429Y-7938752D01*
X17351167Y-7950000D01*
X17153931Y-7950000D01*
X17153931Y-11209673D01*
X17691018Y-10672586D01*
X17691018Y-7950000D01*
X17686253Y-7948434D01*
X17675005Y-7926172D01*
X17675005Y-7650000D01*
X17900000Y-7650000D01*
X17900000Y-7400005D01*
X17900000Y-7099995D01*
X17900000Y-6850000D01*
X17675005Y-6850000D01*
X17675005Y-6566013D01*
X17676571Y-6561248D01*
X17698833Y-6550000D01*
X17896069Y-6550000D01*
X17903882Y-6550615D01*
X17984931Y-6563452D01*
X17999718Y-6568256D01*
X18069326Y-6603723D01*
X18081899Y-6612858D01*
X18137142Y-6668101D01*
X18146277Y-6680674D01*
X18181744Y-6750282D01*
X18186548Y-6765069D01*
X18199385Y-6846118D01*
X18200000Y-6853931D01*
X18200000Y-7083982D01*
X18198434Y-7088747D01*
X18176172Y-7099995D01*
X17900000Y-7099995D01*
X17900000Y-7400005D01*
X18183987Y-7400005D01*
X18188752Y-7401571D01*
X18200000Y-7423833D01*
X18200000Y-7646069D01*
X18199385Y-7653882D01*
X18186548Y-7734931D01*
X18181744Y-7749718D01*
X18146277Y-7819326D01*
X18137142Y-7831899D01*
X18081899Y-7887142D01*
X18069326Y-7896277D01*
X17999718Y-7931744D01*
X17984931Y-7936548D01*
X17903882Y-7949385D01*
X17896069Y-7950000D01*
X17691018Y-7950000D01*
X17691018Y-10672586D01*
X20020711Y-8342893D01*
X20050000Y-8272183D01*
X20050000Y-6008400D01*
X20019869Y-5941459D01*
X20022005Y-5939567D01*
X20010034Y-5926055D01*
X19927888Y-5807045D01*
X19922310Y-5796417D01*
X19871031Y-5661207D01*
X19868159Y-5649554D01*
X19850729Y-5506004D01*
X19850729Y-5493996D01*
X19868159Y-5350446D01*
X19871031Y-5338793D01*
X19922310Y-5203583D01*
X19927888Y-5192955D01*
X20010034Y-5073945D01*
X20017994Y-5064960D01*
X20126230Y-4969072D01*
X20136113Y-4962249D01*
X20264149Y-4895051D01*
X20275385Y-4890790D01*
X20415774Y-4856188D01*
X20427703Y-4854739D01*
X20572297Y-4854739D01*
X20584226Y-4856188D01*
X20724615Y-4890790D01*
X20735851Y-4895051D01*
X20863887Y-4962249D01*
X20873770Y-4969072D01*
X20982006Y-5064960D01*
X20989966Y-5073945D01*
X21072112Y-5192955D01*
X21077690Y-5203583D01*
X21128969Y-5338793D01*
X21131841Y-5350446D01*
X21149271Y-5493996D01*
X21149271Y-5506004D01*
X21131841Y-5649554D01*
X21128969Y-5661207D01*
X21077690Y-5796417D01*
X21072112Y-5807045D01*
X20989966Y-5926055D01*
X20977995Y-5939567D01*
X20980131Y-5941459D01*
X20950000Y-6008400D01*
X20950000Y-8496430D01*
X20949492Y-8503534D01*
X20943657Y-8544115D01*
X20942894Y-8551214D01*
X20940227Y-8588514D01*
X20936094Y-8607509D01*
X20934270Y-8614655D01*
X20928801Y-8633284D01*
X20913260Y-8667314D01*
X20910529Y-8673908D01*
X20897455Y-8708960D01*
X20888147Y-8726006D01*
X20884372Y-8732366D01*
X20873879Y-8748694D01*
X20849387Y-8776958D01*
X20844906Y-8782519D01*
X20820343Y-8815333D01*
X20815668Y-8820728D01*
X12070728Y-17565668D01*
X12065333Y-17570343D01*
X12032519Y-17594906D01*
X12026958Y-17599387D01*
X11998694Y-17623879D01*
X11982366Y-17634372D01*
X11976006Y-17638147D01*
X11958960Y-17647455D01*
X11923908Y-17660529D01*
X11917314Y-17663260D01*
X11883284Y-17678801D01*
X11864655Y-17684270D01*
X11857509Y-17686094D01*
X11838514Y-17690227D01*
X11801214Y-17692894D01*
X11794115Y-17693657D01*
X11753534Y-17699492D01*
X11746430Y-17700000D01*
X11022827Y-17700000D01*
X10963500Y-17719500D01*
X10927311Y-17770395D01*
X10943026Y-17860262D01*
X10946565Y-17864948D01*
X11047931Y-18028661D01*
X11052029Y-18036891D01*
X11121583Y-18216433D01*
X11124107Y-18225301D01*
X11148213Y-18354255D01*
X11146417Y-18367704D01*
X11145852Y-18368289D01*
X11138960Y-18369995D01*
X10848098Y-18369995D01*
X10845105Y-18343430D01*
X10786419Y-18175713D01*
X10691883Y-18025261D01*
X10566239Y-17899617D01*
X10415787Y-17805081D01*
X10248070Y-17746395D01*
X10071500Y-17726500D01*
X9468500Y-17726500D01*
X9291930Y-17746395D01*
X9124213Y-17805081D01*
X8973761Y-17899617D01*
X8848117Y-18025261D01*
X8753581Y-18175713D01*
X8694895Y-18343430D01*
X8675000Y-18520000D01*
X8694895Y-18696570D01*
X8753581Y-18864287D01*
X8848117Y-19014739D01*
X8973761Y-19140383D01*
X9124213Y-19234919D01*
X9291930Y-19293605D01*
X9468500Y-19313500D01*
X10071500Y-19313500D01*
X10248070Y-19293605D01*
X10415787Y-19234919D01*
X10566239Y-19140383D01*
X10691883Y-19014739D01*
X10786419Y-18864287D01*
X10845105Y-18696570D01*
X10848098Y-18670005D01*
X11135142Y-18670005D01*
X11148032Y-18674242D01*
X11148503Y-18674905D01*
X11148914Y-18681994D01*
X11124107Y-18814699D01*
X11121583Y-18823567D01*
X11052029Y-19003109D01*
X11047931Y-19011339D01*
X10963712Y-19147358D01*
X10949060Y-19208065D01*
X10973280Y-19265626D01*
X11048733Y-19300000D01*
X11522183Y-19300000D01*
X11592893Y-19270711D01*
X17679272Y-13184332D01*
X17684667Y-13179657D01*
X17717481Y-13155094D01*
X17723042Y-13150613D01*
X17751306Y-13126121D01*
X17767634Y-13115628D01*
X17773994Y-13111853D01*
X17791040Y-13102545D01*
X17826092Y-13089471D01*
X17832686Y-13086740D01*
X17866716Y-13071199D01*
X17885345Y-13065730D01*
X17892491Y-13063906D01*
X17911486Y-13059773D01*
X17948786Y-13057106D01*
X17955885Y-13056343D01*
X17996466Y-13050508D01*
X18003570Y-13050000D01*
X19996956Y-13050000D01*
X20063268Y-13024851D01*
X20126230Y-12969072D01*
X20136113Y-12962249D01*
X20264149Y-12895051D01*
X20275385Y-12890790D01*
X20415774Y-12856188D01*
X20427703Y-12854739D01*
X20572297Y-12854739D01*
X20584226Y-12856188D01*
X20724615Y-12890790D01*
X20735851Y-12895051D01*
X20863887Y-12962249D01*
X20873770Y-12969072D01*
X20982006Y-13064960D01*
X20989966Y-13073945D01*
X21072112Y-13192955D01*
X21077690Y-13203583D01*
X21128969Y-13338793D01*
X21131841Y-13350446D01*
X21149271Y-13493996D01*
X21149271Y-13506004D01*
X21131841Y-13649554D01*
X21128969Y-13661207D01*
X21077690Y-13796417D01*
X21072112Y-13807045D01*
X20989966Y-13926055D01*
X20982006Y-13935040D01*
X20873770Y-14030928D01*
X20863887Y-14037751D01*
X20735851Y-14104949D01*
X20724615Y-14109210D01*
X20584226Y-14143812D01*
X20572297Y-14145261D01*
X20427703Y-14145261D01*
X20415774Y-14143812D01*
X20275385Y-14109210D01*
X20264149Y-14104949D01*
X20136113Y-14037751D01*
X20126230Y-14030928D01*
X20063268Y-13975149D01*
X19996956Y-13950000D01*
X18227817Y-13950000D01*
X18157107Y-13979289D01*
X12070728Y-20065668D01*
X12065333Y-20070343D01*
X12032519Y-20094906D01*
X12026958Y-20099387D01*
X11998694Y-20123879D01*
X11982366Y-20134372D01*
X11976006Y-20138147D01*
X11958960Y-20147455D01*
X11923908Y-20160529D01*
X11917314Y-20163260D01*
X11883284Y-20178801D01*
X11864655Y-20184270D01*
X11857509Y-20186094D01*
X11838514Y-20190227D01*
X11801214Y-20192894D01*
X11794115Y-20193657D01*
X11753534Y-20199492D01*
X11746430Y-20200000D01*
X10987355Y-20200000D01*
X10928028Y-20219500D01*
X10891839Y-20270395D01*
X10892901Y-20332836D01*
X10913455Y-20367368D01*
X10941018Y-20397603D01*
X10946564Y-20404947D01*
X11047931Y-20568661D01*
X11052029Y-20576891D01*
X11121583Y-20756433D01*
X11124107Y-20765301D01*
X11159486Y-20954561D01*
X11160335Y-20963726D01*
X11160335Y-21156274D01*
X11159486Y-21165439D01*
X11124107Y-21354699D01*
X11121583Y-21363567D01*
X11052029Y-21543109D01*
X11047931Y-21551339D01*
X10946564Y-21715053D01*
X10941018Y-21722397D01*
X10811305Y-21864684D01*
X10804492Y-21870896D01*
X10650843Y-21986926D01*
X10643013Y-21991774D01*
X10470663Y-22077594D01*
X10462069Y-22080924D01*
X10276874Y-22133616D01*
X10267825Y-22135308D01*
X10073805Y-22153286D01*
X10069189Y-22153500D01*
X9470811Y-22153500D01*
X9466195Y-22153286D01*
X9272175Y-22135308D01*
X9263126Y-22133616D01*
X9077931Y-22080924D01*
X9069337Y-22077594D01*
X8896987Y-21991774D01*
X8889157Y-21986926D01*
X8735508Y-21870896D01*
X8728695Y-21864684D01*
X8598982Y-21722397D01*
X8593433Y-21715049D01*
X8585020Y-21701462D01*
X8537209Y-21661287D01*
X8474886Y-21657312D01*
X8414980Y-21701462D01*
X8406567Y-21715049D01*
X8401018Y-21722397D01*
X8271305Y-21864684D01*
X8264492Y-21870896D01*
X8110843Y-21986926D01*
X8103013Y-21991774D01*
X7930663Y-22077594D01*
X7922069Y-22080924D01*
X7736874Y-22133616D01*
X7727825Y-22135308D01*
X7533805Y-22153286D01*
X7529189Y-22153500D01*
X6930811Y-22153500D01*
X6930811Y-22506500D01*
X7063982Y-22506500D01*
X7068747Y-22508066D01*
X7079995Y-22530328D01*
X7079995Y-22806500D01*
X6928500Y-22806500D01*
X6751930Y-22826395D01*
X6584213Y-22885081D01*
X6433761Y-22979617D01*
X6308117Y-23105261D01*
X6213581Y-23255713D01*
X6154895Y-23423430D01*
X6151902Y-23449995D01*
X5864858Y-23449995D01*
X5864858Y-23750005D01*
X6151902Y-23750005D01*
X6154895Y-23776570D01*
X6213581Y-23944287D01*
X6308117Y-24094739D01*
X6433761Y-24220383D01*
X6584213Y-24314919D01*
X6751930Y-24373605D01*
X6928500Y-24393500D01*
X7079995Y-24393500D01*
X7079995Y-24677487D01*
X7078429Y-24682252D01*
X7056167Y-24693500D01*
X6930811Y-24693500D01*
X6930811Y-25046500D01*
X7529189Y-25046500D01*
X7533805Y-25046714D01*
X7627163Y-25055365D01*
X7707100Y-25026503D01*
X7916217Y-24817386D01*
X7944379Y-24761647D01*
X7933981Y-24700069D01*
X7889077Y-24656668D01*
X7818141Y-24650494D01*
X7736874Y-24673616D01*
X7727825Y-24675308D01*
X7533805Y-24693286D01*
X7529189Y-24693500D01*
X7396018Y-24693500D01*
X7391253Y-24691934D01*
X7380005Y-24669672D01*
X7380005Y-24393500D01*
X7531500Y-24393500D01*
X7708070Y-24373605D01*
X7875787Y-24314919D01*
X8026239Y-24220383D01*
X8151883Y-24094739D01*
X8246419Y-23944287D01*
X8305105Y-23776570D01*
X8325000Y-23600000D01*
X8305105Y-23423430D01*
X8246419Y-23255713D01*
X8151883Y-23105261D01*
X8026239Y-22979617D01*
X7875787Y-22885081D01*
X7708070Y-22826395D01*
X7531500Y-22806500D01*
X7380005Y-22806500D01*
X7380005Y-22522513D01*
X7381571Y-22517748D01*
X7403833Y-22506500D01*
X7529189Y-22506500D01*
X7533805Y-22506714D01*
X7727825Y-22524692D01*
X7736874Y-22526384D01*
X7922069Y-22579076D01*
X7930663Y-22582406D01*
X8103013Y-22668226D01*
X8110843Y-22673074D01*
X8264492Y-22789104D01*
X8271305Y-22795316D01*
X8401018Y-22937603D01*
X8406567Y-22944951D01*
X8414980Y-22958538D01*
X8462791Y-22998713D01*
X8525114Y-23002688D01*
X8585020Y-22958538D01*
X8593433Y-22944951D01*
X8598982Y-22937603D01*
X8728695Y-22795316D01*
X8735508Y-22789104D01*
X8889157Y-22673074D01*
X8896987Y-22668226D01*
X9069337Y-22582406D01*
X9077931Y-22579076D01*
X9263126Y-22526384D01*
X9272175Y-22524692D01*
X9466195Y-22506714D01*
X9470811Y-22506500D01*
X10069189Y-22506500D01*
X10073805Y-22506714D01*
X10267825Y-22524692D01*
X10276874Y-22526384D01*
X10462069Y-22579076D01*
X10470663Y-22582406D01*
X10643013Y-22668226D01*
X10650843Y-22673074D01*
X10804492Y-22789104D01*
X10811305Y-22795316D01*
X10941018Y-22937603D01*
X10946564Y-22944947D01*
X11047931Y-23108661D01*
X11052029Y-23116891D01*
X11121583Y-23296433D01*
X11124107Y-23305301D01*
X11159486Y-23494561D01*
X11160335Y-23503726D01*
X11160335Y-23696274D01*
X11159486Y-23705439D01*
X11124107Y-23894699D01*
X11121583Y-23903567D01*
X11052029Y-24083109D01*
X11047931Y-24091339D01*
X10946564Y-24255053D01*
X10941018Y-24262397D01*
X10831409Y-24382632D01*
X10805851Y-24439612D01*
X10819082Y-24500644D01*
X10865942Y-24541925D01*
X10905309Y-24550000D01*
X11522182Y-24550000D01*
X11592892Y-24520711D01*
X14929275Y-21184328D01*
X14934659Y-21179662D01*
X14967486Y-21155088D01*
X14973043Y-21150610D01*
X15001307Y-21126119D01*
X15017618Y-21115636D01*
X15024019Y-21111838D01*
X15041041Y-21102544D01*
X15076098Y-21089468D01*
X15082694Y-21086736D01*
X15116715Y-21071199D01*
X15135343Y-21065729D01*
X15142497Y-21063903D01*
X15161484Y-21059772D01*
X15198801Y-21057104D01*
X15205900Y-21056341D01*
X15246466Y-21050508D01*
X15253570Y-21050000D01*
X19996956Y-21050000D01*
X20063268Y-21024851D01*
X20126230Y-20969072D01*
X20136113Y-20962249D01*
X20264149Y-20895051D01*
X20275385Y-20890790D01*
X20415774Y-20856188D01*
X20427703Y-20854739D01*
X20572297Y-20854739D01*
X20584226Y-20856188D01*
X20724615Y-20890790D01*
X20735851Y-20895051D01*
X20863887Y-20962249D01*
X20873770Y-20969072D01*
X20982006Y-21064960D01*
X20989966Y-21073945D01*
X21072112Y-21192955D01*
X21077690Y-21203583D01*
X21128969Y-21338793D01*
X21131841Y-21350446D01*
X21149271Y-21493996D01*
X21149271Y-21506004D01*
X21131841Y-21649554D01*
X21128969Y-21661207D01*
X21077690Y-21796417D01*
X21072112Y-21807045D01*
X20989966Y-21926055D01*
X20982006Y-21935040D01*
X20873770Y-22030928D01*
X20863887Y-22037751D01*
X20735851Y-22104949D01*
X20724615Y-22109210D01*
X20584226Y-22143812D01*
X20572297Y-22145261D01*
X20427703Y-22145261D01*
X20415774Y-22143812D01*
X20275385Y-22109210D01*
X20264149Y-22104949D01*
X20136113Y-22037751D01*
X20126230Y-22030928D01*
X20063268Y-21975149D01*
X19996956Y-21950000D01*
X15477818Y-21950000D01*
X15407108Y-21979289D01*
X12070725Y-25315672D01*
X12065341Y-25320338D01*
X12032514Y-25344912D01*
X12026957Y-25349390D01*
X11998693Y-25373881D01*
X11982382Y-25384364D01*
X11975981Y-25388162D01*
X11958959Y-25397456D01*
X11923907Y-25410530D01*
X11917312Y-25413262D01*
X11883291Y-25428799D01*
X11864667Y-25434267D01*
X11857481Y-25436101D01*
X11838519Y-25440226D01*
X11801206Y-25442895D01*
X11794108Y-25443658D01*
X11753534Y-25449492D01*
X11746430Y-25450000D01*
X11104459Y-25450000D01*
X11045132Y-25469500D01*
X11008943Y-25520395D01*
X11019438Y-25602641D01*
X11047929Y-25648655D01*
X11052029Y-25656891D01*
X11121583Y-25836433D01*
X11124107Y-25845301D01*
X11159486Y-26034561D01*
X11160335Y-26043726D01*
X11160335Y-26236274D01*
X11159486Y-26245439D01*
X11124107Y-26434699D01*
X11121583Y-26443567D01*
X11052029Y-26623109D01*
X11047931Y-26631339D01*
X10946564Y-26795053D01*
X10941018Y-26802397D01*
X10811305Y-26944684D01*
X10804492Y-26950896D01*
X10650843Y-27066926D01*
X10643013Y-27071774D01*
X10470663Y-27157594D01*
X10462069Y-27160924D01*
X10276874Y-27213616D01*
X10267825Y-27215308D01*
X10073805Y-27233286D01*
X10069189Y-27233500D01*
X9470811Y-27233500D01*
X9466195Y-27233286D01*
X9272175Y-27215308D01*
X9263126Y-27213616D01*
X9077931Y-27160924D01*
X9069337Y-27157594D01*
X8896987Y-27071774D01*
X8889157Y-27066926D01*
X8735508Y-26950896D01*
X8728695Y-26944684D01*
X8598982Y-26802397D01*
X8593433Y-26795049D01*
X8585020Y-26781462D01*
X8537209Y-26741287D01*
X8474886Y-26737312D01*
X8414980Y-26781462D01*
X8406567Y-26795049D01*
X8401018Y-26802397D01*
X8271305Y-26944684D01*
X8264492Y-26950896D01*
X8110843Y-27066926D01*
X8103013Y-27071774D01*
X7930663Y-27157594D01*
X7922069Y-27160924D01*
X7736874Y-27213616D01*
X7727825Y-27215308D01*
X7533805Y-27233286D01*
X7529189Y-27233500D01*
X6930811Y-27233500D01*
X6930811Y-60627448D01*
X6984035Y-60529977D01*
X6987884Y-60523988D01*
X7137510Y-60324110D01*
X7142175Y-60318727D01*
X7318727Y-60142175D01*
X7324110Y-60137510D01*
X7523988Y-59987884D01*
X7529977Y-59984035D01*
X7749123Y-59864371D01*
X7755596Y-59861415D01*
X7989538Y-59774160D01*
X7996364Y-59772155D01*
X8240344Y-59719080D01*
X8247399Y-59718066D01*
X8496435Y-59700255D01*
X8503565Y-59700255D01*
X8752601Y-59718066D01*
X8759656Y-59719080D01*
X9003636Y-59772155D01*
X9010462Y-59774160D01*
X9244404Y-59861415D01*
X9250877Y-59864371D01*
X9470023Y-59984035D01*
X9476012Y-59987884D01*
X9675890Y-60137510D01*
X9681273Y-60142175D01*
X9857825Y-60318727D01*
X9862490Y-60324110D01*
X10012116Y-60523988D01*
X10015965Y-60529977D01*
X10135629Y-60749123D01*
X10138585Y-60755596D01*
X10225840Y-60989538D01*
X10227845Y-60996364D01*
X10280920Y-61240344D01*
X10281934Y-61247399D01*
X10299745Y-61496435D01*
X10299745Y-61503565D01*
X10281934Y-61752601D01*
X10280920Y-61759656D01*
X10227845Y-62003636D01*
X10225840Y-62010462D01*
X10138585Y-62244404D01*
X10135629Y-62250877D01*
X10015965Y-62470023D01*
X10012116Y-62476012D01*
X9862490Y-62675890D01*
X9857825Y-62681273D01*
X9681273Y-62857825D01*
X9675890Y-62862490D01*
X9476012Y-63012116D01*
X9470023Y-63015965D01*
X9250877Y-63135629D01*
X9244404Y-63138585D01*
X9010462Y-63225840D01*
X9003636Y-63227845D01*
X8759656Y-63280920D01*
X8752601Y-63281934D01*
X8503565Y-63299745D01*
X8496435Y-63299745D01*
X8496435Y-64700000D01*
X31177703Y-64700000D01*
X31177703Y-54395261D01*
X31165774Y-54393812D01*
X31025385Y-54359210D01*
X31014149Y-54354949D01*
X30886113Y-54287751D01*
X30876230Y-54280928D01*
X30767994Y-54185040D01*
X30760034Y-54176055D01*
X30677888Y-54057045D01*
X30672310Y-54046417D01*
X30621031Y-53911207D01*
X30618159Y-53899554D01*
X30600729Y-53756004D01*
X30600729Y-53743996D01*
X30618159Y-53600446D01*
X30621031Y-53588793D01*
X30672310Y-53453583D01*
X30677888Y-53442955D01*
X30760034Y-53323945D01*
X30772005Y-53310433D01*
X30769869Y-53308541D01*
X30800000Y-53241600D01*
X30800000Y-47768356D01*
X30780500Y-47709029D01*
X30745400Y-47679256D01*
X30680672Y-47646275D01*
X30668101Y-47637142D01*
X30612858Y-47581899D01*
X30603723Y-47569326D01*
X30568255Y-47499715D01*
X30566429Y-47494096D01*
X30529550Y-47443699D01*
X30471325Y-47425000D01*
X29278675Y-47425000D01*
X29219348Y-47444500D01*
X29183571Y-47494096D01*
X29181745Y-47499715D01*
X29146277Y-47569326D01*
X29137142Y-47581899D01*
X29081899Y-47637142D01*
X29069326Y-47646277D01*
X28999718Y-47681744D01*
X28984931Y-47686548D01*
X28903882Y-47699385D01*
X28896069Y-47700000D01*
X28103931Y-47700000D01*
X28096118Y-47699385D01*
X28015069Y-47686548D01*
X28000282Y-47681744D01*
X27930674Y-47646277D01*
X27918101Y-47637142D01*
X27862858Y-47581899D01*
X27853723Y-47569326D01*
X27818256Y-47499718D01*
X27813452Y-47484931D01*
X27800615Y-47403882D01*
X27800000Y-47396069D01*
X27800000Y-46653931D01*
X27800615Y-46646118D01*
X27813452Y-46565069D01*
X27818256Y-46550282D01*
X27853723Y-46480674D01*
X27862858Y-46468101D01*
X27918101Y-46412858D01*
X27930674Y-46403723D01*
X28000282Y-46368256D01*
X28015069Y-46363452D01*
X28096118Y-46350615D01*
X28103931Y-46350000D01*
X28896069Y-46350000D01*
X28903882Y-46350615D01*
X28984931Y-46363452D01*
X28999718Y-46368256D01*
X29069326Y-46403723D01*
X29081899Y-46412858D01*
X29137143Y-46468102D01*
X29148535Y-46483781D01*
X29229434Y-46525000D01*
X30471325Y-46525000D01*
X30530652Y-46505500D01*
X30566429Y-46455904D01*
X30568255Y-46450285D01*
X30603723Y-46380674D01*
X30612858Y-46368101D01*
X30660249Y-46320710D01*
X30688411Y-46264971D01*
X30660249Y-46179290D01*
X30612858Y-46131899D01*
X30603723Y-46119326D01*
X30568255Y-46049715D01*
X30566429Y-46044096D01*
X30529550Y-45993699D01*
X30471325Y-45975000D01*
X29229434Y-45975000D01*
X29148535Y-46016219D01*
X29137143Y-46031898D01*
X29081899Y-46087142D01*
X29069326Y-46096277D01*
X28999718Y-46131744D01*
X28984931Y-46136548D01*
X28903882Y-46149385D01*
X28896069Y-46150000D01*
X28103931Y-46150000D01*
X28096118Y-46149385D01*
X28015069Y-46136548D01*
X28000282Y-46131744D01*
X27930674Y-46096277D01*
X27918101Y-46087142D01*
X27862858Y-46031899D01*
X27853723Y-46019326D01*
X27818256Y-45949718D01*
X27813452Y-45934931D01*
X27800615Y-45853882D01*
X27800000Y-45846069D01*
X27800000Y-45103931D01*
X27800615Y-45096118D01*
X27813452Y-45015069D01*
X27818256Y-45000282D01*
X27853723Y-44930674D01*
X27862858Y-44918101D01*
X27918101Y-44862858D01*
X27930674Y-44853723D01*
X28000282Y-44818256D01*
X28015069Y-44813452D01*
X28096118Y-44800615D01*
X28103931Y-44800000D01*
X28896069Y-44800000D01*
X28903882Y-44800615D01*
X28984931Y-44813452D01*
X28999718Y-44818256D01*
X29069326Y-44853723D01*
X29081899Y-44862858D01*
X29137142Y-44918101D01*
X29146277Y-44930674D01*
X29181745Y-45000285D01*
X29183571Y-45005904D01*
X29220450Y-45056301D01*
X29278675Y-45075000D01*
X29907739Y-45075000D01*
X29907739Y-25795521D01*
X29898574Y-25794672D01*
X29717205Y-25760768D01*
X29708337Y-25758245D01*
X29536281Y-25691589D01*
X29528051Y-25687491D01*
X29371162Y-25590350D01*
X29363818Y-25584804D01*
X29227463Y-25460499D01*
X29221251Y-25453686D01*
X29110057Y-25306443D01*
X29105210Y-25298613D01*
X29022968Y-25133449D01*
X29019638Y-25124855D01*
X28969143Y-24947381D01*
X28967451Y-24938332D01*
X28950427Y-24754608D01*
X28950427Y-24745392D01*
X28967451Y-24561668D01*
X28969143Y-24552619D01*
X29019638Y-24375145D01*
X29022968Y-24366551D01*
X29105210Y-24201387D01*
X29110057Y-24193557D01*
X29221251Y-24046314D01*
X29227463Y-24039501D01*
X29363818Y-23915196D01*
X29371162Y-23909650D01*
X29528051Y-23812509D01*
X29536281Y-23808411D01*
X29708337Y-23741755D01*
X29717205Y-23739232D01*
X29898574Y-23705328D01*
X29907739Y-23704479D01*
X29907739Y-20795521D01*
X29898574Y-20794672D01*
X29717205Y-20760768D01*
X29708337Y-20758245D01*
X29536281Y-20691589D01*
X29528051Y-20687491D01*
X29371162Y-20590350D01*
X29363818Y-20584804D01*
X29227463Y-20460499D01*
X29221251Y-20453686D01*
X29110057Y-20306443D01*
X29105210Y-20298613D01*
X29022968Y-20133449D01*
X29019638Y-20124855D01*
X28969143Y-19947381D01*
X28967451Y-19938332D01*
X28950427Y-19754608D01*
X28950427Y-19745392D01*
X28967451Y-19561668D01*
X28969143Y-19552619D01*
X29019638Y-19375145D01*
X29022968Y-19366551D01*
X29105210Y-19201387D01*
X29110057Y-19193557D01*
X29221251Y-19046314D01*
X29227463Y-19039501D01*
X29363818Y-18915196D01*
X29371162Y-18909650D01*
X29528051Y-18812509D01*
X29536281Y-18808411D01*
X29708337Y-18741755D01*
X29717205Y-18739232D01*
X29898574Y-18705328D01*
X29907739Y-18704479D01*
X29907739Y-17795521D01*
X29898574Y-17794672D01*
X29717205Y-17760768D01*
X29708337Y-17758245D01*
X29536281Y-17691589D01*
X29528051Y-17687491D01*
X29371162Y-17590350D01*
X29363818Y-17584804D01*
X29227463Y-17460499D01*
X29221251Y-17453686D01*
X29110057Y-17306443D01*
X29105210Y-17298613D01*
X29022968Y-17133449D01*
X29019638Y-17124855D01*
X28969143Y-16947381D01*
X28967451Y-16938332D01*
X28950427Y-16754608D01*
X28950427Y-16745392D01*
X28967451Y-16561668D01*
X28969143Y-16552619D01*
X29019638Y-16375145D01*
X29022968Y-16366551D01*
X29105210Y-16201387D01*
X29110057Y-16193557D01*
X29221251Y-16046314D01*
X29227463Y-16039501D01*
X29363818Y-15915196D01*
X29371162Y-15909650D01*
X29528051Y-15812509D01*
X29536281Y-15808411D01*
X29708337Y-15741755D01*
X29717205Y-15739232D01*
X29898574Y-15705328D01*
X29907739Y-15704479D01*
X29907739Y-12795521D01*
X29898574Y-12794672D01*
X29717205Y-12760768D01*
X29708337Y-12758245D01*
X29536281Y-12691589D01*
X29528051Y-12687491D01*
X29371162Y-12590350D01*
X29363818Y-12584804D01*
X29227463Y-12460499D01*
X29221251Y-12453686D01*
X29110057Y-12306443D01*
X29105210Y-12298613D01*
X29022968Y-12133449D01*
X29019638Y-12124855D01*
X28969143Y-11947381D01*
X28967451Y-11938332D01*
X28950427Y-11754608D01*
X28950427Y-11745392D01*
X28967451Y-11561668D01*
X28969143Y-11552619D01*
X29019638Y-11375145D01*
X29022968Y-11366551D01*
X29105210Y-11201387D01*
X29110057Y-11193557D01*
X29221251Y-11046314D01*
X29227463Y-11039501D01*
X29363818Y-10915196D01*
X29371162Y-10909650D01*
X29528051Y-10812509D01*
X29536281Y-10808411D01*
X29708337Y-10741755D01*
X29717205Y-10739232D01*
X29898574Y-10705328D01*
X29907739Y-10704479D01*
X29907739Y-9795521D01*
X29898574Y-9794672D01*
X29717205Y-9760768D01*
X29708337Y-9758245D01*
X29536281Y-9691589D01*
X29528051Y-9687491D01*
X29371162Y-9590350D01*
X29363818Y-9584804D01*
X29227463Y-9460499D01*
X29221251Y-9453686D01*
X29110057Y-9306443D01*
X29105210Y-9298613D01*
X29022968Y-9133449D01*
X29019638Y-9124855D01*
X28969143Y-8947381D01*
X28967451Y-8938332D01*
X28950427Y-8754608D01*
X28950427Y-8745392D01*
X28967451Y-8561668D01*
X28969143Y-8552619D01*
X29019638Y-8375145D01*
X29022968Y-8366551D01*
X29105210Y-8201387D01*
X29110057Y-8193557D01*
X29221251Y-8046314D01*
X29227463Y-8039501D01*
X29363818Y-7915196D01*
X29371162Y-7909650D01*
X29528051Y-7812509D01*
X29536281Y-7808411D01*
X29708337Y-7741755D01*
X29717205Y-7739232D01*
X29898574Y-7705328D01*
X29907739Y-7704479D01*
X29907739Y-4795521D01*
X29898574Y-4794672D01*
X29717205Y-4760768D01*
X29708337Y-4758245D01*
X29536281Y-4691589D01*
X29528051Y-4687491D01*
X29371162Y-4590350D01*
X29363818Y-4584804D01*
X29227463Y-4460499D01*
X29221251Y-4453686D01*
X29110057Y-4306443D01*
X29105210Y-4298613D01*
X29022968Y-4133449D01*
X29019638Y-4124855D01*
X28969143Y-3947381D01*
X28967451Y-3938332D01*
X28950427Y-3754608D01*
X28950427Y-3745392D01*
X28967451Y-3561668D01*
X28969143Y-3552619D01*
X29019638Y-3375145D01*
X29022968Y-3366551D01*
X29105210Y-3201387D01*
X29110057Y-3193557D01*
X29221251Y-3046314D01*
X29227463Y-3039501D01*
X29363818Y-2915196D01*
X29371162Y-2909650D01*
X29528051Y-2812509D01*
X29536281Y-2808411D01*
X29708337Y-2741755D01*
X29717205Y-2739232D01*
X29898574Y-2705328D01*
X29907739Y-2704479D01*
X30092261Y-2704479D01*
X30101426Y-2705328D01*
X30282795Y-2739232D01*
X30291663Y-2741755D01*
X30463719Y-2808411D01*
X30471949Y-2812509D01*
X30628838Y-2909650D01*
X30636182Y-2915196D01*
X30772537Y-3039501D01*
X30778749Y-3046314D01*
X30889943Y-3193557D01*
X30894790Y-3201387D01*
X30977032Y-3366551D01*
X30980362Y-3375145D01*
X31030857Y-3552619D01*
X31032549Y-3561668D01*
X31049573Y-3745392D01*
X31049573Y-3754608D01*
X31032549Y-3938332D01*
X31030857Y-3947381D01*
X30980362Y-4124855D01*
X30977032Y-4133449D01*
X30894790Y-4298613D01*
X30889943Y-4306443D01*
X30778749Y-4453686D01*
X30772537Y-4460499D01*
X30636182Y-4584804D01*
X30628838Y-4590350D01*
X30471949Y-4687491D01*
X30463719Y-4691589D01*
X30291663Y-4758245D01*
X30282795Y-4760768D01*
X30101426Y-4794672D01*
X30092261Y-4795521D01*
X29907739Y-4795521D01*
X29907739Y-7704479D01*
X30092261Y-7704479D01*
X30101426Y-7705328D01*
X30282795Y-7739232D01*
X30291663Y-7741755D01*
X30463719Y-7808411D01*
X30471949Y-7812509D01*
X30628838Y-7909650D01*
X30636182Y-7915196D01*
X30772537Y-8039501D01*
X30778749Y-8046314D01*
X30889943Y-8193557D01*
X30894790Y-8201387D01*
X30977032Y-8366551D01*
X30980362Y-8375145D01*
X31030857Y-8552619D01*
X31032549Y-8561668D01*
X31049573Y-8745392D01*
X31049573Y-8754608D01*
X31032549Y-8938332D01*
X31030857Y-8947381D01*
X30980362Y-9124855D01*
X30977032Y-9133449D01*
X30894790Y-9298613D01*
X30889943Y-9306443D01*
X30778749Y-9453686D01*
X30772537Y-9460499D01*
X30636182Y-9584804D01*
X30628838Y-9590350D01*
X30471949Y-9687491D01*
X30463719Y-9691589D01*
X30291663Y-9758245D01*
X30282795Y-9760768D01*
X30101426Y-9794672D01*
X30092261Y-9795521D01*
X29907739Y-9795521D01*
X29907739Y-10704479D01*
X30092261Y-10704479D01*
X30101426Y-10705328D01*
X30282795Y-10739232D01*
X30291663Y-10741755D01*
X30463719Y-10808411D01*
X30471949Y-10812509D01*
X30628838Y-10909650D01*
X30636182Y-10915196D01*
X30772537Y-11039501D01*
X30778749Y-11046314D01*
X30889943Y-11193557D01*
X30894790Y-11201387D01*
X30977032Y-11366551D01*
X30980362Y-11375145D01*
X31030857Y-11552619D01*
X31032549Y-11561668D01*
X31049573Y-11745392D01*
X31049573Y-11754608D01*
X31032549Y-11938332D01*
X31030857Y-11947381D01*
X30980362Y-12124855D01*
X30977032Y-12133449D01*
X30894790Y-12298613D01*
X30889943Y-12306443D01*
X30778749Y-12453686D01*
X30772537Y-12460499D01*
X30636182Y-12584804D01*
X30628838Y-12590350D01*
X30471949Y-12687491D01*
X30463719Y-12691589D01*
X30291663Y-12758245D01*
X30282795Y-12760768D01*
X30101426Y-12794672D01*
X30092261Y-12795521D01*
X29907739Y-12795521D01*
X29907739Y-15704479D01*
X30092261Y-15704479D01*
X30101426Y-15705328D01*
X30282795Y-15739232D01*
X30291663Y-15741755D01*
X30463719Y-15808411D01*
X30471949Y-15812509D01*
X30628838Y-15909650D01*
X30636182Y-15915196D01*
X30772537Y-16039501D01*
X30778749Y-16046314D01*
X30889943Y-16193557D01*
X30894790Y-16201387D01*
X30977032Y-16366551D01*
X30980362Y-16375145D01*
X31030857Y-16552619D01*
X31032549Y-16561668D01*
X31049573Y-16745392D01*
X31049573Y-16754608D01*
X31032549Y-16938332D01*
X31030857Y-16947381D01*
X30980362Y-17124855D01*
X30977032Y-17133449D01*
X30894790Y-17298613D01*
X30889943Y-17306443D01*
X30778749Y-17453686D01*
X30772537Y-17460499D01*
X30636182Y-17584804D01*
X30628838Y-17590350D01*
X30471949Y-17687491D01*
X30463719Y-17691589D01*
X30291663Y-17758245D01*
X30282795Y-17760768D01*
X30101426Y-17794672D01*
X30092261Y-17795521D01*
X29907739Y-17795521D01*
X29907739Y-18704479D01*
X30092261Y-18704479D01*
X30101426Y-18705328D01*
X30282795Y-18739232D01*
X30291663Y-18741755D01*
X30463719Y-18808411D01*
X30471949Y-18812509D01*
X30628838Y-18909650D01*
X30636182Y-18915196D01*
X30772537Y-19039501D01*
X30778749Y-19046314D01*
X30889943Y-19193557D01*
X30894790Y-19201387D01*
X30977032Y-19366551D01*
X30980362Y-19375145D01*
X31030857Y-19552619D01*
X31032549Y-19561668D01*
X31049573Y-19745392D01*
X31049573Y-19754608D01*
X31032549Y-19938332D01*
X31030857Y-19947381D01*
X30980362Y-20124855D01*
X30977032Y-20133449D01*
X30894790Y-20298613D01*
X30889943Y-20306443D01*
X30778749Y-20453686D01*
X30772537Y-20460499D01*
X30636182Y-20584804D01*
X30628838Y-20590350D01*
X30471949Y-20687491D01*
X30463719Y-20691589D01*
X30291663Y-20758245D01*
X30282795Y-20760768D01*
X30101426Y-20794672D01*
X30092261Y-20795521D01*
X29907739Y-20795521D01*
X29907739Y-23704479D01*
X30092261Y-23704479D01*
X30101426Y-23705328D01*
X30282795Y-23739232D01*
X30291663Y-23741755D01*
X30463719Y-23808411D01*
X30471949Y-23812509D01*
X30628838Y-23909650D01*
X30636182Y-23915196D01*
X30772537Y-24039501D01*
X30778749Y-24046314D01*
X30889943Y-24193557D01*
X30894790Y-24201387D01*
X30977032Y-24366551D01*
X30980362Y-24375145D01*
X31030857Y-24552619D01*
X31032549Y-24561668D01*
X31049573Y-24745392D01*
X31049573Y-24754608D01*
X31032549Y-24938332D01*
X31030857Y-24947381D01*
X30980362Y-25124855D01*
X30977032Y-25133449D01*
X30894790Y-25298613D01*
X30889943Y-25306443D01*
X30778749Y-25453686D01*
X30772537Y-25460499D01*
X30636182Y-25584804D01*
X30628838Y-25590350D01*
X30471949Y-25687491D01*
X30463719Y-25691589D01*
X30291663Y-25758245D01*
X30282795Y-25760768D01*
X30101426Y-25794672D01*
X30092261Y-25795521D01*
X29907739Y-25795521D01*
X29907739Y-45075000D01*
X30471325Y-45075000D01*
X30530652Y-45055500D01*
X30566429Y-45005904D01*
X30568255Y-45000285D01*
X30603723Y-44930674D01*
X30612858Y-44918101D01*
X30668101Y-44862858D01*
X30680674Y-44853723D01*
X30750282Y-44818256D01*
X30765069Y-44813452D01*
X30846118Y-44800615D01*
X30853931Y-44800000D01*
X31646069Y-44800000D01*
X31653880Y-44800615D01*
X31740909Y-44814399D01*
X31827263Y-44786341D01*
X33323719Y-43289885D01*
X33352279Y-43231229D01*
X33368159Y-43100446D01*
X33371031Y-43088793D01*
X33422310Y-42953583D01*
X33427888Y-42942955D01*
X33510034Y-42823945D01*
X33517994Y-42814960D01*
X33626230Y-42719072D01*
X33636113Y-42712249D01*
X33764149Y-42645051D01*
X33775385Y-42640790D01*
X33915774Y-42606188D01*
X33927703Y-42604739D01*
X34072297Y-42604739D01*
X34084226Y-42606188D01*
X34224615Y-42640790D01*
X34235851Y-42645051D01*
X34363887Y-42712249D01*
X34373770Y-42719072D01*
X34482006Y-42814960D01*
X34489966Y-42823945D01*
X34572112Y-42942955D01*
X34577690Y-42953583D01*
X34628969Y-43088793D01*
X34631841Y-43100446D01*
X34649271Y-43243996D01*
X34649271Y-43256004D01*
X34631841Y-43399554D01*
X34628969Y-43411207D01*
X34577690Y-43546417D01*
X34572112Y-43557045D01*
X34489966Y-43676055D01*
X34482006Y-43685040D01*
X34373770Y-43780928D01*
X34363887Y-43787751D01*
X34235851Y-43854949D01*
X34224615Y-43859210D01*
X34084226Y-43893812D01*
X34072297Y-43895261D01*
X34032556Y-43895261D01*
X33961846Y-43924550D01*
X32045725Y-45840671D01*
X32040343Y-45845334D01*
X32007526Y-45869901D01*
X32001966Y-45874382D01*
X31983189Y-45890653D01*
X31949908Y-45950582D01*
X31936548Y-46034932D01*
X31931744Y-46049718D01*
X31896277Y-46119326D01*
X31887142Y-46131899D01*
X31839751Y-46179290D01*
X31811589Y-46235029D01*
X31839751Y-46320710D01*
X31887142Y-46368101D01*
X31896277Y-46380674D01*
X31931744Y-46450282D01*
X31936548Y-46465069D01*
X31949385Y-46546118D01*
X31950000Y-46553931D01*
X31950000Y-47396069D01*
X31949385Y-47403882D01*
X31936548Y-47484931D01*
X31931744Y-47499718D01*
X31896277Y-47569326D01*
X31887142Y-47581899D01*
X31831899Y-47637142D01*
X31819328Y-47646275D01*
X31754600Y-47679256D01*
X31710592Y-47723565D01*
X31700000Y-47768356D01*
X31700000Y-53241600D01*
X31730131Y-53308541D01*
X31727995Y-53310433D01*
X31739966Y-53323945D01*
X31822112Y-53442955D01*
X31827690Y-53453583D01*
X31878969Y-53588793D01*
X31881841Y-53600446D01*
X31899271Y-53743996D01*
X31899271Y-53756004D01*
X31881841Y-53899554D01*
X31878969Y-53911207D01*
X31827690Y-54046417D01*
X31822112Y-54057045D01*
X31739966Y-54176055D01*
X31732006Y-54185040D01*
X31623770Y-54280928D01*
X31613887Y-54287751D01*
X31485851Y-54354949D01*
X31474615Y-54359210D01*
X31334226Y-54393812D01*
X31322297Y-54395261D01*
X31177703Y-54395261D01*
X31177703Y-64700000D01*
X35427703Y-64700000D01*
X35427703Y-40145261D01*
X35415774Y-40143812D01*
X35275385Y-40109210D01*
X35264149Y-40104949D01*
X35136113Y-40037751D01*
X35126230Y-40030928D01*
X35017994Y-39935040D01*
X35010034Y-39926055D01*
X34927888Y-39807045D01*
X34922310Y-39796417D01*
X34871031Y-39661207D01*
X34868159Y-39649554D01*
X34850729Y-39506004D01*
X34850729Y-39493996D01*
X34868159Y-39350446D01*
X34871031Y-39338796D01*
X34893502Y-39279545D01*
X34900000Y-39244084D01*
X34900000Y-29005916D01*
X34893502Y-28970455D01*
X34871031Y-28911204D01*
X34868159Y-28899554D01*
X34850729Y-28756004D01*
X34850729Y-28743996D01*
X34868159Y-28600446D01*
X34871031Y-28588793D01*
X34922310Y-28453583D01*
X34927888Y-28442955D01*
X35010034Y-28323945D01*
X35017994Y-28314960D01*
X35126230Y-28219072D01*
X35136113Y-28212249D01*
X35264149Y-28145051D01*
X35275385Y-28140790D01*
X35407739Y-28108168D01*
X35407739Y-25795521D01*
X35398574Y-25794672D01*
X35217205Y-25760768D01*
X35208337Y-25758245D01*
X35036281Y-25691589D01*
X35028051Y-25687491D01*
X34871162Y-25590350D01*
X34863818Y-25584804D01*
X34727463Y-25460499D01*
X34721251Y-25453686D01*
X34610057Y-25306443D01*
X34605210Y-25298613D01*
X34522968Y-25133449D01*
X34519638Y-25124855D01*
X34469143Y-24947381D01*
X34467451Y-24938332D01*
X34450427Y-24754608D01*
X34450427Y-24745392D01*
X34467451Y-24561668D01*
X34469143Y-24552619D01*
X34519638Y-24375145D01*
X34522968Y-24366551D01*
X34605210Y-24201387D01*
X34610057Y-24193557D01*
X34721251Y-24046314D01*
X34727463Y-24039501D01*
X34863818Y-23915196D01*
X34871162Y-23909650D01*
X35028051Y-23812509D01*
X35036281Y-23808411D01*
X35208337Y-23741755D01*
X35217205Y-23739232D01*
X35398574Y-23705328D01*
X35407739Y-23704479D01*
X35407739Y-20795521D01*
X35398574Y-20794672D01*
X35217205Y-20760768D01*
X35208337Y-20758245D01*
X35036281Y-20691589D01*
X35028051Y-20687491D01*
X34871162Y-20590350D01*
X34863818Y-20584804D01*
X34727463Y-20460499D01*
X34721251Y-20453686D01*
X34610057Y-20306443D01*
X34605210Y-20298613D01*
X34522968Y-20133449D01*
X34519638Y-20124855D01*
X34469143Y-19947381D01*
X34467451Y-19938332D01*
X34461641Y-19875633D01*
X34432779Y-19814150D01*
X32436170Y-17817541D01*
X32432659Y-17813643D01*
X32396448Y-17768925D01*
X32393047Y-17764943D01*
X32356298Y-17724129D01*
X32350161Y-17715682D01*
X32346220Y-17708856D01*
X32337331Y-17695922D01*
X32332365Y-17689790D01*
X32326684Y-17681041D01*
X32301751Y-17632107D01*
X32299253Y-17627506D01*
X32271786Y-17579932D01*
X32267543Y-17570400D01*
X32265104Y-17562895D01*
X32259100Y-17548398D01*
X32255513Y-17541357D01*
X32251781Y-17531636D01*
X32237564Y-17478579D01*
X32236077Y-17473560D01*
X32219100Y-17421310D01*
X32216934Y-17411120D01*
X32216109Y-17403266D01*
X32213250Y-17387836D01*
X32211206Y-17380207D01*
X32209576Y-17369915D01*
X32206701Y-17315064D01*
X32206290Y-17309845D01*
X32200274Y-17252609D01*
X32200000Y-17247377D01*
X32200000Y-6252623D01*
X32200274Y-6247391D01*
X32206290Y-6190156D01*
X32206701Y-6184937D01*
X32209576Y-6130081D01*
X32211206Y-6119789D01*
X32213249Y-6112165D01*
X32216108Y-6096742D01*
X32216935Y-6088881D01*
X32219101Y-6078690D01*
X32236082Y-6026426D01*
X32237568Y-6021407D01*
X32251779Y-5968372D01*
X32255517Y-5958635D01*
X32259098Y-5951607D01*
X32265106Y-5937103D01*
X32267547Y-5929591D01*
X32271785Y-5920071D01*
X32299257Y-5872487D01*
X32301755Y-5867887D01*
X32326685Y-5818959D01*
X32332365Y-5810214D01*
X32337327Y-5804086D01*
X32346218Y-5791149D01*
X32350165Y-5784312D01*
X32356296Y-5775873D01*
X32393056Y-5735047D01*
X32396457Y-5731065D01*
X32432666Y-5686350D01*
X32436167Y-5682462D01*
X34432779Y-3685850D01*
X34461641Y-3624367D01*
X34467451Y-3561668D01*
X34469143Y-3552619D01*
X34519638Y-3375145D01*
X34522968Y-3366551D01*
X34605210Y-3201387D01*
X34610057Y-3193557D01*
X34721251Y-3046314D01*
X34727463Y-3039501D01*
X34863818Y-2915196D01*
X34871162Y-2909650D01*
X35028051Y-2812509D01*
X35036281Y-2808411D01*
X35208337Y-2741755D01*
X35217205Y-2739232D01*
X35398574Y-2705328D01*
X35407739Y-2704479D01*
X35592261Y-2704479D01*
X35601426Y-2705328D01*
X35782795Y-2739232D01*
X35791663Y-2741755D01*
X35963719Y-2808411D01*
X35971949Y-2812509D01*
X36128838Y-2909650D01*
X36136182Y-2915196D01*
X36145732Y-2923902D01*
X36213100Y-2950000D01*
X54247377Y-2950000D01*
X54252609Y-2950274D01*
X54309825Y-2956288D01*
X54315044Y-2956699D01*
X54369919Y-2959575D01*
X54380203Y-2961204D01*
X54387838Y-2963250D01*
X54403274Y-2966111D01*
X54411120Y-2966935D01*
X54421317Y-2969103D01*
X54473538Y-2986070D01*
X54478557Y-2987557D01*
X54531637Y-3001780D01*
X54541363Y-3005513D01*
X54548408Y-3009103D01*
X54562904Y-3015108D01*
X54570408Y-3017546D01*
X54579924Y-3021783D01*
X54627474Y-3049236D01*
X54632076Y-3051734D01*
X54681041Y-3076682D01*
X54689787Y-3082362D01*
X54695928Y-3087335D01*
X54708854Y-3096219D01*
X54715690Y-3100166D01*
X54724123Y-3106293D01*
X54764938Y-3143043D01*
X54768918Y-3146442D01*
X54813648Y-3182665D01*
X54817538Y-3186167D01*
X55569467Y-3938096D01*
X55625206Y-3966258D01*
X55686784Y-3955860D01*
X55730185Y-3910956D01*
X55737891Y-3846130D01*
X55719081Y-3759660D01*
X55718066Y-3752601D01*
X55700255Y-3503565D01*
X55700255Y-3496435D01*
X55718066Y-3247399D01*
X55719080Y-3240344D01*
X55772155Y-2996364D01*
X55774160Y-2989538D01*
X55861415Y-2755596D01*
X55864371Y-2749123D01*
X55984035Y-2529977D01*
X55987884Y-2523988D01*
X56137510Y-2324110D01*
X56142175Y-2318727D01*
X56318727Y-2142175D01*
X56324110Y-2137510D01*
X56523988Y-1987884D01*
X56529977Y-1984035D01*
X56749123Y-1864371D01*
X56755596Y-1861415D01*
X56989538Y-1774160D01*
X56996364Y-1772155D01*
X57240344Y-1719080D01*
X57247399Y-1718066D01*
X57496435Y-1700255D01*
X57503565Y-1700255D01*
X57752601Y-1718066D01*
X57759656Y-1719080D01*
X58003636Y-1772155D01*
X58010462Y-1774160D01*
X58244404Y-1861415D01*
X58250877Y-1864371D01*
X58470023Y-1984035D01*
X58476012Y-1987884D01*
X58675890Y-2137510D01*
X58681273Y-2142175D01*
X58857825Y-2318727D01*
X58862490Y-2324110D01*
X59012116Y-2523988D01*
X59015965Y-2529977D01*
X59135629Y-2749123D01*
X59138585Y-2755596D01*
X59225840Y-2989538D01*
X59227845Y-2996364D01*
X59280920Y-3240344D01*
X59281934Y-3247399D01*
X59299745Y-3496435D01*
X59299745Y-3503565D01*
X59281934Y-3752601D01*
X59280920Y-3759656D01*
X59227845Y-4003636D01*
X59225840Y-4010462D01*
X59138585Y-4244404D01*
X59135629Y-4250877D01*
X59015965Y-4470023D01*
X59012116Y-4476012D01*
X58862490Y-4675890D01*
X58857825Y-4681273D01*
X58681273Y-4857825D01*
X58675890Y-4862490D01*
X58476012Y-5012116D01*
X58470023Y-5015965D01*
X58250877Y-5135629D01*
X58244404Y-5138585D01*
X58010462Y-5225840D01*
X58003636Y-5227845D01*
X57759656Y-5280920D01*
X57752601Y-5281934D01*
X57503565Y-5299745D01*
X57496435Y-5299745D01*
X57247399Y-5281934D01*
X57240340Y-5280919D01*
X57153870Y-5262109D01*
X57091754Y-5268553D01*
X57045573Y-5310592D01*
X57033339Y-5371832D01*
X57061904Y-5430533D01*
X59563830Y-7932459D01*
X59567341Y-7936357D01*
X59603552Y-7981075D01*
X59606953Y-7985057D01*
X59643702Y-8025871D01*
X59649839Y-8034318D01*
X59653780Y-8041144D01*
X59662669Y-8054078D01*
X59667635Y-8060210D01*
X59673316Y-8068959D01*
X59698249Y-8117893D01*
X59700747Y-8122494D01*
X59728214Y-8170068D01*
X59732457Y-8179600D01*
X59734896Y-8187105D01*
X59740900Y-8201602D01*
X59744487Y-8208643D01*
X59748219Y-8218364D01*
X59762436Y-8271421D01*
X59763923Y-8276440D01*
X59780900Y-8328690D01*
X59783066Y-8338880D01*
X59783891Y-8346734D01*
X59786750Y-8362164D01*
X59788794Y-8369793D01*
X59790424Y-8380085D01*
X59793299Y-8434936D01*
X59793710Y-8440155D01*
X59799452Y-8494787D01*
X59799452Y-8505208D01*
X59798626Y-8513069D01*
X59798216Y-8528750D01*
X59798629Y-8536635D01*
X59798083Y-8547045D01*
X59789492Y-8601291D01*
X59788809Y-8606479D01*
X59783066Y-8661112D01*
X59780896Y-8671322D01*
X59778458Y-8678825D01*
X59774794Y-8694084D01*
X59773560Y-8701876D01*
X59770861Y-8711949D01*
X59751181Y-8763217D01*
X59749433Y-8768153D01*
X59732456Y-8820404D01*
X59728215Y-8829929D01*
X59724269Y-8836763D01*
X59717513Y-8850927D01*
X59714685Y-8858293D01*
X59709949Y-8867588D01*
X59680043Y-8913639D01*
X59677307Y-8918105D01*
X59649838Y-8965683D01*
X59643706Y-8974125D01*
X59638414Y-8980002D01*
X59628867Y-8992444D01*
X59624572Y-8999056D01*
X59618007Y-9007164D01*
X59579195Y-9045976D01*
X59575591Y-9049773D01*
X59538808Y-9090625D01*
X59531066Y-9097595D01*
X59524670Y-9102242D01*
X59512738Y-9112433D01*
X59507159Y-9118012D01*
X59499061Y-9124569D01*
X59453002Y-9154482D01*
X59448691Y-9157445D01*
X59404239Y-9189740D01*
X59395215Y-9194951D01*
X59387991Y-9198167D01*
X59374204Y-9205653D01*
X59367590Y-9209948D01*
X59358294Y-9214685D01*
X59307043Y-9234358D01*
X59302206Y-9236361D01*
X59251999Y-9258715D01*
X59242092Y-9261933D01*
X59234352Y-9263579D01*
X59219317Y-9268033D01*
X59211945Y-9270862D01*
X59201887Y-9273557D01*
X59147659Y-9282147D01*
X59142514Y-9283101D01*
X59088747Y-9294529D01*
X59078385Y-9295618D01*
X59070475Y-9295618D01*
X59054832Y-9296849D01*
X59047045Y-9298082D01*
X59036636Y-9298628D01*
X58981821Y-9295755D01*
X58976587Y-9295618D01*
X58921615Y-9295618D01*
X58911254Y-9294529D01*
X58903514Y-9292884D01*
X58887959Y-9290836D01*
X58880085Y-9290423D01*
X58869792Y-9288793D01*
X58816769Y-9274586D01*
X58811680Y-9273364D01*
X58757909Y-9261934D01*
X58748001Y-9258715D01*
X58740776Y-9255498D01*
X58725986Y-9250261D01*
X58718373Y-9248221D01*
X58708633Y-9244482D01*
X58659710Y-9219555D01*
X58654986Y-9217302D01*
X58604787Y-9194951D01*
X58595762Y-9189741D01*
X58589366Y-9185094D01*
X58575993Y-9176899D01*
X58568959Y-9173315D01*
X58560213Y-9167635D01*
X58517529Y-9133071D01*
X58513376Y-9129884D01*
X58468934Y-9097595D01*
X58461189Y-9090621D01*
X58455906Y-9084754D01*
X58444524Y-9073953D01*
X58436350Y-9067334D01*
X58432464Y-9063835D01*
X53947918Y-4579289D01*
X53877208Y-4550000D01*
X36213100Y-4550000D01*
X36145732Y-4576098D01*
X36136182Y-4584804D01*
X36128838Y-4590350D01*
X35971949Y-4687491D01*
X35963719Y-4691589D01*
X35791663Y-4758245D01*
X35782795Y-4760768D01*
X35613753Y-4792367D01*
X35561418Y-4819953D01*
X33829289Y-6552082D01*
X33800000Y-6622792D01*
X33800000Y-8877208D01*
X33829289Y-8947918D01*
X35407739Y-10526368D01*
X35407739Y-9795521D01*
X35398574Y-9794672D01*
X35217205Y-9760768D01*
X35208337Y-9758245D01*
X35036281Y-9691589D01*
X35028051Y-9687491D01*
X34871162Y-9590350D01*
X34863818Y-9584804D01*
X34727463Y-9460499D01*
X34721251Y-9453686D01*
X34610057Y-9306443D01*
X34605210Y-9298613D01*
X34522968Y-9133449D01*
X34519638Y-9124855D01*
X34469143Y-8947381D01*
X34467451Y-8938332D01*
X34450427Y-8754608D01*
X34450427Y-8745392D01*
X34467451Y-8561668D01*
X34469143Y-8552619D01*
X34519638Y-8375145D01*
X34522968Y-8366551D01*
X34605210Y-8201387D01*
X34610057Y-8193557D01*
X34721251Y-8046314D01*
X34727463Y-8039501D01*
X34863818Y-7915196D01*
X34871162Y-7909650D01*
X35028051Y-7812509D01*
X35036281Y-7808411D01*
X35208337Y-7741755D01*
X35217205Y-7739232D01*
X35398574Y-7705328D01*
X35407739Y-7704479D01*
X35592261Y-7704479D01*
X35601426Y-7705328D01*
X35782795Y-7739232D01*
X35791663Y-7741755D01*
X35963719Y-7808411D01*
X35971949Y-7812509D01*
X36128838Y-7909650D01*
X36136182Y-7915196D01*
X36272537Y-8039501D01*
X36278749Y-8046314D01*
X36389943Y-8193557D01*
X36394790Y-8201387D01*
X36477032Y-8366551D01*
X36480362Y-8375145D01*
X36530857Y-8552619D01*
X36532549Y-8561668D01*
X36549573Y-8745392D01*
X36549573Y-8754608D01*
X36532549Y-8938332D01*
X36530857Y-8947381D01*
X36480362Y-9124855D01*
X36477032Y-9133449D01*
X36394790Y-9298613D01*
X36389943Y-9306443D01*
X36278749Y-9453686D01*
X36272537Y-9460499D01*
X36136182Y-9584804D01*
X36128838Y-9590350D01*
X35971949Y-9687491D01*
X35963719Y-9691589D01*
X35791663Y-9758245D01*
X35782795Y-9760768D01*
X35601426Y-9794672D01*
X35592261Y-9795521D01*
X35407739Y-9795521D01*
X35407739Y-10526368D01*
X35561418Y-10680047D01*
X35613753Y-10707633D01*
X35782795Y-10739232D01*
X35791663Y-10741755D01*
X35963719Y-10808411D01*
X35971949Y-10812509D01*
X36128838Y-10909650D01*
X36136182Y-10915196D01*
X36272537Y-11039501D01*
X36278749Y-11046314D01*
X36389943Y-11193557D01*
X36394790Y-11201387D01*
X36477032Y-11366551D01*
X36480362Y-11375145D01*
X36530857Y-11552619D01*
X36532549Y-11561668D01*
X36549573Y-11745392D01*
X36549573Y-11754608D01*
X36532549Y-11938332D01*
X36530857Y-11947381D01*
X36480362Y-12124855D01*
X36477032Y-12133449D01*
X36394790Y-12298613D01*
X36389943Y-12306443D01*
X36278749Y-12453686D01*
X36272537Y-12460499D01*
X36136182Y-12584804D01*
X36128838Y-12590350D01*
X35971949Y-12687491D01*
X35963719Y-12691589D01*
X35791663Y-12758245D01*
X35782795Y-12760768D01*
X35601426Y-12794672D01*
X35592261Y-12795521D01*
X35407739Y-12795521D01*
X35398574Y-12794672D01*
X35217205Y-12760768D01*
X35208337Y-12758245D01*
X35036281Y-12691589D01*
X35028051Y-12687491D01*
X34871162Y-12590350D01*
X34863818Y-12584804D01*
X34727463Y-12460499D01*
X34721251Y-12453686D01*
X34610057Y-12306443D01*
X34605210Y-12298613D01*
X34522968Y-12133449D01*
X34519638Y-12124855D01*
X34469143Y-11947381D01*
X34467451Y-11938332D01*
X34461641Y-11875633D01*
X34432779Y-11814150D01*
X33970709Y-11352080D01*
X33914970Y-11323918D01*
X33853392Y-11334316D01*
X33809991Y-11379220D01*
X33800000Y-11422790D01*
X33800000Y-16877208D01*
X33829289Y-16947918D01*
X35407739Y-18526368D01*
X35407739Y-17795521D01*
X35398574Y-17794672D01*
X35217205Y-17760768D01*
X35208337Y-17758245D01*
X35036281Y-17691589D01*
X35028051Y-17687491D01*
X34871162Y-17590350D01*
X34863818Y-17584804D01*
X34727463Y-17460499D01*
X34721251Y-17453686D01*
X34610057Y-17306443D01*
X34605210Y-17298613D01*
X34522968Y-17133449D01*
X34519638Y-17124855D01*
X34469143Y-16947381D01*
X34467451Y-16938332D01*
X34450427Y-16754608D01*
X34450427Y-16745392D01*
X34467451Y-16561668D01*
X34469143Y-16552619D01*
X34519638Y-16375145D01*
X34522968Y-16366551D01*
X34605210Y-16201387D01*
X34610057Y-16193557D01*
X34721251Y-16046314D01*
X34727463Y-16039501D01*
X34863818Y-15915196D01*
X34871162Y-15909650D01*
X35028051Y-15812509D01*
X35036281Y-15808411D01*
X35208337Y-15741755D01*
X35217205Y-15739232D01*
X35398574Y-15705328D01*
X35407739Y-15704479D01*
X35592261Y-15704479D01*
X35601426Y-15705328D01*
X35782795Y-15739232D01*
X35791663Y-15741755D01*
X35963719Y-15808411D01*
X35971949Y-15812509D01*
X36128838Y-15909650D01*
X36136182Y-15915196D01*
X36272537Y-16039501D01*
X36278749Y-16046314D01*
X36389943Y-16193557D01*
X36394790Y-16201387D01*
X36477032Y-16366551D01*
X36480362Y-16375145D01*
X36530857Y-16552619D01*
X36532549Y-16561668D01*
X36549573Y-16745392D01*
X36549573Y-16754608D01*
X36532549Y-16938332D01*
X36530857Y-16947381D01*
X36480362Y-17124855D01*
X36477032Y-17133449D01*
X36394790Y-17298613D01*
X36389943Y-17306443D01*
X36278749Y-17453686D01*
X36272537Y-17460499D01*
X36136182Y-17584804D01*
X36128838Y-17590350D01*
X35971949Y-17687491D01*
X35963719Y-17691589D01*
X35791663Y-17758245D01*
X35782795Y-17760768D01*
X35601426Y-17794672D01*
X35592261Y-17795521D01*
X35407739Y-17795521D01*
X35407739Y-18526368D01*
X35561418Y-18680047D01*
X35613753Y-18707633D01*
X35782795Y-18739232D01*
X35791663Y-18741755D01*
X35963719Y-18808411D01*
X35971949Y-18812509D01*
X36128838Y-18909650D01*
X36136182Y-18915196D01*
X36272537Y-19039501D01*
X36278749Y-19046314D01*
X36389943Y-19193557D01*
X36394790Y-19201387D01*
X36477032Y-19366551D01*
X36480362Y-19375145D01*
X36530857Y-19552619D01*
X36532549Y-19561668D01*
X36549573Y-19745392D01*
X36549573Y-19754608D01*
X36532549Y-19938332D01*
X36530857Y-19947381D01*
X36480362Y-20124855D01*
X36477032Y-20133449D01*
X36394790Y-20298613D01*
X36389943Y-20306443D01*
X36278749Y-20453686D01*
X36272537Y-20460499D01*
X36136182Y-20584804D01*
X36128838Y-20590350D01*
X35971949Y-20687491D01*
X35963719Y-20691589D01*
X35791663Y-20758245D01*
X35782795Y-20760768D01*
X35601426Y-20794672D01*
X35592261Y-20795521D01*
X35407739Y-20795521D01*
X35407739Y-23704479D01*
X35592261Y-23704479D01*
X35601426Y-23705328D01*
X35782795Y-23739232D01*
X35791663Y-23741755D01*
X35963719Y-23808411D01*
X35971949Y-23812509D01*
X36128838Y-23909650D01*
X36136182Y-23915196D01*
X36272537Y-24039501D01*
X36278749Y-24046314D01*
X36389943Y-24193557D01*
X36394790Y-24201387D01*
X36477032Y-24366551D01*
X36480362Y-24375145D01*
X36530857Y-24552619D01*
X36532549Y-24561668D01*
X36549573Y-24745392D01*
X36549573Y-24754608D01*
X36532549Y-24938332D01*
X36530857Y-24947381D01*
X36480362Y-25124855D01*
X36477032Y-25133449D01*
X36394790Y-25298613D01*
X36389943Y-25306443D01*
X36278749Y-25453686D01*
X36272537Y-25460499D01*
X36136182Y-25584804D01*
X36128838Y-25590350D01*
X35971949Y-25687491D01*
X35963719Y-25691589D01*
X35791663Y-25758245D01*
X35782795Y-25760768D01*
X35601426Y-25794672D01*
X35592261Y-25795521D01*
X35407739Y-25795521D01*
X35407739Y-28108168D01*
X35415774Y-28106188D01*
X35427703Y-28104739D01*
X35572297Y-28104739D01*
X35584226Y-28106188D01*
X35724615Y-28140790D01*
X35735851Y-28145051D01*
X35863887Y-28212249D01*
X35873770Y-28219072D01*
X35982006Y-28314960D01*
X35989966Y-28323945D01*
X36072112Y-28442955D01*
X36077690Y-28453583D01*
X36128969Y-28588793D01*
X36131841Y-28600446D01*
X36149271Y-28743996D01*
X36149271Y-28756004D01*
X36131841Y-28899554D01*
X36128969Y-28911204D01*
X36106498Y-28970455D01*
X36100000Y-29005916D01*
X36100000Y-39244084D01*
X36106498Y-39279545D01*
X36128969Y-39338796D01*
X36131841Y-39350446D01*
X36149271Y-39493996D01*
X36149271Y-39506004D01*
X36131841Y-39649554D01*
X36128969Y-39661207D01*
X36077690Y-39796417D01*
X36072112Y-39807045D01*
X35989966Y-39926055D01*
X35982006Y-39935040D01*
X35873770Y-40030928D01*
X35863887Y-40037751D01*
X35735851Y-40104949D01*
X35724615Y-40109210D01*
X35584226Y-40143812D01*
X35572297Y-40145261D01*
X35427703Y-40145261D01*
X35427703Y-64700000D01*
X55657739Y-64700000D01*
X55657739Y-47795521D01*
X55648574Y-47794672D01*
X55467205Y-47760768D01*
X55458337Y-47758245D01*
X55286281Y-47691589D01*
X55278051Y-47687491D01*
X55121162Y-47590350D01*
X55113818Y-47584804D01*
X54977463Y-47460499D01*
X54971251Y-47453686D01*
X54860057Y-47306443D01*
X54855210Y-47298613D01*
X54772968Y-47133449D01*
X54769638Y-47124855D01*
X54719143Y-46947381D01*
X54717451Y-46938332D01*
X54700427Y-46754608D01*
X54700427Y-46745392D01*
X54717451Y-46561668D01*
X54719143Y-46552619D01*
X54769638Y-46375145D01*
X54772968Y-46366551D01*
X54855210Y-46201387D01*
X54860057Y-46193557D01*
X54971251Y-46046314D01*
X54977463Y-46039501D01*
X55113818Y-45915196D01*
X55121162Y-45909650D01*
X55278051Y-45812509D01*
X55286281Y-45808411D01*
X55458337Y-45741755D01*
X55467205Y-45739232D01*
X55648574Y-45705328D01*
X55657739Y-45704479D01*
X55657739Y-42795521D01*
X55648574Y-42794672D01*
X55467205Y-42760768D01*
X55458337Y-42758245D01*
X55286281Y-42691589D01*
X55278051Y-42687491D01*
X55121162Y-42590350D01*
X55113818Y-42584804D01*
X54977463Y-42460499D01*
X54971251Y-42453686D01*
X54860057Y-42306443D01*
X54855210Y-42298613D01*
X54772968Y-42133449D01*
X54769638Y-42124855D01*
X54719143Y-41947381D01*
X54717451Y-41938332D01*
X54700427Y-41754608D01*
X54700427Y-41745392D01*
X54717451Y-41561668D01*
X54719143Y-41552619D01*
X54769638Y-41375145D01*
X54772968Y-41366551D01*
X54855210Y-41201387D01*
X54860057Y-41193557D01*
X54971251Y-41046314D01*
X54977463Y-41039501D01*
X55113818Y-40915196D01*
X55121162Y-40909650D01*
X55278051Y-40812509D01*
X55286281Y-40808411D01*
X55458337Y-40741755D01*
X55467205Y-40739232D01*
X55648574Y-40705328D01*
X55657739Y-40704479D01*
X55657739Y-39795521D01*
X55648574Y-39794672D01*
X55467205Y-39760768D01*
X55458337Y-39758245D01*
X55286281Y-39691589D01*
X55278051Y-39687491D01*
X55121162Y-39590350D01*
X55113818Y-39584804D01*
X54977463Y-39460499D01*
X54971251Y-39453686D01*
X54860057Y-39306443D01*
X54855210Y-39298613D01*
X54772968Y-39133449D01*
X54769638Y-39124855D01*
X54719143Y-38947381D01*
X54717451Y-38938332D01*
X54700427Y-38754608D01*
X54700427Y-38745392D01*
X54717451Y-38561668D01*
X54719143Y-38552619D01*
X54769638Y-38375145D01*
X54772968Y-38366551D01*
X54855210Y-38201387D01*
X54860057Y-38193557D01*
X54971251Y-38046314D01*
X54977463Y-38039501D01*
X55113818Y-37915196D01*
X55121162Y-37909650D01*
X55278051Y-37812509D01*
X55286281Y-37808411D01*
X55458337Y-37741755D01*
X55467205Y-37739232D01*
X55648574Y-37705328D01*
X55657739Y-37704479D01*
X55657739Y-34795521D01*
X55648574Y-34794672D01*
X55467205Y-34760768D01*
X55458337Y-34758245D01*
X55286281Y-34691589D01*
X55278051Y-34687491D01*
X55121162Y-34590350D01*
X55113818Y-34584804D01*
X54977463Y-34460499D01*
X54971251Y-34453686D01*
X54860057Y-34306443D01*
X54855210Y-34298613D01*
X54772968Y-34133449D01*
X54769638Y-34124855D01*
X54719143Y-33947381D01*
X54717451Y-33938332D01*
X54700427Y-33754608D01*
X54700427Y-33745392D01*
X54717451Y-33561668D01*
X54719143Y-33552619D01*
X54769638Y-33375145D01*
X54772968Y-33366551D01*
X54855210Y-33201387D01*
X54860057Y-33193557D01*
X54971251Y-33046314D01*
X54977463Y-33039501D01*
X55113818Y-32915196D01*
X55121162Y-32909650D01*
X55278051Y-32812509D01*
X55286281Y-32808411D01*
X55458337Y-32741755D01*
X55467205Y-32739232D01*
X55648574Y-32705328D01*
X55657739Y-32704479D01*
X55657739Y-31795521D01*
X55648574Y-31794672D01*
X55467205Y-31760768D01*
X55458337Y-31758245D01*
X55286281Y-31691589D01*
X55278051Y-31687491D01*
X55121162Y-31590350D01*
X55113818Y-31584804D01*
X54977463Y-31460499D01*
X54971251Y-31453686D01*
X54860057Y-31306443D01*
X54855210Y-31298613D01*
X54772968Y-31133449D01*
X54769638Y-31124855D01*
X54719143Y-30947381D01*
X54717451Y-30938332D01*
X54700427Y-30754608D01*
X54700427Y-30745392D01*
X54717451Y-30561668D01*
X54719143Y-30552619D01*
X54769638Y-30375145D01*
X54772968Y-30366551D01*
X54855210Y-30201387D01*
X54860057Y-30193557D01*
X54971251Y-30046314D01*
X54977463Y-30039501D01*
X55113818Y-29915196D01*
X55121162Y-29909650D01*
X55278051Y-29812509D01*
X55286281Y-29808411D01*
X55458337Y-29741755D01*
X55467205Y-29739232D01*
X55648574Y-29705328D01*
X55657739Y-29704479D01*
X55657739Y-26795521D01*
X55648574Y-26794672D01*
X55467205Y-26760768D01*
X55458337Y-26758245D01*
X55286281Y-26691589D01*
X55278051Y-26687491D01*
X55121162Y-26590350D01*
X55113818Y-26584804D01*
X54977463Y-26460499D01*
X54971251Y-26453686D01*
X54860057Y-26306443D01*
X54855210Y-26298613D01*
X54772968Y-26133449D01*
X54769638Y-26124855D01*
X54719143Y-25947381D01*
X54717451Y-25938332D01*
X54700427Y-25754608D01*
X54700427Y-25745392D01*
X54717451Y-25561668D01*
X54719143Y-25552619D01*
X54769638Y-25375145D01*
X54772968Y-25366551D01*
X54855210Y-25201387D01*
X54860057Y-25193557D01*
X54971251Y-25046314D01*
X54977463Y-25039501D01*
X55113818Y-24915196D01*
X55121162Y-24909650D01*
X55278051Y-24812509D01*
X55286281Y-24808411D01*
X55458337Y-24741755D01*
X55467205Y-24739232D01*
X55648574Y-24705328D01*
X55657739Y-24704479D01*
X55657739Y-23795521D01*
X55648574Y-23794672D01*
X55467205Y-23760768D01*
X55458337Y-23758245D01*
X55286281Y-23691589D01*
X55278051Y-23687491D01*
X55121162Y-23590350D01*
X55113818Y-23584804D01*
X54977463Y-23460499D01*
X54971251Y-23453686D01*
X54860057Y-23306443D01*
X54855210Y-23298613D01*
X54772968Y-23133449D01*
X54769638Y-23124855D01*
X54719143Y-22947381D01*
X54717451Y-22938332D01*
X54700427Y-22754608D01*
X54700427Y-22745392D01*
X54717451Y-22561668D01*
X54719143Y-22552619D01*
X54769638Y-22375145D01*
X54772968Y-22366551D01*
X54855210Y-22201387D01*
X54860057Y-22193557D01*
X54971251Y-22046314D01*
X54977463Y-22039501D01*
X55113818Y-21915196D01*
X55121162Y-21909650D01*
X55278051Y-21812509D01*
X55286281Y-21808411D01*
X55458337Y-21741755D01*
X55467205Y-21739232D01*
X55648574Y-21705328D01*
X55657739Y-21704479D01*
X55657739Y-18795521D01*
X55648574Y-18794672D01*
X55467205Y-18760768D01*
X55458337Y-18758245D01*
X55286281Y-18691589D01*
X55278051Y-18687491D01*
X55121162Y-18590350D01*
X55113818Y-18584804D01*
X54977463Y-18460499D01*
X54971251Y-18453686D01*
X54860057Y-18306443D01*
X54855210Y-18298613D01*
X54772968Y-18133449D01*
X54769638Y-18124855D01*
X54719143Y-17947381D01*
X54717451Y-17938332D01*
X54700427Y-17754608D01*
X54700427Y-17745392D01*
X54717451Y-17561668D01*
X54719143Y-17552619D01*
X54769638Y-17375145D01*
X54772968Y-17366551D01*
X54855210Y-17201387D01*
X54860057Y-17193557D01*
X54971251Y-17046314D01*
X54977463Y-17039501D01*
X55113818Y-16915196D01*
X55121162Y-16909650D01*
X55278051Y-16812509D01*
X55286281Y-16808411D01*
X55458337Y-16741755D01*
X55467205Y-16739232D01*
X55648574Y-16705328D01*
X55657739Y-16704479D01*
X55657739Y-15795521D01*
X55648574Y-15794672D01*
X55467205Y-15760768D01*
X55458337Y-15758245D01*
X55286281Y-15691589D01*
X55278051Y-15687491D01*
X55121162Y-15590350D01*
X55113818Y-15584804D01*
X54977463Y-15460499D01*
X54971251Y-15453686D01*
X54860057Y-15306443D01*
X54855210Y-15298613D01*
X54772968Y-15133449D01*
X54769638Y-15124855D01*
X54719143Y-14947381D01*
X54717451Y-14938332D01*
X54700427Y-14754608D01*
X54700427Y-14745392D01*
X54717451Y-14561668D01*
X54719143Y-14552619D01*
X54769638Y-14375145D01*
X54772968Y-14366551D01*
X54855210Y-14201387D01*
X54860057Y-14193557D01*
X54971251Y-14046314D01*
X54977463Y-14039501D01*
X55113818Y-13915196D01*
X55121162Y-13909650D01*
X55278051Y-13812509D01*
X55286281Y-13808411D01*
X55458337Y-13741755D01*
X55467205Y-13739232D01*
X55648574Y-13705328D01*
X55657739Y-13704479D01*
X55657739Y-10795521D01*
X55648574Y-10794672D01*
X55467205Y-10760768D01*
X55458337Y-10758245D01*
X55286281Y-10691589D01*
X55278051Y-10687491D01*
X55121162Y-10590350D01*
X55113818Y-10584804D01*
X54977463Y-10460499D01*
X54971251Y-10453686D01*
X54860057Y-10306443D01*
X54855210Y-10298613D01*
X54772968Y-10133449D01*
X54769638Y-10124855D01*
X54719143Y-9947381D01*
X54717451Y-9938332D01*
X54700427Y-9754608D01*
X54700427Y-9745392D01*
X54717451Y-9561668D01*
X54719143Y-9552619D01*
X54769638Y-9375145D01*
X54772968Y-9366551D01*
X54855210Y-9201387D01*
X54860057Y-9193557D01*
X54971251Y-9046314D01*
X54977463Y-9039501D01*
X55113818Y-8915196D01*
X55121162Y-8909650D01*
X55278051Y-8812509D01*
X55286281Y-8808411D01*
X55458337Y-8741755D01*
X55467205Y-8739232D01*
X55648574Y-8705328D01*
X55657739Y-8704479D01*
X55842261Y-8704479D01*
X55851426Y-8705328D01*
X56032795Y-8739232D01*
X56041663Y-8741755D01*
X56213719Y-8808411D01*
X56221949Y-8812509D01*
X56378838Y-8909650D01*
X56386182Y-8915196D01*
X56522537Y-9039501D01*
X56528749Y-9046314D01*
X56639943Y-9193557D01*
X56644790Y-9201387D01*
X56727032Y-9366551D01*
X56730362Y-9375145D01*
X56780857Y-9552619D01*
X56782549Y-9561668D01*
X56799573Y-9745392D01*
X56799573Y-9754608D01*
X56782549Y-9938332D01*
X56780857Y-9947381D01*
X56730362Y-10124855D01*
X56727032Y-10133449D01*
X56644790Y-10298613D01*
X56639943Y-10306443D01*
X56528749Y-10453686D01*
X56522537Y-10460499D01*
X56386182Y-10584804D01*
X56378838Y-10590350D01*
X56221949Y-10687491D01*
X56213719Y-10691589D01*
X56041663Y-10758245D01*
X56032795Y-10760768D01*
X55851426Y-10794672D01*
X55842261Y-10795521D01*
X55657739Y-10795521D01*
X55657739Y-13704479D01*
X55842261Y-13704479D01*
X55851426Y-13705328D01*
X56032795Y-13739232D01*
X56041663Y-13741755D01*
X56213719Y-13808411D01*
X56221949Y-13812509D01*
X56378838Y-13909650D01*
X56386182Y-13915196D01*
X56522537Y-14039501D01*
X56528749Y-14046314D01*
X56639943Y-14193557D01*
X56644790Y-14201387D01*
X56727032Y-14366551D01*
X56730362Y-14375145D01*
X56780857Y-14552619D01*
X56782549Y-14561668D01*
X56799573Y-14745392D01*
X56799573Y-14754608D01*
X56782549Y-14938332D01*
X56780857Y-14947381D01*
X56730362Y-15124855D01*
X56727032Y-15133449D01*
X56644790Y-15298613D01*
X56639943Y-15306443D01*
X56528749Y-15453686D01*
X56522537Y-15460499D01*
X56386182Y-15584804D01*
X56378838Y-15590350D01*
X56221949Y-15687491D01*
X56213719Y-15691589D01*
X56041663Y-15758245D01*
X56032795Y-15760768D01*
X55851426Y-15794672D01*
X55842261Y-15795521D01*
X55657739Y-15795521D01*
X55657739Y-16704479D01*
X55842261Y-16704479D01*
X55851426Y-16705328D01*
X56032795Y-16739232D01*
X56041663Y-16741755D01*
X56213719Y-16808411D01*
X56221949Y-16812509D01*
X56378838Y-16909650D01*
X56386182Y-16915196D01*
X56522537Y-17039501D01*
X56528749Y-17046314D01*
X56639943Y-17193557D01*
X56644790Y-17201387D01*
X56727032Y-17366551D01*
X56730362Y-17375145D01*
X56780857Y-17552619D01*
X56782549Y-17561668D01*
X56799573Y-17745392D01*
X56799573Y-17754608D01*
X56782549Y-17938332D01*
X56780857Y-17947381D01*
X56730362Y-18124855D01*
X56727032Y-18133449D01*
X56644790Y-18298613D01*
X56639943Y-18306443D01*
X56528749Y-18453686D01*
X56522537Y-18460499D01*
X56386182Y-18584804D01*
X56378838Y-18590350D01*
X56221949Y-18687491D01*
X56213719Y-18691589D01*
X56041663Y-18758245D01*
X56032795Y-18760768D01*
X55851426Y-18794672D01*
X55842261Y-18795521D01*
X55657739Y-18795521D01*
X55657739Y-21704479D01*
X55842261Y-21704479D01*
X55851426Y-21705328D01*
X56032795Y-21739232D01*
X56041663Y-21741755D01*
X56213719Y-21808411D01*
X56221949Y-21812509D01*
X56378838Y-21909650D01*
X56386182Y-21915196D01*
X56522537Y-22039501D01*
X56528749Y-22046314D01*
X56639943Y-22193557D01*
X56644790Y-22201387D01*
X56727032Y-22366551D01*
X56730362Y-22375145D01*
X56780857Y-22552619D01*
X56782549Y-22561668D01*
X56799573Y-22745392D01*
X56799573Y-22754608D01*
X56782549Y-22938332D01*
X56780857Y-22947381D01*
X56730362Y-23124855D01*
X56727032Y-23133449D01*
X56644790Y-23298613D01*
X56639943Y-23306443D01*
X56528749Y-23453686D01*
X56522537Y-23460499D01*
X56386182Y-23584804D01*
X56378838Y-23590350D01*
X56221949Y-23687491D01*
X56213719Y-23691589D01*
X56041663Y-23758245D01*
X56032795Y-23760768D01*
X55851426Y-23794672D01*
X55842261Y-23795521D01*
X55657739Y-23795521D01*
X55657739Y-24704479D01*
X55842261Y-24704479D01*
X55851426Y-24705328D01*
X56032795Y-24739232D01*
X56041663Y-24741755D01*
X56213719Y-24808411D01*
X56221949Y-24812509D01*
X56378838Y-24909650D01*
X56386182Y-24915196D01*
X56522537Y-25039501D01*
X56528749Y-25046314D01*
X56639943Y-25193557D01*
X56644790Y-25201387D01*
X56727032Y-25366551D01*
X56730362Y-25375145D01*
X56780857Y-25552619D01*
X56782549Y-25561668D01*
X56799573Y-25745392D01*
X56799573Y-25754608D01*
X56782549Y-25938332D01*
X56780857Y-25947381D01*
X56730362Y-26124855D01*
X56727032Y-26133449D01*
X56644790Y-26298613D01*
X56639943Y-26306443D01*
X56528749Y-26453686D01*
X56522537Y-26460499D01*
X56386182Y-26584804D01*
X56378838Y-26590350D01*
X56221949Y-26687491D01*
X56213719Y-26691589D01*
X56041663Y-26758245D01*
X56032795Y-26760768D01*
X55851426Y-26794672D01*
X55842261Y-26795521D01*
X55657739Y-26795521D01*
X55657739Y-29704479D01*
X55842261Y-29704479D01*
X55851426Y-29705328D01*
X56032795Y-29739232D01*
X56041663Y-29741755D01*
X56213719Y-29808411D01*
X56221949Y-29812509D01*
X56378838Y-29909650D01*
X56386182Y-29915196D01*
X56522537Y-30039501D01*
X56528749Y-30046314D01*
X56639943Y-30193557D01*
X56644790Y-30201387D01*
X56727032Y-30366551D01*
X56730362Y-30375145D01*
X56780857Y-30552619D01*
X56782549Y-30561668D01*
X56799573Y-30745392D01*
X56799573Y-30754608D01*
X56782549Y-30938332D01*
X56780857Y-30947381D01*
X56730362Y-31124855D01*
X56727032Y-31133449D01*
X56644790Y-31298613D01*
X56639943Y-31306443D01*
X56528749Y-31453686D01*
X56522537Y-31460499D01*
X56386182Y-31584804D01*
X56378838Y-31590350D01*
X56221949Y-31687491D01*
X56213719Y-31691589D01*
X56041663Y-31758245D01*
X56032795Y-31760768D01*
X55851426Y-31794672D01*
X55842261Y-31795521D01*
X55657739Y-31795521D01*
X55657739Y-32704479D01*
X55842261Y-32704479D01*
X55851426Y-32705328D01*
X56032795Y-32739232D01*
X56041663Y-32741755D01*
X56213719Y-32808411D01*
X56221949Y-32812509D01*
X56378838Y-32909650D01*
X56386182Y-32915196D01*
X56522537Y-33039501D01*
X56528749Y-33046314D01*
X56639943Y-33193557D01*
X56644790Y-33201387D01*
X56727032Y-33366551D01*
X56730362Y-33375145D01*
X56780857Y-33552619D01*
X56782549Y-33561668D01*
X56799573Y-33745392D01*
X56799573Y-33754608D01*
X56782549Y-33938332D01*
X56780857Y-33947381D01*
X56730362Y-34124855D01*
X56727032Y-34133449D01*
X56644790Y-34298613D01*
X56639943Y-34306443D01*
X56528749Y-34453686D01*
X56522537Y-34460499D01*
X56386182Y-34584804D01*
X56378838Y-34590350D01*
X56221949Y-34687491D01*
X56213719Y-34691589D01*
X56041663Y-34758245D01*
X56032795Y-34760768D01*
X55851426Y-34794672D01*
X55842261Y-34795521D01*
X55657739Y-34795521D01*
X55657739Y-37704479D01*
X55842261Y-37704479D01*
X55851426Y-37705328D01*
X56032795Y-37739232D01*
X56041663Y-37741755D01*
X56213719Y-37808411D01*
X56221949Y-37812509D01*
X56378838Y-37909650D01*
X56386182Y-37915196D01*
X56522537Y-38039501D01*
X56528749Y-38046314D01*
X56639943Y-38193557D01*
X56644790Y-38201387D01*
X56727032Y-38366551D01*
X56730362Y-38375145D01*
X56780857Y-38552619D01*
X56782549Y-38561668D01*
X56799573Y-38745392D01*
X56799573Y-38754608D01*
X56782549Y-38938332D01*
X56780857Y-38947381D01*
X56730362Y-39124855D01*
X56727032Y-39133449D01*
X56644790Y-39298613D01*
X56639943Y-39306443D01*
X56528749Y-39453686D01*
X56522537Y-39460499D01*
X56386182Y-39584804D01*
X56378838Y-39590350D01*
X56221949Y-39687491D01*
X56213719Y-39691589D01*
X56041663Y-39758245D01*
X56032795Y-39760768D01*
X55851426Y-39794672D01*
X55842261Y-39795521D01*
X55657739Y-39795521D01*
X55657739Y-40704479D01*
X55842261Y-40704479D01*
X55851426Y-40705328D01*
X56032795Y-40739232D01*
X56041663Y-40741755D01*
X56213719Y-40808411D01*
X56221949Y-40812509D01*
X56378838Y-40909650D01*
X56386182Y-40915196D01*
X56522537Y-41039501D01*
X56528749Y-41046314D01*
X56639943Y-41193557D01*
X56644790Y-41201387D01*
X56727032Y-41366551D01*
X56730362Y-41375145D01*
X56780857Y-41552619D01*
X56782549Y-41561668D01*
X56799573Y-41745392D01*
X56799573Y-41754608D01*
X56782549Y-41938332D01*
X56780857Y-41947381D01*
X56730362Y-42124855D01*
X56727032Y-42133449D01*
X56644790Y-42298613D01*
X56639943Y-42306443D01*
X56528749Y-42453686D01*
X56522537Y-42460499D01*
X56386182Y-42584804D01*
X56378838Y-42590350D01*
X56221949Y-42687491D01*
X56213719Y-42691589D01*
X56041663Y-42758245D01*
X56032795Y-42760768D01*
X55851426Y-42794672D01*
X55842261Y-42795521D01*
X55657739Y-42795521D01*
X55657739Y-45704479D01*
X55842261Y-45704479D01*
X55851426Y-45705328D01*
X56032795Y-45739232D01*
X56041663Y-45741755D01*
X56213719Y-45808411D01*
X56221949Y-45812509D01*
X56378838Y-45909650D01*
X56386182Y-45915196D01*
X56522537Y-46039501D01*
X56528749Y-46046314D01*
X56639943Y-46193557D01*
X56644790Y-46201387D01*
X56727032Y-46366551D01*
X56730362Y-46375145D01*
X56780857Y-46552619D01*
X56782549Y-46561668D01*
X56799573Y-46745392D01*
X56799573Y-46754608D01*
X56782549Y-46938332D01*
X56780857Y-46947381D01*
X56730362Y-47124855D01*
X56727032Y-47133449D01*
X56644790Y-47298613D01*
X56639943Y-47306443D01*
X56528749Y-47453686D01*
X56522537Y-47460499D01*
X56386182Y-47584804D01*
X56378838Y-47590350D01*
X56221949Y-47687491D01*
X56213719Y-47691589D01*
X56041663Y-47758245D01*
X56032795Y-47760768D01*
X55851426Y-47794672D01*
X55842261Y-47795521D01*
X55657739Y-47795521D01*
X55657739Y-64700000D01*
X57496435Y-64700000D01*
X57496435Y-63299745D01*
X57247399Y-63281934D01*
X57240344Y-63280920D01*
X56996364Y-63227845D01*
X56989538Y-63225840D01*
X56755596Y-63138585D01*
X56749123Y-63135629D01*
X56529977Y-63015965D01*
X56523988Y-63012116D01*
X56324110Y-62862490D01*
X56318727Y-62857825D01*
X56142175Y-62681273D01*
X56137510Y-62675890D01*
X55987884Y-62476012D01*
X55984035Y-62470023D01*
X55864371Y-62250877D01*
X55861415Y-62244404D01*
X55774160Y-62010462D01*
X55772155Y-62003636D01*
X55719080Y-61759656D01*
X55718066Y-61752601D01*
X55700255Y-61503565D01*
X55700255Y-61496435D01*
X55718066Y-61247399D01*
X55719080Y-61240344D01*
X55772155Y-60996364D01*
X55774160Y-60989538D01*
X55861415Y-60755596D01*
X55864371Y-60749123D01*
X55984035Y-60529977D01*
X55987884Y-60523988D01*
X56137510Y-60324110D01*
X56142175Y-60318727D01*
X56318727Y-60142175D01*
X56324110Y-60137510D01*
X56523988Y-59987884D01*
X56529977Y-59984035D01*
X56749123Y-59864371D01*
X56755596Y-59861415D01*
X56989538Y-59774160D01*
X56996364Y-59772155D01*
X57240344Y-59719080D01*
X57247399Y-59718066D01*
X57496435Y-59700255D01*
X57503565Y-59700255D01*
X57752601Y-59718066D01*
X57759656Y-59719080D01*
X58003636Y-59772155D01*
X58010462Y-59774160D01*
X58244404Y-59861415D01*
X58250877Y-59864371D01*
X58470023Y-59984035D01*
X58476012Y-59987884D01*
X58675890Y-60137510D01*
X58681273Y-60142175D01*
X58857825Y-60318727D01*
X58862490Y-60324110D01*
X59012116Y-60523988D01*
X59015965Y-60529977D01*
X59135629Y-60749123D01*
X59138585Y-60755596D01*
X59225840Y-60989538D01*
X59227845Y-60996364D01*
X59280920Y-61240344D01*
X59281934Y-61247399D01*
X59299745Y-61496435D01*
X59299745Y-61503565D01*
X59281934Y-61752601D01*
X59280920Y-61759656D01*
X59227845Y-62003636D01*
X59225840Y-62010462D01*
X59138585Y-62244404D01*
X59135629Y-62250877D01*
X59015965Y-62470023D01*
X59012116Y-62476012D01*
X58862490Y-62675890D01*
X58857825Y-62681273D01*
X58681273Y-62857825D01*
X58675890Y-62862490D01*
X58476012Y-63012116D01*
X58470023Y-63015965D01*
X58250877Y-63135629D01*
X58244404Y-63138585D01*
X58010462Y-63225840D01*
X58003636Y-63227845D01*
X57759656Y-63280920D01*
X57752601Y-63281934D01*
X57503565Y-63299745D01*
X57496435Y-63299745D01*
X57496435Y-64700000D01*
X61157739Y-64700000D01*
X61157739Y-47795521D01*
X61148574Y-47794672D01*
X60967205Y-47760768D01*
X60958337Y-47758245D01*
X60786281Y-47691589D01*
X60778051Y-47687491D01*
X60621162Y-47590350D01*
X60613818Y-47584804D01*
X60477463Y-47460499D01*
X60471251Y-47453686D01*
X60360057Y-47306443D01*
X60355210Y-47298613D01*
X60272968Y-47133449D01*
X60269638Y-47124855D01*
X60219143Y-46947381D01*
X60217451Y-46938332D01*
X60200427Y-46754608D01*
X60200427Y-46745392D01*
X60217451Y-46561668D01*
X60219143Y-46552619D01*
X60269638Y-46375145D01*
X60272968Y-46366551D01*
X60355210Y-46201387D01*
X60360057Y-46193557D01*
X60471251Y-46046314D01*
X60477463Y-46039501D01*
X60613818Y-45915196D01*
X60621162Y-45909650D01*
X60778051Y-45812509D01*
X60786281Y-45808411D01*
X60958337Y-45741755D01*
X60967205Y-45739232D01*
X61148574Y-45705328D01*
X61157739Y-45704479D01*
X61157739Y-42795521D01*
X61148574Y-42794672D01*
X60967205Y-42760768D01*
X60958337Y-42758245D01*
X60786281Y-42691589D01*
X60778051Y-42687491D01*
X60621162Y-42590350D01*
X60613818Y-42584804D01*
X60477463Y-42460499D01*
X60471251Y-42453686D01*
X60360057Y-42306443D01*
X60355210Y-42298613D01*
X60272968Y-42133449D01*
X60269638Y-42124855D01*
X60219143Y-41947381D01*
X60217451Y-41938332D01*
X60200427Y-41754608D01*
X60200427Y-41745392D01*
X60217451Y-41561668D01*
X60219143Y-41552619D01*
X60269638Y-41375145D01*
X60272968Y-41366551D01*
X60355210Y-41201387D01*
X60360057Y-41193557D01*
X60471251Y-41046314D01*
X60477463Y-41039501D01*
X60613818Y-40915196D01*
X60621162Y-40909650D01*
X60778051Y-40812509D01*
X60786281Y-40808411D01*
X60958337Y-40741755D01*
X60967205Y-40739232D01*
X61148574Y-40705328D01*
X61157739Y-40704479D01*
X61157739Y-39795521D01*
X61148574Y-39794672D01*
X60967205Y-39760768D01*
X60958337Y-39758245D01*
X60786281Y-39691589D01*
X60778051Y-39687491D01*
X60621162Y-39590350D01*
X60613818Y-39584804D01*
X60477463Y-39460499D01*
X60471251Y-39453686D01*
X60360057Y-39306443D01*
X60355210Y-39298613D01*
X60272968Y-39133449D01*
X60269638Y-39124855D01*
X60219143Y-38947381D01*
X60217451Y-38938332D01*
X60200427Y-38754608D01*
X60200427Y-38745392D01*
X60217451Y-38561668D01*
X60219143Y-38552619D01*
X60269638Y-38375145D01*
X60272968Y-38366551D01*
X60355210Y-38201387D01*
X60360057Y-38193557D01*
X60471251Y-38046314D01*
X60477463Y-38039501D01*
X60613818Y-37915196D01*
X60621162Y-37909650D01*
X60778051Y-37812509D01*
X60786281Y-37808411D01*
X60958337Y-37741755D01*
X60967205Y-37739232D01*
X61148574Y-37705328D01*
X61157739Y-37704479D01*
X61157739Y-34795521D01*
X61148574Y-34794672D01*
X60967205Y-34760768D01*
X60958337Y-34758245D01*
X60786281Y-34691589D01*
X60778051Y-34687491D01*
X60621162Y-34590350D01*
X60613818Y-34584804D01*
X60477463Y-34460499D01*
X60471251Y-34453686D01*
X60360057Y-34306443D01*
X60355210Y-34298613D01*
X60272968Y-34133449D01*
X60269638Y-34124855D01*
X60219143Y-33947381D01*
X60217451Y-33938332D01*
X60200427Y-33754608D01*
X60200427Y-33745392D01*
X60217451Y-33561668D01*
X60219143Y-33552619D01*
X60269638Y-33375145D01*
X60272968Y-33366551D01*
X60355210Y-33201387D01*
X60360057Y-33193557D01*
X60471251Y-33046314D01*
X60477463Y-33039501D01*
X60613818Y-32915196D01*
X60621162Y-32909650D01*
X60778051Y-32812509D01*
X60786281Y-32808411D01*
X60958337Y-32741755D01*
X60967205Y-32739232D01*
X61148574Y-32705328D01*
X61157739Y-32704479D01*
X61157739Y-31795521D01*
X61148574Y-31794672D01*
X60967205Y-31760768D01*
X60958337Y-31758245D01*
X60786281Y-31691589D01*
X60778051Y-31687491D01*
X60621162Y-31590350D01*
X60613818Y-31584804D01*
X60477463Y-31460499D01*
X60471251Y-31453686D01*
X60360057Y-31306443D01*
X60355210Y-31298613D01*
X60272968Y-31133449D01*
X60269638Y-31124855D01*
X60219143Y-30947381D01*
X60217451Y-30938332D01*
X60200427Y-30754608D01*
X60200427Y-30745392D01*
X60217451Y-30561668D01*
X60219143Y-30552619D01*
X60269638Y-30375145D01*
X60272968Y-30366551D01*
X60355210Y-30201387D01*
X60360057Y-30193557D01*
X60471251Y-30046314D01*
X60477463Y-30039501D01*
X60613818Y-29915196D01*
X60621162Y-29909650D01*
X60778051Y-29812509D01*
X60786281Y-29808411D01*
X60958337Y-29741755D01*
X60967205Y-29739232D01*
X61148574Y-29705328D01*
X61157739Y-29704479D01*
X61157739Y-26795521D01*
X61148574Y-26794672D01*
X60967205Y-26760768D01*
X60958337Y-26758245D01*
X60786281Y-26691589D01*
X60778051Y-26687491D01*
X60621162Y-26590350D01*
X60613818Y-26584804D01*
X60477463Y-26460499D01*
X60471251Y-26453686D01*
X60360057Y-26306443D01*
X60355210Y-26298613D01*
X60272968Y-26133449D01*
X60269638Y-26124855D01*
X60219143Y-25947381D01*
X60217451Y-25938332D01*
X60200427Y-25754608D01*
X60200427Y-25745392D01*
X60217451Y-25561668D01*
X60219143Y-25552619D01*
X60269638Y-25375145D01*
X60272968Y-25366551D01*
X60355210Y-25201387D01*
X60360057Y-25193557D01*
X60471251Y-25046314D01*
X60477463Y-25039501D01*
X60613818Y-24915196D01*
X60621162Y-24909650D01*
X60778051Y-24812509D01*
X60786281Y-24808411D01*
X60958337Y-24741755D01*
X60967205Y-24739232D01*
X61148574Y-24705328D01*
X61157739Y-24704479D01*
X61157739Y-23795521D01*
X61148574Y-23794672D01*
X60967205Y-23760768D01*
X60958337Y-23758245D01*
X60786281Y-23691589D01*
X60778051Y-23687491D01*
X60621162Y-23590350D01*
X60613818Y-23584804D01*
X60477463Y-23460499D01*
X60471251Y-23453686D01*
X60360057Y-23306443D01*
X60355210Y-23298613D01*
X60272968Y-23133449D01*
X60269638Y-23124855D01*
X60219143Y-22947381D01*
X60217451Y-22938332D01*
X60200427Y-22754608D01*
X60200427Y-22745392D01*
X60217451Y-22561668D01*
X60219143Y-22552619D01*
X60269638Y-22375145D01*
X60272968Y-22366551D01*
X60355210Y-22201387D01*
X60360057Y-22193557D01*
X60471251Y-22046314D01*
X60477463Y-22039501D01*
X60613818Y-21915196D01*
X60621162Y-21909650D01*
X60778051Y-21812509D01*
X60786281Y-21808411D01*
X60958337Y-21741755D01*
X60967205Y-21739232D01*
X61148574Y-21705328D01*
X61157739Y-21704479D01*
X61157739Y-18795521D01*
X61148574Y-18794672D01*
X60967205Y-18760768D01*
X60958337Y-18758245D01*
X60786281Y-18691589D01*
X60778051Y-18687491D01*
X60621162Y-18590350D01*
X60613818Y-18584804D01*
X60477463Y-18460499D01*
X60471251Y-18453686D01*
X60360057Y-18306443D01*
X60355210Y-18298613D01*
X60272968Y-18133449D01*
X60269638Y-18124855D01*
X60219143Y-17947381D01*
X60217451Y-17938332D01*
X60200427Y-17754608D01*
X60200427Y-17745392D01*
X60217451Y-17561668D01*
X60219143Y-17552619D01*
X60269638Y-17375145D01*
X60272968Y-17366551D01*
X60355210Y-17201387D01*
X60360057Y-17193557D01*
X60471251Y-17046314D01*
X60477463Y-17039501D01*
X60613818Y-16915196D01*
X60621162Y-16909650D01*
X60778051Y-16812509D01*
X60786281Y-16808411D01*
X60958337Y-16741755D01*
X60967205Y-16739232D01*
X61148574Y-16705328D01*
X61157739Y-16704479D01*
X61157739Y-15795521D01*
X61148574Y-15794672D01*
X60967205Y-15760768D01*
X60958337Y-15758245D01*
X60786281Y-15691589D01*
X60778051Y-15687491D01*
X60621162Y-15590350D01*
X60613818Y-15584804D01*
X60477463Y-15460499D01*
X60471251Y-15453686D01*
X60360057Y-15306443D01*
X60355210Y-15298613D01*
X60272968Y-15133449D01*
X60269638Y-15124855D01*
X60219143Y-14947381D01*
X60217451Y-14938332D01*
X60200427Y-14754608D01*
X60200427Y-14745392D01*
X60217451Y-14561668D01*
X60219143Y-14552619D01*
X60269638Y-14375145D01*
X60272968Y-14366551D01*
X60355210Y-14201387D01*
X60360057Y-14193557D01*
X60471251Y-14046314D01*
X60477463Y-14039501D01*
X60613818Y-13915196D01*
X60621162Y-13909650D01*
X60778051Y-13812509D01*
X60786281Y-13808411D01*
X60958337Y-13741755D01*
X60967205Y-13739232D01*
X61148574Y-13705328D01*
X61157739Y-13704479D01*
X61157739Y-10795521D01*
X61148574Y-10794672D01*
X60967205Y-10760768D01*
X60958337Y-10758245D01*
X60786281Y-10691589D01*
X60778051Y-10687491D01*
X60621162Y-10590350D01*
X60613818Y-10584804D01*
X60477463Y-10460499D01*
X60471251Y-10453686D01*
X60360057Y-10306443D01*
X60355210Y-10298613D01*
X60272968Y-10133449D01*
X60269638Y-10124855D01*
X60219143Y-9947381D01*
X60217451Y-9938332D01*
X60200427Y-9754608D01*
X60200427Y-9745392D01*
X60217451Y-9561668D01*
X60219143Y-9552619D01*
X60269638Y-9375145D01*
X60272968Y-9366551D01*
X60355210Y-9201387D01*
X60360057Y-9193557D01*
X60471251Y-9046314D01*
X60477463Y-9039501D01*
X60613818Y-8915196D01*
X60621162Y-8909650D01*
X60778051Y-8812509D01*
X60786281Y-8808411D01*
X60958337Y-8741755D01*
X60967205Y-8739232D01*
X61148574Y-8705328D01*
X61157739Y-8704479D01*
X61342261Y-8704479D01*
X61351426Y-8705328D01*
X61532795Y-8739232D01*
X61541663Y-8741755D01*
X61713719Y-8808411D01*
X61721949Y-8812509D01*
X61878838Y-8909650D01*
X61886182Y-8915196D01*
X62022537Y-9039501D01*
X62028749Y-9046314D01*
X62139943Y-9193557D01*
X62144790Y-9201387D01*
X62227032Y-9366551D01*
X62230362Y-9375145D01*
X62280857Y-9552619D01*
X62282549Y-9561668D01*
X62299573Y-9745392D01*
X62299573Y-9754608D01*
X62282549Y-9938332D01*
X62280857Y-9947381D01*
X62230362Y-10124855D01*
X62227032Y-10133449D01*
X62144790Y-10298613D01*
X62139943Y-10306443D01*
X62028749Y-10453686D01*
X62022537Y-10460499D01*
X61886182Y-10584804D01*
X61878838Y-10590350D01*
X61721949Y-10687491D01*
X61713719Y-10691589D01*
X61541663Y-10758245D01*
X61532795Y-10760768D01*
X61351426Y-10794672D01*
X61342261Y-10795521D01*
X61157739Y-10795521D01*
X61157739Y-13704479D01*
X61342261Y-13704479D01*
X61351426Y-13705328D01*
X61532795Y-13739232D01*
X61541663Y-13741755D01*
X61713719Y-13808411D01*
X61721949Y-13812509D01*
X61878838Y-13909650D01*
X61886182Y-13915196D01*
X62022537Y-14039501D01*
X62028749Y-14046314D01*
X62139943Y-14193557D01*
X62144790Y-14201387D01*
X62227032Y-14366551D01*
X62230362Y-14375145D01*
X62280857Y-14552619D01*
X62282549Y-14561668D01*
X62299573Y-14745392D01*
X62299573Y-14754608D01*
X62282549Y-14938332D01*
X62280857Y-14947381D01*
X62230362Y-15124855D01*
X62227032Y-15133449D01*
X62144790Y-15298613D01*
X62139943Y-15306443D01*
X62028749Y-15453686D01*
X62022537Y-15460499D01*
X61886182Y-15584804D01*
X61878838Y-15590350D01*
X61721949Y-15687491D01*
X61713719Y-15691589D01*
X61541663Y-15758245D01*
X61532795Y-15760768D01*
X61351426Y-15794672D01*
X61342261Y-15795521D01*
X61157739Y-15795521D01*
X61157739Y-16704479D01*
X61342261Y-16704479D01*
X61351426Y-16705328D01*
X61532795Y-16739232D01*
X61541663Y-16741755D01*
X61713719Y-16808411D01*
X61721949Y-16812509D01*
X61878838Y-16909650D01*
X61886182Y-16915196D01*
X62022537Y-17039501D01*
X62028749Y-17046314D01*
X62139943Y-17193557D01*
X62144790Y-17201387D01*
X62227032Y-17366551D01*
X62230362Y-17375145D01*
X62280857Y-17552619D01*
X62282549Y-17561668D01*
X62299573Y-17745392D01*
X62299573Y-17754608D01*
X62282549Y-17938332D01*
X62280857Y-17947381D01*
X62230362Y-18124855D01*
X62227032Y-18133449D01*
X62144790Y-18298613D01*
X62139943Y-18306443D01*
X62028749Y-18453686D01*
X62022537Y-18460499D01*
X61886182Y-18584804D01*
X61878838Y-18590350D01*
X61721949Y-18687491D01*
X61713719Y-18691589D01*
X61541663Y-18758245D01*
X61532795Y-18760768D01*
X61351426Y-18794672D01*
X61342261Y-18795521D01*
X61157739Y-18795521D01*
X61157739Y-21704479D01*
X61342261Y-21704479D01*
X61351426Y-21705328D01*
X61532795Y-21739232D01*
X61541663Y-21741755D01*
X61713719Y-21808411D01*
X61721949Y-21812509D01*
X61878838Y-21909650D01*
X61886182Y-21915196D01*
X62022537Y-22039501D01*
X62028749Y-22046314D01*
X62139943Y-22193557D01*
X62144790Y-22201387D01*
X62227032Y-22366551D01*
X62230362Y-22375145D01*
X62280857Y-22552619D01*
X62282549Y-22561668D01*
X62299573Y-22745392D01*
X62299573Y-22754608D01*
X62282549Y-22938332D01*
X62280857Y-22947381D01*
X62230362Y-23124855D01*
X62227032Y-23133449D01*
X62144790Y-23298613D01*
X62139943Y-23306443D01*
X62028749Y-23453686D01*
X62022537Y-23460499D01*
X61886182Y-23584804D01*
X61878838Y-23590350D01*
X61721949Y-23687491D01*
X61713719Y-23691589D01*
X61541663Y-23758245D01*
X61532795Y-23760768D01*
X61351426Y-23794672D01*
X61342261Y-23795521D01*
X61157739Y-23795521D01*
X61157739Y-24704479D01*
X61342261Y-24704479D01*
X61351426Y-24705328D01*
X61532795Y-24739232D01*
X61541663Y-24741755D01*
X61713719Y-24808411D01*
X61721949Y-24812509D01*
X61878838Y-24909650D01*
X61886182Y-24915196D01*
X62022537Y-25039501D01*
X62028749Y-25046314D01*
X62139943Y-25193557D01*
X62144790Y-25201387D01*
X62227032Y-25366551D01*
X62230362Y-25375145D01*
X62280857Y-25552619D01*
X62282549Y-25561668D01*
X62299573Y-25745392D01*
X62299573Y-25754608D01*
X62282549Y-25938332D01*
X62280857Y-25947381D01*
X62230362Y-26124855D01*
X62227032Y-26133449D01*
X62144790Y-26298613D01*
X62139943Y-26306443D01*
X62028749Y-26453686D01*
X62022537Y-26460499D01*
X61886182Y-26584804D01*
X61878838Y-26590350D01*
X61721949Y-26687491D01*
X61713719Y-26691589D01*
X61541663Y-26758245D01*
X61532795Y-26760768D01*
X61351426Y-26794672D01*
X61342261Y-26795521D01*
X61157739Y-26795521D01*
X61157739Y-29704479D01*
X61342261Y-29704479D01*
X61351426Y-29705328D01*
X61532795Y-29739232D01*
X61541663Y-29741755D01*
X61713719Y-29808411D01*
X61721949Y-29812509D01*
X61878838Y-29909650D01*
X61886182Y-29915196D01*
X62022537Y-30039501D01*
X62028749Y-30046314D01*
X62139943Y-30193557D01*
X62144790Y-30201387D01*
X62227032Y-30366551D01*
X62230362Y-30375145D01*
X62280857Y-30552619D01*
X62282549Y-30561668D01*
X62299573Y-30745392D01*
X62299573Y-30754608D01*
X62282549Y-30938332D01*
X62280857Y-30947381D01*
X62230362Y-31124855D01*
X62227032Y-31133449D01*
X62144790Y-31298613D01*
X62139943Y-31306443D01*
X62028749Y-31453686D01*
X62022537Y-31460499D01*
X61886182Y-31584804D01*
X61878838Y-31590350D01*
X61721949Y-31687491D01*
X61713719Y-31691589D01*
X61541663Y-31758245D01*
X61532795Y-31760768D01*
X61351426Y-31794672D01*
X61342261Y-31795521D01*
X61157739Y-31795521D01*
X61157739Y-32704479D01*
X61342261Y-32704479D01*
X61351426Y-32705328D01*
X61532795Y-32739232D01*
X61541663Y-32741755D01*
X61713719Y-32808411D01*
X61721949Y-32812509D01*
X61878838Y-32909650D01*
X61886182Y-32915196D01*
X62022537Y-33039501D01*
X62028749Y-33046314D01*
X62139943Y-33193557D01*
X62144790Y-33201387D01*
X62227032Y-33366551D01*
X62230362Y-33375145D01*
X62280857Y-33552619D01*
X62282549Y-33561668D01*
X62299573Y-33745392D01*
X62299573Y-33754608D01*
X62282549Y-33938332D01*
X62280857Y-33947381D01*
X62230362Y-34124855D01*
X62227032Y-34133449D01*
X62144790Y-34298613D01*
X62139943Y-34306443D01*
X62028749Y-34453686D01*
X62022537Y-34460499D01*
X61886182Y-34584804D01*
X61878838Y-34590350D01*
X61721949Y-34687491D01*
X61713719Y-34691589D01*
X61541663Y-34758245D01*
X61532795Y-34760768D01*
X61351426Y-34794672D01*
X61342261Y-34795521D01*
X61157739Y-34795521D01*
X61157739Y-37704479D01*
X61342261Y-37704479D01*
X61351426Y-37705328D01*
X61532795Y-37739232D01*
X61541663Y-37741755D01*
X61713719Y-37808411D01*
X61721949Y-37812509D01*
X61878838Y-37909650D01*
X61886182Y-37915196D01*
X62022537Y-38039501D01*
X62028749Y-38046314D01*
X62139943Y-38193557D01*
X62144790Y-38201387D01*
X62227032Y-38366551D01*
X62230362Y-38375145D01*
X62280857Y-38552619D01*
X62282549Y-38561668D01*
X62299573Y-38745392D01*
X62299573Y-38754608D01*
X62282549Y-38938332D01*
X62280857Y-38947381D01*
X62230362Y-39124855D01*
X62227032Y-39133449D01*
X62144790Y-39298613D01*
X62139943Y-39306443D01*
X62028749Y-39453686D01*
X62022537Y-39460499D01*
X61886182Y-39584804D01*
X61878838Y-39590350D01*
X61721949Y-39687491D01*
X61713719Y-39691589D01*
X61541663Y-39758245D01*
X61532795Y-39760768D01*
X61351426Y-39794672D01*
X61342261Y-39795521D01*
X61157739Y-39795521D01*
X61157739Y-40704479D01*
X61342261Y-40704479D01*
X61351426Y-40705328D01*
X61532795Y-40739232D01*
X61541663Y-40741755D01*
X61713719Y-40808411D01*
X61721949Y-40812509D01*
X61878838Y-40909650D01*
X61886182Y-40915196D01*
X62022537Y-41039501D01*
X62028749Y-41046314D01*
X62139943Y-41193557D01*
X62144790Y-41201387D01*
X62227032Y-41366551D01*
X62230362Y-41375145D01*
X62280857Y-41552619D01*
X62282549Y-41561668D01*
X62299573Y-41745392D01*
X62299573Y-41754608D01*
X62282549Y-41938332D01*
X62280857Y-41947381D01*
X62230362Y-42124855D01*
X62227032Y-42133449D01*
X62144790Y-42298613D01*
X62139943Y-42306443D01*
X62028749Y-42453686D01*
X62022537Y-42460499D01*
X61886182Y-42584804D01*
X61878838Y-42590350D01*
X61721949Y-42687491D01*
X61713719Y-42691589D01*
X61541663Y-42758245D01*
X61532795Y-42760768D01*
X61351426Y-42794672D01*
X61342261Y-42795521D01*
X61157739Y-42795521D01*
X61157739Y-45704479D01*
X61342261Y-45704479D01*
X61351426Y-45705328D01*
X61532795Y-45739232D01*
X61541663Y-45741755D01*
X61713719Y-45808411D01*
X61721949Y-45812509D01*
X61878838Y-45909650D01*
X61886182Y-45915196D01*
X62022537Y-46039501D01*
X62028749Y-46046314D01*
X62139943Y-46193557D01*
X62144790Y-46201387D01*
X62227032Y-46366551D01*
X62230362Y-46375145D01*
X62280857Y-46552619D01*
X62282549Y-46561668D01*
X62299573Y-46745392D01*
X62299573Y-46754608D01*
X62282549Y-46938332D01*
X62280857Y-46947381D01*
X62230362Y-47124855D01*
X62227032Y-47133449D01*
X62144790Y-47298613D01*
X62139943Y-47306443D01*
X62028749Y-47453686D01*
X62022537Y-47460499D01*
X61886182Y-47584804D01*
X61878838Y-47590350D01*
X61721949Y-47687491D01*
X61713719Y-47691589D01*
X61541663Y-47758245D01*
X61532795Y-47760768D01*
X61351426Y-47794672D01*
X61342261Y-47795521D01*
X61157739Y-47795521D01*
X61157739Y-64700000D01*
X73995645Y-64700000D01*
X73995645Y-56449619D01*
X73778613Y-56430631D01*
X73770038Y-56429120D01*
X73559582Y-56372728D01*
X73551423Y-56369757D01*
X73353960Y-56277680D01*
X73346419Y-56273326D01*
X73167951Y-56148362D01*
X73161291Y-56142773D01*
X73007227Y-55988709D01*
X73001638Y-55982049D01*
X72876674Y-55803581D01*
X72872320Y-55796040D01*
X72780243Y-55598577D01*
X72777272Y-55590418D01*
X72720880Y-55379962D01*
X72719369Y-55371387D01*
X72700192Y-55152191D01*
X72700000Y-55147806D01*
X72700000Y-54352194D01*
X72700192Y-54347809D01*
X72719369Y-54128613D01*
X72720880Y-54120038D01*
X72777272Y-53909582D01*
X72780243Y-53901423D01*
X72872320Y-53703960D01*
X72876674Y-53696419D01*
X73001638Y-53517951D01*
X73007227Y-53511291D01*
X73161291Y-53357227D01*
X73167951Y-53351638D01*
X73346419Y-53226674D01*
X73353960Y-53222320D01*
X73551423Y-53130243D01*
X73559582Y-53127272D01*
X73770038Y-53070880D01*
X73778613Y-53069369D01*
X73995645Y-53050381D01*
X73995645Y-51449619D01*
X73778613Y-51430631D01*
X73770038Y-51429120D01*
X73559582Y-51372728D01*
X73551423Y-51369757D01*
X73353960Y-51277680D01*
X73346419Y-51273326D01*
X73167951Y-51148362D01*
X73161291Y-51142773D01*
X73007227Y-50988709D01*
X73001638Y-50982049D01*
X72876674Y-50803581D01*
X72872320Y-50796040D01*
X72780243Y-50598577D01*
X72777272Y-50590418D01*
X72720880Y-50379962D01*
X72719369Y-50371387D01*
X72700192Y-50152191D01*
X72700000Y-50147806D01*
X72700000Y-49352194D01*
X72700192Y-49347809D01*
X72719369Y-49128613D01*
X72720880Y-49120038D01*
X72777272Y-48909582D01*
X72780243Y-48901423D01*
X72872320Y-48703960D01*
X72876674Y-48696419D01*
X73001638Y-48517951D01*
X73007227Y-48511291D01*
X73161291Y-48357227D01*
X73167951Y-48351638D01*
X73346419Y-48226674D01*
X73353960Y-48222320D01*
X73551423Y-48130243D01*
X73559582Y-48127272D01*
X73770038Y-48070880D01*
X73778613Y-48069369D01*
X73995645Y-48050381D01*
X73995645Y-46449619D01*
X73778613Y-46430631D01*
X73770038Y-46429120D01*
X73559582Y-46372728D01*
X73551423Y-46369757D01*
X73353960Y-46277680D01*
X73346419Y-46273326D01*
X73167951Y-46148362D01*
X73161291Y-46142773D01*
X73007227Y-45988709D01*
X73001638Y-45982049D01*
X72876674Y-45803581D01*
X72872320Y-45796040D01*
X72780243Y-45598577D01*
X72777272Y-45590418D01*
X72720880Y-45379962D01*
X72719369Y-45371387D01*
X72700192Y-45152191D01*
X72700000Y-45147806D01*
X72700000Y-44352194D01*
X72700192Y-44347809D01*
X72719369Y-44128613D01*
X72720880Y-44120038D01*
X72777272Y-43909582D01*
X72780243Y-43901423D01*
X72872320Y-43703960D01*
X72876674Y-43696419D01*
X73001638Y-43517951D01*
X73007227Y-43511291D01*
X73161291Y-43357227D01*
X73167951Y-43351638D01*
X73346419Y-43226674D01*
X73353960Y-43222320D01*
X73551423Y-43130243D01*
X73559582Y-43127272D01*
X73770038Y-43070880D01*
X73778613Y-43069369D01*
X73995645Y-43050381D01*
X73995645Y-41449619D01*
X73778613Y-41430631D01*
X73770038Y-41429120D01*
X73559582Y-41372728D01*
X73551423Y-41369757D01*
X73353960Y-41277680D01*
X73346419Y-41273326D01*
X73167951Y-41148362D01*
X73161291Y-41142773D01*
X73007227Y-40988709D01*
X73001638Y-40982049D01*
X72876674Y-40803581D01*
X72872320Y-40796040D01*
X72780243Y-40598577D01*
X72777272Y-40590418D01*
X72720880Y-40379962D01*
X72719369Y-40371387D01*
X72700192Y-40152191D01*
X72700000Y-40147806D01*
X72700000Y-39352194D01*
X72700192Y-39347809D01*
X72719369Y-39128613D01*
X72720880Y-39120038D01*
X72777272Y-38909582D01*
X72780243Y-38901423D01*
X72872320Y-38703960D01*
X72876674Y-38696419D01*
X73001638Y-38517951D01*
X73007227Y-38511291D01*
X73161291Y-38357227D01*
X73167951Y-38351638D01*
X73346419Y-38226674D01*
X73353960Y-38222320D01*
X73551423Y-38130243D01*
X73559582Y-38127272D01*
X73770038Y-38070880D01*
X73778613Y-38069369D01*
X73995645Y-38050381D01*
X73995645Y-36449619D01*
X73778613Y-36430631D01*
X73770038Y-36429120D01*
X73559582Y-36372728D01*
X73551423Y-36369757D01*
X73353960Y-36277680D01*
X73346419Y-36273326D01*
X73167951Y-36148362D01*
X73161291Y-36142773D01*
X73007227Y-35988709D01*
X73001638Y-35982049D01*
X72876674Y-35803581D01*
X72872320Y-35796040D01*
X72780243Y-35598577D01*
X72777272Y-35590418D01*
X72720880Y-35379962D01*
X72719369Y-35371387D01*
X72700192Y-35152191D01*
X72700000Y-35147806D01*
X72700000Y-34352194D01*
X72700192Y-34347809D01*
X72719369Y-34128613D01*
X72720880Y-34120038D01*
X72777272Y-33909582D01*
X72780243Y-33901423D01*
X72872320Y-33703960D01*
X72876674Y-33696419D01*
X73001638Y-33517951D01*
X73007227Y-33511291D01*
X73161291Y-33357227D01*
X73167951Y-33351638D01*
X73346419Y-33226674D01*
X73353960Y-33222320D01*
X73551423Y-33130243D01*
X73559582Y-33127272D01*
X73770038Y-33070880D01*
X73778613Y-33069369D01*
X73995645Y-33050381D01*
X73995645Y-31449619D01*
X73778613Y-31430631D01*
X73770038Y-31429120D01*
X73559582Y-31372728D01*
X73551423Y-31369757D01*
X73353960Y-31277680D01*
X73346419Y-31273326D01*
X73167951Y-31148362D01*
X73161291Y-31142773D01*
X73007227Y-30988709D01*
X73001638Y-30982049D01*
X72876674Y-30803581D01*
X72872320Y-30796040D01*
X72780243Y-30598577D01*
X72777272Y-30590418D01*
X72720880Y-30379962D01*
X72719369Y-30371387D01*
X72700192Y-30152191D01*
X72700000Y-30147806D01*
X72700000Y-29352194D01*
X72700192Y-29347809D01*
X72719369Y-29128613D01*
X72720880Y-29120038D01*
X72777272Y-28909582D01*
X72780243Y-28901423D01*
X72872320Y-28703960D01*
X72876674Y-28696419D01*
X73001638Y-28517951D01*
X73007227Y-28511291D01*
X73161291Y-28357227D01*
X73167951Y-28351638D01*
X73346419Y-28226674D01*
X73353960Y-28222320D01*
X73551423Y-28130243D01*
X73559582Y-28127272D01*
X73770038Y-28070880D01*
X73778613Y-28069369D01*
X73995645Y-28050381D01*
X73995645Y-26449619D01*
X73778613Y-26430631D01*
X73770038Y-26429120D01*
X73559582Y-26372728D01*
X73551423Y-26369757D01*
X73353960Y-26277680D01*
X73346419Y-26273326D01*
X73167951Y-26148362D01*
X73161291Y-26142773D01*
X73007227Y-25988709D01*
X73001638Y-25982049D01*
X72876674Y-25803581D01*
X72872320Y-25796040D01*
X72780243Y-25598577D01*
X72777272Y-25590418D01*
X72720880Y-25379962D01*
X72719369Y-25371387D01*
X72700192Y-25152191D01*
X72700000Y-25147806D01*
X72700000Y-24352194D01*
X72700192Y-24347809D01*
X72719369Y-24128613D01*
X72720880Y-24120038D01*
X72777272Y-23909582D01*
X72780243Y-23901423D01*
X72872320Y-23703960D01*
X72876674Y-23696419D01*
X73001638Y-23517951D01*
X73007227Y-23511291D01*
X73161291Y-23357227D01*
X73167951Y-23351638D01*
X73346419Y-23226674D01*
X73353960Y-23222320D01*
X73551423Y-23130243D01*
X73559582Y-23127272D01*
X73770038Y-23070880D01*
X73778613Y-23069369D01*
X73995645Y-23050381D01*
X73995645Y-21449619D01*
X73778613Y-21430631D01*
X73770038Y-21429120D01*
X73559582Y-21372728D01*
X73551423Y-21369757D01*
X73353960Y-21277680D01*
X73346419Y-21273326D01*
X73167951Y-21148362D01*
X73161291Y-21142773D01*
X73007227Y-20988709D01*
X73001638Y-20982049D01*
X72876674Y-20803581D01*
X72872320Y-20796040D01*
X72780243Y-20598577D01*
X72777272Y-20590418D01*
X72720880Y-20379962D01*
X72719369Y-20371387D01*
X72700192Y-20152191D01*
X72700000Y-20147806D01*
X72700000Y-19352194D01*
X72700192Y-19347809D01*
X72719369Y-19128613D01*
X72720880Y-19120038D01*
X72777272Y-18909582D01*
X72780243Y-18901423D01*
X72872320Y-18703960D01*
X72876674Y-18696419D01*
X73001638Y-18517951D01*
X73007227Y-18511291D01*
X73161291Y-18357227D01*
X73167951Y-18351638D01*
X73346419Y-18226674D01*
X73353960Y-18222320D01*
X73551423Y-18130243D01*
X73559582Y-18127272D01*
X73770038Y-18070880D01*
X73778613Y-18069369D01*
X73995645Y-18050381D01*
X73995645Y-16449619D01*
X73778613Y-16430631D01*
X73770038Y-16429120D01*
X73559582Y-16372728D01*
X73551423Y-16369757D01*
X73353960Y-16277680D01*
X73346419Y-16273326D01*
X73167951Y-16148362D01*
X73161291Y-16142773D01*
X73007227Y-15988709D01*
X73001638Y-15982049D01*
X72876674Y-15803581D01*
X72872320Y-15796040D01*
X72780243Y-15598577D01*
X72777272Y-15590418D01*
X72720880Y-15379962D01*
X72719369Y-15371387D01*
X72700192Y-15152191D01*
X72700000Y-15147806D01*
X72700000Y-14352194D01*
X72700192Y-14347809D01*
X72719369Y-14128613D01*
X72720880Y-14120038D01*
X72777272Y-13909582D01*
X72780243Y-13901423D01*
X72872320Y-13703960D01*
X72876674Y-13696419D01*
X73001638Y-13517951D01*
X73007227Y-13511291D01*
X73161291Y-13357227D01*
X73167951Y-13351638D01*
X73346419Y-13226674D01*
X73353960Y-13222320D01*
X73551423Y-13130243D01*
X73559582Y-13127272D01*
X73770038Y-13070880D01*
X73778613Y-13069369D01*
X73995645Y-13050381D01*
X73995645Y-11449619D01*
X73778613Y-11430631D01*
X73770038Y-11429120D01*
X73559582Y-11372728D01*
X73551423Y-11369757D01*
X73353960Y-11277680D01*
X73346419Y-11273326D01*
X73167951Y-11148362D01*
X73161291Y-11142773D01*
X73007227Y-10988709D01*
X73001638Y-10982049D01*
X72876674Y-10803581D01*
X72872320Y-10796040D01*
X72780243Y-10598577D01*
X72777272Y-10590418D01*
X72720880Y-10379962D01*
X72719369Y-10371387D01*
X72700192Y-10152191D01*
X72700000Y-10147806D01*
X72700000Y-9352200D01*
X72700192Y-9347809D01*
X72719369Y-9128613D01*
X72720880Y-9120038D01*
X72777272Y-8909582D01*
X72780243Y-8901423D01*
X72872320Y-8703960D01*
X72876674Y-8696419D01*
X73001638Y-8517951D01*
X73007227Y-8511291D01*
X73161291Y-8357227D01*
X73167951Y-8351638D01*
X73346419Y-8226674D01*
X73353960Y-8222320D01*
X73551423Y-8130243D01*
X73559582Y-8127272D01*
X73770038Y-8070880D01*
X73778613Y-8069369D01*
X73995645Y-8050381D01*
X74004355Y-8050381D01*
X74221387Y-8069369D01*
X74229962Y-8070880D01*
X74440418Y-8127272D01*
X74448577Y-8130243D01*
X74646040Y-8222320D01*
X74653581Y-8226674D01*
X74832049Y-8351638D01*
X74838709Y-8357227D01*
X74992773Y-8511291D01*
X74998362Y-8517951D01*
X75123326Y-8696419D01*
X75127680Y-8703960D01*
X75219757Y-8901423D01*
X75222728Y-8909582D01*
X75279120Y-9120038D01*
X75280631Y-9128613D01*
X75299808Y-9347809D01*
X75300000Y-9352200D01*
X75300000Y-10147806D01*
X75299808Y-10152191D01*
X75280631Y-10371387D01*
X75279120Y-10379962D01*
X75222728Y-10590418D01*
X75219757Y-10598577D01*
X75127680Y-10796040D01*
X75123326Y-10803581D01*
X74998362Y-10982049D01*
X74992773Y-10988709D01*
X74838709Y-11142773D01*
X74832049Y-11148362D01*
X74653581Y-11273326D01*
X74646040Y-11277680D01*
X74448577Y-11369757D01*
X74440418Y-11372728D01*
X74229962Y-11429120D01*
X74221387Y-11430631D01*
X74004355Y-11449619D01*
X73995645Y-11449619D01*
X73995645Y-13050381D01*
X74004355Y-13050381D01*
X74221387Y-13069369D01*
X74229962Y-13070880D01*
X74440418Y-13127272D01*
X74448577Y-13130243D01*
X74646040Y-13222320D01*
X74653581Y-13226674D01*
X74832049Y-13351638D01*
X74838709Y-13357227D01*
X74992773Y-13511291D01*
X74998362Y-13517951D01*
X75123326Y-13696419D01*
X75127680Y-13703960D01*
X75219757Y-13901423D01*
X75222728Y-13909582D01*
X75279120Y-14120038D01*
X75280631Y-14128613D01*
X75299808Y-14347809D01*
X75300000Y-14352194D01*
X75300000Y-15147806D01*
X75299808Y-15152191D01*
X75280631Y-15371387D01*
X75279120Y-15379962D01*
X75222728Y-15590418D01*
X75219757Y-15598577D01*
X75127680Y-15796040D01*
X75123326Y-15803581D01*
X74998362Y-15982049D01*
X74992773Y-15988709D01*
X74838709Y-16142773D01*
X74832049Y-16148362D01*
X74653581Y-16273326D01*
X74646040Y-16277680D01*
X74448577Y-16369757D01*
X74440418Y-16372728D01*
X74229962Y-16429120D01*
X74221387Y-16430631D01*
X74004355Y-16449619D01*
X73995645Y-16449619D01*
X73995645Y-18050381D01*
X74004355Y-18050381D01*
X74221387Y-18069369D01*
X74229962Y-18070880D01*
X74440418Y-18127272D01*
X74448577Y-18130243D01*
X74646040Y-18222320D01*
X74653581Y-18226674D01*
X74832049Y-18351638D01*
X74838709Y-18357227D01*
X74992773Y-18511291D01*
X74998362Y-18517951D01*
X75123326Y-18696419D01*
X75127680Y-18703960D01*
X75219757Y-18901423D01*
X75222728Y-18909582D01*
X75279120Y-19120038D01*
X75280631Y-19128613D01*
X75299808Y-19347809D01*
X75300000Y-19352194D01*
X75300000Y-20147806D01*
X75299808Y-20152191D01*
X75280631Y-20371387D01*
X75279120Y-20379962D01*
X75222728Y-20590418D01*
X75219757Y-20598577D01*
X75127680Y-20796040D01*
X75123326Y-20803581D01*
X74998362Y-20982049D01*
X74992773Y-20988709D01*
X74838709Y-21142773D01*
X74832049Y-21148362D01*
X74653581Y-21273326D01*
X74646040Y-21277680D01*
X74448577Y-21369757D01*
X74440418Y-21372728D01*
X74229962Y-21429120D01*
X74221387Y-21430631D01*
X74004355Y-21449619D01*
X73995645Y-21449619D01*
X73995645Y-23050381D01*
X74004355Y-23050381D01*
X74221387Y-23069369D01*
X74229962Y-23070880D01*
X74440418Y-23127272D01*
X74448577Y-23130243D01*
X74646040Y-23222320D01*
X74653581Y-23226674D01*
X74832049Y-23351638D01*
X74838709Y-23357227D01*
X74992773Y-23511291D01*
X74998362Y-23517951D01*
X75123326Y-23696419D01*
X75127680Y-23703960D01*
X75219757Y-23901423D01*
X75222728Y-23909582D01*
X75279120Y-24120038D01*
X75280631Y-24128613D01*
X75299808Y-24347809D01*
X75300000Y-24352194D01*
X75300000Y-25147806D01*
X75299808Y-25152191D01*
X75280631Y-25371387D01*
X75279120Y-25379962D01*
X75222728Y-25590418D01*
X75219757Y-25598577D01*
X75127680Y-25796040D01*
X75123326Y-25803581D01*
X74998362Y-25982049D01*
X74992773Y-25988709D01*
X74838709Y-26142773D01*
X74832049Y-26148362D01*
X74653581Y-26273326D01*
X74646040Y-26277680D01*
X74448577Y-26369757D01*
X74440418Y-26372728D01*
X74229962Y-26429120D01*
X74221387Y-26430631D01*
X74004355Y-26449619D01*
X73995645Y-26449619D01*
X73995645Y-28050381D01*
X74004355Y-28050381D01*
X74221387Y-28069369D01*
X74229962Y-28070880D01*
X74440418Y-28127272D01*
X74448577Y-28130243D01*
X74646040Y-28222320D01*
X74653581Y-28226674D01*
X74832049Y-28351638D01*
X74838709Y-28357227D01*
X74992773Y-28511291D01*
X74998362Y-28517951D01*
X75123326Y-28696419D01*
X75127680Y-28703960D01*
X75219757Y-28901423D01*
X75222728Y-28909582D01*
X75279120Y-29120038D01*
X75280631Y-29128613D01*
X75299808Y-29347809D01*
X75300000Y-29352194D01*
X75300000Y-30147806D01*
X75299808Y-30152191D01*
X75280631Y-30371387D01*
X75279120Y-30379962D01*
X75222728Y-30590418D01*
X75219757Y-30598577D01*
X75127680Y-30796040D01*
X75123326Y-30803581D01*
X74998362Y-30982049D01*
X74992773Y-30988709D01*
X74838709Y-31142773D01*
X74832049Y-31148362D01*
X74653581Y-31273326D01*
X74646040Y-31277680D01*
X74448577Y-31369757D01*
X74440418Y-31372728D01*
X74229962Y-31429120D01*
X74221387Y-31430631D01*
X74004355Y-31449619D01*
X73995645Y-31449619D01*
X73995645Y-33050381D01*
X74004355Y-33050381D01*
X74221387Y-33069369D01*
X74229962Y-33070880D01*
X74440418Y-33127272D01*
X74448577Y-33130243D01*
X74646040Y-33222320D01*
X74653581Y-33226674D01*
X74832049Y-33351638D01*
X74838709Y-33357227D01*
X74992773Y-33511291D01*
X74998362Y-33517951D01*
X75123326Y-33696419D01*
X75127680Y-33703960D01*
X75219757Y-33901423D01*
X75222728Y-33909582D01*
X75279120Y-34120038D01*
X75280631Y-34128613D01*
X75299808Y-34347809D01*
X75300000Y-34352194D01*
X75300000Y-35147806D01*
X75299808Y-35152191D01*
X75280631Y-35371387D01*
X75279120Y-35379962D01*
X75222728Y-35590418D01*
X75219757Y-35598577D01*
X75127680Y-35796040D01*
X75123326Y-35803581D01*
X74998362Y-35982049D01*
X74992773Y-35988709D01*
X74838709Y-36142773D01*
X74832049Y-36148362D01*
X74653581Y-36273326D01*
X74646040Y-36277680D01*
X74448577Y-36369757D01*
X74440418Y-36372728D01*
X74229962Y-36429120D01*
X74221387Y-36430631D01*
X74004355Y-36449619D01*
X73995645Y-36449619D01*
X73995645Y-38050381D01*
X74004355Y-38050381D01*
X74221387Y-38069369D01*
X74229962Y-38070880D01*
X74440418Y-38127272D01*
X74448577Y-38130243D01*
X74646040Y-38222320D01*
X74653581Y-38226674D01*
X74832049Y-38351638D01*
X74838709Y-38357227D01*
X74992773Y-38511291D01*
X74998362Y-38517951D01*
X75123326Y-38696419D01*
X75127680Y-38703960D01*
X75219757Y-38901423D01*
X75222728Y-38909582D01*
X75279120Y-39120038D01*
X75280631Y-39128613D01*
X75299808Y-39347809D01*
X75300000Y-39352194D01*
X75300000Y-40147806D01*
X75299808Y-40152191D01*
X75280631Y-40371387D01*
X75279120Y-40379962D01*
X75222728Y-40590418D01*
X75219757Y-40598577D01*
X75127680Y-40796040D01*
X75123326Y-40803581D01*
X74998362Y-40982049D01*
X74992773Y-40988709D01*
X74838709Y-41142773D01*
X74832049Y-41148362D01*
X74653581Y-41273326D01*
X74646040Y-41277680D01*
X74448577Y-41369757D01*
X74440418Y-41372728D01*
X74229962Y-41429120D01*
X74221387Y-41430631D01*
X74004355Y-41449619D01*
X73995645Y-41449619D01*
X73995645Y-43050381D01*
X74004355Y-43050381D01*
X74221387Y-43069369D01*
X74229962Y-43070880D01*
X74440418Y-43127272D01*
X74448577Y-43130243D01*
X74646040Y-43222320D01*
X74653581Y-43226674D01*
X74832049Y-43351638D01*
X74838709Y-43357227D01*
X74992773Y-43511291D01*
X74998362Y-43517951D01*
X75123326Y-43696419D01*
X75127680Y-43703960D01*
X75219757Y-43901423D01*
X75222728Y-43909582D01*
X75279120Y-44120038D01*
X75280631Y-44128613D01*
X75299808Y-44347809D01*
X75300000Y-44352194D01*
X75300000Y-45147806D01*
X75299808Y-45152191D01*
X75280631Y-45371387D01*
X75279120Y-45379962D01*
X75222728Y-45590418D01*
X75219757Y-45598577D01*
X75127680Y-45796040D01*
X75123326Y-45803581D01*
X74998362Y-45982049D01*
X74992773Y-45988709D01*
X74838709Y-46142773D01*
X74832049Y-46148362D01*
X74653581Y-46273326D01*
X74646040Y-46277680D01*
X74448577Y-46369757D01*
X74440418Y-46372728D01*
X74229962Y-46429120D01*
X74221387Y-46430631D01*
X74004355Y-46449619D01*
X73995645Y-46449619D01*
X73995645Y-48050381D01*
X74004355Y-48050381D01*
X74221387Y-48069369D01*
X74229962Y-48070880D01*
X74440418Y-48127272D01*
X74448577Y-48130243D01*
X74646040Y-48222320D01*
X74653581Y-48226674D01*
X74832049Y-48351638D01*
X74838709Y-48357227D01*
X74992773Y-48511291D01*
X74998362Y-48517951D01*
X75123326Y-48696419D01*
X75127680Y-48703960D01*
X75219757Y-48901423D01*
X75222728Y-48909582D01*
X75279120Y-49120038D01*
X75280631Y-49128613D01*
X75299808Y-49347809D01*
X75300000Y-49352194D01*
X75300000Y-50147806D01*
X75299808Y-50152191D01*
X75280631Y-50371387D01*
X75279120Y-50379962D01*
X75222728Y-50590418D01*
X75219757Y-50598577D01*
X75127680Y-50796040D01*
X75123326Y-50803581D01*
X74998362Y-50982049D01*
X74992773Y-50988709D01*
X74838709Y-51142773D01*
X74832049Y-51148362D01*
X74653581Y-51273326D01*
X74646040Y-51277680D01*
X74448577Y-51369757D01*
X74440418Y-51372728D01*
X74229962Y-51429120D01*
X74221387Y-51430631D01*
X74004355Y-51449619D01*
X73995645Y-51449619D01*
X73995645Y-53050381D01*
X74004355Y-53050381D01*
X74221387Y-53069369D01*
X74229962Y-53070880D01*
X74440418Y-53127272D01*
X74448577Y-53130243D01*
X74646040Y-53222320D01*
X74653581Y-53226674D01*
X74832049Y-53351638D01*
X74838709Y-53357227D01*
X74992773Y-53511291D01*
X74998362Y-53517951D01*
X75123326Y-53696419D01*
X75127680Y-53703960D01*
X75219757Y-53901423D01*
X75222728Y-53909582D01*
X75279120Y-54120038D01*
X75280631Y-54128613D01*
X75299808Y-54347809D01*
X75300000Y-54352194D01*
X75300000Y-55147806D01*
X75299808Y-55152191D01*
X75280631Y-55371387D01*
X75279120Y-55379962D01*
X75222728Y-55590418D01*
X75219757Y-55598577D01*
X75127680Y-55796040D01*
X75123326Y-55803581D01*
X74998362Y-55982049D01*
X74992773Y-55988709D01*
X74838709Y-56142773D01*
X74832049Y-56148362D01*
X74653581Y-56273326D01*
X74646040Y-56277680D01*
X74448577Y-56369757D01*
X74440418Y-56372728D01*
X74229962Y-56429120D01*
X74221387Y-56430631D01*
X74004355Y-56449619D01*
X73995645Y-56449619D01*
X73995645Y-64700000D01*
X82986899Y-64700000D01*
X82993439Y-64699786D01*
X83215267Y-64685247D01*
X83228236Y-64683540D01*
X83433403Y-64642730D01*
X83446038Y-64639344D01*
X83644114Y-64572105D01*
X83656198Y-64567099D01*
X83843798Y-64474585D01*
X83855126Y-64468045D01*
X84029055Y-64351830D01*
X84039433Y-64343867D01*
X84196699Y-64205948D01*
X84205948Y-64196699D01*
X84343867Y-64039433D01*
X84351830Y-64029055D01*
X84468045Y-63855126D01*
X84474585Y-63843798D01*
X84567099Y-63656198D01*
X84572105Y-63644114D01*
X84639344Y-63446038D01*
X84642730Y-63433403D01*
X84683540Y-63228236D01*
X84685247Y-63215267D01*
X84699786Y-62993439D01*
X84700000Y-62986899D01*
X84700000Y-2013101D01*
X84699786Y-2006561D01*
X84685247Y-1784733D01*
X84683540Y-1771764D01*
X84642730Y-1566597D01*
X84639344Y-1553962D01*
X84572105Y-1355886D01*
X84567099Y-1343802D01*
X84474585Y-1156202D01*
X84468045Y-1144874D01*
X84351830Y-970945D01*
X84343867Y-960567D01*
X84205948Y-803301D01*
X84196699Y-794052D01*
X84039433Y-656133D01*
X84029055Y-648170D01*
X83855126Y-531955D01*
X83843798Y-525415D01*
X83656198Y-432901D01*
X83644114Y-427895D01*
X83446038Y-360656D01*
X83433403Y-357270D01*
X83228236Y-316460D01*
X83215267Y-314753D01*
X82993439Y-300214D01*
X82986899Y-300000D01*
X2013101Y-300000D01*
X2006561Y-300214D01*
X1784733Y-314753D01*
X1771764Y-316460D01*
X1566597Y-357270D01*
X1553962Y-360656D01*
X1355886Y-427895D01*
X1343802Y-432901D01*
X1156202Y-525415D01*
X1144874Y-531955D01*
X970945Y-648170D01*
X960567Y-656133D01*
X803301Y-794052D01*
X794052Y-803301D01*
X656133Y-960567D01*
X648170Y-970945D01*
X531955Y-1144874D01*
X525415Y-1156202D01*
X432901Y-1343802D01*
X427895Y-1355886D01*
X360656Y-1553962D01*
X357270Y-1566597D01*
X316460Y-1771764D01*
X314753Y-1784733D01*
X300214Y-2006561D01*
X300000Y-2013101D01*
X300000Y-62986899D01*
G37*
G04 --- BOARD END --- *
G04 #@! TF.MD5,1b4f6dc32fd37ae53f232fedbe175414*
M02*
