G04 --- HEADER BEGIN --- *
G04 #@! TF.GenerationSoftware,LibrePCB,LibrePCB,1.0.0*
G04 #@! TF.CreationDate,2024-10-09T11:39:01*
G04 #@! TF.ProjectId,OSm Thermal,b11a65fa-6c4c-431c-8545-341aca355aaf,v1.11*
G04 #@! TF.Part,Single*
G04 #@! TF.SameCoordinates*
G04 #@! TF.FileFunction,Paste,Bot*
G04 #@! TF.FilePolarity,Positive*
%FSLAX66Y66*%
%MOMM*%
G01*
G75*
G04 --- HEADER END --- *
G04 --- APERTURE LIST BEGIN --- *
%AMROUNDEDRECT10*20,1,0.72,-0.225,0.0,0.225,0.0,0.0*20,1,0.45,-0.36,0.0,0.36,0.0,0.0*1,1,0.27,-0.225,0.225*1,1,0.27,0.225,0.225*1,1,0.27,0.225,-0.225*1,1,0.27,-0.225,-0.225*%
%ADD10ROUNDEDRECT10*%
%AMROUNDEDRECT11*20,1,1.6,-1.25,0.0,1.25,0.0,0.0*20,1,1.5,-1.3,0.0,1.3,0.0,0.0*1,1,0.1,-1.25,0.75*1,1,0.1,1.25,0.75*1,1,0.1,1.25,-0.75*1,1,0.1,-1.25,-0.75*%
%ADD11ROUNDEDRECT11*%
%AMROUNDEDRECT12*20,1,0.2,-0.2375,0.0,0.2375,0.0,0.0*20,1,0.125,-0.275,0.0,0.275,0.0,0.0*1,1,0.075,-0.2375,0.0625*1,1,0.075,0.2375,0.0625*1,1,0.075,0.2375,-0.0625*1,1,0.075,-0.2375,-0.0625*%
%ADD12ROUNDEDRECT12*%
%AMROUNDEDRECT13*20,1,0.2,-0.2375,0.0,0.2375,0.0,90.0*20,1,0.125,-0.275,0.0,0.275,0.0,90.0*1,1,0.075,-0.0625,-0.2375*1,1,0.075,-0.0625,0.2375*1,1,0.075,0.0625,0.2375*1,1,0.075,0.0625,-0.2375*%
%ADD13ROUNDEDRECT13*%
%AMROUNDEDRECT14*20,1,0.2,-0.2875,0.0,0.2875,0.0,0.0*20,1,0.125,-0.325,0.0,0.325,0.0,0.0*1,1,0.075,-0.2875,0.0625*1,1,0.075,0.2875,0.0625*1,1,0.075,0.2875,-0.0625*1,1,0.075,-0.2875,-0.0625*%
%ADD14ROUNDEDRECT14*%
%AMOUTLINE15*4,1,16,-0.15,-1.086603,-0.186603,-1.05,-0.2,-1.0,-0.2,1.0,-0.186603,1.05,-0.15,1.086603,-0.1,1.1,0.1,1.1,0.15,1.086603,0.186603,1.05,0.2,1.0,0.2,-1.0,0.186603,-1.05,0.15,-1.086603,0.1,-1.1,-0.1,-1.1,-0.15,-1.086603,180.0*%
%ADD15OUTLINE15*%
%AMROUNDEDRECT16*20,1,0.2,-0.8375,0.0,0.8375,0.0,90.0*20,1,0.125,-0.875,0.0,0.875,0.0,90.0*1,1,0.075,-0.0625,-0.8375*1,1,0.075,-0.0625,0.8375*1,1,0.075,0.0625,0.8375*1,1,0.075,0.0625,-0.8375*%
%ADD16ROUNDEDRECT16*%
%AMROUNDEDRECT17*20,1,0.32,-1.0,0.0,1.0,0.0,90.0*20,1,0.2,-1.06,0.0,1.06,0.0,90.0*1,1,0.12,-0.1,-1.0*1,1,0.12,-0.1,1.0*1,1,0.12,0.1,1.0*1,1,0.12,0.1,-1.0*%
%ADD17ROUNDEDRECT17*%
%ADD18R,0.6X0.65*%
%ADD19R,0.69X0.64*%
%ADD20R,0.65X0.6*%
%ADD21R,0.64X0.69*%
%AMROUNDEDRECT22*20,1,0.56,-0.175,0.0,0.175,0.0,0.0*20,1,0.35,-0.28,0.0,0.28,0.0,0.0*1,1,0.21,-0.175,0.175*1,1,0.21,0.175,0.175*1,1,0.21,0.175,-0.175*1,1,0.21,-0.175,-0.175*%
%ADD22ROUNDEDRECT22*%
%AMROUNDEDRECT23*20,1,1.28,-0.652,0.0,0.652,0.0,90.0*20,1,1.104,-0.74,0.0,0.74,0.0,90.0*1,1,0.176,-0.552,-0.652*1,1,0.176,-0.552,0.652*1,1,0.176,0.552,0.652*1,1,0.176,0.552,-0.652*%
%ADD23ROUNDEDRECT23*%
G04 --- APERTURE LIST END --- *
G04 --- BOARD BEGIN --- *
D10*
G04 #@! TO.C,D6*
X51750000Y-11600000D03*
X51750000Y-14900000D03*
D11*
G04 #@! TO.C,L1*
X34000000Y-48250000D03*
X34000000Y-43250000D03*
D10*
G04 #@! TO.C,D7*
X26000000Y-5600000D03*
X26000000Y-8900000D03*
G04 #@! TO.C,D9*
X26000000Y-21600000D03*
X26000000Y-24900000D03*
D12*
G04 #@! TO.C,U1*
X32500000Y-52750000D03*
D13*
X33000000Y-54500000D03*
X33000000Y-51500000D03*
D14*
X35450000Y-53250000D03*
D13*
X34900000Y-51500000D03*
D12*
X32500000Y-52250000D03*
D15*
X35000000Y-53700000D03*
D12*
X32500000Y-53250000D03*
X32500000Y-53750000D03*
D16*
X34400000Y-52100000D03*
D14*
X35450000Y-52750000D03*
D17*
X33800000Y-53700000D03*
D14*
X35450000Y-53750000D03*
D18*
G04 #@! TO.C,R10*
X20725000Y-11750000D03*
X22275000Y-11750000D03*
D19*
G04 #@! TO.C,C5*
X39775000Y-53750000D03*
X41225000Y-53750000D03*
D20*
G04 #@! TO.C,R15*
X51000000Y-32475000D03*
X51000000Y-34025000D03*
D19*
G04 #@! TO.C,C4*
X39775000Y-55000000D03*
X41225000Y-55000000D03*
D21*
G04 #@! TO.C,C7*
X23500000Y-41275000D03*
X23500000Y-42725000D03*
D18*
G04 #@! TO.C,R3*
X28725000Y-53250000D03*
X30275000Y-53250000D03*
D22*
G04 #@! TO.C,Q2*
X46250000Y-36750000D03*
X48250000Y-36750000D03*
X47250000Y-38750000D03*
D18*
G04 #@! TO.C,R1*
X30275000Y-55500000D03*
X28725000Y-55500000D03*
D20*
G04 #@! TO.C,R14*
X51000000Y-40475000D03*
X51000000Y-42025000D03*
D19*
G04 #@! TO.C,C3*
X39775000Y-56250000D03*
X41225000Y-56250000D03*
D23*
G04 #@! TO.C,BR1*
X55600000Y-52400000D03*
X46000000Y-57500000D03*
X46000000Y-52400000D03*
X55600000Y-57500000D03*
D18*
G04 #@! TO.C,R5*
X46475000Y-34000000D03*
X48025000Y-34000000D03*
D22*
G04 #@! TO.C,Q5*
X46250000Y-12250000D03*
X48250000Y-12250000D03*
X47250000Y-14250000D03*
D19*
G04 #@! TO.C,C1*
X28775000Y-50000000D03*
X30225000Y-50000000D03*
D20*
G04 #@! TO.C,R16*
X51000000Y-24475000D03*
X51000000Y-26025000D03*
D21*
G04 #@! TO.C,C10*
X23500000Y-45225000D03*
X23500000Y-43775000D03*
D10*
G04 #@! TO.C,D3*
X51750000Y-35600000D03*
X51750000Y-38900000D03*
D21*
G04 #@! TO.C,C2*
X37750000Y-49725000D03*
X37750000Y-48275000D03*
D10*
G04 #@! TO.C,D2*
X51750000Y-43600000D03*
X51750000Y-46900000D03*
D20*
G04 #@! TO.C,R18*
X51000000Y-8475000D03*
X51000000Y-10025000D03*
D22*
G04 #@! TO.C,Q4*
X46250000Y-20750000D03*
X48250000Y-20750000D03*
X47250000Y-22750000D03*
D10*
G04 #@! TO.C,D8*
X26000000Y-13600000D03*
X26000000Y-16900000D03*
D18*
G04 #@! TO.C,R4*
X46475000Y-42000000D03*
X48025000Y-42000000D03*
D22*
G04 #@! TO.C,Q8*
X20500000Y-22250000D03*
X22500000Y-22250000D03*
X21500000Y-24250000D03*
D18*
G04 #@! TO.C,R7*
X46475000Y-18000000D03*
X48025000Y-18000000D03*
D20*
G04 #@! TO.C,R20*
X25250000Y-10475000D03*
X25250000Y-12025000D03*
D22*
G04 #@! TO.C,Q3*
X46250000Y-28750000D03*
X48250000Y-28750000D03*
X47250000Y-30750000D03*
D21*
G04 #@! TO.C,C6*
X18500000Y-41275000D03*
X18500000Y-42725000D03*
D18*
G04 #@! TO.C,R11*
X20725000Y-19750000D03*
X22275000Y-19750000D03*
G04 #@! TO.C,R8*
X46475000Y-10000000D03*
X48025000Y-10000000D03*
D10*
G04 #@! TO.C,D4*
X51750000Y-27600000D03*
X51750000Y-30900000D03*
D22*
G04 #@! TO.C,Q1*
X46250000Y-44750000D03*
X48250000Y-44750000D03*
X47250000Y-46750000D03*
D20*
G04 #@! TO.C,R17*
X51000000Y-16475000D03*
X51000000Y-18025000D03*
D22*
G04 #@! TO.C,Q7*
X20500000Y-14250000D03*
X22500000Y-14250000D03*
X21500000Y-16250000D03*
D18*
G04 #@! TO.C,R6*
X46475000Y-26000000D03*
X48025000Y-26000000D03*
G04 #@! TO.C,R9*
X20725000Y-3750000D03*
X22275000Y-3750000D03*
D21*
G04 #@! TO.C,C9*
X21000000Y-45225000D03*
X21000000Y-43775000D03*
D10*
G04 #@! TO.C,D5*
X51750000Y-19600000D03*
X51750000Y-22900000D03*
D21*
G04 #@! TO.C,C8*
X21000000Y-41275000D03*
X21000000Y-42725000D03*
D20*
G04 #@! TO.C,R19*
X25250000Y-2475000D03*
X25250000Y-4025000D03*
G04 #@! TO.C,R21*
X25250000Y-18475000D03*
X25250000Y-20025000D03*
D22*
G04 #@! TO.C,Q6*
X20500000Y-6250000D03*
X22500000Y-6250000D03*
X21500000Y-8250000D03*
G04 --- BOARD END --- *
G04 #@! TF.MD5,76213812416e74c30b54801aea438dc6*
M02*
