G04 --- HEADER BEGIN --- *
G04 #@! TF.GenerationSoftware,LibrePCB,LibrePCB,1.0.0*
G04 #@! TF.CreationDate,2024-10-09T11:39:01*
G04 #@! TF.ProjectId,OSm Thermal,b11a65fa-6c4c-431c-8545-341aca355aaf,v1.11*
G04 #@! TF.Part,Single*
G04 #@! TF.SameCoordinates*
G04 #@! TF.FileFunction,Copper,L2,Bot*
G04 #@! TF.FilePolarity,Positive*
%FSLAX66Y66*%
%MOMM*%
G01*
G75*
G04 --- HEADER END --- *
G04 --- APERTURE LIST BEGIN --- *
G04 #@! TA.AperFunction,ComponentPad*
%ADD10C,1.5*%
G04 #@! TA.AperFunction,SMDPad,CuDef*
%AMROUNDEDRECT11*20,1,0.9,-0.225,0.0,0.225,0.0,0.0*20,1,0.45,-0.45,0.0,0.45,0.0,0.0*1,1,0.45,-0.225,0.225*1,1,0.45,0.225,0.225*1,1,0.45,0.225,-0.225*1,1,0.45,-0.225,-0.225*%
%ADD11ROUNDEDRECT11*%
%AMROUNDEDRECT12*20,1,2.0,-1.25,0.0,1.25,0.0,0.0*20,1,1.5,-1.5,0.0,1.5,0.0,0.0*1,1,0.5,-1.25,0.75*1,1,0.5,1.25,0.75*1,1,0.5,1.25,-0.75*1,1,0.5,-1.25,-0.75*%
%ADD12ROUNDEDRECT12*%
%AMROUNDEDRECT13*20,1,0.25,-0.2375,0.0,0.2375,0.0,0.0*20,1,0.125,-0.3,0.0,0.3,0.0,0.0*1,1,0.125,-0.2375,0.0625*1,1,0.125,0.2375,0.0625*1,1,0.125,0.2375,-0.0625*1,1,0.125,-0.2375,-0.0625*%
%ADD13ROUNDEDRECT13*%
%AMROUNDEDRECT14*20,1,0.25,-0.2375,0.0,0.2375,0.0,90.0*20,1,0.125,-0.3,0.0,0.3,0.0,90.0*1,1,0.125,-0.0625,-0.2375*1,1,0.125,-0.0625,0.2375*1,1,0.125,0.0625,0.2375*1,1,0.125,0.0625,-0.2375*%
%ADD14ROUNDEDRECT14*%
%AMROUNDEDRECT15*20,1,0.25,-0.2875,0.0,0.2875,0.0,0.0*20,1,0.125,-0.35,0.0,0.35,0.0,0.0*1,1,0.125,-0.2875,0.0625*1,1,0.125,0.2875,0.0625*1,1,0.125,0.2875,-0.0625*1,1,0.125,-0.2875,-0.0625*%
%ADD15ROUNDEDRECT15*%
%AMOUTLINE16*4,1,16,-0.15,-1.086603,-0.186603,-1.05,-0.2,-1.0,-0.2,1.0,-0.186603,1.05,-0.15,1.086603,-0.1,1.1,0.1,1.1,0.15,1.086603,0.186603,1.05,0.2,1.0,0.2,-1.0,0.186603,-1.05,0.15,-1.086603,0.1,-1.1,-0.1,-1.1,-0.15,-1.086603,180.0*%
%ADD16OUTLINE16*%
%AMROUNDEDRECT17*20,1,0.25,-0.8375,0.0,0.8375,0.0,90.0*20,1,0.125,-0.9,0.0,0.9,0.0,90.0*1,1,0.125,-0.0625,-0.8375*1,1,0.125,-0.0625,0.8375*1,1,0.125,0.0625,0.8375*1,1,0.125,0.0625,-0.8375*%
%ADD17ROUNDEDRECT17*%
%AMROUNDEDRECT18*20,1,0.4,-1.0,0.0,1.0,0.0,90.0*20,1,0.2,-1.1,0.0,1.1,0.0,90.0*1,1,0.2,-0.1,-1.0*1,1,0.2,-0.1,1.0*1,1,0.2,0.1,1.0*1,1,0.2,0.1,-1.0*%
%ADD18ROUNDEDRECT18*%
%ADD19R,0.75X0.8*%
%ADD20R,0.85X0.8*%
%ADD21R,0.8X0.75*%
%ADD22R,0.8X0.85*%
%AMROUNDEDRECT23*20,1,0.7,-0.175,0.0,0.175,0.0,0.0*20,1,0.35,-0.35,0.0,0.35,0.0,0.0*1,1,0.35,-0.175,0.175*1,1,0.35,0.175,0.175*1,1,0.35,0.175,-0.175*1,1,0.35,-0.175,-0.175*%
%ADD23ROUNDEDRECT23*%
%AMROUNDEDRECT24*20,1,1.6,-0.652,0.0,0.652,0.0,90.0*20,1,1.104,-0.9,0.0,0.9,0.0,90.0*1,1,0.496,-0.552,-0.652*1,1,0.496,-0.552,0.652*1,1,0.496,0.552,0.652*1,1,0.496,0.552,-0.652*%
%ADD24ROUNDEDRECT24*%
G04 #@! TA.AperFunction,ComponentPad*
%ADD25O,2.19X1.587*%
%ADD26R,2.19X1.587*%
%ADD27O,2.0X2.8*%
G04 #@! TA.AperFunction,Conductor*
%ADD28C,0.6*%
%ADD29C,1.0*%
G04 #@! TA.AperFunction,ViaPad*
%ADD30C,0.7*%
G04 #@! TA.AperFunction,Conductor*
%ADD31C,0.3*%
%ADD32C,0.2*%
G04 #@! TA.AperFunction,ViaPad*
%ADD33C,1.0*%
G04 #@! TA.AperFunction,Conductor*
%ADD34C,0.8*%
%ADD35C,0.01*%
G04 #@! TD*
G04 --- APERTURE LIST END --- *
G04 --- BOARD BEGIN --- *
D10*
G04 #@! TO.N,N23*
G04 #@! TO.C,K1*
G04 #@! TO.P,K1,8,-*
X55750000Y-46750000D03*
G04 #@! TO.N,VAC*
G04 #@! TO.P,K1,3,COM*
X61250000Y-41750000D03*
G04 #@! TO.N,RV1*
G04 #@! TO.P,K1,1,+*
X55750000Y-41750000D03*
G04 #@! TO.N,O1*
G04 #@! TO.P,K1,6,NO*
X61250000Y-46750000D03*
D11*
G04 #@! TO.N,RV5*
G04 #@! TO.C,D6*
G04 #@! TO.P,D6,1,C*
X51750000Y-11600000D03*
G04 #@! TO.N,N19*
G04 #@! TO.P,D6,2,A*
X51750000Y-14900000D03*
D12*
G04 #@! TO.N,SW*
G04 #@! TO.C,L1*
G04 #@! TO.P,L1,1,1*
X34000000Y-48250000D03*
G04 #@! TO.N,5V*
G04 #@! TO.P,L1,2,2*
X34000000Y-43250000D03*
D11*
G04 #@! TO.N,RV6*
G04 #@! TO.C,D7*
G04 #@! TO.P,D7,1,C*
X26000000Y-5600000D03*
G04 #@! TO.N,N32*
G04 #@! TO.P,D7,2,A*
X26000000Y-8900000D03*
G04 #@! TO.N,RV8*
G04 #@! TO.C,D9*
G04 #@! TO.P,D9,1,C*
X26000000Y-21600000D03*
G04 #@! TO.N,N37*
G04 #@! TO.P,D9,2,A*
X26000000Y-24900000D03*
D13*
G04 #@! TO.N,GND*
G04 #@! TO.C,U1*
G04 #@! TO.P,U1,AGND,AGND*
X32500000Y-52750000D03*
D14*
G04 #@! TO.N,MODE*
G04 #@! TO.P,U1,MODE,MODE*
X33000000Y-54500000D03*
G04 #@! TO.N,SS*
G04 #@! TO.P,U1,SS,SS*
X33000000Y-51500000D03*
D15*
G04 #@! TO.N,VIN*
G04 #@! TO.P,U1,VIN,VIN*
X35450000Y-53250000D03*
D14*
G04 #@! TO.N,BOOT*
G04 #@! TO.P,U1,BOOT,BOOT*
X34900000Y-51500000D03*
D13*
G04 #@! TO.N,N/C*
G04 #@! TO.P,U1,PG,PG*
X32500000Y-52250000D03*
D16*
G04 #@! TO.N,VIN*
G04 #@! TO.P,U1,VIN,VIN*
X35000000Y-53700000D03*
D13*
G04 #@! TO.N,FB*
G04 #@! TO.P,U1,FB,FB*
X32500000Y-53250000D03*
G04 #@! TO.N,N/C*
G04 #@! TO.P,U1,EN,EN*
X32500000Y-53750000D03*
D17*
G04 #@! TO.N,SW*
G04 #@! TO.P,U1,SW,SW*
X34400000Y-52100000D03*
D15*
G04 #@! TO.N,VIN*
G04 #@! TO.P,U1,VIN,VIN*
X35450000Y-52750000D03*
D18*
G04 #@! TO.N,GND*
G04 #@! TO.P,U1,PGND,PGND*
X33800000Y-53700000D03*
D15*
G04 #@! TO.N,VIN*
G04 #@! TO.P,U1,VIN,VIN*
X35450000Y-53750000D03*
D19*
G04 #@! TO.N,SR7*
G04 #@! TO.C,R10*
G04 #@! TO.P,R10,2,2*
X20725000Y-11750000D03*
G04 #@! TO.N,GND*
G04 #@! TO.P,R10,1,1*
X22275000Y-11750000D03*
D20*
G04 #@! TO.N,VIN*
G04 #@! TO.C,C5*
G04 #@! TO.P,C5,2,2*
X39775000Y-53750000D03*
G04 #@! TO.N,GND*
G04 #@! TO.P,C5,1,1*
X41225000Y-53750000D03*
D21*
G04 #@! TO.N,5V*
G04 #@! TO.C,R15*
G04 #@! TO.P,R15,2,2*
X51000000Y-32475000D03*
G04 #@! TO.N,RV2*
G04 #@! TO.P,R15,1,1*
X51000000Y-34025000D03*
D20*
G04 #@! TO.N,VIN*
G04 #@! TO.C,C4*
G04 #@! TO.P,C4,2,2*
X39775000Y-55000000D03*
G04 #@! TO.N,GND*
G04 #@! TO.P,C4,1,1*
X41225000Y-55000000D03*
D22*
G04 #@! TO.C,C7*
G04 #@! TO.P,C7,2,2*
X23500000Y-41275000D03*
G04 #@! TO.N,5V*
G04 #@! TO.P,C7,1,1*
X23500000Y-42725000D03*
D19*
G04 #@! TO.N,GND*
G04 #@! TO.C,R3*
G04 #@! TO.P,R3,2,2*
X28725000Y-53250000D03*
G04 #@! TO.N,FB*
G04 #@! TO.P,R3,1,1*
X30275000Y-53250000D03*
D23*
G04 #@! TO.N,SR2*
G04 #@! TO.C,Q2*
G04 #@! TO.P,Q2,1,G*
X46250000Y-36750000D03*
G04 #@! TO.N,GND*
G04 #@! TO.P,Q2,2,S*
X48250000Y-36750000D03*
G04 #@! TO.N,N33*
G04 #@! TO.P,Q2,3,D*
X47250000Y-38750000D03*
D19*
G04 #@! TO.N,MODE*
G04 #@! TO.C,R1*
G04 #@! TO.P,R1,2,2*
X30275000Y-55500000D03*
G04 #@! TO.N,GND*
G04 #@! TO.P,R1,1,1*
X28725000Y-55500000D03*
D21*
G04 #@! TO.N,5V*
G04 #@! TO.C,R14*
G04 #@! TO.P,R14,2,2*
X51000000Y-40475000D03*
G04 #@! TO.N,RV1*
G04 #@! TO.P,R14,1,1*
X51000000Y-42025000D03*
D20*
G04 #@! TO.N,VIN*
G04 #@! TO.C,C3*
G04 #@! TO.P,C3,2,2*
X39775000Y-56250000D03*
G04 #@! TO.N,GND*
G04 #@! TO.P,C3,1,1*
X41225000Y-56250000D03*
D24*
G04 #@! TO.N,COM*
G04 #@! TO.C,BR1*
G04 #@! TO.P,BR1,PGND,AC2*
X55600000Y-52400000D03*
G04 #@! TO.N,VIN*
G04 #@! TO.P,BR1,VOUT,+*
X46000000Y-57500000D03*
G04 #@! TO.N,GND*
G04 #@! TO.P,BR1,AGND,_*
X46000000Y-52400000D03*
G04 #@! TO.N,VAC*
G04 #@! TO.P,BR1,VIN,AC1*
X55600000Y-57500000D03*
D19*
G04 #@! TO.N,SR2*
G04 #@! TO.C,R5*
G04 #@! TO.P,R5,2,2*
X46475000Y-34000000D03*
G04 #@! TO.N,GND*
G04 #@! TO.P,R5,1,1*
X48025000Y-34000000D03*
D10*
G04 #@! TO.N,N33*
G04 #@! TO.C,K2*
G04 #@! TO.P,K2,8,-*
X55750000Y-38750000D03*
G04 #@! TO.N,VAC*
G04 #@! TO.P,K2,3,COM*
X61250000Y-33750000D03*
G04 #@! TO.N,RV2*
G04 #@! TO.P,K2,1,+*
X55750000Y-33750000D03*
G04 #@! TO.N,O2*
G04 #@! TO.P,K2,6,NO*
X61250000Y-38750000D03*
G04 #@! TO.N,N19*
G04 #@! TO.C,K5*
G04 #@! TO.P,K5,8,-*
X55750000Y-14750000D03*
G04 #@! TO.N,VAC*
G04 #@! TO.P,K5,3,COM*
X61250000Y-9750000D03*
G04 #@! TO.N,RV5*
G04 #@! TO.P,K5,1,+*
X55750000Y-9750000D03*
G04 #@! TO.N,O5*
G04 #@! TO.P,K5,6,NO*
X61250000Y-14750000D03*
G04 #@! TO.N,N26*
G04 #@! TO.C,K4*
G04 #@! TO.P,K4,8,-*
X55750000Y-22750000D03*
G04 #@! TO.N,VAC*
G04 #@! TO.P,K4,3,COM*
X61250000Y-17750000D03*
G04 #@! TO.N,RV4*
G04 #@! TO.P,K4,1,+*
X55750000Y-17750000D03*
G04 #@! TO.N,O4*
G04 #@! TO.P,K4,6,NO*
X61250000Y-22750000D03*
D23*
G04 #@! TO.N,SR5*
G04 #@! TO.C,Q5*
G04 #@! TO.P,Q5,1,G*
X46250000Y-12250000D03*
G04 #@! TO.N,GND*
G04 #@! TO.P,Q5,2,S*
X48250000Y-12250000D03*
G04 #@! TO.N,N19*
G04 #@! TO.P,Q5,3,D*
X47250000Y-14250000D03*
D20*
G04 #@! TO.N,GND*
G04 #@! TO.C,C1*
G04 #@! TO.P,C1,2,2*
X28775000Y-50000000D03*
G04 #@! TO.N,SS*
G04 #@! TO.P,C1,1,1*
X30225000Y-50000000D03*
D21*
G04 #@! TO.N,5V*
G04 #@! TO.C,R16*
G04 #@! TO.P,R16,2,2*
X51000000Y-24475000D03*
G04 #@! TO.N,RV3*
G04 #@! TO.P,R16,1,1*
X51000000Y-26025000D03*
D22*
G04 #@! TO.N,GND*
G04 #@! TO.C,C10*
G04 #@! TO.P,C10,2,2*
X23500000Y-45225000D03*
G04 #@! TO.N,5V*
G04 #@! TO.P,C10,1,1*
X23500000Y-43775000D03*
D11*
G04 #@! TO.N,RV2*
G04 #@! TO.C,D3*
G04 #@! TO.P,D3,1,C*
X51750000Y-35600000D03*
G04 #@! TO.N,N33*
G04 #@! TO.P,D3,2,A*
X51750000Y-38900000D03*
D10*
G04 #@! TO.N,N32*
G04 #@! TO.C,K6*
G04 #@! TO.P,K6,8,-*
X30000000Y-8750000D03*
G04 #@! TO.N,VAC*
G04 #@! TO.P,K6,3,COM*
X35500000Y-3750000D03*
G04 #@! TO.N,RV6*
G04 #@! TO.P,K6,1,+*
X30000000Y-3750000D03*
G04 #@! TO.N,O6*
G04 #@! TO.P,K6,6,NO*
X35500000Y-8750000D03*
G04 #@! TO.N,N31*
G04 #@! TO.C,K3*
G04 #@! TO.P,K3,8,-*
X55750000Y-30750000D03*
G04 #@! TO.N,VAC*
G04 #@! TO.P,K3,3,COM*
X61250000Y-25750000D03*
G04 #@! TO.N,RV3*
G04 #@! TO.P,K3,1,+*
X55750000Y-25750000D03*
G04 #@! TO.N,O3*
G04 #@! TO.P,K3,6,NO*
X61250000Y-30750000D03*
D22*
G04 #@! TO.N,BOOT*
G04 #@! TO.C,C2*
G04 #@! TO.P,C2,2,2*
X37750000Y-49725000D03*
G04 #@! TO.N,SW*
G04 #@! TO.P,C2,1,1*
X37750000Y-48275000D03*
D11*
G04 #@! TO.N,RV1*
G04 #@! TO.C,D2*
G04 #@! TO.P,D2,1,C*
X51750000Y-43600000D03*
G04 #@! TO.N,N23*
G04 #@! TO.P,D2,2,A*
X51750000Y-46900000D03*
D21*
G04 #@! TO.N,5V*
G04 #@! TO.C,R18*
G04 #@! TO.P,R18,2,2*
X51000000Y-8475000D03*
G04 #@! TO.N,RV5*
G04 #@! TO.P,R18,1,1*
X51000000Y-10025000D03*
D25*
G04 #@! TO.N,SR8*
G04 #@! TO.C,J2*
G04 #@! TO.P,J2,15,15*
X7230000Y-26140000D03*
G04 #@! TO.N,SR3*
G04 #@! TO.P,J2,12,12*
X9770000Y-21060000D03*
G04 #@! TO.N,SDA*
G04 #@! TO.P,J2,4,4*
X9770000Y-10900000D03*
G04 #@! TO.N,GND*
G04 #@! TO.P,J2,13,13*
X7230000Y-23600000D03*
G04 #@! TO.N,SR1*
G04 #@! TO.P,J2,16,16*
X9770000Y-26140000D03*
G04 #@! TO.N,GND*
G04 #@! TO.P,J2,10,10*
X9770000Y-18520000D03*
G04 #@! TO.N,SR2*
G04 #@! TO.P,J2,14,14*
X9770000Y-23600000D03*
G04 #@! TO.N,SR7*
G04 #@! TO.P,J2,11,11*
X7230000Y-21060000D03*
G04 #@! TO.N,GND*
G04 #@! TO.P,J2,5,5*
X7230000Y-13440000D03*
G04 #@! TO.N,SR4*
G04 #@! TO.P,J2,8,8*
X9770000Y-15980000D03*
G04 #@! TO.N,SR6*
G04 #@! TO.P,J2,9,9*
X7230000Y-18520000D03*
D26*
G04 #@! TO.N,5V*
G04 #@! TO.P,J2,1,1*
X7230000Y-8360000D03*
D25*
G04 #@! TO.N,3V3*
G04 #@! TO.P,J2,2,2*
X9770000Y-8360000D03*
G04 #@! TO.N,SR5*
G04 #@! TO.P,J2,7,7*
X7230000Y-15980000D03*
G04 #@! TO.N,5V*
G04 #@! TO.P,J2,3,3*
X7230000Y-10900000D03*
G04 #@! TO.N,SCL*
G04 #@! TO.P,J2,6,6*
X9770000Y-13440000D03*
D23*
G04 #@! TO.N,SR4*
G04 #@! TO.C,Q4*
G04 #@! TO.P,Q4,1,G*
X46250000Y-20750000D03*
G04 #@! TO.N,GND*
G04 #@! TO.P,Q4,2,S*
X48250000Y-20750000D03*
G04 #@! TO.N,N26*
G04 #@! TO.P,Q4,3,D*
X47250000Y-22750000D03*
D11*
G04 #@! TO.N,RV7*
G04 #@! TO.C,D8*
G04 #@! TO.P,D8,1,C*
X26000000Y-13600000D03*
G04 #@! TO.N,N24*
G04 #@! TO.P,D8,2,A*
X26000000Y-16900000D03*
D19*
G04 #@! TO.N,SR1*
G04 #@! TO.C,R4*
G04 #@! TO.P,R4,2,2*
X46475000Y-42000000D03*
G04 #@! TO.N,GND*
G04 #@! TO.P,R4,1,1*
X48025000Y-42000000D03*
D23*
G04 #@! TO.N,SR8*
G04 #@! TO.C,Q8*
G04 #@! TO.P,Q8,1,G*
X20500000Y-22250000D03*
G04 #@! TO.N,GND*
G04 #@! TO.P,Q8,2,S*
X22500000Y-22250000D03*
G04 #@! TO.N,N37*
G04 #@! TO.P,Q8,3,D*
X21500000Y-24250000D03*
D19*
G04 #@! TO.N,SR4*
G04 #@! TO.C,R7*
G04 #@! TO.P,R7,2,2*
X46475000Y-18000000D03*
G04 #@! TO.N,GND*
G04 #@! TO.P,R7,1,1*
X48025000Y-18000000D03*
D21*
G04 #@! TO.N,5V*
G04 #@! TO.C,R20*
G04 #@! TO.P,R20,2,2*
X25250000Y-10475000D03*
G04 #@! TO.N,RV7*
G04 #@! TO.P,R20,1,1*
X25250000Y-12025000D03*
D23*
G04 #@! TO.N,SR3*
G04 #@! TO.C,Q3*
G04 #@! TO.P,Q3,1,G*
X46250000Y-28750000D03*
G04 #@! TO.N,GND*
G04 #@! TO.P,Q3,2,S*
X48250000Y-28750000D03*
G04 #@! TO.N,N31*
G04 #@! TO.P,Q3,3,D*
X47250000Y-30750000D03*
D22*
G04 #@! TO.N,GND*
G04 #@! TO.C,C6*
G04 #@! TO.P,C6,2,2*
X18500000Y-41275000D03*
G04 #@! TO.N,5V*
G04 #@! TO.P,C6,1,1*
X18500000Y-42725000D03*
D19*
G04 #@! TO.N,SR8*
G04 #@! TO.C,R11*
G04 #@! TO.P,R11,2,2*
X20725000Y-19750000D03*
G04 #@! TO.N,GND*
G04 #@! TO.P,R11,1,1*
X22275000Y-19750000D03*
G04 #@! TO.N,SR5*
G04 #@! TO.C,R8*
G04 #@! TO.P,R8,2,2*
X46475000Y-10000000D03*
G04 #@! TO.N,GND*
G04 #@! TO.P,R8,1,1*
X48025000Y-10000000D03*
D11*
G04 #@! TO.N,RV3*
G04 #@! TO.C,D4*
G04 #@! TO.P,D4,1,C*
X51750000Y-27600000D03*
G04 #@! TO.N,N31*
G04 #@! TO.P,D4,2,A*
X51750000Y-30900000D03*
D23*
G04 #@! TO.N,SR1*
G04 #@! TO.C,Q1*
G04 #@! TO.P,Q1,1,G*
X46250000Y-44750000D03*
G04 #@! TO.N,GND*
G04 #@! TO.P,Q1,2,S*
X48250000Y-44750000D03*
G04 #@! TO.N,N23*
G04 #@! TO.P,Q1,3,D*
X47250000Y-46750000D03*
D21*
G04 #@! TO.N,5V*
G04 #@! TO.C,R17*
G04 #@! TO.P,R17,2,2*
X51000000Y-16475000D03*
G04 #@! TO.N,RV4*
G04 #@! TO.P,R17,1,1*
X51000000Y-18025000D03*
D23*
G04 #@! TO.N,SR7*
G04 #@! TO.C,Q7*
G04 #@! TO.P,Q7,1,G*
X20500000Y-14250000D03*
G04 #@! TO.N,GND*
G04 #@! TO.P,Q7,2,S*
X22500000Y-14250000D03*
G04 #@! TO.N,N24*
G04 #@! TO.P,Q7,3,D*
X21500000Y-16250000D03*
D27*
G04 #@! TO.N,VAC*
G04 #@! TO.C,J1*
G04 #@! TO.P,J1,2,2*
X74000000Y-49750000D03*
G04 #@! TO.N,O2*
G04 #@! TO.P,J1,4,4*
X74000000Y-39750000D03*
G04 #@! TO.N,O4*
G04 #@! TO.P,J1,6,6*
X74000000Y-29750000D03*
G04 #@! TO.N,O1*
G04 #@! TO.P,J1,3,3*
X74000000Y-44750000D03*
G04 #@! TO.N,O5*
G04 #@! TO.P,J1,7,7*
X74000000Y-24750000D03*
G04 #@! TO.N,O8*
G04 #@! TO.P,J1,10,10*
X74000000Y-9750000D03*
G04 #@! TO.N,O6*
G04 #@! TO.P,J1,8,8*
X74000000Y-19750000D03*
G04 #@! TO.N,O7*
G04 #@! TO.P,J1,9,9*
X74000000Y-14750000D03*
G04 #@! TO.N,COM*
G04 #@! TO.P,J1,1,1*
X74000000Y-54750000D03*
G04 #@! TO.N,O3*
G04 #@! TO.P,J1,5,5*
X74000000Y-34750000D03*
D19*
G04 #@! TO.N,SR3*
G04 #@! TO.C,R6*
G04 #@! TO.P,R6,2,2*
X46475000Y-26000000D03*
G04 #@! TO.N,GND*
G04 #@! TO.P,R6,1,1*
X48025000Y-26000000D03*
G04 #@! TO.N,SR6*
G04 #@! TO.C,R9*
G04 #@! TO.P,R9,2,2*
X20725000Y-3750000D03*
G04 #@! TO.N,GND*
G04 #@! TO.P,R9,1,1*
X22275000Y-3750000D03*
D22*
G04 #@! TO.C,C9*
G04 #@! TO.P,C9,2,2*
X21000000Y-45225000D03*
G04 #@! TO.N,5V*
G04 #@! TO.P,C9,1,1*
X21000000Y-43775000D03*
D11*
G04 #@! TO.N,RV4*
G04 #@! TO.C,D5*
G04 #@! TO.P,D5,1,C*
X51750000Y-19600000D03*
G04 #@! TO.N,N26*
G04 #@! TO.P,D5,2,A*
X51750000Y-22900000D03*
D22*
G04 #@! TO.N,GND*
G04 #@! TO.C,C8*
G04 #@! TO.P,C8,2,2*
X21000000Y-41275000D03*
G04 #@! TO.N,5V*
G04 #@! TO.P,C8,1,1*
X21000000Y-42725000D03*
D21*
G04 #@! TO.C,R19*
G04 #@! TO.P,R19,2,2*
X25250000Y-2475000D03*
G04 #@! TO.N,RV6*
G04 #@! TO.P,R19,1,1*
X25250000Y-4025000D03*
G04 #@! TO.N,5V*
G04 #@! TO.C,R21*
G04 #@! TO.P,R21,2,2*
X25250000Y-18475000D03*
G04 #@! TO.N,RV8*
G04 #@! TO.P,R21,1,1*
X25250000Y-20025000D03*
D10*
G04 #@! TO.N,N24*
G04 #@! TO.C,K7*
G04 #@! TO.P,K7,8,-*
X30000000Y-16750000D03*
G04 #@! TO.N,VAC*
G04 #@! TO.P,K7,3,COM*
X35500000Y-11750000D03*
G04 #@! TO.N,RV7*
G04 #@! TO.P,K7,1,+*
X30000000Y-11750000D03*
G04 #@! TO.N,O7*
G04 #@! TO.P,K7,6,NO*
X35500000Y-16750000D03*
G04 #@! TO.N,N37*
G04 #@! TO.C,K8*
G04 #@! TO.P,K8,8,-*
X30000000Y-24750000D03*
G04 #@! TO.N,VAC*
G04 #@! TO.P,K8,3,COM*
X35500000Y-19750000D03*
G04 #@! TO.N,RV8*
G04 #@! TO.P,K8,1,+*
X30000000Y-19750000D03*
G04 #@! TO.N,O8*
G04 #@! TO.P,K8,6,NO*
X35500000Y-24750000D03*
D23*
G04 #@! TO.N,SR6*
G04 #@! TO.C,Q6*
G04 #@! TO.P,Q6,1,G*
X20500000Y-6250000D03*
G04 #@! TO.N,GND*
G04 #@! TO.P,Q6,2,S*
X22500000Y-6250000D03*
G04 #@! TO.N,N32*
G04 #@! TO.P,Q6,3,D*
X21500000Y-8250000D03*
D28*
G04 #@! TD.C*
G04 #@! TD.P*
G04 #@! TO.N,N31*
X55600000Y-30900000D02*
X51750000Y-30900000D01*
X55750000Y-30750000D02*
X55600000Y-30900000D01*
X47400000Y-30900000D02*
X51750000Y-30900000D01*
X47250000Y-30750000D02*
X47400000Y-30900000D01*
D29*
G04 #@! TO.N,O3*
X65250000Y-34750000D02*
X74000000Y-34750000D01*
X61250000Y-30750000D02*
X65250000Y-34750000D01*
D30*
G04 #@! TO.N,GND*
X48250000Y-28000000D03*
D31*
X48025000Y-26000000D02*
X48250000Y-26225000D01*
D28*
X48250000Y-28000000D02*
X48250000Y-28750000D01*
D31*
X48250000Y-26225000D02*
X48250000Y-28000000D01*
D29*
G04 #@! TO.N,O4*
X68250000Y-29750000D02*
X74000000Y-29750000D01*
X61250000Y-22750000D02*
X68250000Y-29750000D01*
D28*
G04 #@! TO.N,N37*
X29850000Y-24900000D02*
X26000000Y-24900000D01*
X30000000Y-24750000D02*
X29850000Y-24900000D01*
X22150000Y-24900000D02*
X26000000Y-24900000D01*
X21500000Y-24250000D02*
X22150000Y-24900000D01*
G04 #@! TO.N,N26*
X47400000Y-22900000D02*
X51750000Y-22900000D01*
X55600000Y-22900000D02*
X51750000Y-22900000D01*
X55750000Y-22750000D02*
X55600000Y-22900000D01*
X47250000Y-22750000D02*
X47400000Y-22900000D01*
G04 #@! TO.N,N33*
X47250000Y-38750000D02*
X47400000Y-38900000D01*
X47400000Y-38900000D02*
X51750000Y-38900000D01*
X55750000Y-38750000D02*
X55600000Y-38900000D01*
X55600000Y-38900000D02*
X51750000Y-38900000D01*
D31*
G04 #@! TO.N,SR2*
X9770000Y-23600000D02*
X22920000Y-36750000D01*
X46250000Y-34225000D02*
X46250000Y-36750000D01*
X22920000Y-36750000D02*
X46250000Y-36750000D01*
X46475000Y-34000000D02*
X46250000Y-34225000D01*
D30*
G04 #@! TO.N,5V*
X35500000Y-28750000D03*
X35500000Y-39500000D03*
D28*
X57250000Y-17250000D02*
X57250000Y-25250000D01*
X57250000Y-17250000D02*
X57250000Y-9250000D01*
X57250000Y-33250000D02*
X57250000Y-41250000D01*
X31750000Y-11250000D02*
X31750000Y-3250000D01*
X30975000Y-18475000D02*
X31750000Y-19250000D01*
X51000000Y-16475000D02*
X56475000Y-16475000D01*
X56250000Y-48500000D02*
X44500000Y-48500000D01*
X31750000Y-3250000D02*
X30975000Y-2475000D01*
X56475000Y-32475000D02*
X57250000Y-33250000D01*
X51000000Y-24475000D02*
X56475000Y-24475000D01*
X30975000Y-2475000D02*
X25250000Y-2475000D01*
X30975000Y-10475000D02*
X31750000Y-11250000D01*
X57250000Y-25250000D02*
X57250000Y-33250000D01*
X51000000Y-40475000D02*
X56475000Y-40475000D01*
X57250000Y-47500000D02*
X56250000Y-48500000D01*
X56475000Y-24475000D02*
X57250000Y-25250000D01*
X57250000Y-41250000D02*
X57250000Y-47500000D01*
X56475000Y-16475000D02*
X57250000Y-17250000D01*
X35500000Y-28750000D02*
X31750000Y-25000000D01*
X35500000Y-39500000D02*
X4000000Y-39500000D01*
X25250000Y-18475000D02*
X30975000Y-18475000D01*
X31750000Y-19250000D02*
X31750000Y-11250000D01*
X56475000Y-40475000D02*
X57250000Y-41250000D01*
X51000000Y-32475000D02*
X56475000Y-32475000D01*
X25250000Y-10475000D02*
X30975000Y-10475000D01*
X31750000Y-19250000D02*
X31750000Y-25000000D01*
X44500000Y-48500000D02*
X35500000Y-39500000D01*
X51000000Y-8475000D02*
X56475000Y-8475000D01*
X56475000Y-8475000D02*
X57250000Y-9250000D01*
D30*
G04 #@! TO.N,GND*
X46000000Y-50750000D03*
D31*
G04 #@! TO.N,SR1*
X37250000Y-38250000D02*
X43750000Y-44750000D01*
X9770000Y-26140000D02*
X21880000Y-38250000D01*
X46250000Y-42225000D02*
X46250000Y-44750000D01*
X21880000Y-38250000D02*
X37250000Y-38250000D01*
X46475000Y-42000000D02*
X46250000Y-42225000D01*
X43750000Y-44750000D02*
X46250000Y-44750000D01*
D28*
G04 #@! TO.N,RV7*
X25250000Y-12850000D02*
X26000000Y-13600000D01*
X30000000Y-11750000D02*
X27850000Y-11750000D01*
X27850000Y-11750000D02*
X26000000Y-13600000D01*
X25250000Y-12025000D02*
X25250000Y-12850000D01*
D31*
G04 #@! TO.N,SR5*
X32750000Y-32750000D02*
X45000000Y-20500000D01*
X25500000Y-32750000D02*
X32750000Y-32750000D01*
X46250000Y-13250000D02*
X46250000Y-12250000D01*
X11250000Y-14750000D02*
X15750000Y-19250000D01*
X45000000Y-14500000D02*
X46250000Y-13250000D01*
X7230000Y-15980000D02*
X8460000Y-14750000D01*
X45000000Y-20500000D02*
X45000000Y-14500000D01*
X46250000Y-10225000D02*
X46250000Y-12250000D01*
X8460000Y-14750000D02*
X11250000Y-14750000D01*
X15750000Y-23000000D02*
X25500000Y-32750000D01*
X46475000Y-10000000D02*
X46250000Y-10225000D01*
X15750000Y-19250000D02*
X15750000Y-23000000D01*
D29*
G04 #@! TO.N,O6*
X48250000Y-1000000D02*
X72500000Y-1000000D01*
X40500000Y-8750000D02*
X48250000Y-1000000D01*
X78750000Y-15000000D02*
X74000000Y-19750000D01*
X78750000Y-7250000D02*
X78750000Y-15000000D01*
X72500000Y-1000000D02*
X78750000Y-7250000D01*
X35500000Y-8750000D02*
X40500000Y-8750000D01*
G04 #@! TO.N,O8*
X35500000Y-24750000D02*
X38500000Y-24750000D01*
X43750000Y-19500000D02*
X43750000Y-9500000D01*
X71500000Y-7250000D02*
X74000000Y-9750000D01*
X46000000Y-7250000D02*
X71500000Y-7250000D01*
X38500000Y-24750000D02*
X43750000Y-19500000D01*
X43750000Y-9500000D02*
X46000000Y-7250000D01*
D30*
G04 #@! TO.N,5V*
X34000000Y-43250000D03*
G04 #@! TO.N,GND*
X33500000Y-53000000D03*
G04 #@! TO.N,SR6*
X20500000Y-5500000D03*
D31*
X20500000Y-3975000D02*
X20500000Y-5500000D01*
D28*
X20500000Y-5500000D02*
X20500000Y-6250000D01*
D31*
X20725000Y-3750000D02*
X20500000Y-3975000D01*
D30*
G04 #@! TO.N,GND*
X34750000Y-56500000D03*
D29*
G04 #@! TO.N,O5*
X61250000Y-14750000D02*
X71250000Y-24750000D01*
X71250000Y-24750000D02*
X74000000Y-24750000D01*
D28*
G04 #@! TO.N,RV5*
X51000000Y-10025000D02*
X51000000Y-10850000D01*
X53600000Y-9750000D02*
X51750000Y-11600000D01*
X55750000Y-9750000D02*
X53600000Y-9750000D01*
X51000000Y-10850000D02*
X51750000Y-11600000D01*
D31*
G04 #@! TO.N,SR4*
X46250000Y-18225000D02*
X46250000Y-20750000D01*
X33250000Y-34000000D02*
X46250000Y-21000000D01*
X46250000Y-21000000D02*
X46250000Y-20750000D01*
X12250000Y-18460000D02*
X12250000Y-21500000D01*
X9770000Y-15980000D02*
X12250000Y-18460000D01*
X12250000Y-21500000D02*
X24750000Y-34000000D01*
X24750000Y-34000000D02*
X33250000Y-34000000D01*
X46475000Y-18000000D02*
X46250000Y-18225000D01*
D29*
G04 #@! TO.N,O2*
X61250000Y-38750000D02*
X62250000Y-39750000D01*
X62250000Y-39750000D02*
X74000000Y-39750000D01*
D30*
G04 #@! TO.N,GND*
X22250000Y-45250000D03*
D28*
G04 #@! TO.N,RV4*
X53600000Y-17750000D02*
X51750000Y-19600000D01*
X51000000Y-18025000D02*
X51000000Y-18850000D01*
X51000000Y-18850000D02*
X51750000Y-19600000D01*
X55750000Y-17750000D02*
X53600000Y-17750000D01*
D29*
G04 #@! TO.N,COM*
X74000000Y-54750000D02*
X71650000Y-52400000D01*
X71650000Y-52400000D02*
X55600000Y-52400000D01*
D28*
G04 #@! TO.N,N24*
X21500000Y-16250000D02*
X22150000Y-16900000D01*
X29850000Y-16900000D02*
X26000000Y-16900000D01*
X30000000Y-16750000D02*
X29850000Y-16900000D01*
X22150000Y-16900000D02*
X26000000Y-16900000D01*
G04 #@! TO.N,RV3*
X53600000Y-25750000D02*
X51750000Y-27600000D01*
X55750000Y-25750000D02*
X53600000Y-25750000D01*
X51000000Y-26850000D02*
X51750000Y-27600000D01*
X51000000Y-26025000D02*
X51000000Y-26850000D01*
G04 #@! TO.N,N23*
X55750000Y-46750000D02*
X55600000Y-46900000D01*
X47250000Y-46750000D02*
X47400000Y-46900000D01*
X47400000Y-46900000D02*
X51750000Y-46900000D01*
X55600000Y-46900000D02*
X51750000Y-46900000D01*
D30*
G04 #@! TO.N,GND*
X44250000Y-52250000D03*
D31*
G04 #@! TO.N,SS*
X30225000Y-50000000D02*
X31500000Y-50000000D01*
X31500000Y-50000000D02*
X33000000Y-51500000D01*
D30*
G04 #@! TO.N,GND*
X48250000Y-20000000D03*
D28*
X48250000Y-20000000D02*
X48250000Y-20750000D01*
D31*
X48250000Y-18225000D02*
X48250000Y-20000000D01*
X48025000Y-18000000D02*
X48250000Y-18225000D01*
D30*
X46000000Y-54000000D03*
X44250000Y-54000000D03*
D29*
G04 #@! TO.N,O7*
X35500000Y-16750000D02*
X35500000Y-15750000D01*
X74750000Y-5750000D02*
X76250000Y-7250000D01*
X45500000Y-5750000D02*
X74750000Y-5750000D01*
X76250000Y-12500000D02*
X74000000Y-14750000D01*
X35500000Y-15750000D02*
X45500000Y-5750000D01*
X76250000Y-7250000D02*
X76250000Y-12500000D01*
D28*
G04 #@! TO.N,N19*
X55600000Y-14900000D02*
X51750000Y-14900000D01*
X47250000Y-14250000D02*
X47900000Y-14900000D01*
X55750000Y-14750000D02*
X55600000Y-14900000D01*
X47900000Y-14900000D02*
X51750000Y-14900000D01*
G04 #@! TO.N,RV6*
X25250000Y-4850000D02*
X26000000Y-5600000D01*
X27850000Y-3750000D02*
X26000000Y-5600000D01*
X25250000Y-4025000D02*
X25250000Y-4850000D01*
X30000000Y-3750000D02*
X27850000Y-3750000D01*
D30*
G04 #@! TO.N,GND*
X24750000Y-45250000D03*
X27500000Y-55500000D03*
X22500000Y-5500000D03*
D31*
X22275000Y-3750000D02*
X22500000Y-3975000D01*
X22500000Y-3975000D02*
X22500000Y-5500000D01*
D28*
X22500000Y-5500000D02*
X22500000Y-6250000D01*
G04 #@! TO.N,N32*
X22150000Y-8900000D02*
X26000000Y-8900000D01*
X29850000Y-8900000D02*
X26000000Y-8900000D01*
X30000000Y-8750000D02*
X29850000Y-8900000D01*
X21500000Y-8250000D02*
X22150000Y-8900000D01*
D30*
G04 #@! TO.N,GND*
X35500000Y-55750000D03*
D29*
G04 #@! TO.N,VIN*
X36500000Y-53750000D02*
X39750000Y-53750000D01*
D30*
G04 #@! TO.N,FB*
X31250000Y-53750000D03*
D32*
X32500000Y-53250000D02*
X31250000Y-53250000D01*
X31250000Y-53250000D02*
X31250000Y-53750000D01*
X31250000Y-53250000D02*
X30275000Y-53250000D01*
D30*
G04 #@! TO.N,SR8*
X20500000Y-21500000D03*
D31*
X20500000Y-19975000D02*
X20500000Y-21500000D01*
D28*
X20500000Y-21500000D02*
X20500000Y-22250000D01*
D31*
X20725000Y-19750000D02*
X20500000Y-19975000D01*
D29*
G04 #@! TO.N,VIN*
X46000000Y-57500000D02*
X39750000Y-57500000D01*
D30*
G04 #@! TO.N,GND*
X22250000Y-41250000D03*
X24750000Y-41250000D03*
D29*
G04 #@! TO.N,O1*
X61250000Y-46750000D02*
X63250000Y-44750000D01*
X63250000Y-44750000D02*
X74000000Y-44750000D01*
D30*
G04 #@! TO.N,GND*
X48250000Y-44000000D03*
D28*
X48250000Y-44000000D02*
X48250000Y-44750000D01*
D31*
X48025000Y-42000000D02*
X48250000Y-42225000D01*
X48250000Y-42225000D02*
X48250000Y-44000000D01*
D30*
X19750000Y-41250000D03*
D31*
G04 #@! TO.N,SR3*
X9770000Y-21060000D02*
X23960000Y-35250000D01*
X46250000Y-26225000D02*
X46250000Y-28750000D01*
X46475000Y-26000000D02*
X46250000Y-26225000D01*
X34000000Y-35250000D02*
X40500000Y-28750000D01*
X23960000Y-35250000D02*
X34000000Y-35250000D01*
X40500000Y-28750000D02*
X46250000Y-28750000D01*
D30*
G04 #@! TO.N,GND*
X22500000Y-21500000D03*
D28*
X22500000Y-21500000D02*
X22500000Y-22250000D01*
D31*
X22275000Y-19750000D02*
X22500000Y-19975000D01*
X22500000Y-19975000D02*
X22500000Y-21500000D01*
D28*
G04 #@! TO.N,RV1*
X55750000Y-41750000D02*
X53600000Y-41750000D01*
X51000000Y-42850000D02*
X51750000Y-43600000D01*
X53600000Y-41750000D02*
X51750000Y-43600000D01*
X51000000Y-42025000D02*
X51000000Y-42850000D01*
D33*
G04 #@! TO.N,VAC*
X59000000Y-8500000D03*
D29*
X59000000Y-44000000D02*
X59000000Y-47250000D01*
X74000000Y-49750000D02*
X76500000Y-52250000D01*
X76500000Y-55750000D02*
X74750000Y-57500000D01*
X59000000Y-20000000D02*
X61250000Y-17750000D01*
X59000000Y-44000000D02*
X59000000Y-36000000D01*
X59000000Y-20000000D02*
X59000000Y-12000000D01*
X59000000Y-36000000D02*
X59000000Y-28000000D01*
X74000000Y-49750000D02*
X61500000Y-49750000D01*
X59000000Y-12000000D02*
X61250000Y-9750000D01*
X76500000Y-52250000D02*
X76500000Y-55750000D01*
X61500000Y-49750000D02*
X59000000Y-47250000D01*
X59000000Y-36000000D02*
X61250000Y-33750000D01*
X59000000Y-28000000D02*
X61250000Y-25750000D01*
X59000000Y-8500000D02*
X59000000Y-12000000D01*
X55600000Y-57500000D02*
X74750000Y-57500000D01*
X59000000Y-28000000D02*
X59000000Y-20000000D01*
X59000000Y-44000000D02*
X61250000Y-41750000D01*
D28*
G04 #@! TO.N,RV8*
X30000000Y-19750000D02*
X27850000Y-19750000D01*
X25250000Y-20850000D02*
X26000000Y-21600000D01*
X25250000Y-20025000D02*
X25250000Y-20850000D01*
X27850000Y-19750000D02*
X26000000Y-21600000D01*
D30*
G04 #@! TO.N,GND*
X48250000Y-11500000D03*
D31*
X48025000Y-10000000D02*
X48250000Y-10225000D01*
X48250000Y-10225000D02*
X48250000Y-11500000D01*
D28*
X48250000Y-11500000D02*
X48250000Y-12250000D01*
D30*
X34000000Y-55750000D03*
X48250000Y-36000000D03*
D31*
X48025000Y-34000000D02*
X48250000Y-34225000D01*
X48250000Y-34225000D02*
X48250000Y-36000000D01*
D28*
X48250000Y-36000000D02*
X48250000Y-36750000D01*
D31*
G04 #@! TO.N,MODE*
X32000000Y-55500000D02*
X33000000Y-54500000D01*
X30275000Y-55500000D02*
X32000000Y-55500000D01*
D30*
G04 #@! TO.N,GND*
X22500000Y-13500000D03*
D31*
X22275000Y-11750000D02*
X22500000Y-12225000D01*
X22500000Y-12225000D02*
X22500000Y-13500000D01*
D28*
X22500000Y-13500000D02*
X22500000Y-14250000D01*
D30*
X44250000Y-50750000D03*
G04 #@! TO.N,SR7*
X20500000Y-13500000D03*
D31*
X20725000Y-11750000D02*
X20500000Y-12225000D01*
D28*
X20500000Y-13500000D02*
X20500000Y-14250000D01*
D31*
X20500000Y-12225000D02*
X20500000Y-13500000D01*
D34*
G04 #@! TO.N,SW*
X34000000Y-48250000D02*
X37750000Y-48275000D01*
D28*
G04 #@! TO.N,RV2*
X55750000Y-33750000D02*
X53600000Y-33750000D01*
X51000000Y-34850000D02*
X51750000Y-35600000D01*
X51000000Y-34025000D02*
X51000000Y-34850000D01*
X53600000Y-33750000D02*
X51750000Y-35600000D01*
D35*
G04 #@! TA.AperFunction,Conductor*
G04 #@! TO.N,GND*
G36*
X33000000Y-52902238D02*
X33023947Y-52960050D01*
X33020579Y-52962497D01*
X33034341Y-52981438D01*
X33078686Y-53068471D01*
X33083489Y-53083252D01*
X33099385Y-53183618D01*
X33100000Y-53191431D01*
X33100000Y-53308569D01*
X33099385Y-53316382D01*
X33083489Y-53416745D01*
X33078685Y-53431532D01*
X33066930Y-53454602D01*
X33066930Y-53545398D01*
X33078685Y-53568468D01*
X33083489Y-53583255D01*
X33099385Y-53683618D01*
X33100000Y-53691431D01*
X33100000Y-53808569D01*
X33099566Y-53814084D01*
X33114352Y-53874758D01*
X33168356Y-53917034D01*
X33181531Y-53921315D01*
X33268562Y-53965659D01*
X33287503Y-53979421D01*
X33289950Y-53976053D01*
X33347762Y-54000000D01*
X33483987Y-54000000D01*
X33488752Y-54001566D01*
X33500000Y-54023828D01*
X33500000Y-56900001D01*
X33519500Y-56959328D01*
X33599999Y-57000000D01*
X35900001Y-57000000D01*
X35959328Y-56980500D01*
X36000000Y-56900001D01*
X36000000Y-55349999D01*
X35980500Y-55290672D01*
X35900001Y-55250000D01*
X35356904Y-55250000D01*
X35311286Y-55261659D01*
X35311212Y-55261487D01*
X35310141Y-55261951D01*
X35308925Y-55262262D01*
X35307018Y-55263305D01*
X35298657Y-55266929D01*
X35247445Y-55283762D01*
X35239760Y-55285627D01*
X35153924Y-55299372D01*
X35146029Y-55300000D01*
X34855852Y-55300000D01*
X34844307Y-55298644D01*
X34720406Y-55269121D01*
X34709484Y-55265123D01*
X34700821Y-55260746D01*
X34655725Y-55250000D01*
X34016013Y-55250000D01*
X34011248Y-55248434D01*
X34000000Y-55226172D01*
X34000000Y-53083711D01*
X33995106Y-53052809D01*
X33991510Y-53041743D01*
X33975615Y-52941382D01*
X33975000Y-52933569D01*
X33975000Y-52650931D01*
X33969518Y-52618277D01*
X33968221Y-52614523D01*
X33967706Y-52612888D01*
X33960117Y-52595049D01*
X33936698Y-52552114D01*
X33891170Y-52509369D01*
X33848909Y-52500000D01*
X33099999Y-52500000D01*
X33040672Y-52519500D01*
X33000000Y-52599999D01*
X33000000Y-52902238D01*
G37*
G04 #@! TO.N,VIN*
G36*
X39250000Y-57900001D02*
X39269500Y-57959328D01*
X39349999Y-58000000D01*
X40150001Y-58000000D01*
X40209328Y-57980500D01*
X40250000Y-57900001D01*
X40250000Y-53349999D01*
X40230500Y-53290672D01*
X40150001Y-53250000D01*
X39349999Y-53250000D01*
X39290672Y-53269500D01*
X39250000Y-53349999D01*
X39250000Y-57900001D01*
G37*
G36*
X34750000Y-54900001D02*
X34769500Y-54959328D01*
X34849999Y-55000000D01*
X35150001Y-55000000D01*
X35209328Y-54980500D01*
X35250000Y-54900001D01*
X35250000Y-54266013D01*
X35251566Y-54261248D01*
X35273828Y-54250000D01*
X36650001Y-54250000D01*
X36709328Y-54230500D01*
X36750000Y-54150001D01*
X36750000Y-53299999D01*
X36710000Y-53220000D01*
X35776667Y-52520000D01*
X35716668Y-52500000D01*
X34986880Y-52500000D01*
X34927553Y-52519500D01*
X34903703Y-52544489D01*
X34889731Y-52565424D01*
X34884659Y-52571821D01*
X34854836Y-52603680D01*
X34845244Y-52624331D01*
X34841327Y-52622069D01*
X34838398Y-52627142D01*
X34830845Y-52655330D01*
X34828528Y-52660318D01*
X34828951Y-52662400D01*
X34825000Y-52677143D01*
X34825000Y-52933569D01*
X34824385Y-52941382D01*
X34808489Y-53041748D01*
X34803685Y-53056532D01*
X34760899Y-53140505D01*
X34750000Y-53185903D01*
X34750000Y-54900001D01*
G37*
G04 #@! TO.N,5V*
G36*
X1000000Y-44150001D02*
X1019500Y-44209328D01*
X1099999Y-44250000D01*
X35400001Y-44250000D01*
X35459328Y-44230500D01*
X35500000Y-44150001D01*
X35500000Y-42349999D01*
X35480500Y-42290672D01*
X35400001Y-42250000D01*
X4516013Y-42250000D01*
X4511248Y-42248434D01*
X4500000Y-42226172D01*
X4500000Y-12016013D01*
X4501566Y-12011248D01*
X4523828Y-12000000D01*
X8400001Y-12000000D01*
X8459328Y-11980500D01*
X8500000Y-11900001D01*
X8500000Y-11430785D01*
X8489517Y-11386212D01*
X8487967Y-11383099D01*
X8418417Y-11203567D01*
X8415893Y-11194699D01*
X8380514Y-11005439D01*
X8379665Y-10996274D01*
X8379665Y-10803726D01*
X8380514Y-10794561D01*
X8415893Y-10605301D01*
X8418417Y-10596433D01*
X8487967Y-10416901D01*
X8489517Y-10413788D01*
X8500000Y-10369215D01*
X8500000Y-8890785D01*
X8489517Y-8846212D01*
X8487967Y-8843099D01*
X8418417Y-8663567D01*
X8415893Y-8654699D01*
X8380514Y-8465439D01*
X8379665Y-8456274D01*
X8379665Y-8263726D01*
X8380514Y-8254561D01*
X8415893Y-8065301D01*
X8418417Y-8056433D01*
X8487967Y-7876901D01*
X8489517Y-7873788D01*
X8500000Y-7829215D01*
X8500000Y-7349999D01*
X8480500Y-7290672D01*
X8400001Y-7250000D01*
X1099999Y-7250000D01*
X1040672Y-7269500D01*
X1000000Y-7349999D01*
X1000000Y-44150001D01*
G37*
G04 #@! TO.N,GND*
G36*
X23000000Y-56150001D02*
X23019500Y-56209328D01*
X23099999Y-56250000D01*
X28039540Y-56250000D01*
X28098867Y-56230500D01*
X28135056Y-56179605D01*
X28133994Y-56117164D01*
X28116382Y-56089071D01*
X28117486Y-56088269D01*
X28103723Y-56069326D01*
X28068256Y-55999718D01*
X28063452Y-55984931D01*
X28050615Y-55903882D01*
X28050000Y-55896069D01*
X28050000Y-55666018D01*
X28051566Y-55661253D01*
X28066013Y-55653953D01*
X28066013Y-55349995D01*
X28061248Y-55348429D01*
X28050000Y-55326167D01*
X28050000Y-55103931D01*
X28050615Y-55096118D01*
X28063452Y-55015069D01*
X28068256Y-55000282D01*
X28103723Y-54930674D01*
X28112858Y-54918101D01*
X28168101Y-54862858D01*
X28180674Y-54853723D01*
X28250282Y-54818256D01*
X28265069Y-54813452D01*
X28346118Y-54800615D01*
X28353931Y-54800000D01*
X28353931Y-53950000D01*
X28346118Y-53949385D01*
X28265069Y-53936548D01*
X28250282Y-53931744D01*
X28180674Y-53896277D01*
X28168101Y-53887142D01*
X28112858Y-53831899D01*
X28103723Y-53819326D01*
X28068256Y-53749718D01*
X28063452Y-53734931D01*
X28050615Y-53653882D01*
X28050000Y-53646069D01*
X28050000Y-53416018D01*
X28051566Y-53411253D01*
X28066013Y-53403953D01*
X28066013Y-53099995D01*
X28061248Y-53098429D01*
X28050000Y-53076167D01*
X28050000Y-52853931D01*
X28050615Y-52846118D01*
X28063452Y-52765069D01*
X28068256Y-52750282D01*
X28103723Y-52680674D01*
X28112858Y-52668101D01*
X28168101Y-52612858D01*
X28180674Y-52603723D01*
X28250282Y-52568256D01*
X28265069Y-52563452D01*
X28346118Y-52550615D01*
X28353931Y-52550000D01*
X28353931Y-50700000D01*
X28346118Y-50699385D01*
X28265069Y-50686548D01*
X28250282Y-50681744D01*
X28180674Y-50646277D01*
X28168101Y-50637142D01*
X28112858Y-50581899D01*
X28103723Y-50569326D01*
X28068256Y-50499718D01*
X28063452Y-50484931D01*
X28050615Y-50403882D01*
X28050000Y-50396069D01*
X28050000Y-50166018D01*
X28051566Y-50161253D01*
X28073828Y-50150005D01*
X28350000Y-50150005D01*
X28350000Y-50400000D01*
X28624995Y-50400000D01*
X28624995Y-50683987D01*
X28623429Y-50688752D01*
X28601167Y-50700000D01*
X28353931Y-50700000D01*
X28353931Y-52550000D01*
X28558982Y-52550000D01*
X28563747Y-52551566D01*
X28574995Y-52573828D01*
X28574995Y-52850000D01*
X28350000Y-52850000D01*
X28350000Y-53099995D01*
X28066013Y-53099995D01*
X28066013Y-53403953D01*
X28073828Y-53400005D01*
X28350000Y-53400005D01*
X28350000Y-53650000D01*
X28574995Y-53650000D01*
X28574995Y-53933987D01*
X28573429Y-53938752D01*
X28551167Y-53950000D01*
X28353931Y-53950000D01*
X28353931Y-54800000D01*
X28558982Y-54800000D01*
X28563747Y-54801566D01*
X28574995Y-54823828D01*
X28574995Y-55100000D01*
X28350000Y-55100000D01*
X28350000Y-55349995D01*
X28066013Y-55349995D01*
X28066013Y-55653953D01*
X28073828Y-55650005D01*
X28350000Y-55650005D01*
X28350000Y-55900000D01*
X29100000Y-55900000D01*
X29100000Y-55100000D01*
X28875005Y-55100000D01*
X28875005Y-54816013D01*
X28876571Y-54811248D01*
X28898833Y-54800000D01*
X29096069Y-54800000D01*
X29103882Y-54800615D01*
X29184931Y-54813452D01*
X29199718Y-54818256D01*
X29269326Y-54853723D01*
X29281899Y-54862858D01*
X29329291Y-54910250D01*
X29385030Y-54938412D01*
X29446608Y-54928014D01*
X29490009Y-54883110D01*
X29500000Y-54839540D01*
X29500000Y-53910460D01*
X29480500Y-53851133D01*
X29429605Y-53814944D01*
X29367164Y-53816006D01*
X29329291Y-53839750D01*
X29281899Y-53887142D01*
X29269326Y-53896277D01*
X29199718Y-53931744D01*
X29184931Y-53936548D01*
X29103882Y-53949385D01*
X29096069Y-53950000D01*
X28891018Y-53950000D01*
X28886253Y-53948434D01*
X28875005Y-53926172D01*
X28875005Y-53650000D01*
X29100000Y-53650000D01*
X29100000Y-52850000D01*
X28875005Y-52850000D01*
X28875005Y-52566013D01*
X28876571Y-52561248D01*
X28898833Y-52550000D01*
X29096069Y-52550000D01*
X29103882Y-52550615D01*
X29184931Y-52563452D01*
X29199718Y-52568256D01*
X29269326Y-52603723D01*
X29281899Y-52612858D01*
X29337142Y-52668101D01*
X29346277Y-52680674D01*
X29381744Y-52750282D01*
X29386548Y-52765069D01*
X29399385Y-52846118D01*
X29400000Y-52853931D01*
X29400000Y-52900002D01*
X29419500Y-52959329D01*
X29470395Y-52995518D01*
X29500000Y-52995014D01*
X29500000Y-53000000D01*
X29500001Y-53000000D01*
X29515997Y-52994742D01*
X29532836Y-52994456D01*
X29550433Y-52983424D01*
X29559328Y-52980500D01*
X29561290Y-52976617D01*
X29570709Y-52970712D01*
X29570710Y-52970711D01*
X29566434Y-52966435D01*
X29600000Y-52900001D01*
X29600000Y-52853931D01*
X29600615Y-52846118D01*
X29613452Y-52765069D01*
X29618256Y-52750282D01*
X29653723Y-52680674D01*
X29662858Y-52668101D01*
X29718101Y-52612858D01*
X29730674Y-52603723D01*
X29800282Y-52568256D01*
X29815069Y-52563452D01*
X29896118Y-52550615D01*
X29903931Y-52550000D01*
X30646069Y-52550000D01*
X30653882Y-52550615D01*
X30734931Y-52563452D01*
X30749718Y-52568256D01*
X30819326Y-52603723D01*
X30831899Y-52612858D01*
X30887142Y-52668101D01*
X30896277Y-52680674D01*
X30931744Y-52750282D01*
X30936549Y-52765071D01*
X30936639Y-52765640D01*
X30936897Y-52766142D01*
X30938980Y-52772553D01*
X30940017Y-52772216D01*
X30965177Y-52821188D01*
X31035407Y-52850000D01*
X32116289Y-52850000D01*
X32147911Y-52844868D01*
X32147914Y-52844867D01*
X32198031Y-52807607D01*
X32200000Y-52801159D01*
X32200000Y-52812500D01*
X32218306Y-52856694D01*
X32262500Y-52875000D01*
X32737500Y-52875000D01*
X32781694Y-52856694D01*
X32800000Y-52812500D01*
X32800000Y-52687500D01*
X32781694Y-52643306D01*
X32737500Y-52625000D01*
X32262500Y-52625000D01*
X32218306Y-52643306D01*
X32200000Y-52687500D01*
X32200000Y-52701709D01*
X32195515Y-52688980D01*
X32147191Y-52654894D01*
X32143464Y-52653683D01*
X32059485Y-52610894D01*
X32014087Y-52599995D01*
X31929872Y-52599995D01*
X31916982Y-52595758D01*
X31916077Y-52594484D01*
X31915657Y-52588645D01*
X31916511Y-52583251D01*
X31921314Y-52568471D01*
X31933070Y-52545398D01*
X31933070Y-52454602D01*
X31921315Y-52431532D01*
X31916511Y-52416745D01*
X31900615Y-52316382D01*
X31900000Y-52308569D01*
X31900000Y-52191431D01*
X31900615Y-52183618D01*
X31916511Y-52083252D01*
X31921314Y-52068471D01*
X31965659Y-51981438D01*
X31974795Y-51968864D01*
X32043864Y-51899795D01*
X32056438Y-51890659D01*
X32143471Y-51846314D01*
X32158252Y-51841511D01*
X32258618Y-51825615D01*
X32266431Y-51825000D01*
X32447185Y-51825000D01*
X32506512Y-51805500D01*
X32542701Y-51754605D01*
X32541639Y-51692164D01*
X32517895Y-51654291D01*
X31342893Y-50479289D01*
X31272183Y-50450000D01*
X31018356Y-50450000D01*
X30959029Y-50469500D01*
X30929256Y-50504600D01*
X30896275Y-50569328D01*
X30887142Y-50581899D01*
X30831899Y-50637142D01*
X30819326Y-50646277D01*
X30749718Y-50681744D01*
X30734931Y-50686548D01*
X30653882Y-50699385D01*
X30646069Y-50700000D01*
X29803931Y-50700000D01*
X29796118Y-50699385D01*
X29715069Y-50686548D01*
X29700282Y-50681744D01*
X29630674Y-50646277D01*
X29618101Y-50637142D01*
X29570710Y-50589751D01*
X29514971Y-50561589D01*
X29429290Y-50589751D01*
X29381899Y-50637142D01*
X29369326Y-50646277D01*
X29299718Y-50681744D01*
X29284931Y-50686548D01*
X29203882Y-50699385D01*
X29196069Y-50700000D01*
X28941018Y-50700000D01*
X28936253Y-50698434D01*
X28925005Y-50676172D01*
X28925005Y-50400000D01*
X29200000Y-50400000D01*
X29200000Y-49600000D01*
X28350000Y-49600000D01*
X28350000Y-49849995D01*
X28066013Y-49849995D01*
X28061248Y-49848429D01*
X28050000Y-49826167D01*
X28050000Y-49603931D01*
X28050615Y-49596118D01*
X28063452Y-49515069D01*
X28068256Y-49500282D01*
X28103723Y-49430674D01*
X28117486Y-49411731D01*
X28115511Y-49410296D01*
X28138412Y-49364970D01*
X28128014Y-49303392D01*
X28083110Y-49259991D01*
X28039540Y-49250000D01*
X23099999Y-49250000D01*
X23040672Y-49269500D01*
X23000000Y-49349999D01*
X23000000Y-56150001D01*
G37*
G04 #@! TO.N,BOOT*
G36*
X34825000Y-51650001D02*
X34844500Y-51709328D01*
X34924999Y-51750000D01*
X37900001Y-51750000D01*
X37959328Y-51730500D01*
X38000000Y-51650001D01*
X38000000Y-49599999D01*
X37980500Y-49540672D01*
X37900001Y-49500000D01*
X37599999Y-49500000D01*
X37540672Y-49519500D01*
X37500000Y-49599999D01*
X37500000Y-51233987D01*
X37498434Y-51238752D01*
X37476172Y-51250000D01*
X34924999Y-51250000D01*
X34865672Y-51269500D01*
X34825000Y-51349999D01*
X34825000Y-51650001D01*
G37*
G04 #@! TO.N,SW*
G36*
X32500000Y-49226393D02*
X32510557Y-49271114D01*
X32749199Y-49748398D01*
X32750852Y-49751562D01*
X34243992Y-52488986D01*
X34249363Y-52510048D01*
X34257161Y-52530739D01*
X34276851Y-52569383D01*
X34281654Y-52584164D01*
X34299385Y-52696118D01*
X34300000Y-52703931D01*
X34300000Y-52900001D01*
X34319500Y-52959328D01*
X34399999Y-53000000D01*
X34400001Y-53000000D01*
X34459328Y-52980500D01*
X34500000Y-52900001D01*
X34500000Y-52703281D01*
X34500429Y-52696744D01*
X34509795Y-52625599D01*
X34511067Y-52619203D01*
X34521923Y-52578687D01*
X34526896Y-52566681D01*
X34597988Y-52443544D01*
X34605900Y-52433233D01*
X34633233Y-52405900D01*
X34637921Y-52402303D01*
X34673672Y-52348732D01*
X34721589Y-52169041D01*
X34718033Y-52106692D01*
X34670364Y-52054175D01*
X34631440Y-52034342D01*
X34618864Y-52025205D01*
X34549795Y-51956136D01*
X34540659Y-51943562D01*
X34496314Y-51856529D01*
X34491511Y-51841748D01*
X34475615Y-51741382D01*
X34475000Y-51733569D01*
X34475000Y-51266431D01*
X34475615Y-51258618D01*
X34491511Y-51158252D01*
X34496314Y-51143471D01*
X34540659Y-51056438D01*
X34549795Y-51043864D01*
X34618864Y-50974795D01*
X34631438Y-50965659D01*
X34718471Y-50921314D01*
X34733252Y-50916511D01*
X34833618Y-50900615D01*
X34841431Y-50900000D01*
X34958569Y-50900000D01*
X34966386Y-50900615D01*
X34967017Y-50900715D01*
X34967226Y-50900681D01*
X34970299Y-50900923D01*
X34970358Y-50900174D01*
X35028664Y-50890732D01*
X35079277Y-50827712D01*
X35496624Y-49262660D01*
X35500000Y-49236894D01*
X35500000Y-47349999D01*
X35480500Y-47290672D01*
X35400001Y-47250000D01*
X32599999Y-47250000D01*
X32540672Y-47269500D01*
X32500000Y-47349999D01*
X32500000Y-49226393D01*
G37*
G04 #@! TO.N,GND*
G36*
X40800000Y-56650000D02*
X41650000Y-56650000D01*
X41650000Y-56400005D01*
X41650000Y-56099995D01*
X41650000Y-55850000D01*
X41375005Y-55850000D01*
X41375005Y-55400000D01*
X41650000Y-55400000D01*
X41650000Y-55150005D01*
X41650000Y-54849995D01*
X41650000Y-54600000D01*
X41375005Y-54600000D01*
X41375005Y-54150000D01*
X41650000Y-54150000D01*
X41650000Y-53900005D01*
X41933987Y-53900005D01*
X41938752Y-53901571D01*
X41950000Y-53923833D01*
X41950000Y-54146069D01*
X41949385Y-54153882D01*
X41936548Y-54234931D01*
X41931744Y-54249718D01*
X41892705Y-54326336D01*
X41894920Y-54327465D01*
X41879435Y-54375678D01*
X41894848Y-54422572D01*
X41892705Y-54423664D01*
X41931744Y-54500282D01*
X41936548Y-54515069D01*
X41949385Y-54596118D01*
X41950000Y-54603931D01*
X41950000Y-54833982D01*
X41948434Y-54838747D01*
X41926172Y-54849995D01*
X41650000Y-54849995D01*
X41650000Y-55150005D01*
X41933987Y-55150005D01*
X41938752Y-55151571D01*
X41950000Y-55173833D01*
X41950000Y-55396069D01*
X41949385Y-55403882D01*
X41936548Y-55484931D01*
X41931744Y-55499718D01*
X41892705Y-55576336D01*
X41894920Y-55577465D01*
X41879435Y-55625678D01*
X41894848Y-55672572D01*
X41892705Y-55673664D01*
X41931744Y-55750282D01*
X41936548Y-55765069D01*
X41949385Y-55846118D01*
X41950000Y-55853931D01*
X41950000Y-56083982D01*
X41948434Y-56088747D01*
X41926172Y-56099995D01*
X41650000Y-56099995D01*
X41650000Y-56400005D01*
X41933987Y-56400005D01*
X41938752Y-56401571D01*
X41950000Y-56423833D01*
X41950000Y-56600001D01*
X41969500Y-56659328D01*
X42049999Y-56700000D01*
X44854410Y-56700000D01*
X44913737Y-56680500D01*
X44946797Y-56638269D01*
X44970910Y-56580055D01*
X44977410Y-56568796D01*
X44979337Y-56566285D01*
X44980018Y-56564280D01*
X44980685Y-56563124D01*
X44980455Y-56562991D01*
X45000000Y-56505412D01*
X45000000Y-54516013D01*
X45001566Y-54511248D01*
X45023828Y-54500000D01*
X45451281Y-54500000D01*
X45451281Y-53600000D01*
X45444744Y-53599571D01*
X45312667Y-53582183D01*
X45300111Y-53578819D01*
X45180055Y-53529090D01*
X45168800Y-53522592D01*
X45065705Y-53443485D01*
X45056515Y-53434295D01*
X44977408Y-53331200D01*
X44970910Y-53319945D01*
X44921181Y-53199889D01*
X44917817Y-53187333D01*
X44900429Y-53055256D01*
X44900000Y-53048719D01*
X44900000Y-52566018D01*
X44901566Y-52561253D01*
X44916013Y-52553953D01*
X44916013Y-52249995D01*
X44911248Y-52248429D01*
X44900000Y-52226167D01*
X44900000Y-51751281D01*
X44900429Y-51744744D01*
X44917817Y-51612667D01*
X44921181Y-51600111D01*
X44970910Y-51480055D01*
X44977408Y-51468800D01*
X45056515Y-51365705D01*
X45065705Y-51356515D01*
X45168800Y-51277408D01*
X45180055Y-51270910D01*
X45300111Y-51221181D01*
X45312667Y-51217817D01*
X45444744Y-51200429D01*
X45451281Y-51200000D01*
X45833982Y-51200000D01*
X45838747Y-51201566D01*
X45849995Y-51223828D01*
X45849995Y-51500000D01*
X45448000Y-51500000D01*
X45353095Y-51518878D01*
X45272638Y-51572638D01*
X45218878Y-51653095D01*
X45200000Y-51748000D01*
X45200000Y-52249995D01*
X44916013Y-52249995D01*
X44916013Y-52553953D01*
X44923828Y-52550005D01*
X45200000Y-52550005D01*
X45200000Y-53052000D01*
X45218878Y-53146905D01*
X45272638Y-53227362D01*
X45353095Y-53281122D01*
X45448000Y-53300000D01*
X45849995Y-53300000D01*
X45849995Y-53583987D01*
X45848429Y-53588752D01*
X45826167Y-53600000D01*
X45451281Y-53600000D01*
X45451281Y-54500000D01*
X46900001Y-54500000D01*
X46959328Y-54480500D01*
X47000000Y-54400001D01*
X47000000Y-53595845D01*
X46980500Y-53536518D01*
X46929605Y-53500329D01*
X46867164Y-53501391D01*
X46839125Y-53516511D01*
X46831201Y-53522592D01*
X46819945Y-53529090D01*
X46699889Y-53578819D01*
X46687333Y-53582183D01*
X46555256Y-53599571D01*
X46548719Y-53600000D01*
X46166018Y-53600000D01*
X46161253Y-53598434D01*
X46150005Y-53576172D01*
X46150005Y-53300000D01*
X46552000Y-53300000D01*
X46646905Y-53281122D01*
X46727362Y-53227362D01*
X46781122Y-53146905D01*
X46800000Y-53052000D01*
X46800000Y-51748000D01*
X46781122Y-51653095D01*
X46727362Y-51572638D01*
X46646905Y-51518878D01*
X46552000Y-51500000D01*
X46150005Y-51500000D01*
X46150005Y-51216013D01*
X46151571Y-51211248D01*
X46173833Y-51200000D01*
X46548719Y-51200000D01*
X46555256Y-51200429D01*
X46687333Y-51217817D01*
X46699889Y-51221181D01*
X46819945Y-51270910D01*
X46831201Y-51277408D01*
X46839125Y-51283489D01*
X46898063Y-51304135D01*
X46957757Y-51285788D01*
X46994926Y-51235604D01*
X47000000Y-51204155D01*
X47000000Y-50349999D01*
X46980500Y-50290672D01*
X46900001Y-50250000D01*
X43599999Y-50250000D01*
X43540672Y-50269500D01*
X43500000Y-50349999D01*
X43500000Y-53233987D01*
X43498434Y-53238752D01*
X43476172Y-53250000D01*
X42049999Y-53250000D01*
X41990672Y-53269500D01*
X41950000Y-53349999D01*
X41950000Y-53583982D01*
X41948434Y-53588747D01*
X41926172Y-53599995D01*
X41650000Y-53599995D01*
X41650000Y-53350000D01*
X40800000Y-53350000D01*
X40800000Y-54150000D01*
X41074995Y-54150000D01*
X41074995Y-54600000D01*
X40800000Y-54600000D01*
X40800000Y-55400000D01*
X41074995Y-55400000D01*
X41074995Y-55850000D01*
X40800000Y-55850000D01*
X40800000Y-56650000D01*
G37*
G36*
X20500000Y-45650001D02*
X20519500Y-45709328D01*
X20599999Y-45750000D01*
X25400001Y-45750000D01*
X25459328Y-45730500D01*
X25500000Y-45650001D01*
X25500000Y-44849999D01*
X25480500Y-44790672D01*
X25400001Y-44750000D01*
X20599999Y-44750000D01*
X20540672Y-44769500D01*
X20500000Y-44849999D01*
X20500000Y-45650001D01*
G37*
G36*
X18000000Y-41650001D02*
X18019500Y-41709328D01*
X18099999Y-41750000D01*
X25400001Y-41750000D01*
X25459328Y-41730500D01*
X25500000Y-41650001D01*
X25500000Y-40849999D01*
X25480500Y-40790672D01*
X25400001Y-40750000D01*
X18099999Y-40750000D01*
X18040672Y-40769500D01*
X18000000Y-40849999D01*
X18000000Y-41650001D01*
G37*
G04 --- BOARD END --- *
G04 #@! TF.MD5,8ef3975cfcbe9ed6af3a8fdcea66f8f5*
M02*
